<svg width="1024" height="1024" viewBox="0 0 1024 1024" fill="none" xmlns="http://www.w3.org/2000/svg">
<path d="M300.579 700.961C300.699 700.831 300.829 700.701 300.959 700.581C301.749 699.981 302.599 699.44 303.319 698.76C318.509 684.29 336.339 674.601 356.749 669.951C376.859 665.371 397.049 661.12 417.259 656.99C428.609 654.67 440.069 652.89 452.259 650.73C451.899 655.83 451.409 660.09 451.319 664.37C451.049 677.37 446.629 676.22 437.839 678.43C430.119 680.38 422.029 681.191 417.129 688.771C416.489 689.771 415.049 690.501 413.839 690.841C406.909 692.801 399.919 694.59 392.969 696.48C384.159 698.89 375.319 701.2 366.599 703.92C365.119 704.38 363.399 706.6 363.189 708.19C362.489 713.63 362.089 719.151 362.169 724.641C362.269 731.261 361.749 737.24 354.419 740C353.689 740.27 353.129 741.04 352.539 741.62C345.739 748.33 346.449 754.601 354.609 759.451C356.319 760.471 358.149 761.311 359.989 762.081C388.759 774.011 419.179 778.801 449.839 781.841C479.659 784.791 509.589 786.6 539.499 788.5C572.549 790.6 605.419 788.65 638.019 782.74C645.119 781.45 651.959 779.261 657.269 773.961C664.089 767.151 663.969 758.85 655.999 754.23C640.069 744.99 625.019 734.011 607.279 728.091C605.949 727.651 604.479 725.501 604.349 724.031C603.909 719.061 604.069 714.04 603.959 709.05C603.879 705.23 605.109 700.37 603.229 697.88C601.429 695.48 596.379 695.52 592.749 694.51C590.829 693.98 588.889 693.52 586.959 692.99C575.779 689.94 564.649 686.681 553.399 683.961C550.079 683.161 550.209 681.331 550.109 678.961C549.989 675.991 550.089 672.951 549.439 670.091C548.779 667.211 547.309 664.511 545.879 660.951C548.469 661.091 549.459 661.001 550.389 661.211C584.289 668.861 618.309 675.8 651.669 685.85C683.459 695.42 713.469 708.501 741.719 725.771C745.819 728.281 749.879 731.001 753.449 734.201C766.369 745.751 767.179 759.881 754.019 771.151C745.579 778.381 735.529 784.401 725.239 788.651C692.079 802.361 657.929 812.23 621.809 815.41C591.479 818.08 561.309 819.001 531.029 816.141C506.159 813.791 481.329 810.99 456.439 808.97C422.169 806.2 388.339 800.87 354.889 793.06C330.139 787.28 309.599 773.931 291.539 756.711C279.349 745.091 278.279 731.981 287.449 717.901C291.329 711.931 296.179 706.6 300.599 700.97L300.579 700.961ZM677.569 790.66C670.709 792.31 662.609 794.25 654.499 796.19C671.079 794.7 673.519 794.02 677.569 790.66Z" fill="white"/>
<path d="M300.58 700.96C296.17 706.58 291.32 711.92 287.43 717.89C278.26 731.98 279.33 745.08 291.52 756.7C309.58 773.92 330.13 787.27 354.87 793.05C388.33 800.86 422.16 806.19 456.42 808.96C481.31 810.97 506.15 813.77 531.01 816.13C561.29 819 591.46 818.07 621.79 815.4C657.91 812.22 692.07 802.35 725.22 788.64C735.51 784.39 745.56 778.36 754 771.14C767.16 759.86 766.36 745.73 753.43 734.19C749.86 731 745.8 728.27 741.7 725.76C713.44 708.5 683.44 695.42 651.65 685.84C618.29 675.79 584.26 668.85 550.37 661.2C549.44 660.99 548.45 661.08 545.86 660.94C547.29 664.5 548.76 667.2 549.42 670.08C550.08 672.94 549.97 675.98 550.09 678.95C550.18 681.31 550.06 683.14 553.38 683.95C564.64 686.67 575.76 689.93 586.94 692.98C588.86 693.5 590.81 693.96 592.73 694.5C596.36 695.51 601.4 695.48 603.21 697.87C605.09 700.37 603.86 705.22 603.94 709.04C604.05 714.04 603.89 719.06 604.33 724.02C604.46 725.49 605.94 727.64 607.26 728.08C625.01 734.01 640.05 744.98 655.98 754.22C663.95 758.84 664.07 767.14 657.25 773.95C651.94 779.25 645.1 781.44 638 782.73C605.4 788.64 572.53 790.59 539.48 788.49C509.57 786.59 479.63 784.78 449.82 781.83C419.17 778.8 388.74 774 359.97 762.07C358.13 761.31 356.3 760.46 354.59 759.44C346.43 754.59 345.72 748.32 352.52 741.61C353.11 741.03 353.67 740.26 354.4 739.99C361.73 737.22 362.25 731.25 362.15 724.63C362.07 719.15 362.46 713.62 363.17 708.18C363.38 706.59 365.09 704.38 366.58 703.91C375.29 701.19 384.14 698.88 392.95 696.47C399.9 694.57 406.89 692.79 413.82 690.83C415.03 690.49 416.46 689.75 417.11 688.76C422.01 681.18 430.1 680.36 437.82 678.42C446.6 676.21 451.02 677.36 451.3 664.36C451.39 660.09 451.88 655.83 452.24 650.72C440.06 652.88 428.59 654.66 417.24 656.98C397.03 661.11 376.84 665.36 356.73 669.94C336.32 674.59 318.49 684.28 303.3 698.75C302.59 699.43 301.73 699.96 300.94 700.57C301.93 699.15 302.72 697.52 303.95 696.36C321.55 679.65 343.02 670.83 366.4 666.06C394.71 660.27 423.05 654.59 451.84 648.78C452.17 646.51 452.92 644.15 449.24 641.94C447.63 640.97 447.82 636.48 447.85 633.6C447.86 632.52 449.57 630.96 450.83 630.49C458.14 627.72 458.06 627.83 456.48 620.21C456.26 619.16 457.84 617.73 458.58 616.48C456.58 621.09 460.65 620.63 462.75 620.94C473.28 622.5 483.85 623.74 494.41 625.1C497.11 625.45 499.81 625.78 502.51 626.12C502.68 625.55 502.85 624.99 503.02 624.42C500.9 623.65 498.83 622.48 496.64 622.17C488.08 620.95 479.47 620.11 470.91 618.92C466.75 618.34 462.64 617.33 458.51 616.52C458.18 611.06 460.94 608.65 466.11 607.19C478.44 603.71 479.88 590.23 477.22 579.85C474.85 570.58 475.35 561.59 475.55 552.26C475.78 541.45 476.47 530.36 472.16 519.77C470.96 516.82 471.82 512.66 472.73 509.32C473.91 504.95 476.08 500.85 477.79 496.73C468.83 491.95 467.17 485.91 474.05 479.23C479.8 473.64 476.7 468.07 476.9 462.38C476.9 462.22 476.9 461.95 476.8 461.91C469.06 458.21 472.65 451.84 472.84 446.09C472.99 441.56 472.88 436.98 468.03 433.95C466.55 433.02 465.76 429.66 465.99 427.57C466.77 420.7 468.24 413.92 469.29 407.08C469.64 404.8 469.89 402.38 469.53 400.13C468.79 395.55 466.73 391.04 466.77 386.52C466.87 375.93 461.93 366.42 461.17 356.12C460.84 351.65 461.53 347.1 461.77 342.39C464.41 342.18 466.3 342.03 469.47 341.78C460.177 340.087 455.813 336.134 456.38 329.92C458.87 329.81 461.38 329.7 464.78 329.55C461 326.11 458.3 322.97 461.1 318.75C463.4 315.28 466.71 313.99 472.09 316.61C469.52 317.01 468 316.89 466.9 317.5C465.07 318.53 463.46 319.99 461.92 321.44C461.81 321.55 463.29 323.89 463.59 323.8C466.08 323.02 469.35 322.56 470.67 320.75C472.6 318.09 473.08 314.38 474.28 311.16C474.46 310.68 475.19 310.41 476.63 310.53C474.3 316.71 471.96 322.89 469.31 329.92C471.91 329.64 473.62 329.46 475.67 329.24C476.47 333.52 479.23 337.88 472.29 340.42C470.94 340.91 470.02 346.43 471.01 348.74C473.44 354.41 475.29 359.81 473.85 366.08C473.49 367.67 474.52 369.59 474.98 371.34C477.16 379.68 479.51 387.98 481.48 396.38C482.7 401.58 485.49 403.98 490.14 402.77C491.12 402.51 492.48 401.68 492.66 400.89C492.84 400.06 492.05 398.63 491.26 398.04C488.34 395.89 485.25 393.97 481.04 391.19C488.9 391.67 492.88 400.68 500.88 396.61C500.11 392.5 499.37 388.52 498.63 384.54C499.05 384.44 499.47 384.33 499.89 384.23C500.68 387.19 501.3 390.21 502.35 393.08C502.89 394.57 503.94 396.55 505.2 396.95C507.59 397.72 510.25 398.21 512.21 395.17C514.26 392 516.99 389.27 520.35 386.98C518.39 389.89 516.36 392.75 514.52 395.73C513.73 397.01 513.34 398.54 512.76 399.96C514.74 400.25 516.9 401.18 518.68 400.7C522.72 399.6 526.57 397.81 530.96 397.36C527.74 398.97 524.37 400.34 521.38 402.29C519.87 403.27 519.05 405.3 517.92 406.86C519.47 407.68 520.94 408.91 522.58 409.22C526.04 409.89 529.6 410.07 533.01 411.35C529.42 411.35 525.81 411.49 522.23 411.31C519.27 411.15 517.73 412.15 518.09 415.24C518.39 417.85 518.82 420.44 519.14 423.05C519.31 424.47 520.02 426.45 519.36 427.22C516.49 430.58 517.66 432.51 520.77 434.87C527.88 440.25 528.63 448.67 530.35 456.56C530.4 456.81 529.54 457.25 530.07 456.82C532.37 459.64 534.38 462.12 536.7 464.97C537.23 464.15 538.24 462.78 539.05 461.31C540.58 458.52 542.17 457.99 544.07 460.95L543.8 461.26C542.52 461.95 540.75 462.32 540.05 463.4C536.7 468.55 534.32 473.9 534.29 480.44C534.25 489.26 531.67 498.09 534.65 507.32C535.62 506.7 536.53 506.44 536.89 505.84C539.65 501.3 542.41 496.75 544.87 492.05C545.3 491.22 544.63 489.49 543.99 488.48C539.77 481.79 540.01 480.47 546.57 476.03V475.94C548.6 478.47 550.65 481 552.7 483.53L554.95 483.25C553.27 486.1 552.24 489.98 549.75 491.57C546.04 493.93 545 497.23 543.63 500.73C542.19 504.43 540.6 508.06 538.92 512.1C537.21 511.3 535.98 510.73 534.32 509.95C534.23 510.92 534.03 511.67 534.11 512.39C535.19 522.31 536.33 532.23 537.38 542.16C537.68 545.01 538.87 547.95 535.76 550.41C534.96 551.04 535.58 553.51 535.61 555.13C535.68 559 538.42 562.95 535.12 566.8C534.78 567.2 536.04 568.96 535.55 569.76C534.96 571.83 533.97 573.89 533.9 575.98C533.83 578.26 534.93 580.57 534.92 582.86C534.92 584.68 534.05 586.52 533.47 588.32C533.28 588.92 532.41 589.51 532.5 589.95C533.97 596.63 532.56 604.02 537.55 609.87C539.33 611.95 540.56 614.49 541.6 616.12C541.18 619.93 540.84 623.11 540.42 626.94C542.84 626.94 544.55 626.58 546.01 627.03C548.14 627.68 551.45 628.54 551.83 629.97C552.64 632.96 553.84 637.09 548.74 638.49C547.79 638.75 546.4 639.96 546.41 640.71C546.53 646.51 546.77 652.32 547.44 658.08C547.54 658.91 550.01 659.8 551.49 660.1C598.02 669.44 644.23 680.07 688.66 697.06C711.09 705.63 731.96 717.47 751.83 730.98C754.01 732.46 755.98 734.35 757.74 736.33C766.68 746.35 767.71 757.17 759.19 767.49C754.34 773.37 747.88 778.28 741.34 782.32C725.5 792.11 707.51 796.93 690.08 802.98C666.81 811.06 642.68 814.41 618.32 817.23C579.97 821.67 541.84 819.11 503.7 815.22C474.06 812.2 444.34 809.76 414.83 805.8C389.65 802.42 364.41 798.49 340.27 790.01C321.74 783.5 305.98 772.27 291.77 759.05C277.23 745.53 276.07 730.98 287.66 714.91C291.34 709.81 296.24 705.6 300.58 700.99V700.96ZM472.76 630.28C473.67 632.18 474.58 634.07 475.7 636.39C478.62 630.37 479.31 630.22 484.03 633.89C483.74 631.8 483.5 628.56 482.29 628.13C480.19 627.4 477.46 628.3 475.05 628.77C474.17 628.94 473.44 629.85 472.64 630.42C473.18 628.61 474.55 626.49 471.18 626.01C467.45 625.48 463.71 625.02 458.61 624.35C459.5 627.02 459.92 630.17 460.68 630.26C464.66 630.7 468.72 630.36 472.77 630.26L472.76 630.28ZM461.9 674.59C462.82 672.5 464.33 670.46 464.55 668.3C464.98 664.05 464.78 659.72 464.68 655.43C464.65 653.93 464.15 652.44 463.87 650.95C463.22 651.09 462.58 651.23 461.93 651.37V674.61C458.72 674.46 455.52 674.31 452.31 674.16C452.28 674.51 452.24 674.87 452.21 675.22C465.36 677.38 478.51 679.54 491.65 681.7C491.95 681.02 492.24 680.34 492.54 679.66C491.13 678.8 489.81 677.45 488.3 677.18C483.45 676.31 478.53 675.74 473.62 675.26C469.73 674.88 465.8 674.81 461.91 674.6L461.9 674.59ZM492.91 464.07C492.07 465.43 491.25 466.8 490.39 468.14C486.72 473.87 483.03 479.6 479.35 485.33C479.84 485.63 480.32 485.93 480.81 486.23C486.12 478.13 491.43 470.04 496.74 461.94C496.53 461.8 496.31 461.67 496.1 461.53C494.97 462.43 493.85 463.34 492.72 464.24C493.34 462.75 493.96 461.27 494.58 459.78C489.79 463.25 485.64 467.13 482.1 471.51C478.38 476.12 475.05 481.08 471.97 486.15C471.13 487.53 471.84 489.85 471.84 491.57C479.13 482.05 486.01 473.06 492.9 464.06L492.91 464.07ZM532.77 646.81C526.91 648.37 521.04 649.92 514.9 651.55C515.64 661.01 516.34 669.91 517.03 678.77C525.23 678.53 528.76 676.55 528.4 672.68C525.31 673.57 522.26 674.45 519.75 675.18V655.88L518.09 655.85V671.47C517.11 666.95 517.47 662.46 517.01 658.05C516.58 653.89 518.11 652.01 521.97 650.91C525.64 649.86 529.11 648.14 532.69 646.73C536.51 646.63 537.2 648.71 537.03 652.13C536.74 657.69 536.95 663.28 536.95 668.86C537.37 668.86 537.79 668.86 538.21 668.85V645.27C536.44 645.77 534.61 646.29 532.78 646.81H532.77ZM482.91 653C483.19 660.29 481.87 667.69 484.57 674.86C485.71 668.25 485.8 661.67 485.58 655.1C485.56 654.42 483.72 653.8 482.73 653.16C486.01 652.98 489.3 652.81 493.01 652.61V676.39C493.48 676.41 493.94 676.43 494.41 676.45C495.02 668.32 495.64 660.19 496.25 652.12C499.47 652.55 501.22 652.79 502.97 653.02C503 652.79 503.02 652.56 503.05 652.33C486.81 650.34 470.58 648.35 454.34 646.36C454.2 646.85 454.05 647.34 453.91 647.83C454.74 648.26 455.53 648.99 456.39 649.07C463.47 649.73 470.58 650.14 477.65 650.91C479.46 651.11 481.16 652.28 482.92 653.01L482.91 653ZM371.43 706.71C370.33 707.13 369.22 707.55 368.12 707.97C368.11 708.38 368.1 708.79 368.08 709.21L382.52 714.17C383.75 715.13 384.83 716.44 386.22 716.99C395.01 720.48 404.75 722.45 412.47 727.52C421.93 733.73 431.63 732.71 441.62 732.87C465.2 733.26 488.82 732.99 512.34 734.32C525.02 735.04 537.04 734.32 548.99 730.12C554.44 728.21 560.21 727.23 565.83 725.82L566.1 726.11C563.69 727.08 561.34 728.26 558.86 728.97C549.97 731.51 541.03 733.9 532.35 736.27V787.45C538.42 787.45 544.07 787.25 549.71 787.48C579.8 788.74 609.65 786.6 639.19 780.83C644.58 779.78 650.11 777.44 654.61 774.31C663.19 768.36 662.57 759.7 653.7 754.3C645.46 749.28 636.99 744.64 628.69 739.72C619.99 734.56 611.06 730.05 602.03 728.5C600.53 732.05 599.24 735.12 597.94 738.19C600.93 727.36 599.63 725.58 589.83 727.13C589.56 727.17 589.33 727.54 589.34 727.54V742.04C592.55 740.57 595.34 739.29 598.12 738.02C595.1 740.59 592.42 743.85 587.64 743.46C587.64 740.43 587.49 737.66 587.67 734.92C587.96 730.43 586.7 727.2 582.42 724.81C579.74 723.31 577.94 720.25 575.75 717.89C577.37 719.17 579.06 720.36 580.58 721.75C584.41 725.24 588.61 727.11 594.93 725.15C588.24 721.28 582.34 717.87 575.9 714.14V718.04C574.04 717.88 570.72 717.18 570.55 717.64C568.73 722.58 564.25 722.86 560.29 723.97C552.33 726.22 544.08 727.71 536.45 730.75C532.08 732.49 527.87 732.19 523.76 732.14C513.31 732.01 502.87 730.43 492.42 730.31C472.27 730.06 452.11 730.42 431.96 730.5C431.48 730.5 431 730.12 430.22 729.79C430.96 729.38 431.22 729.12 431.48 729.12C456.97 729.03 482.46 728.95 507.94 728.93C509.01 728.93 510.08 729.54 511.16 729.84C518.38 729.24 525.67 729.07 532.8 727.9C537.65 727.1 542.28 724.96 546.97 723.33C555.87 720.25 564.75 717.1 573.65 713.99C574.26 713.78 574.88 713.47 575.5 713.42C584.6 712.72 590.15 706.02 596.65 700.93C596.81 700.8 596.71 700.34 596.8 698.84C584.77 696.22 572.55 693.5 560.3 690.97C558.98 690.7 556.19 691.53 556.18 691.91C556.12 693.92 556.55 696.01 557.2 697.94C557.43 698.63 558.76 698.94 559.98 699.65C554.6 699.87 553.51 703.29 552.6 707.28C552.11 709.44 551.05 712.08 549.37 713.26C539.04 720.49 528.68 727.81 515.39 728.56C513.96 728.64 512.57 729.42 511.16 729.87C509.81 729.25 508.48 728.14 507.12 728.1C489.14 727.58 471.16 727.24 453.18 726.8C449.1 726.7 445.02 726.41 440.94 726.2C443.89 725.12 446.82 725.04 449.73 725.14C468.87 725.78 488.01 726.64 507.16 727.01C513.24 727.13 519.82 727.22 525.31 725.09C533.28 722 540.49 716.93 547.98 712.61C551.77 710.42 552.29 707.17 550.78 703.24C546.83 704.58 543.19 705.83 539.54 707.07C539.46 706.8 539.39 706.54 539.31 706.27C540.8 705.41 542.29 704.55 543.6 703.79C542.17 701.79 540.93 700.06 540 698.76C538.95 700.7 537.97 702.51 536.99 704.31C536.67 704.11 536.36 703.9 536.04 703.7V699.5C533.95 701.64 532.92 703.99 531.61 706.16C529.87 709.03 528.04 711.86 525.99 714.51C524.74 716.12 523.23 718.01 521.43 718.63C509.15 722.94 496.79 720.68 484.47 718.52C484.21 718.47 484.04 717.88 483.75 717.43C491.29 718.27 498.59 719.09 505.87 719.9V707.73C490.25 705.33 475.04 703 459.7 700.65C459.2 702.53 458.8 704.04 458.28 706.01C453.39 705.49 448.72 704.99 444 704.48C444.66 708.61 454.62 712.97 466.65 714.72C468.19 711.49 464.81 706.1 470.67 704.75C475.31 703.68 478.97 706.52 481.36 709.55C482.62 711.15 481.02 715 480.71 717.84C480.31 717.8 479.91 717.75 479.52 717.71L479.09 711.72C478.82 711.73 478.56 711.75 478.29 711.76C478.08 713.37 477.86 714.97 477.65 716.58C477.38 716.54 477.11 716.5 476.84 716.46V709.81C474.86 709.7 473.2 709.62 471.51 709.53C471.35 712.14 471.23 714.07 471.11 716C470.64 715.96 470.16 715.91 469.69 715.87C469.98 712.67 470.27 709.46 470.56 706.26C470.24 706.22 469.93 706.19 469.61 706.15C469.26 709.49 468.9 712.84 468.47 716.95C460.32 714.51 452.51 712.42 444.96 709.64C443.72 709.18 443.19 705.73 443.05 703.61C442.89 701.26 444.25 698.68 443.7 696.51C442.94 693.53 443.21 691.89 445.63 689.67C447.7 687.77 448.42 684.4 449.74 681.68C449.27 681.34 448.79 680.99 448.32 680.65C445.91 681.16 443.48 681.59 441.1 682.19C438.93 682.74 435.73 682.82 434.85 684.25C430.07 692.05 422.99 695.28 414.39 697.07C406.82 698.64 399.53 701.54 392.11 703.85C384.82 701.86 378.09 703.88 371.47 706.72L371.43 706.71ZM484.1 547.91C483.03 548.58 482.02 549.67 480.87 549.86C476.96 550.49 476.88 553.02 477.34 556.91C494.08 546.87 497.26 529.65 502.29 513.55L503.48 514.01C501.38 521.25 499.28 528.49 497.13 535.87C503.77 532.19 506.91 527.06 507.29 519.42C507.83 508.64 509.63 497.93 510.75 487.17C511.59 479.08 512.2 470.97 512.91 462.86C513.25 459.36 513.6 455.86 513.94 452.36C508.49 459.3 502.94 466.04 499.44 473.72C492.5 488.94 486.32 504.54 480.55 520.24C477.31 529.05 475.76 538.42 477.65 548.41C479.89 548.23 481.99 548.06 484.09 547.9L484.1 547.91ZM432.22 761.2C452.33 760.83 469.64 768.72 487.28 775.71C492.4 777.74 498.27 778 503.84 778.69C504.83 778.81 507 777.09 507.02 776.19C507.23 762.58 507.16 748.97 507.16 734.71H432.21V761.19L432.22 761.2ZM521.58 786.13C521.7 785.7 521.82 785.26 521.94 784.83C516.42 783.27 510.94 780.56 505.39 780.41C496.67 780.18 488.45 778.64 480.79 774.85C462.18 765.66 442.47 761.88 421.87 762C420.75 762 419.52 761.84 418.52 761.37C402.94 753.91 387.18 746.78 371.91 738.72C364.93 735.03 360.07 737.1 354.94 741.39C346.87 748.15 347.24 754.84 357 758.87C368.48 763.62 380.32 767.78 392.36 770.84C420.84 778.07 450.01 781.01 479.28 783.01C493.39 783.98 507.48 785.08 521.58 786.12V786.13ZM363.16 733.24C381.66 741.88 399.64 750.28 418.91 759.28C418.91 751.04 418.47 743.72 419.08 736.49C419.43 732.26 417.86 730.57 414.38 729.25C399.35 723.54 384.37 717.69 369.36 711.95C367.93 711.4 366.34 711.24 364.49 710.82C364.02 718.81 363.59 726.08 363.16 733.23V733.24ZM501.26 572.37C509.98 567.56 517.73 563.51 525.18 558.98C526.5 558.18 527.34 555.37 527.21 553.58C525.87 536.02 524.3 518.47 522.75 500.92C522.25 495.28 521.65 489.65 521.08 483.96C519.9 485.89 518.84 487.54 517.86 489.24C514.87 494.45 509.99 498.11 509.74 505.45C509.32 518 506.87 530.49 505.23 543C503.99 552.47 502.67 561.94 501.25 572.36L501.26 572.37ZM530.02 736.7C522.81 736.15 515.77 735.61 508.62 735.07V779.11C515.77 781.49 522.64 783.78 530.02 786.23V736.7ZM505.17 532.8C504.8 532.51 504.43 532.23 504.06 531.94C500.98 535.25 496.31 538.07 495.13 541.95C491.44 554.12 488.82 566.65 486.3 579.14C485.45 583.34 484.78 587.05 479.71 588.65C487.03 590.71 501.41 584.15 505.03 577.41C499.97 576.45 499.64 572.81 500.21 568.72C501.86 556.75 503.52 544.77 505.18 532.8H505.17ZM444.65 693.31C444.48 693.93 444.31 694.55 444.13 695.17C446.82 696.12 449.44 697.49 452.22 697.96C464.17 700.01 476.13 702.1 488.16 703.58C496.79 704.65 505.5 707.42 514.24 704.63C526.88 700.6 539.46 696.36 551.96 691.91C553.47 691.37 554.29 688.91 555.44 687.34C550.75 687.76 547.03 688.62 543.43 689.83C535.24 692.59 527.17 695.67 518.94 698.31C514.74 699.66 510.17 701.58 506.02 701.09C487.55 698.92 469.17 695.94 450.75 693.34C448.76 693.06 446.69 693.3 444.66 693.3L444.65 693.31ZM469.17 350.82C466.28 373.7 468.48 396.67 475.67 419.12C480.42 412.9 482.68 406.69 476.85 399.64C475.57 398.09 475.68 395.26 475.45 392.99C475.13 389.94 475.3 386.84 474.9 383.8C474.04 377.29 471.84 370.73 472.28 364.34C472.66 358.75 471.55 354.45 469.17 350.81V350.82ZM472.93 520.13C473.32 520.14 473.7 520.16 474.09 520.17L484.57 494.52L486.06 495.15C483.75 500.56 481.04 505.85 479.23 511.43C477.42 517.03 476.5 522.91 475.19 528.67C475.32 528.64 475.44 528.61 475.57 528.58C483.34 508.73 491.11 488.89 498.91 468.95C497.93 470 496.93 471.06 495.95 472.14C485.72 483.4 478.92 496.69 473.63 510.77C472.57 513.58 473.12 517 472.92 520.14L472.93 520.13ZM516.25 566.89C515.58 566.7 514.91 566.51 514.24 566.32C513.74 568.75 512.95 571.17 512.79 573.62C512.08 584.89 511.41 596.17 511.01 607.45C510.85 611.9 511.45 612.18 516.25 612.02V566.88V566.89ZM522.99 478.05C522.79 478.14 522.6 478.22 522.4 478.31C524.55 502.13 526.7 525.95 528.86 549.92C537.98 546.05 538.51 542.4 531.41 536.15C530.67 535.5 530.18 534.26 530.07 533.25C528.44 517.87 526.97 502.48 525.27 487.11C524.93 484.05 523.77 481.08 522.99 478.06V478.05ZM492.02 438.47C491.61 438.39 491.21 438.32 490.8 438.24C489.27 442.06 488.03 446.03 486.14 449.66C482.88 455.92 484.95 463.74 480.12 469.48C480.03 469.59 480.34 470.04 480.75 471.04C487.63 463.07 494.27 455.37 500.92 447.68C500.69 447.39 500.47 447.1 500.24 446.8C497.6 447.78 494.96 448.76 492.02 449.85V438.47ZM420.44 734.13V760.4H426.42V734.5C424.73 734.4 422.98 734.29 420.44 734.14V734.13ZM602.34 707.98C596.61 711.33 591.68 714.21 585.3 717.94C591.72 721.48 596.76 724.26 602.34 727.34V707.99V707.98ZM505.41 632.19C505.24 636 505.36 636.2 509.08 635.72C511.05 635.46 513.32 635.39 514.86 634.35C520.57 630.49 527 629.79 533.56 629.07C539.38 628.44 539.91 627.26 538.16 621.76C527.44 625.18 516.71 628.59 505.41 632.19ZM502.42 621.49C498.32 614.54 470.68 610.41 461.01 615.83C475.34 617.79 488.67 619.61 502.42 621.49ZM511.88 493.11C512.49 493.28 513.11 493.45 513.72 493.62C514.06 491.39 514.94 489.09 514.64 486.96C513.77 480.67 515.65 476.82 520.78 475.59C516.58 472.82 516.1 471.53 517.47 466.41C517.77 465.29 518.36 464.22 518.5 463.08C519.33 456.33 519.56 449.62 516.49 443.23C514.95 459.86 513.41 476.49 511.87 493.12L511.88 493.11ZM493.24 691.03C494.4 687.59 493.66 685.95 489.91 685.73C486.63 685.54 483.39 684.67 480.13 684.17C474.89 683.37 469.65 682.63 464.4 681.86C464.13 682.43 463.85 683 463.58 683.57C464.95 684.95 466.15 687.3 467.71 687.56C476.12 688.99 484.62 689.91 493.24 691.03ZM533.93 536.07C533.35 519.43 531.93 503.4 527.81 487.76C527.06 488.5 526.88 489.16 526.94 489.79C528.32 503.98 529.67 518.18 531.24 532.35C531.39 533.67 533 534.83 533.93 536.06V536.07ZM466.4 688.98C465.94 690.37 465.62 691.31 465.11 692.84C462.62 685.5 456.56 688.27 452.14 687.29C450.94 687.03 449.18 689.32 447.68 690.44C447.98 690.91 448.27 691.39 448.57 691.86C451.14 690.8 453.72 689.73 456.29 688.67C456.49 689.11 456.7 689.55 456.9 689.99C456.02 690.43 455.14 690.87 453.26 691.81C461.42 693.01 468.54 693.95 475.62 695.14C479.32 695.76 482.98 697.02 485.84 691.64C486.14 694.09 486.27 695.23 486.41 696.37C489.537 696.604 490.963 695.394 490.69 692.74C488.57 692.32 486.42 691.39 484.42 691.65C482.73 691.87 481.21 693.46 479.15 694.74C478.93 693.51 478.64 691.91 478.3 690.04C473.93 694.52 469.68 694.19 466.4 688.98ZM514.58 615.16C513.81 616.96 513.31 618.14 512.92 619.06C510.55 619.18 508.4 619.04 506.37 619.48C505.44 619.68 504.77 621.02 503.98 621.84C505.01 622.32 506.16 623.38 507.06 623.2C514.51 621.73 521.92 620.04 529.34 618.38C530.95 618.02 532.54 617.57 534.12 617.12C535.41 616.76 536.69 616.33 537.51 616.08C534.58 615.5 531.63 614.92 528.66 614.33C524.78 618.32 520.05 618.31 514.59 615.15L514.58 615.16ZM522.47 710.94C519.1 712.12 516.15 713.17 513.19 714.18C509.51 715.434 508.007 717.314 508.68 719.82C511.7 719.18 514.77 718.62 517.79 717.89C525.55 716.01 527.53 711.83 524.43 704.05C520.12 705.23 520.08 705.35 522.46 710.95L522.47 710.94ZM484.55 628.42C485.23 630.66 485.6 634.14 486.42 634.25C492.12 635.02 497.86 637.57 503.81 635.24C502.99 632.567 496.567 630.294 484.54 628.42H484.55ZM514.91 439.06C514.38 438.95 513.84 438.84 513.31 438.73C505.69 450.9 498.06 463.07 490.44 475.23C490.84 475.5 491.24 475.77 491.65 476.04C499.22 464.96 506.82 453.9 514.3 442.75C514.93 441.8 514.73 440.3 514.92 439.05L514.91 439.06ZM503.41 420.43C499.3 417.71 502.3 415.45 505.12 411.82C501.32 412.33 499.06 412.64 496.57 412.97C497.17 414.82 497.38 416 497.92 417C499.19 419.38 500.23 423.1 502.09 423.6C503.94 424.1 506.96 421.65 508.92 419.89C510.16 418.78 511.31 416.21 510.83 414.92C510.36 413.67 507.76 413.21 505.83 412.27C504.9 415.44 504.2 417.79 503.42 420.43H503.41ZM582.78 715.7C584.64 715.81 585.59 716.17 586.15 715.85C591.02 713.04 595.86 710.18 600.6 707.16C601.4 706.65 601.96 705.35 602.12 704.33C603.08 697.95 601.35 696.49 592.76 696.78C594.58 697.3 596.12 697.33 597.01 698.1C597.99 698.94 598.81 700.44 598.91 701.71C598.99 702.79 598.26 704.43 597.36 705.01C593.89 707.23 590.12 708.98 586.65 711.21C585.29 712.08 584.43 713.73 582.78 715.71V715.7ZM535.7 682.72C536.06 682.36 536.43 682.01 536.79 681.65C535.56 681.12 534.17 679.94 533.12 680.18C529.41 681.05 525.85 682.53 522.17 683.54C519.6 684.24 516.68 684.89 518.42 688.2C519.04 689.38 522.33 690 524.09 689.57C528.28 688.55 532.28 686.77 536.36 685.29C536.3 685.04 536.23 684.78 536.17 684.53L519.92 688.75C519.83 688.42 519.75 688.09 519.66 687.76C525.01 686.08 530.35 684.4 535.7 682.72ZM531.05 611.76C530.17 599.75 529.29 587.75 528.41 575.74C528.14 587.86 523.54 600.41 531.05 611.76ZM525.6 640.7C525.35 639.98 525.09 639.26 524.84 638.54C521.43 639.5 518.03 640.45 513.82 641.64C515.13 640.03 515.78 639.24 516.73 638.08C506.79 639.66 505.9 640.37 506.56 646.53C513.01 644.56 519.31 642.63 525.6 640.7ZM496.79 587.22C491.8 595.06 495.13 604.84 490.21 613.5C495.17 612.16 497.86 600.76 496.79 587.22ZM451.14 679.64V685.17C455.06 685.74 458.88 686.29 463.9 687.01C462.66 684.4 461.8 682.58 460.88 680.65C461.83 680.39 463.2 680.02 464.57 679.65H451.14V679.64ZM477.06 557.79C476.66 557.92 476.26 558.05 475.86 558.18C476.49 564.58 477.11 570.99 477.8 577.99C479.4 573.41 482.71 568.51 481.47 566.62C477.22 560.15 487.39 561.65 485.68 557.53C483.67 558.66 481.53 559.85 479.44 561.02C478.49 559.73 477.78 558.76 477.06 557.79ZM460.67 636.24C460.62 636.48 460.57 636.73 460.52 636.97H452.02C451.98 637.53 451.94 638.09 451.9 638.65C459.47 639.75 467.04 640.84 474.61 641.94C474.79 641.28 474.96 640.63 475.14 639.97C473.15 639.38 471.18 638.65 469.16 638.24C467.21 637.84 465.07 638.12 463.23 637.47C461.66 636.91 460.4 635.46 459 634.41C458.76 634.77 458.52 635.13 458.28 635.5L460.68 636.25L460.67 636.24ZM507.57 434.97C507.89 432.22 508.17 429.84 508.58 426.41C505.64 429.08 500.81 423.76 499.47 430.09C498.79 429.56 498.17 429.06 497.06 428.19C499.24 434.14 501.11 435.28 507.58 434.97H507.57ZM525.5 613.94C524.25 606.27 523.07 599.04 521.89 591.8C521.65 591.8 521.4 591.8 521.16 591.81V614.31C522.61 614.24 523.74 614.24 524.86 614.11C525.45 614.04 526.03 613.77 525.51 613.93L525.5 613.94ZM493.56 545.72L491.65 545.09C487.78 557.49 483.91 569.9 480.04 582.3C480.45 582.43 480.86 582.57 481.27 582.7L493.56 545.71V545.72ZM472.96 652.12C473.2 659.85 473.42 666.74 473.63 673.64C474.36 673.62 475.08 673.6 475.81 673.58C475.81 666.9 475.89 660.22 475.67 653.55C475.65 652.98 473.65 652.47 472.96 652.12ZM519.26 442.07C522.91 454.92 526.3 466.89 529.75 479.03C530.32 472.7 523.2 446.9 519.26 442.07ZM548.31 673.98C548.18 673.54 548.06 673.09 547.93 672.65C536.16 675.94 524.39 679.23 512.61 682.52C512.78 683.13 512.95 683.74 513.13 684.34L548.31 673.98ZM518.84 603.68C519.2 594.18 519.77 579.46 520.34 564.75C519.84 564.73 519.34 564.72 518.84 564.7V603.69V603.68ZM431.07 760.2L429.81 735.41C427.26 742.27 427.77 758.43 431.07 760.2ZM492.76 644.59C491.68 642.28 491.41 640.82 490.88 640.71C486.61 639.83 482.3 639.16 477.97 638.6C477.51 638.54 476.42 639.69 476.46 640.19C476.53 640.95 477.26 642.15 477.88 642.27C482.36 643.1 486.88 643.71 492.76 644.59ZM538.18 618.4C527.03 620.85 515.88 623.3 504.73 625.75C516.54 626.21 527.46 622.75 538.18 618.4ZM514.3 411.88C510.82 405.54 499.72 403.68 496.08 409.11C502.08 410.02 508.39 410.98 514.3 411.88ZM490.04 421.68C490.88 421.57 491.72 421.47 492.55 421.36C492.87 417.95 493.37 414.52 493.22 411.13C493.2 410.77 489.27 410.6 486.58 410.27C487.92 414.7 488.98 418.19 490.04 421.68ZM504.15 646.19C505.86 639 500.11 640.26 496.87 637.62C496.54 640.44 496.3 642.48 496.01 644.91C498.92 645.37 501.43 645.76 504.15 646.19ZM516.03 691.62C516.09 691.3 516.15 690.98 516.21 690.66C515.3 690.1 514.4 689.53 513.43 688.94C514.42 688.22 515.26 687.62 516.44 686.77C507.75 685.83 506.24 686.75 507.13 691.62H516.03ZM505.17 687.91C502.28 687.48 500.01 686.86 497.78 686.96C496.9 687 496.08 688.62 495.23 689.53C498.03 690.68 500.84 691.84 503.86 693.08C504.36 691.1 504.68 689.87 505.17 687.92V687.91ZM486.87 646.49C486.97 646.13 487.07 645.78 487.17 645.42C475.93 643.7 464.69 641.98 453.45 640.27C453.39 640.68 453.34 641.09 453.28 641.5C464.47 643.17 475.67 644.83 486.86 646.5L486.87 646.49ZM505.05 698.98L505.34 697.33C502.14 696.83 498.93 696.32 495.73 695.82C495.76 695.55 495.8 695.28 495.83 695.01H502.39C499.37 695.55 494.55 689.81 492.54 697.3C497.18 697.92 501.12 698.45 505.06 698.98H505.05ZM426.65 684.18C419.95 682.86 420.97 690.14 417.07 691.69C421.74 691.12 426.61 690.83 426.65 684.18ZM527.74 650.78C527.1 650.85 526.47 650.91 525.83 650.98C526.16 657.55 526.49 664.12 526.83 670.69C527.13 670.66 527.44 670.64 527.74 670.61V650.77V650.78ZM521.14 465.56C519.18 467.95 518.19 469.53 520.81 472.29C523.18 474.79 524.39 478.4 526.06 481.54C526.67 482.69 527.16 483.91 527.7 485.1C528.17 484.88 528.63 484.67 529.1 484.45C526.52 478.31 523.93 472.18 521.14 465.55V465.56ZM525.04 591.65C525.54 582.63 526.09 572.49 526.65 562.35C526.11 562.32 525.58 562.3 525.04 562.27V591.65ZM487.61 591.59L486.18 591.03C482.65 595.87 482.13 601.52 482.82 607.51C484.42 602.2 486.01 596.9 487.61 591.59ZM492.45 684.96C492.54 684.5 492.63 684.05 492.72 683.59C484.74 682.36 476.77 681.12 468.79 679.89C468.74 680.21 468.69 680.53 468.64 680.85C476.58 682.22 484.52 683.59 492.45 684.96ZM469.42 672.56C469.74 672.56 470.05 672.56 470.37 672.56V656.19C470.05 656.21 469.74 656.23 469.42 656.25V672.55V672.56ZM535.34 650C535.02 650.04 534.71 650.09 534.39 650.13V667.66C534.71 667.64 535.02 667.62 535.34 667.59V650ZM479.95 624.73C479.86 625.06 479.77 625.38 479.67 625.71C486.96 626.89 494.24 628.06 501.53 629.24C501.6 628.75 501.67 628.26 501.74 627.77C494.48 626.76 487.21 625.74 479.95 624.73ZM469.99 416.97C469.48 416.91 468.97 416.85 468.46 416.79C468.01 420.47 467.56 424.14 467.05 428.24C469.99 426.92 472.21 425.92 474.44 424.92C474.36 424.76 474.28 424.6 474.2 424.44C472.59 424.63 470.97 424.82 469.13 425.03C469.46 421.94 469.72 419.45 469.99 416.96V416.97ZM510.05 649.62C510.11 649.93 510.17 650.24 510.23 650.56C517.5 648.64 524.76 646.72 532.03 644.8C531.93 644.4 531.83 644.01 531.73 643.61C524.51 645.62 517.28 647.62 510.06 649.63L510.05 649.62ZM522.91 563.81C522.58 563.88 522.26 563.94 521.93 564.01V583.78C522.26 583.78 522.58 583.78 522.91 583.78V563.81ZM489.19 672.48C489.5 672.48 489.8 672.5 490.11 672.5V659.31C489.8 659.31 489.5 659.32 489.19 659.33V672.48ZM490.13 424.51C489.72 424.38 489.31 424.26 488.9 424.13C487.27 429.09 485.64 434.04 484.01 439C484.52 439.16 485.03 439.31 485.54 439.47C487.07 434.48 488.6 429.49 490.13 424.5V424.51ZM530.59 637.25C530.67 637.66 530.75 638.07 530.82 638.47C534.02 638 537.22 637.52 540.87 636.98C540.5 635.3 540.2 633.94 540.1 633.48C536.77 634.8 533.68 636.02 530.59 637.24V637.25ZM492.83 408.2C492.83 407.32 492.84 406.45 492.85 405.57H485.79C485.81 406.45 485.79 408.09 485.86 408.09C488.18 408.22 490.5 408.2 492.82 408.2H492.83ZM533.75 550.44C533.37 550.2 532.99 549.97 532.61 549.73C531.5 551.23 529.94 552.6 529.5 554.28C529.33 554.92 531.72 556.23 533.75 557.92V550.44ZM475.09 647.1L475.38 646.4C473.16 645.91 470.95 645.35 468.71 644.95C466.45 644.55 464.18 644.21 461.89 644.05C459.81 643.9 457.72 644.02 455.63 644.02C455.65 644.19 455.67 644.37 455.69 644.55C462.15 645.4 468.61 646.26 475.08 647.11L475.09 647.1Z" fill="black"/>
<path d="M546.539 475.94L546.549 476.03C548.219 476.19 549.899 476.34 551.789 476.52C555.049 473.09 554.259 470.02 550.349 467.11C547.999 465.37 545.959 463.22 543.779 461.26L544.049 460.95C547.659 463.82 551.379 466.58 554.799 469.66C555.499 470.29 555.439 472.24 555.119 473.41C554.469 475.76 553.389 477.99 552.349 480.62C550.509 479.14 548.529 477.54 546.539 475.94Z" fill="black"/>
<path d="M677.57 790.66C673.53 794.02 671.08 794.7 654.5 796.19C662.6 794.25 670.71 792.3 677.57 790.66Z" fill="black"/>
<path d="M392.07 703.84C399.49 701.53 406.78 698.63 414.35 697.06C422.95 695.27 430.03 692.04 434.81 684.24C435.69 682.81 438.89 682.73 441.06 682.18C443.44 681.57 445.87 681.14 448.28 680.64C448.75 680.98 449.23 681.33 449.7 681.67C448.38 684.39 447.66 687.76 445.59 689.66C443.17 691.89 442.9 693.52 443.66 696.5C444.21 698.67 442.86 701.25 443.01 703.6C443.15 705.72 443.68 709.18 444.92 709.63C452.47 712.41 460.28 714.49 468.43 716.94C468.87 712.83 469.22 709.48 469.57 706.14C469.89 706.18 470.2 706.21 470.52 706.25C470.23 709.45 469.94 712.66 469.65 715.86C470.12 715.9 470.6 715.95 471.07 715.99C471.19 714.06 471.31 712.13 471.47 709.52C473.16 709.61 474.82 709.7 476.8 709.8V716.45C477.07 716.49 477.34 716.53 477.61 716.57C477.82 714.96 478.04 713.36 478.25 711.75C478.52 711.74 478.78 711.72 479.05 711.71L479.48 717.7C479.88 717.74 480.28 717.79 480.67 717.83C480.98 714.99 482.58 711.13 481.32 709.54C478.93 706.51 475.27 703.67 470.63 704.74C464.77 706.09 468.15 711.48 466.61 714.71C454.58 712.96 444.61 708.6 443.96 704.47C448.68 704.98 453.35 705.47 458.24 706C458.76 704.03 459.16 702.52 459.66 700.64C475 702.99 490.21 705.33 505.83 707.72V719.89C498.55 719.08 491.25 718.26 483.71 717.42C483.99 717.87 484.16 718.47 484.43 718.51C496.75 720.66 509.11 722.92 521.39 718.62C523.18 717.99 524.7 716.11 525.95 714.5C528 711.86 529.83 709.02 531.57 706.15C532.89 703.98 533.91 701.63 536 699.49V703.69C536.32 703.89 536.63 704.1 536.95 704.3C537.93 702.49 538.91 700.69 539.96 698.75C540.89 700.05 542.13 701.78 543.56 703.78C542.25 704.54 540.76 705.4 539.27 706.26C539.35 706.53 539.42 706.79 539.5 707.06C543.15 705.82 546.8 704.58 550.74 703.23C552.25 707.17 551.74 710.41 547.94 712.6C540.46 716.92 533.24 721.99 525.27 725.08C519.78 727.21 513.2 727.11 507.12 727C487.97 726.63 468.83 725.77 449.69 725.13C446.77 725.03 443.85 725.12 440.9 726.19C444.98 726.39 449.06 726.69 453.14 726.79C471.12 727.23 489.1 727.57 507.08 728.09C508.44 728.13 509.78 729.24 511.12 729.86V729.84C510.05 729.52 508.98 728.91 507.91 728.91C482.42 728.93 456.93 729.01 431.45 729.1C431.19 729.1 430.94 729.36 430.19 729.77C430.98 730.1 431.46 730.48 431.93 730.48C452.08 730.4 472.24 730.05 492.39 730.29C502.84 730.42 513.27 731.99 523.73 732.12C527.84 732.17 532.04 732.47 536.42 730.73C544.06 727.69 552.3 726.2 560.26 723.95C564.21 722.83 568.69 722.56 570.52 717.62C570.69 717.16 574.01 717.86 575.87 718.02L575.71 717.87C577.91 720.23 579.71 723.3 582.39 724.8C586.67 727.2 587.94 730.42 587.64 734.91C587.46 737.66 587.61 740.42 587.61 743.45C592.39 743.84 595.07 740.58 598.09 738.01L597.91 738.19C599.21 735.12 600.5 732.05 602 728.49C611.03 730.04 619.97 734.55 628.66 739.71C636.96 744.64 645.43 749.28 653.67 754.29C662.54 759.69 663.16 768.35 654.58 774.3C650.08 777.43 644.55 779.77 639.16 780.82C609.63 786.59 579.77 788.73 549.68 787.47C544.05 787.23 538.39 787.44 532.32 787.44V736.26C541 733.88 549.94 731.5 558.83 728.96C561.31 728.25 563.66 727.06 566.07 726.1C568.62 725.77 571.36 724.69 573.69 725.26C579.27 726.63 576.76 731.55 576.72 734.88C576.65 739.94 579.06 741.48 583.6 741.54C574.48 738.95 579.11 731.93 578.57 726.61C574.46 724.03 570.49 719.3 565.81 725.81C560.19 727.21 554.41 728.2 548.97 730.11C537.01 734.3 524.99 735.03 512.32 734.31C488.79 732.98 465.18 733.25 441.6 732.86C431.62 732.7 421.91 733.72 412.45 727.51C404.73 722.44 394.99 720.47 386.2 716.98C384.81 716.43 383.73 715.12 382.5 714.16C390.7 717.13 398.9 720.09 407.1 723.06L406.88 722.92C414.27 728.83 423.05 727.55 431.55 727.7C434.77 727.76 437.99 727.7 439.6 727.7C435.42 726.35 429.86 724.66 424.37 722.76C414.22 719.23 404.07 715.69 394.03 711.88C392.12 711.16 390.69 709.17 389.03 707.77C390.04 706.45 391.05 705.13 392.06 703.82L392.07 703.84Z" fill="white"/>
<path d="M432.221 761.2V734.72H507.171C507.171 748.98 507.231 762.59 507.031 776.2C507.021 777.1 504.841 778.82 503.851 778.7C498.281 778.01 492.411 777.75 487.291 775.72C469.651 768.73 452.341 760.84 432.231 761.21L432.221 761.2Z" fill="white"/>
<path d="M521.579 786.13C507.479 785.09 493.379 783.98 479.279 783.02C450.019 781.02 420.849 778.08 392.359 770.85C380.329 767.79 368.479 763.63 356.999 758.88C347.239 754.85 346.859 748.16 354.939 741.4C360.069 737.11 364.919 735.04 371.909 738.73C387.179 746.79 402.929 753.93 418.519 761.38C419.509 761.86 420.749 762.02 421.869 762.01C442.469 761.89 462.179 765.67 480.789 774.86C488.459 778.65 496.669 780.19 505.389 780.42C510.939 780.57 516.429 783.28 521.939 784.84C521.819 785.27 521.699 785.71 521.579 786.14V786.13Z" fill="white"/>
<path d="M363.16 733.24C363.58 726.08 364.01 718.81 364.49 710.83C366.34 711.25 367.92 711.41 369.36 711.96C384.38 717.7 399.36 723.54 414.38 729.26C417.86 730.58 419.43 732.27 419.08 736.5C418.48 743.73 418.91 751.05 418.91 759.29C399.64 750.29 381.66 741.89 363.16 733.25V733.24Z" fill="white"/>
<path d="M501.26 572.37C502.67 561.95 503.99 552.49 505.24 543.01C506.88 530.5 509.33 518.01 509.75 505.46C510 498.12 514.87 494.46 517.87 489.25C518.85 487.55 519.91 485.9 521.09 483.97C521.65 489.66 522.26 495.29 522.76 500.93C524.31 518.48 525.88 536.02 527.22 553.59C527.36 555.38 526.51 558.19 525.19 558.99C517.73 563.51 509.99 567.57 501.27 572.38L501.26 572.37Z" fill="white"/>
<path d="M511.141 729.86C512.551 729.41 513.941 728.63 515.371 728.55C528.671 727.8 539.031 720.48 549.351 713.25C551.031 712.07 552.091 709.43 552.581 707.27C553.491 703.28 554.581 699.87 559.961 699.64C558.741 698.93 557.411 698.62 557.181 697.93C556.531 696 556.091 693.91 556.161 691.9C556.171 691.52 558.961 690.69 560.281 690.96C572.531 693.48 584.751 696.21 596.781 698.83C596.691 700.33 596.791 700.79 596.631 700.92C590.131 706.01 584.581 712.71 575.481 713.41C574.851 713.46 574.241 713.76 573.631 713.98C564.741 717.09 555.861 720.24 546.951 723.32C542.251 724.95 537.621 727.1 532.781 727.89C525.651 729.06 518.361 729.23 511.141 729.83V729.86Z" fill="white"/>
<path d="M530.019 736.7V786.23C522.639 783.77 515.769 781.49 508.619 779.11V735.07C515.779 735.62 522.809 736.15 530.019 736.7Z" fill="white"/>
<path d="M484.099 547.91C481.999 548.08 479.899 548.24 477.659 548.42C475.769 538.43 477.319 529.06 480.559 520.25C486.329 504.54 492.509 488.94 499.449 473.73C502.949 466.05 508.489 459.31 513.949 452.37C513.609 455.87 513.259 459.37 512.919 462.87L513.059 463.02V456.52C512.049 458.33 511.619 458.84 511.449 459.43C506.589 476.65 502.069 493.98 496.819 511.08C492.999 523.56 488.229 535.76 483.889 548.08L484.099 547.91Z" fill="white"/>
<path d="M505.169 532.8C503.509 544.77 501.849 556.75 500.199 568.72C499.639 572.81 499.959 576.44 505.019 577.41C501.399 584.15 487.019 590.71 479.699 588.65C484.769 587.05 485.449 583.34 486.289 579.14C488.809 566.65 491.419 554.12 495.119 541.95C496.299 538.07 500.979 535.25 504.049 531.94C504.419 532.23 504.789 532.51 505.159 532.8H505.169Z" fill="white"/>
<path d="M512.91 462.86C512.2 470.96 511.59 479.08 510.75 487.17C509.63 497.93 507.83 508.64 507.29 519.42C506.91 527.06 503.77 532.19 497.13 535.87C499.27 528.49 501.38 521.25 503.48 514.01L502.29 513.55C497.26 529.65 494.08 546.87 477.34 556.91C476.88 553.01 476.95 550.49 480.87 549.86C482.02 549.67 483.03 548.59 484.1 547.91L483.89 548.08C485.1 546.89 486.87 545.92 487.42 544.47C490.1 537.52 492.69 530.52 494.88 523.41C501.05 503.31 507.01 483.15 513.05 463.02L512.91 462.87V462.86Z" fill="white"/>
<path d="M444.649 693.31C446.679 693.31 448.749 693.07 450.739 693.35C469.159 695.95 487.539 698.93 506.009 701.1C510.159 701.59 514.729 699.67 518.929 698.32C527.149 695.68 535.229 692.6 543.419 689.84C547.019 688.63 550.729 687.77 555.429 687.35C554.289 688.92 553.459 691.38 551.949 691.92C539.449 696.38 526.879 700.61 514.229 704.64C505.489 707.43 496.779 704.65 488.149 703.59C476.119 702.1 464.159 700.02 452.209 697.97C449.439 697.49 446.809 696.13 444.119 695.18C444.289 694.56 444.459 693.94 444.639 693.32L444.649 693.31Z" fill="white"/>
<path d="M543.78 461.26C545.96 463.22 548.01 465.37 550.35 467.11C554.27 470.02 555.05 473.09 551.79 476.52C549.89 476.34 548.22 476.19 546.55 476.03C539.99 480.47 539.76 481.8 543.97 488.48C544.61 489.49 545.28 491.22 544.85 492.05C542.39 496.75 539.62 501.3 536.87 505.84C536.51 506.44 535.6 506.7 534.63 507.32C531.65 498.09 534.23 489.26 534.27 480.44C534.3 473.9 536.67 468.55 540.03 463.4C540.73 462.33 542.5 461.96 543.78 461.26Z" fill="white"/>
<path d="M469.17 350.82C471.55 354.46 472.66 358.76 472.28 364.35C471.84 370.75 474.04 377.3 474.9 383.81C475.3 386.84 475.13 389.95 475.45 393C475.69 395.27 475.57 398.1 476.85 399.65C482.68 406.7 480.41 412.91 475.67 419.13C468.47 396.68 466.28 373.7 469.17 350.83V350.82Z" fill="white"/>
<path d="M472.93 520.13C473.12 516.99 472.58 513.58 473.64 510.76C478.92 496.68 485.72 483.39 495.96 472.13C496.94 471.05 497.94 470 498.92 468.94C491.12 488.88 483.35 508.72 475.58 528.57C475.45 528.6 475.33 528.63 475.2 528.66C476.51 522.9 477.43 517.01 479.24 511.42C481.05 505.84 483.76 500.56 486.07 495.14L484.58 494.51L474.1 520.16C473.71 520.14 473.33 520.13 472.94 520.12L472.93 520.13Z" fill="white"/>
<path d="M392.069 703.84C391.059 705.16 390.049 706.48 389.039 707.79C385.759 711.8 390.309 711.97 391.849 712.55C401.629 716.27 411.559 719.62 421.419 723.12C423.119 723.72 424.759 724.49 426.429 725.17C426.279 725.72 426.119 726.27 425.969 726.82C422.139 726.23 418.279 725.75 414.479 725.01C411.909 724.51 409.419 723.63 406.889 722.92L407.109 723.06C400.789 720.32 394.499 717.52 388.159 714.85C383.219 712.77 378.219 710.84 373.249 708.85C373.309 708.47 373.359 708.09 373.419 707.71C374.999 707.26 376.579 706.82 378.169 706.37L378.049 705.82C375.849 706.11 373.639 706.41 371.439 706.7C378.059 703.85 384.789 701.84 392.079 703.83L392.069 703.84Z" fill="white"/>
<path d="M516.251 566.89V612.03C511.451 612.2 510.851 611.92 511.011 607.46C511.411 596.18 512.08 584.9 512.79 573.63C512.95 571.17 513.741 568.76 514.241 566.33C514.911 566.52 515.581 566.71 516.251 566.9V566.89Z" fill="white"/>
<path d="M522.99 478.05C523.77 481.06 524.93 484.04 525.27 487.1C526.97 502.47 528.44 517.86 530.07 533.24C530.18 534.26 530.67 535.49 531.41 536.14C538.51 542.4 537.98 546.05 528.86 549.91C526.7 525.95 524.55 502.13 522.4 478.3C522.6 478.21 522.79 478.13 522.99 478.04V478.05Z" fill="white"/>
<path d="M492.02 438.47V449.85C494.96 448.76 497.6 447.78 500.24 446.8C500.47 447.09 500.69 447.38 500.92 447.68C494.28 455.38 487.63 463.08 480.75 471.04C480.33 470.04 480.02 469.59 480.12 469.48C484.95 463.74 482.88 455.92 486.14 449.66C488.03 446.03 489.27 442.06 490.8 438.24C491.21 438.32 491.61 438.39 492.02 438.47Z" fill="white"/>
<path d="M420.439 734.13C422.979 734.28 424.729 734.39 426.419 734.49V760.39H420.439V734.12V734.13Z" fill="white"/>
<path d="M602.341 707.98V727.33C596.771 724.26 591.731 721.48 585.301 717.93C591.681 714.2 596.611 711.32 602.341 707.97V707.98Z" fill="white"/>
<path d="M505.409 632.19C516.709 628.59 527.439 625.17 538.159 621.76C539.899 627.26 539.369 628.44 533.559 629.07C526.999 629.79 520.569 630.49 514.859 634.35C513.319 635.39 511.049 635.46 509.079 635.72C505.359 636.21 505.239 636.01 505.409 632.19Z" fill="white"/>
<path d="M502.42 621.49C488.67 619.61 475.34 617.79 461.01 615.83C470.68 610.41 498.32 614.54 502.42 621.49Z" fill="white"/>
<path d="M482.9 653C481.15 652.27 479.45 651.09 477.64 650.9C470.57 650.13 463.47 649.71 456.38 649.06C455.52 648.98 454.72 648.25 453.9 647.82C454.04 647.33 454.19 646.84 454.33 646.35C470.57 648.34 486.8 650.33 503.04 652.32C503.01 652.55 502.99 652.78 502.96 653.01C501.21 652.78 499.46 652.54 496.24 652.11C495.63 660.19 495.02 668.32 494.4 676.44C493.93 676.42 493.47 676.4 493 676.38V652.6C489.29 652.8 486.01 652.98 482.72 653.15L482.89 653H482.9Z" fill="white"/>
<path d="M511.881 493.11C513.421 476.48 514.961 459.85 516.501 443.22C519.571 449.61 519.341 456.32 518.511 463.07C518.371 464.2 517.781 465.28 517.481 466.4C516.111 471.51 516.581 472.81 520.791 475.58C515.651 476.81 513.771 480.66 514.651 486.95C514.951 489.09 514.071 491.39 513.731 493.61C513.121 493.44 512.501 493.27 511.891 493.1L511.881 493.11Z" fill="white"/>
<path d="M493.24 691.03C484.62 689.91 476.12 689 467.71 687.56C466.15 687.29 464.95 684.95 463.58 683.57C463.85 683 464.13 682.43 464.4 681.86C469.64 682.63 474.89 683.37 480.13 684.17C483.4 684.67 486.63 685.53 489.91 685.73C493.67 685.95 494.4 687.59 493.24 691.03Z" fill="white"/>
<path d="M533.93 536.07C533 534.84 531.38 533.68 531.24 532.36C529.67 518.19 528.32 503.99 526.94 489.8C526.88 489.16 527.06 488.5 527.81 487.77C531.93 503.4 533.35 519.44 533.93 536.08V536.07Z" fill="white"/>
<path d="M466.4 688.98C469.68 694.2 473.92 694.52 478.3 690.04C478.64 691.91 478.93 693.52 479.15 694.74C481.22 693.46 482.73 691.87 484.42 691.65C486.42 691.39 488.57 692.32 490.69 692.74C490.963 695.394 489.536 696.604 486.41 696.37C486.27 695.23 486.13 694.09 485.84 691.64C482.99 697.03 479.32 695.77 475.62 695.14C468.54 693.95 461.42 693.01 453.26 691.81C455.14 690.87 456.02 690.43 456.9 689.99C456.7 689.55 456.49 689.11 456.29 688.67C453.72 689.73 451.14 690.8 448.57 691.86C448.27 691.39 447.98 690.91 447.68 690.44C449.18 689.32 450.94 687.02 452.14 687.29C456.56 688.27 462.62 685.5 465.11 692.84C465.62 691.31 465.94 690.36 466.4 688.98Z" fill="white"/>
<path d="M458.53 616.51C462.66 617.33 466.77 618.34 470.93 618.91C479.49 620.09 488.1 620.94 496.66 622.16C498.85 622.47 500.921 623.64 503.041 624.41C502.871 624.98 502.7 625.54 502.53 626.11C499.83 625.77 497.13 625.43 494.43 625.09C483.87 623.74 473.3 622.49 462.77 620.93C460.67 620.62 456.61 621.08 458.6 616.47L458.53 616.5V616.51Z" fill="white"/>
<path d="M532.67 646.71C529.11 648.14 525.64 649.86 521.97 650.9C518.12 652 516.58 653.89 517.01 658.04C517.47 662.45 517.11 666.94 518.09 671.46V655.84L519.75 655.87V675.17C522.26 674.44 525.31 673.56 528.4 672.67C528.76 676.54 525.23 678.52 517.03 678.76C516.34 669.9 515.64 661 514.9 651.54C521.05 649.91 526.91 648.35 532.77 646.8L532.66 646.7L532.67 646.71Z" fill="white"/>
<path d="M598.1 738.02C595.32 739.3 592.53 740.57 589.32 742.04V727.54C589.32 727.54 589.54 727.17 589.81 727.13C599.61 725.57 600.91 727.36 597.92 738.19L598.1 738.02Z" fill="white"/>
<path d="M492.901 464.07C486.021 473.06 479.131 482.05 471.841 491.57C471.841 489.85 471.131 487.53 471.971 486.15C475.041 481.08 478.371 476.12 482.101 471.51C485.641 467.13 489.791 463.25 494.581 459.78C493.961 461.27 493.341 462.75 492.721 464.24L492.901 464.07Z" fill="white"/>
<path d="M461.891 674.59C465.801 674.8 469.721 674.87 473.621 675.25C478.531 675.73 483.451 676.3 488.301 677.17C489.811 677.44 491.131 678.79 492.541 679.65C492.241 680.33 491.951 681.01 491.651 681.69C478.501 679.53 465.351 677.37 452.211 675.21C452.241 674.86 452.281 674.5 452.311 674.15C455.521 674.3 458.721 674.45 461.931 674.6L461.891 674.59Z" fill="white"/>
<path d="M514.581 615.16C520.051 618.32 524.771 618.32 528.651 614.34C531.621 614.93 534.561 615.51 537.501 616.09C536.681 616.34 535.411 616.76 534.111 617.13C532.521 617.58 530.931 618.03 529.331 618.39C521.911 620.04 514.501 621.73 507.051 623.21C506.151 623.39 505.001 622.33 503.971 621.85C504.761 621.03 505.441 619.7 506.361 619.49C508.391 619.05 510.541 619.18 512.911 619.07C513.301 618.15 513.801 616.97 514.571 615.17L514.581 615.16Z" fill="white"/>
<path d="M522.47 710.94C520.08 705.35 520.12 705.22 524.44 704.04C527.54 711.82 525.56 716 517.8 717.88C514.78 718.61 511.71 719.18 508.69 719.81C508.01 717.297 509.513 715.417 513.2 714.17C516.16 713.16 519.11 712.11 522.48 710.93L522.47 710.94Z" fill="white"/>
<path d="M484.551 628.42C496.577 630.293 503.001 632.567 503.821 635.24C497.871 637.58 492.121 635.02 486.431 634.25C485.601 634.14 485.231 630.66 484.561 628.42H484.551Z" fill="white"/>
<path d="M514.91 439.06C514.72 440.31 514.92 441.81 514.29 442.76C506.81 453.9 499.21 464.96 491.64 476.05C491.24 475.78 490.84 475.51 490.43 475.24C498.05 463.07 505.68 450.9 513.3 438.74C513.83 438.85 514.37 438.96 514.9 439.07L514.91 439.06Z" fill="white"/>
<path d="M503.411 420.43C504.191 417.79 504.881 415.44 505.821 412.27C507.761 413.21 510.361 413.67 510.821 414.92C511.301 416.21 510.151 418.78 508.911 419.89C506.951 421.65 503.941 424.1 502.081 423.6C500.221 423.1 499.181 419.38 497.911 417C497.381 416 497.171 414.83 496.561 412.97C499.051 412.63 501.321 412.33 505.111 411.82C502.291 415.44 499.291 417.71 503.401 420.43H503.411Z" fill="white"/>
<path d="M582.779 715.7C584.439 713.73 585.299 712.08 586.649 711.2C590.119 708.98 593.889 707.22 597.359 705C598.259 704.43 598.989 702.79 598.909 701.7C598.809 700.43 597.989 698.93 597.009 698.09C596.109 697.32 594.579 697.29 592.759 696.77C601.349 696.48 603.079 697.94 602.119 704.32C601.969 705.34 601.399 706.64 600.599 707.15C595.859 710.17 591.019 713.04 586.149 715.84C585.589 716.16 584.639 715.8 582.779 715.69V715.7Z" fill="white"/>
<path d="M535.701 682.72C530.351 684.4 525.011 686.08 519.661 687.76C519.751 688.09 519.831 688.42 519.921 688.75L536.171 684.53C536.231 684.78 536.301 685.04 536.361 685.29C532.281 686.77 528.281 688.56 524.091 689.57C522.331 690 519.041 689.38 518.421 688.2C516.681 684.89 519.601 684.24 522.171 683.54C525.851 682.54 529.411 681.05 533.121 680.18C534.171 679.93 535.561 681.12 536.791 681.65C536.431 682.01 536.061 682.36 535.701 682.72Z" fill="white"/>
<path d="M531.05 611.76C523.53 600.42 528.14 587.87 528.41 575.74C529.29 587.75 530.17 599.75 531.05 611.76Z" fill="white"/>
<path d="M525.6 640.7C519.3 642.63 513 644.56 506.56 646.53C505.9 640.37 506.79 639.66 516.73 638.08C515.78 639.24 515.14 640.03 513.82 641.64C518.03 640.46 521.44 639.5 524.84 638.54C525.09 639.26 525.35 639.98 525.6 640.7Z" fill="white"/>
<path d="M496.791 587.22C497.861 600.77 495.171 612.16 490.211 613.5C495.131 604.84 491.801 595.05 496.791 587.22Z" fill="white"/>
<path d="M371.431 706.71C373.631 706.42 375.841 706.12 378.041 705.83L378.161 706.38C376.581 706.83 375.001 707.27 373.411 707.72C373.351 708.1 373.301 708.48 373.241 708.86C378.211 710.85 383.211 712.78 388.151 714.86C394.491 717.53 400.791 720.33 407.101 723.07C398.901 720.1 390.701 717.14 382.501 714.17L368.061 709.21C368.071 708.8 368.081 708.39 368.101 707.97C369.201 707.55 370.311 707.13 371.411 706.71H371.431Z" fill="black"/>
<path d="M575.881 718.02V714.12C582.321 717.84 588.221 721.26 594.911 725.13C588.591 727.09 584.391 725.22 580.561 721.73C579.041 720.34 577.341 719.15 575.721 717.87L575.881 718.02Z" fill="white"/>
<path d="M472.73 630.31C468.7 630.38 464.64 630.72 460.66 630.27C459.9 630.19 459.48 627.03 458.59 624.36C463.69 625.03 467.43 625.48 471.16 626.02C474.53 626.5 473.16 628.62 472.62 630.43L472.73 630.31Z" fill="white"/>
<path d="M451.141 679.64H464.571C463.201 680.01 461.831 680.38 460.881 680.64C461.801 682.58 462.661 684.39 463.901 687C458.891 686.28 455.071 685.73 451.141 685.16V679.63V679.64Z" fill="white"/>
<path d="M477.059 557.79C477.769 558.76 478.479 559.72 479.439 561.02C481.539 559.85 483.669 558.66 485.679 557.53C487.389 561.65 477.219 560.15 481.469 566.62C482.719 568.52 479.399 573.41 477.799 577.99C477.119 570.99 476.489 564.59 475.859 558.18C476.259 558.05 476.659 557.92 477.059 557.79Z" fill="white"/>
<path d="M460.671 636.24L458.271 635.49C458.511 635.13 458.751 634.77 458.991 634.4C460.391 635.45 461.651 636.9 463.221 637.46C465.051 638.11 467.191 637.84 469.151 638.23C471.181 638.64 473.141 639.37 475.131 639.96C474.951 640.62 474.781 641.27 474.601 641.93C467.031 640.83 459.461 639.74 451.891 638.64C451.931 638.08 451.971 637.52 452.011 636.96H460.511C460.561 636.72 460.611 636.47 460.661 636.23L460.671 636.24Z" fill="white"/>
<path d="M507.571 434.97C501.101 435.28 499.231 434.14 497.051 428.19C498.161 429.06 498.781 429.55 499.461 430.09C500.801 423.75 505.631 429.08 508.571 426.41C508.171 429.85 507.891 432.22 507.561 434.97H507.571Z" fill="white"/>
<path d="M525.5 613.94C526.02 613.78 525.45 614.05 524.85 614.12C523.73 614.24 522.6 614.25 521.15 614.32V591.82C521.39 591.82 521.64 591.82 521.88 591.81C523.06 599.04 524.24 606.28 525.49 613.95L525.5 613.94Z" fill="white"/>
<path d="M493.559 545.72L481.269 582.71C480.859 582.58 480.449 582.44 480.039 582.31C483.909 569.91 487.779 557.5 491.649 545.1L493.559 545.73V545.72Z" fill="white"/>
<path d="M472.961 652.12C473.651 652.46 475.651 652.97 475.671 653.55C475.891 660.22 475.811 666.9 475.811 673.58C475.081 673.6 474.361 673.62 473.631 673.64C473.411 666.75 473.201 659.85 472.961 652.12Z" fill="white"/>
<path d="M519.26 442.07C523.2 446.9 530.31 472.71 529.75 479.03C526.3 466.88 522.91 454.92 519.26 442.07Z" fill="white"/>
<path d="M461.93 674.6V651.36C462.58 651.22 463.22 651.08 463.87 650.94C464.15 652.43 464.65 653.92 464.68 655.42C464.78 659.71 464.98 664.04 464.55 668.29C464.33 670.45 462.83 672.49 461.9 674.58L461.93 674.59V674.6Z" fill="white"/>
<path d="M548.309 673.98L513.129 684.34C512.959 683.73 512.789 683.12 512.609 682.52C524.379 679.23 536.149 675.94 547.929 672.65C548.059 673.09 548.179 673.54 548.309 673.98Z" fill="white"/>
<path d="M518.84 603.68V564.69C519.34 564.71 519.84 564.72 520.34 564.74C519.77 579.45 519.21 594.17 518.84 603.67V603.68Z" fill="white"/>
<path d="M431.069 760.2C427.769 758.43 427.259 742.26 429.809 735.41L431.069 760.2Z" fill="white"/>
<path d="M492.761 644.59C486.881 643.71 482.361 643.1 477.881 642.27C477.261 642.16 476.541 640.95 476.461 640.19C476.411 639.69 477.501 638.54 477.971 638.6C482.291 639.16 486.611 639.84 490.881 640.71C491.421 640.82 491.681 642.27 492.761 644.59Z" fill="white"/>
<path d="M538.18 618.4C527.46 622.75 516.54 626.21 504.73 625.75C515.88 623.3 527.03 620.85 538.18 618.4Z" fill="white"/>
<path d="M514.3 411.88C508.39 410.98 502.08 410.02 496.08 409.11C499.72 403.68 510.82 405.54 514.3 411.88Z" fill="white"/>
<path d="M490.04 421.68C488.98 418.19 487.93 414.7 486.58 410.27C489.27 410.6 493.2 410.78 493.22 411.13C493.38 414.52 492.87 417.95 492.55 421.36C491.71 421.47 490.87 421.57 490.04 421.68Z" fill="white"/>
<path d="M472.619 630.43C473.419 629.86 474.149 628.95 475.029 628.78C477.449 628.31 480.179 627.41 482.269 628.14C483.489 628.56 483.729 631.8 484.009 633.9C479.289 630.23 478.599 630.38 475.679 636.4C474.559 634.08 473.649 632.18 472.729 630.3C472.719 630.31 472.609 630.44 472.609 630.44L472.619 630.43Z" fill="white"/>
<path d="M492.72 464.24C493.85 463.34 494.97 462.43 496.1 461.53C496.31 461.67 496.53 461.8 496.74 461.94C491.43 470.04 486.12 478.13 480.81 486.23C480.32 485.93 479.84 485.63 479.35 485.33C483.03 479.6 486.72 473.87 490.39 468.14C491.25 466.8 492.07 465.43 492.9 464.07L492.72 464.24Z" fill="white"/>
<path d="M504.15 646.19C501.43 645.76 498.92 645.37 496.01 644.91C496.3 642.48 496.53 640.44 496.87 637.62C500.12 640.25 505.87 639 504.15 646.19Z" fill="white"/>
<path d="M482.73 653.16C483.72 653.81 485.56 654.42 485.58 655.1C485.8 661.67 485.71 668.26 484.57 674.86C481.88 667.69 483.2 660.28 482.91 653L482.73 653.15V653.16Z" fill="white"/>
<path d="M516.029 691.62H507.129C506.249 686.75 507.759 685.83 516.439 686.77C515.259 687.62 514.419 688.22 513.429 688.94C514.389 689.54 515.299 690.1 516.209 690.66C516.149 690.98 516.089 691.3 516.029 691.62Z" fill="white"/>
<path d="M505.17 687.91C504.67 689.86 504.36 691.1 503.86 693.07C500.84 691.83 498.03 690.67 495.23 689.52C496.08 688.62 496.89 686.99 497.78 686.95C500.01 686.86 502.28 687.48 505.17 687.9V687.91Z" fill="white"/>
<path d="M486.869 646.49C475.679 644.82 464.479 643.16 453.289 641.49C453.349 641.08 453.399 640.67 453.459 640.26C464.699 641.98 475.939 643.7 487.179 645.41C487.079 645.77 486.979 646.12 486.879 646.48L486.869 646.49Z" fill="white"/>
<path d="M505.049 698.98C501.109 698.45 497.179 697.92 492.529 697.3C494.549 689.81 499.369 695.55 502.379 695.01H495.819C495.789 695.28 495.749 695.55 495.719 695.82C498.919 696.32 502.129 696.83 505.329 697.33L505.039 698.98H505.049Z" fill="white"/>
<path d="M426.65 684.18C426.62 690.82 421.75 691.12 417.07 691.69C420.97 690.15 419.94 682.87 426.65 684.18Z" fill="white"/>
<path d="M527.74 650.78V670.62C527.44 670.65 527.13 670.67 526.83 670.7C526.5 664.13 526.17 657.56 525.83 650.99C526.47 650.92 527.1 650.86 527.74 650.79V650.78Z" fill="white"/>
<path d="M521.14 465.56C523.93 472.19 526.51 478.32 529.1 484.46C528.63 484.68 528.17 484.89 527.7 485.11C527.16 483.92 526.68 482.7 526.06 481.55C524.39 478.41 523.18 474.79 520.81 472.3C518.19 469.54 519.18 467.96 521.14 465.57V465.56Z" fill="white"/>
<path d="M525.039 591.65V562.27C525.579 562.3 526.109 562.319 526.649 562.349C526.089 572.489 525.529 582.63 525.039 591.65Z" fill="white"/>
<path d="M487.611 591.59C486.011 596.9 484.421 602.2 482.821 607.51C482.131 601.52 482.641 595.87 486.181 591.03L487.611 591.59Z" fill="white"/>
<path d="M492.451 684.96C484.511 683.59 476.571 682.22 468.641 680.85C468.691 680.53 468.741 680.21 468.791 679.89C476.771 681.12 484.741 682.36 492.721 683.59C492.631 684.05 492.541 684.5 492.451 684.96Z" fill="white"/>
<path d="M469.42 672.56V656.26C469.74 656.24 470.05 656.22 470.37 656.2V672.57C470.05 672.57 469.74 672.57 469.42 672.57V672.56Z" fill="white"/>
<path d="M535.341 650V667.59C535.021 667.61 534.711 667.63 534.391 667.66V650.13C534.711 650.09 535.021 650.04 535.341 650Z" fill="white"/>
<path d="M479.95 624.73C487.21 625.74 494.48 626.761 501.74 627.771C501.67 628.261 501.6 628.75 501.53 629.24C494.24 628.06 486.96 626.891 479.67 625.711C479.76 625.381 479.85 625.06 479.95 624.73Z" fill="white"/>
<path d="M469.991 416.97C469.721 419.46 469.461 421.95 469.131 425.04C470.981 424.82 472.591 424.64 474.201 424.45C474.281 424.61 474.361 424.77 474.441 424.93C472.211 425.93 469.991 426.93 467.051 428.25C467.551 424.15 468.011 420.47 468.461 416.8C468.971 416.86 469.481 416.92 469.991 416.98V416.97Z" fill="white"/>
<path d="M532.77 646.81C534.6 646.29 536.42 645.77 538.2 645.27V668.849C537.78 668.849 537.36 668.849 536.94 668.859C536.94 663.279 536.73 657.69 537.02 652.13C537.2 648.72 536.51 646.629 532.68 646.729L532.78 646.82L532.77 646.81Z" fill="white"/>
<path d="M510.049 649.62C517.269 647.61 524.499 645.61 531.719 643.6C531.819 644 531.919 644.39 532.019 644.79C524.749 646.71 517.489 648.63 510.219 650.55C510.159 650.24 510.099 649.93 510.039 649.61L510.049 649.62Z" fill="white"/>
<path d="M522.91 563.81V583.78C522.58 583.78 522.26 583.78 521.93 583.78V564.01C522.26 563.94 522.58 563.88 522.91 563.81Z" fill="white"/>
<path d="M489.189 672.48V659.33C489.499 659.33 489.799 659.32 490.109 659.31V672.5C489.799 672.5 489.499 672.48 489.189 672.48Z" fill="white"/>
<path d="M490.13 424.51C488.6 429.5 487.07 434.49 485.54 439.48C485.03 439.32 484.52 439.17 484.01 439.01C485.64 434.05 487.27 429.1 488.9 424.14C489.31 424.27 489.72 424.39 490.13 424.52V424.51Z" fill="white"/>
<path d="M530.59 637.25C533.68 636.03 536.77 634.81 540.1 633.49C540.2 633.95 540.5 635.31 540.87 636.99C537.22 637.53 534.02 638 530.82 638.48C530.74 638.07 530.66 637.66 530.59 637.26V637.25Z" fill="white"/>
<path d="M492.831 408.2C490.511 408.2 488.181 408.22 485.871 408.09C485.801 408.09 485.821 406.45 485.801 405.57H492.861C492.861 406.45 492.851 407.32 492.841 408.2H492.831Z" fill="white"/>
<path d="M533.751 550.44V557.92C531.711 556.24 529.331 554.921 529.501 554.281C529.941 552.611 531.501 551.23 532.611 549.73C532.991 549.97 533.371 550.2 533.751 550.44Z" fill="white"/>
<path d="M475.091 647.1C468.631 646.25 462.171 645.39 455.701 644.54C455.681 644.37 455.661 644.19 455.641 644.01C457.731 644.01 459.821 643.89 461.901 644.04C464.181 644.21 466.461 644.54 468.721 644.94C470.961 645.33 473.161 645.9 475.391 646.39L475.101 647.09L475.091 647.1Z" fill="white"/>
<path d="M406.89 722.94C409.42 723.65 411.91 724.53 414.48 725.03C418.28 725.77 422.14 726.25 425.97 726.84C426.12 726.29 426.28 725.74 426.43 725.19C424.76 724.5 423.12 723.74 421.42 723.14C411.55 719.64 401.63 716.29 391.85 712.57C390.31 711.98 385.76 711.81 389.04 707.81C390.69 709.21 392.13 711.19 394.04 711.92C404.08 715.73 414.23 719.28 424.38 722.8C429.87 724.71 435.43 726.39 439.61 727.74C438 727.74 434.78 727.79 431.56 727.74C423.06 727.59 414.28 728.87 406.89 722.96V722.94Z" fill="black"/>
<path d="M565.83 725.82C570.51 719.32 574.48 724.05 578.59 726.62C579.13 731.94 574.49 738.96 583.62 741.55C579.08 741.49 576.67 739.95 576.74 734.89C576.79 731.57 579.29 726.64 573.71 725.27C571.38 724.7 568.64 725.78 566.09 726.11L565.82 725.82H565.83Z" fill="black"/>
<path d="M513.051 463.02C507.011 483.15 501.051 503.32 494.881 523.41C492.691 530.53 490.101 537.52 487.421 544.47C486.861 545.91 485.101 546.89 483.891 548.08C488.231 535.76 493.001 523.56 496.821 511.08C502.061 493.97 506.591 476.65 511.451 459.43C511.621 458.84 512.041 458.33 513.061 456.52V463.02H513.051Z" fill="black"/>
</svg>
