<svg width="433" height="270" viewBox="0 0 433 270" fill="none" xmlns="http://www.w3.org/2000/svg">
<path d="M242.61 185.79C243.66 185 244.62 183.98 245.79 183.47C248.07 182.47 250.48 181.76 252.84 180.93C252.69 180.39 252.54 179.86 252.38 179.32C250.73 179.42 249.09 179.52 247.44 179.62C247.72 179.89 247.99 180.16 248.27 180.43C252.19 176.98 256.11 173.53 260.03 170.08C262.98 167.37 265.93 164.66 268.88 161.96C268.49 161.58 268.11 161.21 267.72 160.83C263.32 162.2 261.78 166.25 260.12 170.18C258 165.53 262.13 162.76 263.66 159.32C265.08 156.11 267.75 153.48 269.57 150.41C270.01 149.68 269.25 148.23 269.04 147.13C270.79 145.92 272.92 144.44 275.05 142.97C272.26 148.47 269.47 153.96 266.68 159.46C267.11 159.81 267.53 160.15 267.96 160.5C269.24 159.22 270.6 158.01 271.79 156.64C273.51 154.66 275.1 152.56 276.76 150.51C277.68 149.36 278.62 148.22 279.54 147.08C279.22 146.66 278.9 146.24 278.59 145.82H283.82C281.68 145.22 280.87 144.99 279.83 144.7C282.25 144.06 284.22 143.54 287.21 142.76C284.67 141.27 283.36 140.5 282.05 139.74C282.12 139.57 282.2 139.39 282.27 139.22C284.31 139.71 286.36 140.2 288.57 140.73C289.73 139.4 290.89 138.07 292.38 136.35C289.93 134.93 287.78 133.69 285.62 132.45C285.71 132.27 285.81 132.08 285.9 131.9C289.88 132.45 293.87 133 297.85 133.55C298.54 134.15 299.23 134.75 299.92 135.35L300.02 135.54C299.07 136.61 298.13 137.69 297.32 138.6C301.26 147.12 309.69 151.84 313.49 160.17C314.06 161.43 317.16 161.54 319.33 162.27C310.68 164.41 302.47 166.44 294.26 168.48C294.38 169.18 294.5 169.88 294.61 170.58C295.75 170.58 296.95 170.82 298.01 170.53C301.21 169.65 304.46 168.81 307.5 167.51C312.17 165.52 316.63 163.57 320.34 169.04C320.43 169.17 320.93 169.02 321.76 168.98C321.45 163.77 321.13 158.57 320.84 153.66C318.22 152.65 316.1 151.83 313.99 151.01C314.06 150.73 314.14 150.44 314.21 150.16C316.26 150.45 318.31 150.74 320.89 151.11C320.89 148.05 320.66 145.24 320.95 142.48C321.38 138.41 319.55 136.53 315.79 135.45C307.02 132.92 298.36 130.02 289.59 127.51C288.64 127.24 287.25 128.51 286.06 129.06C282.35 133.75 278.64 138.43 274.94 143.12C274.73 142.12 274 140.77 274.4 140.18C277.7 135.33 281.21 130.64 284.64 125.87C285.9 124.12 286.88 122.14 288.33 120.57C290.82 117.86 292.34 114.96 291.75 111.18C291.16 107.37 293.01 104.78 295.62 102.09C303.36 94.0898 310.74 85.7498 318.3 77.5698C318.96 76.8598 319.84 76.3598 321.32 75.2198C325.07 79.4298 328.86 83.4998 332.45 87.7398C336.53 92.5598 340.55 97.4398 344.4 102.45C347.03 105.88 351.15 108.62 350.13 114.01C349.97 114.83 351.22 115.98 351.92 116.9C361 128.75 370.11 140.58 379.2 152.43C392.13 169.29 405.04 186.17 418.02 203C419.31 204.68 421 206.05 422.53 207.55C424.08 209.07 428.47 208.78 425.98 212.95C425.92 213.04 427.13 213.89 428.9 215.3C408.55 222.13 389.25 228.61 369.95 235.08C370.79 234.23 371.49 232.96 372.5 232.61C380.97 229.66 389.49 226.85 398.01 224.04C406.47 221.25 414.94 218.49 424.61 215.33C417.17 206.58 410.56 198.82 403.96 191.06C402.31 189.04 400.67 187.01 399.02 184.99C398.9 184.51 398.91 183.93 398.64 183.58C386.46 167.71 374.26 151.86 362.05 136.01L362.12 136.08C358.1 130.01 357.94 129.97 352.48 133.6C349.34 134.09 346.21 134.57 343.07 135.06C347.77 133.13 352.47 131.2 357.16 129.28C353.86 121.71 353.07 121.3 345.6 123.67C342.12 124.78 338.68 126.02 335.2 127.14C331.91 128.19 328.6 129.16 325.3 130.16C325.16 129.67 325.02 129.19 324.88 128.7C333.52 125.94 342.15 123.17 350.79 120.41C350.92 119.91 351.05 119.41 351.19 118.9C349.42 118.03 347.36 116.1 345.92 116.48C337.95 118.62 330.14 121.31 323.69 123.37C323.69 137.12 324.25 149.91 323.52 162.63C322.91 173.15 327.13 180.77 334.58 187.31L334.81 187.69C337.07 191.11 339.59 194.4 341.49 198.01C343 200.87 344.48 201.01 347.42 200.12C364.6 194.9 381.86 189.96 399.1 184.93C399.21 187.75 398.12 189.23 395.06 189.58C392.46 189.88 389.95 190.97 387.41 191.74C374.42 195.7 361.42 199.66 347.85 203.8C348.58 202.63 348.99 201.97 349.94 200.46C347.83 201.54 346.6 202.18 345.47 202.76C346.91 208.67 350.59 206.51 353.8 205.58C370.56 200.73 387.3 195.83 404.05 190.95C402.67 191.76 401.38 192.89 399.89 193.34C388.74 196.65 377.54 199.79 366.38 203.07C360.62 204.77 354.92 206.67 349.2 208.48L349.35 210.05C350.53 210.22 351.84 210.8 352.89 210.49C366.12 206.66 379.31 202.69 392.51 198.78C396.71 197.54 400.94 196.38 405.16 195.18C405.36 195.77 405.55 196.37 405.75 196.96C388.92 204.24 370.99 208.54 352.81 214.55C354.6 216.42 355.81 217.7 357.02 218.97C357.69 219.98 358.36 220.99 359.03 222C360.14 224.98 361.91 225.21 364.84 224.14C371.15 221.82 377.65 219.99 384.07 217.97C382.5 218.75 380.97 219.67 379.34 220.28C374.44 222.13 369.47 223.82 364.6 225.72C364.2 225.88 364.25 227.2 364.09 227.98C366.08 230.32 368.08 232.65 370.07 234.99C370.54 235.58 371.01 236.17 371.87 237.26C361.01 235.83 352.85 241.24 344.57 245.96C334.02 251.97 323.61 258.22 313.31 264.65C308.39 267.72 303.73 267.9 298.71 265.3C281.73 256.5 264.81 247.58 247.72 239.01C238.67 234.47 229.56 229.73 219.96 226.72C215.26 225.25 209.2 226.86 204.08 228.25C195.6 230.55 187.39 233.81 179.05 236.63C173.39 238.54 167.78 240.72 161.99 242.11C159.33 242.75 156.25 242.01 153.42 241.52C151.66 241.22 150.05 240.13 148.31 239.55C139.08 236.45 133.06 239.24 130 248.35C121.51 245.25 115.15 249.21 108.94 254.61C107.38 255.97 104.28 255.81 101.88 255.87C99.64 255.92 97.31 255.57 95.14 254.97C91.93 254.08 88.82 252.81 85.68 251.69C58.75 242.09 31.81 232.54 4.94 222.77C2.98 222.01 1.63 219.61 0 218C0 217.33 0 216.67 0 216C2.04 214.47 4.59 213.31 6.04 211.35C24.6 186.16 43.01 160.85 61.47 135.59C61.76 135.2 62.53 134.96 62.56 134.61C63.44 122.46 73.55 115.85 79.5 106.81C84.88 98.6398 91.65 91.3998 97.47 83.4998C99.94 80.1498 101.14 80.8198 103.3 83.6698C111.02 93.8798 118.96 103.94 126.84 114.03C127.12 114.38 127.63 114.55 128.36 115C136 104.48 143.51 93.9498 151.22 83.5798C158.07 74.3698 165.18 65.3398 172.1 56.1798C172.97 55.0298 174.08 53.4698 173.91 52.2498C173.18 46.9098 176.47 43.6198 179.38 39.9798C187.91 29.3198 196.33 18.5898 204.77 7.85984C208.72 2.83984 210.01 2.72984 214.33 7.50984C225.58 19.9798 236.8 32.4798 247.98 45.0098C248.69 45.8098 249.41 47.0998 249.3 48.0598C248.55 54.4198 252.7 58.3598 256.08 62.8098C266.65 76.7098 277.11 90.6898 287.5 104.72C288.62 106.23 289.02 108.28 289.75 110.08L288.6 110.59C282.7 103 276.81 95.4098 270.91 87.8098L271.01 87.9098C269.81 85.9798 268.6 84.0398 267.51 82.2898C250.77 88.6398 234.36 94.8698 217.95 101.1L217.43 99.8098C233.61 93.5398 249.8 87.2798 266.92 80.6498C264.02 77.4998 261.63 74.9098 259.25 72.3198L259.32 72.4098C256.3 68.2798 253.43 64.0198 250.14 60.1098C249.38 59.1998 247.09 58.9798 245.69 59.2898C234.66 61.8098 223.67 64.5298 212.71 67.1798V225.31C216.56 220.99 219.33 217.88 222.72 214.07C220.02 214.66 217.93 215.11 215.83 215.57C215.5 215.28 215.16 214.99 214.83 214.71C215.89 213.6 216.76 212.05 218.06 211.47C220.47 210.39 223.18 210.02 225.66 209.06C227.32 208.41 228.77 207.25 230.32 206.32L229.72 205.04C225.22 206.29 220.72 207.53 216.22 208.78L215.82 207.5C220.29 206.23 225.09 205.59 229.15 203.52C233.25 201.43 236.62 197.91 240.32 195.02C240.06 194.57 239.79 194.11 239.53 193.66C233.63 195.47 227.73 197.28 221.84 199.1C229.72 194.1 239.98 194.17 247.22 186.38C245.03 186.38 243.6 186.38 242.16 186.38C242.32 186.19 242.48 186 242.64 185.8L242.61 185.79ZM178.02 147.18L177.92 148.35C165.25 143.48 152.57 138.6 139.9 133.73C139.56 134.4 139.22 135.08 138.88 135.75C142.49 137.97 146.09 140.23 149.74 142.39C151.41 143.38 153.2 144.18 154.94 145.06L155.01 144.97C152.18 144.37 149.35 143.76 145.93 143.03C150.3 149.99 154.44 156.14 162.64 157.67C160.74 157.27 158.84 156.86 156.93 156.46C157.68 157.87 158.68 158.33 159.69 158.76C160.73 159.22 161.79 159.66 162.83 160.1C162.8 160.27 162.76 160.45 162.73 160.62L159.34 160.38C160.41 162.52 162.83 163.31 163.33 164.76C165.9 172.22 166.28 172.95 172.28 175.73C174.66 176.83 177.04 177.95 179.42 179.07C179.3 179.38 179.18 179.69 179.06 180C176.01 178.77 172.95 177.53 168.79 175.85C170.01 177.6 170.33 178.49 170.96 178.91C175.98 182.24 177.4 188.1 180.73 192.59C184.93 198.27 187.23 205.86 195.33 207.85C195.52 207.9 195.64 208.27 195.87 208.62H192.2C194.76 212.15 196.73 215.63 199.45 218.38C202.12 221.08 205.54 223.03 208.63 225.31C209.04 224.99 209.46 224.68 209.87 224.36C209.87 222.77 209.88 221.18 209.87 219.58C209.64 195.45 209.39 171.32 209.16 147.2C209.07 138.06 209.08 128.92 208.86 119.78C208.83 118.4 208.08 116.27 207.06 115.81C203.37 114.13 199.43 113.02 195.58 111.69C195.46 112.01 195.35 112.33 195.23 112.64C199.3 114.45 203.37 116.27 207.44 118.08C207.23 118.55 207.02 119.02 206.81 119.48C191.23 112.9 175.65 106.32 160.06 99.7498L160.25 99.3098C176.33 104.32 192.41 109.32 208.45 114.31C211.25 107.35 204.28 109.07 201.67 106.08C204.53 106.75 206.7 107.26 209.39 107.89C209.39 95.3898 209.56 83.2998 209.19 71.2198C209.14 69.5398 206.7 66.9898 204.88 66.4498C196.12 63.8398 187.15 61.9598 178.36 59.4598C173.63 58.1198 171.01 59.5598 169.83 64.1598L169.91 64.0598C167.93 66.3798 165.96 68.7098 163.65 71.4198C178.37 75.5398 192.32 79.4498 206.28 83.3598C203.62 83.9098 201.16 83.4598 198.75 82.8098C187.69 79.8598 176.66 76.7898 165.57 73.9598C164.48 73.6798 163.05 74.7198 161.77 75.1498L161.86 75.0598C160.63 76.1398 159.16 77.0498 158.22 78.3398C150.59 88.8098 143.05 99.3498 135.28 110.16C138.26 111.72 140.69 112.99 143.13 114.26C143.01 114.49 142.89 114.72 142.77 114.95C140.07 113.97 137.38 112.98 134.68 112L134.05 113.41C138.79 115.7 143.53 117.99 148.27 120.27C143.87 119.39 139.86 117.58 135.75 116.03C134.45 115.54 132.89 115.78 131.44 115.69C131.66 117.3 131.34 119.34 132.21 120.43C135.88 125.05 139.33 130.03 145.31 132.1C143.65 131.77 141.99 131.45 140.33 131.12C144.85 133.73 149.51 135.81 154.28 137.58C157.76 138.87 161.4 139.74 164.97 140.79C167.09 141.75 169.2 142.71 171.31 143.66L178.04 147.15L178.02 147.18ZM301.88 174.38C299.92 175.51 297.96 176.63 296 177.76C295.56 178.92 295.11 180.08 294.4 181.94C300.38 180.15 305.63 178.58 310.88 177.01C310.98 177.32 311.08 177.63 311.18 177.94C307.23 179.32 303.28 180.69 299.33 182.07C293.53 184.09 292.59 186.92 295.3 191.53C298.08 190.72 300.54 190.01 302.99 189.3C303.01 189.92 303.03 190.54 303.04 191.16C295.69 192.88 293.8 197.45 294.09 204.84C294.74 221.43 294.35 238.06 294.37 254.67C294.38 263.14 301.37 267.48 309.28 263.63C315.23 260.74 320.93 257.35 326.74 254.17C339.18 247.35 351.61 240.52 364.66 233.36C361.13 229 357.1 224.01 353.07 219.02L353.16 219.11C352.03 217.14 350.9 215.17 349.74 213.14C343.32 215.2 337.4 217.1 331.47 219L331.16 217.99C336.88 215.95 342.6 213.91 349.25 211.54C346.48 208.66 344.24 206.33 342 203.99L342.07 204.08C339.39 199.78 337.4 194.65 333.71 191.54C332 190.09 326.85 192.19 323.48 193.34C315.66 196.01 307.98 199.08 300.24 201.98C300.36 202.32 300.48 202.66 300.6 203C307.32 201.05 314.04 199.1 320.76 197.15C320.86 197.51 320.96 197.86 321.06 198.22C312.64 200.69 304.22 203.17 295.81 205.64C296.1 202.86 296.77 199.99 298.3 199.4C309.18 195.27 320.24 191.62 331.91 187.58C326.93 181.47 321.44 174.74 315.96 168.01C314.51 167.87 312.94 167.29 311.64 167.66C306.88 169 302.2 170.64 297.51 172.23C296.44 172.59 295.47 173.23 293.23 174.36C297.14 174.36 299.49 174.36 301.85 174.36L301.88 174.38ZM291.85 120.95C301.11 123.83 310.37 126.7 319.93 129.67C320.06 126.37 320.29 123.3 316.13 122.15C310.04 120.48 303.95 118.78 297.91 116.94C294.06 115.76 292.2 117.09 291.97 121.01C288.18 123.36 291.08 124.4 292.97 125.03C298.26 126.8 303.65 128.28 309 129.87C312.6 130.94 316.2 132 319.79 133.06C319.93 132.62 320.06 132.17 320.2 131.73C319.39 131.4 318.59 131.06 317.78 130.75C309.14 127.48 300.5 124.21 291.85 120.95ZM194.96 220.07C194.33 219.04 193.69 218 193.06 216.97C187.41 208.67 181.76 200.37 176.11 192.08L176.2 192.18C175.67 189.76 174.59 188.98 171.97 189.96C168.44 191.28 164.7 192.03 161.05 193.02L161.11 193.1C165.16 191.18 169.21 189.25 173.25 187.33C173.05 186.71 172.85 186.09 172.66 185.47C161.52 188.31 150.76 192.57 139.99 196.62C128.75 200.84 117.67 205.45 106.51 209.89C106.17 209.32 105.82 208.75 105.48 208.18C107.38 206.77 109.09 204.83 111.22 204.04C124.21 199.2 137.25 194.49 150.37 190.01C156.93 187.77 163.69 186.09 170.6 184.08C169.78 182.56 169.04 181.2 168.46 180.13C159.73 182.83 151.38 185.42 143.03 188.01L143.09 188.09C144.5 187.34 145.84 186.42 147.33 185.88C153.02 183.81 158.77 181.91 164.47 179.84C165.85 179.34 168.38 178.67 165.03 177.03L165.1 177.11C163.71 174.08 162.32 171.06 161.22 168.66C154.98 169.92 149.72 170.99 144.45 172.06C143.34 172.36 142.24 172.66 141.13 172.96C129.45 176.65 117.78 180.34 106.1 184.04C105.99 183.69 105.87 183.34 105.76 182.98C123.09 177.04 140.42 171.1 158.58 164.87C155.1 160.29 152.33 156.64 150.25 153.9C146.26 154.98 143.1 155.84 139.93 156.7C139.93 156.42 139.93 156.13 139.93 155.85C142.69 154.44 145.45 153.04 148.22 151.63C148.25 151.16 148.27 150.69 148.3 150.22C146.63 150.08 144.78 149.41 143.31 149.89C133.38 153.16 123.53 156.67 113.66 160.12C110.63 161.18 107.63 162.29 104.61 163.38C104.48 163.07 104.36 162.75 104.23 162.44C106.04 161.53 107.86 160.63 109.67 159.72C109.59 159.58 109.51 159.45 109.43 159.31L103.89 160.68C103.76 160.17 103.63 159.65 103.5 159.14C110.39 157.05 117.28 154.96 124.17 152.87C123.81 153.4 123.46 153.94 122.61 155.22C130.4 152.58 137.46 150.19 144.52 147.8C144.44 147.56 144.37 147.32 144.29 147.08C137.55 149.04 130.8 151.01 124.06 152.97C130.63 150.27 137.2 147.57 143.77 144.87L143.33 143.18C140.68 143.7 138.04 144.22 135.39 144.74C135.33 144.61 135.28 144.47 135.22 144.34C137.04 143.41 138.85 142.48 140.67 141.55C137.32 135.19 136.31 134.42 132.41 135.72C123.9 138.57 115.48 141.73 106.91 144.37C103.09 145.55 102.25 147.75 102.33 151.34C103.07 183.42 103.68 215.51 104.37 247.6C104.41 249.64 104.84 251.66 105.24 254.93C111.9 248.44 118.91 245.46 126.94 244.72C127.92 244.63 128.74 242.84 129.64 241.84C129.35 241.52 129.05 241.19 128.76 240.87C121.71 243.22 114.66 245.57 107.61 247.92C107.85 246.36 108.36 245.36 109.15 245.02C114.74 242.59 120.26 239.91 126.04 238.04C135.33 235.03 144.8 232.58 154.2 229.89C147.31 232.37 140.42 234.85 133.53 237.32C133.65 237.73 133.76 238.15 133.88 238.56C141.19 236.72 148.51 234.9 155.82 233.05C158.55 232.36 161.27 231.63 163.99 230.92C159.26 233 154.54 235.07 149.81 237.15C149.91 237.51 150.02 237.87 150.12 238.23C155.22 236.49 160.32 234.75 165.43 233.01C165.51 233.3 165.6 233.59 165.68 233.87C161.8 235.45 157.93 237.02 153.67 238.75C159.23 242.57 187.95 232.93 200 223.63C198.23 222.39 196.57 221.22 194.91 220.06L194.96 220.07ZM270.04 163.95C266.47 167.69 262.89 171.44 259.13 175.38C269.17 179.1 278.32 182.48 287.47 185.89C288.39 186.23 289.34 186.62 290.08 187.22C290.52 187.58 290.58 188.4 290.81 189.01C291.27 188.24 292.12 187.48 292.14 186.71C292.25 181.74 292.41 176.75 292 171.81C291.9 170.56 290 168.93 288.58 168.4C283.63 166.52 278.55 164.96 273.45 163.49C272.42 163.19 271.12 163.84 269.94 164.05L270.03 163.96L270.04 163.95ZM261.03 204.16C262.93 204.56 264.92 204.71 266.7 205.39C274.98 208.56 283.2 211.88 291.43 215.15C291.72 214.51 292.01 213.88 292.3 213.24C285.06 210.07 277.86 206.81 270.58 203.75C262.65 200.42 254.65 197.28 246.68 194.05L246.53 192.67C248 192.39 249.72 191.47 250.89 191.94C257 194.36 262.98 197.12 269 199.77C273.05 201.55 277.04 203.46 281.15 205.08C284.49 206.4 287.96 207.38 291.8 208.65V202.76C285.22 199.74 278.81 196.81 272.41 193.88L272.87 192.82C279.16 195.51 285.45 198.19 291.77 200.89C293.55 194.28 293.15 192.19 289.9 190.86C279.07 186.44 268.23 182.06 257.41 177.66C251.63 184.38 245.61 191.39 239.2 198.85C246.38 201.97 253.04 204.91 259.76 207.74C261.35 208.41 262.91 208.5 262.01 205.89C261.68 205.31 261.35 204.73 261.02 204.16H261.03ZM87.8 134.93C91.47 135.61 95.13 136.3 99.2 137.06V87.6598C98.79 87.4998 98.39 87.3298 97.98 87.1698C87.67 100.5 77.36 113.83 66.72 127.59C68.77 128.24 70.02 128.59 71.25 129.03C76.81 131.01 82.37 133.02 87.93 135.02C84.11 133.98 80.3 132.92 76.47 131.91C72.93 130.98 69.36 130.11 65.81 129.21L65.4 130.97C76.55 134.39 87.69 137.8 98.84 141.22C99.04 140.64 99.23 140.07 99.43 139.49C95.56 137.97 91.68 136.46 87.81 134.94L87.8 134.93ZM260.99 219.01C251.49 215.2 241.98 211.39 232.21 207.48C230.15 209.86 227.82 212.57 225.39 215.38C247.16 225.07 268.42 234.53 289.68 243.99C289.53 244.36 289.38 244.73 289.22 245.1C287.72 244.56 286.18 244.12 284.73 243.48C266.79 235.53 248.88 227.54 230.94 219.59C223.8 216.42 223.23 216.64 219.13 223.11C243.16 234.99 267.25 246.89 291.96 259.1C291.96 252.16 292.1 245.52 291.83 238.9C291.78 237.72 290.31 236.07 289.1 235.54C280.88 231.92 272.52 228.62 264.28 225.05C258.38 222.49 252.59 219.68 246.76 216.98C246.92 216.65 247.07 216.32 247.23 215.98C261.97 222.26 276.7 228.55 292.08 235.11C291.15 231.64 294.11 228.17 289.44 226.33C274.13 220.29 258.89 214.07 243.64 207.87C241.62 207.05 239.7 205.97 237.73 205.01C237.89 204.67 238.05 204.33 238.22 203.99C255.95 211.14 273.69 218.3 291.52 225.49C292.91 219.61 291.74 216.11 285.85 214.55C281.23 213.33 276.93 210.95 272.44 209.18C270.38 208.37 268.23 207.79 266.12 207.1C270.29 209.84 274.64 211.73 278.96 213.69C283.01 215.53 287.02 217.45 291.05 219.34C290.71 220.11 290.38 220.88 290.04 221.65C272.77 214.59 255.5 207.52 237.9 200.32C236.53 201.89 235.07 203.58 233.19 205.74C238.76 208.33 243.72 210.62 248.66 212.96C252.8 214.92 256.9 216.96 261.02 218.96L260.99 219V219.01ZM8.82 213.11C6.69 214.89 4.55 216.66 1.63 219.1C5.28 220.85 7.39 222.09 9.66 222.91C33.11 231.41 56.54 239.99 80.09 248.19C86.99 250.59 94.3 251.86 102.07 253.81C101.38 229.81 100.74 207.28 100.11 185.11C81.61 178.28 63.8 171.71 45.98 165.13L46.41 163.97C64.09 170.37 81.76 176.76 99.77 183.28V171.46C97.49 170.69 95.48 170.01 93.46 169.32C93.39 169.53 93.32 169.73 93.24 169.94C94.79 170.75 96.35 171.57 97.9 172.38C97.73 172.71 97.56 173.04 97.4 173.37C82.27 167.55 67.14 161.74 52.01 155.92C52.03 155.37 52.05 154.83 52.07 154.28C53.8 154.19 55.74 153.55 57.24 154.1C69.26 158.49 81.2 163.12 93.18 167.63C95.25 168.41 97.41 168.95 99.52 169.6C100.77 165.32 99.5 163.34 95.67 162.11C82.08 157.76 68.59 153.08 54.51 148.34C52.54 151.72 50.65 154.96 48.77 158.2L48.86 158.11C48.13 158.71 47.26 159.21 46.71 159.94C42.28 165.75 37.79 171.53 33.53 177.47C27.15 186.36 20.93 195.37 14.65 204.32L14.74 204.26C12.74 207.24 10.74 210.22 8.74 213.2L8.83 213.12L8.82 213.11ZM102.33 87.6498V143.85C113.65 139.1 124.44 134.57 135.23 130.04C135.14 129.67 135.05 129.31 134.96 128.94C132.75 129.14 130.54 129.35 127.71 129.61C129.7 128.48 131.18 127.64 132.99 126.61C122.87 113.75 112.96 101.15 102.33 87.6398V87.6498ZM245.49 47.2898C233.85 34.1998 223.01 22.0098 212.17 9.81984C211.78 9.96984 211.39 10.1298 211 10.2798V55.8098C222.3 53.0198 233.34 50.2898 245.49 47.2898ZM207.64 8.79984C197.56 21.5798 188.21 33.4298 178.42 45.8398C188.62 48.3998 197.71 50.6898 207.64 53.1898V8.79984ZM321.26 118.57C321.52 119.15 321.77 119.74 322.03 120.32C330.28 117.25 339.19 116.01 347.04 111.83C346.85 111.24 346.67 110.64 346.48 110.05C343.26 110.94 340.04 111.83 336.82 112.72C336.73 112.47 336.64 112.22 336.54 111.96C339.28 110.75 342.02 109.54 345.48 108.02C337.76 98.7198 330.41 89.8798 323.07 81.0398C322.67 81.2198 322.28 81.3998 321.88 81.5798C323.18 92.9198 319.7 104.36 322.21 115.94C324.63 115.6 326.13 115.39 328.87 115.01C325.54 116.56 323.4 117.56 321.26 118.57ZM99.27 154.97C100.39 147.93 100.29 147.06 97.1 145.97C87.35 142.64 77.56 139.41 67.72 136.35C66.44 135.95 64.24 136.3 63.38 137.19C61.15 139.51 59.42 142.32 57.25 145.27C71.72 150.09 85.54 154.69 99.35 159.29C99.59 158.65 99.83 158.01 100.07 157.37C96.8 156.15 93.53 154.93 90.26 153.71C90.34 153.45 90.41 153.18 90.49 152.92C93.31 153.58 96.12 154.24 99.27 154.98V154.97ZM295.07 106.47C303.71 109.58 311.07 112.24 319.1 115.14V80.2198C310.93 89.1398 303.42 97.3498 295.07 106.47ZM277.97 155.45C282.38 157.2 286.33 158.77 290.27 160.34C290.12 160.73 289.97 161.12 289.83 161.52C285.42 160.05 281 158.58 276.59 157.11C276.48 157.48 276.36 157.85 276.25 158.21C281.28 160.15 286.3 162.1 292.26 164.4C292.66 156.31 293.03 148.94 293.4 141.58C292.95 141.45 292.49 141.32 292.04 141.18C287.47 145.82 282.9 150.45 277.98 155.44L277.97 155.45ZM310 160.87C305.45 154.68 301.22 148.91 296.1 141.94C295.78 148.92 295.53 154.38 295.27 160.07C297.47 159.55 298.82 159.24 300.16 158.93C298.51 161.25 293.79 160.4 295.86 165.65C300.57 164.06 305.09 162.53 310 160.87ZM218.07 61.6198L218.46 62.9398C226.52 61.1198 234.59 59.3598 242.62 57.4698C247.59 56.2998 248.21 54.6298 245.83 49.8298C245.36 51.0998 244.87 52.4298 244.38 53.7698C244.07 53.6798 243.76 53.5998 243.45 53.5098C243.36 52.4798 243.27 51.4498 243.11 49.7698C240.46 50.9198 237.38 51.2598 236.22 52.9298C232.77 57.8898 233.06 58.0898 228.23 58.5198C228.51 55.4498 229.48 53.6898 232.75 56.4698C233.12 55.1498 233.41 54.1098 233.74 52.9198C220.44 55.1098 220.13 55.2598 222.24 58.7398C223.72 57.1098 225.4 53.9498 227 58.9298C223.89 59.8598 220.97 60.7298 218.05 61.5998L218.07 61.6198ZM292.84 109.73C300.18 118.4 310.27 116.7 318.43 120.85C318.26 116.1 303.34 109.88 292.84 109.73ZM186.68 57.0698L188.83 59.1598C189.57 57.0998 190.31 55.0398 191.06 52.9798L192.15 54.1098C192.46 55.4598 192.78 56.8098 193.34 59.2398C195.4 56.9698 196.87 55.3598 198.56 53.4998C188 50.1598 187.52 50.3298 186.69 57.0698H186.68ZM290.87 167C291 166.61 291.13 166.22 291.26 165.83C285.32 163.73 279.37 161.63 273.43 159.52C273.21 160.15 273 160.78 272.78 161.41C278.81 163.27 284.84 165.13 290.87 166.99V167ZM205.89 60.0498C206.85 58.5398 207.43 57.6298 208.36 56.1598C205.49 55.3598 203.1 54.6898 200.37 53.9298V59.3998C201.81 58.0198 202.67 57.2098 203.74 56.1798C204.5 57.5398 205.04 58.5198 205.89 60.0498ZM379.39 205.05L379.17 203.97C373.47 205.63 367.77 207.29 362.07 208.95C362.17 209.28 362.26 209.62 362.36 209.95C368.03 208.32 373.71 206.68 379.38 205.05H379.39Z" fill="black"/>
<path d="M271.76 93.3701C272.37 93.4501 272.98 93.5201 273.58 93.6001C273.66 93.9301 273.73 94.2501 273.81 94.5801C255.24 101.01 236.66 107.45 218.09 113.88L218.57 115.48C237.84 109.73 257.1 103.98 276.37 98.2301L276.75 99.3901C266.52 102.56 256.35 105.98 246.04 108.84C236.13 111.58 226.41 115.61 216.1 116.3C215.88 115.43 215.66 114.57 215.43 113.7C223.12 110.85 230.8 107.97 238.51 105.16C247.06 102.05 255.64 99.0201 264.2 95.9601C266.72 95.1001 269.24 94.2401 271.77 93.3801L271.76 93.3701Z" fill="black"/>
<path d="M285.361 111.42C262.451 117.99 239.541 124.56 216.641 131.14C216.501 130.65 216.351 130.16 216.211 129.67C239.131 123.15 262.051 116.62 284.971 110.1C285.101 110.54 285.231 110.98 285.361 111.43V111.42Z" fill="black"/>
<path d="M216.369 148.52C237.419 141.79 258.479 135.06 279.529 128.34C279.679 128.79 279.819 129.25 279.969 129.7C258.909 136.47 237.849 143.24 216.789 150.01C216.649 149.51 216.499 149.01 216.359 148.51L216.369 148.52Z" fill="black"/>
<path d="M216.061 124.77C237.541 118.56 259.021 112.34 280.501 106.13C280.611 106.49 280.721 106.86 280.831 107.22C259.401 113.61 237.981 120 216.551 126.39C216.381 125.85 216.221 125.31 216.051 124.77H216.061Z" fill="black"/>
<path d="M217.27 119.289C237.78 113.309 258.28 107.339 278.79 101.359L279.19 102.719C258.68 108.699 238.18 114.669 217.67 120.649C217.54 120.199 217.41 119.739 217.27 119.289Z" fill="black"/>
<path d="M271.76 93.37C269.24 94.23 266.72 95.09 264.19 95.95C249.85 100.59 235.5 105.24 221.16 109.88C219.21 110.51 217.25 111.14 215.3 111.77C215.15 111.35 215 110.92 214.85 110.5C218.53 109.15 222.19 107.71 225.91 106.46C240.06 101.69 254.21 96.95 268.42 92.38C269.14 92.15 271.84 89.33 271.76 93.37Z" fill="black"/>
<path d="M263.19 79.8094C247.46 85.7594 231.74 91.7094 216.01 97.6594C215.81 97.1294 215.62 96.6094 215.42 96.0794C231.16 90.1694 246.91 84.2694 262.65 78.3594C262.83 78.8394 263.01 79.3194 263.19 79.7994V79.8094Z" fill="black"/>
<path d="M267.311 87.1694C250.211 93.2994 233.121 99.4294 216.021 105.549C215.861 105.119 215.711 104.689 215.551 104.249C232.611 98.1294 249.681 92.0094 266.741 85.8994C266.931 86.3194 267.121 86.7394 267.311 87.1594V87.1694Z" fill="black"/>
<path d="M242.61 185.79C242.46 185.99 242.3 186.18 242.13 186.37C234.74 189.53 227.35 192.71 219.94 195.85C218.89 196.3 217.74 196.52 215.65 196.09C216.61 195.09 217.38 193.62 218.55 193.16C224.5 190.85 230.53 188.7 236.59 186.7C238.49 186.07 240.59 186.07 242.6 185.79H242.61Z" fill="black"/>
<path d="M286.5 115.57C274.81 118.78 263.11 121.99 251.42 125.19C251.31 124.83 251.21 124.47 251.1 124.1C262.73 120.76 274.35 117.42 285.98 114.09C286.15 114.58 286.33 115.08 286.5 115.57Z" fill="black"/>
<path d="M215.23 185.82C224.91 182.45 234.58 179.08 244.26 175.72C244.4 176.09 244.53 176.46 244.67 176.83C235.05 180.37 225.44 183.9 215.82 187.44C215.62 186.9 215.43 186.37 215.23 185.83V185.82Z" fill="black"/>
<path d="M270.901 87.8203C270.531 88.5103 270.321 89.6303 269.771 89.8403C260.031 93.4203 250.241 96.8903 240.061 99.2603C250.371 95.4803 260.681 91.7103 271.001 87.9303L270.901 87.8303V87.8203Z" fill="black"/>
<path d="M246.17 135.92C236.76 139 227.35 142.08 217.94 145.16C217.79 144.7 217.64 144.24 217.49 143.78C226.92 140.77 236.35 137.76 245.79 134.75C245.92 135.14 246.05 135.54 246.17 135.93V135.92Z" fill="black"/>
<path d="M242.041 145.04C251.901 141.49 261.771 137.94 271.631 134.38C271.831 134.99 272.031 135.59 272.221 136.2C262.141 139.12 252.051 142.04 241.971 144.96L242.031 145.04H242.041Z" fill="black"/>
<path d="M216.529 134.04L241.609 126.72C241.719 127.11 241.829 127.49 241.939 127.88C233.629 130.47 225.309 133.07 216.999 135.66C216.839 135.12 216.679 134.58 216.529 134.04Z" fill="black"/>
<path d="M217.27 139.429C225.02 136.859 232.78 134.299 240.53 131.729C240.67 132.129 240.81 132.519 240.94 132.919C233.21 135.619 225.47 138.309 217.74 141.009C217.58 140.489 217.42 139.959 217.26 139.439L217.27 139.429Z" fill="black"/>
<path d="M241.961 81.96C233.291 85.61 224.621 89.25 215.951 92.9L215.211 90.91C224.151 87.96 233.091 85 242.031 82.05L241.961 81.97V81.96Z" fill="black"/>
<path d="M241.98 144.97C233.75 148.11 225.52 151.26 217.3 154.4C217.08 153.76 216.87 153.12 216.65 152.48C225.11 150 233.58 147.52 242.04 145.04L241.98 144.96V144.97Z" fill="black"/>
<path d="M235.71 153.969C229.39 156.369 223.07 158.759 216.75 161.159C216.58 160.699 216.41 160.249 216.25 159.789C222.59 157.489 228.93 155.199 235.26 152.899C235.41 153.259 235.56 153.609 235.71 153.969Z" fill="black"/>
<path d="M249.19 62.5695C242.58 64.1495 235.97 65.7295 229.36 67.3095C229.27 66.9695 229.19 66.6295 229.1 66.2995C235.66 64.5395 242.23 62.7795 248.79 61.0195C248.92 61.5395 249.06 62.0595 249.19 62.5795V62.5695Z" fill="black"/>
<path d="M216.66 164.67C222.98 162.44 229.31 160.2 235.63 157.97C235.75 158.29 235.86 158.62 235.98 158.94C229.7 161.3 223.43 163.66 217.15 166.02C216.99 165.57 216.82 165.12 216.66 164.67Z" fill="black"/>
<path d="M242.021 82.0398C247.681 79.3098 253.351 76.5698 259.011 73.8398C259.261 74.4398 259.511 75.0398 259.771 75.6298C253.831 77.7398 247.901 79.8498 241.961 81.9598L242.031 82.0398H242.021Z" fill="black"/>
<path d="M259.24 72.3298C255.32 73.4898 251.41 74.6398 247.26 75.8698C248.63 71.8998 254.13 70.4798 259.3 72.4098L259.24 72.3298Z" fill="black"/>
<path d="M232.8 174.909C227.52 176.809 222.23 178.719 216.95 180.619L216.52 179.429C221.8 177.499 227.07 175.579 232.35 173.649C232.5 174.069 232.65 174.489 232.8 174.899V174.909Z" fill="black"/>
<path d="M154.92 145.06C153.18 144.18 151.39 143.38 149.72 142.39C146.07 140.23 142.48 137.97 138.86 135.75C139.2 135.08 139.54 134.4 139.88 133.73C152.55 138.6 165.23 143.48 177.9 148.35C187.4 152.44 196.89 156.53 206.39 160.62C206.55 160.26 206.7 159.91 206.86 159.55C202.53 157.35 198.2 155.14 193.87 152.94H196.25C188.73 148.98 180.94 146.03 173.13 143.17C172.65 142.99 171.91 143.5 171.3 143.7C169.18 142.74 167.07 141.78 164.95 140.82C158.4 137.92 151.84 135.02 145.29 132.13C139.31 130.06 135.86 125.08 132.19 120.46C131.32 119.37 131.65 117.33 131.42 115.72C132.86 115.81 134.43 115.58 135.73 116.06C139.84 117.61 143.85 119.43 148.25 120.3C143.51 118.01 138.77 115.72 134.03 113.44L134.66 112.03C137.36 113.01 140.05 114 142.75 114.98C142.87 114.75 142.99 114.52 143.11 114.29C140.67 113.02 138.24 111.74 135.26 110.19C143.03 99.3801 150.57 88.8401 158.2 78.3701C159.14 77.0801 160.61 76.1801 161.84 75.0901C163.49 76.1601 165 77.6401 166.8 78.2301C173.9 80.5801 181.03 82.8301 188.25 84.7701C194.27 86.3901 200.42 87.5101 206.52 88.8501C206.65 88.2701 206.79 87.7001 206.92 87.1201C202.07 85.6701 197.26 84.0801 192.36 82.8101C182.18 80.1701 171.95 77.7101 161.74 75.1701C163.01 74.7401 164.44 73.7001 165.54 73.9801C176.63 76.8101 187.66 79.8801 198.72 82.8301C201.13 83.4701 203.59 83.9301 206.25 83.3801C192.29 79.4701 178.34 75.5601 163.62 71.4401C165.93 68.7201 167.91 66.4001 169.89 64.0701C172.94 65.1101 175.95 66.3201 179.05 67.1801C188.06 69.6801 197.11 72.0501 206.15 74.4701C202.92 72.3101 199.41 71.0701 195.82 70.2001C187.17 68.1001 178.49 66.1701 169.82 64.1701C171 59.5801 173.63 58.1301 178.35 59.4701C187.14 61.9601 196.11 63.8501 204.87 66.4601C206.68 67.0001 209.12 69.5401 209.18 71.2301C209.55 83.3101 209.38 95.4001 209.38 107.9C206.68 107.27 204.51 106.76 201.66 106.09C204.27 109.07 211.24 107.36 208.44 114.32C192.4 109.33 176.32 104.32 160.24 99.3201L160.05 99.7601C175.63 106.34 191.21 112.92 206.8 119.49C207.01 119.02 207.22 118.55 207.43 118.09C203.36 116.28 199.29 114.46 195.22 112.65C195.34 112.33 195.45 112.01 195.57 111.7C199.42 113.03 203.36 114.14 207.05 115.82C208.07 116.28 208.81 118.41 208.85 119.79C209.08 128.93 209.07 138.07 209.15 147.21C209.38 171.34 209.62 195.47 209.86 219.59C209.88 221.18 209.86 222.77 209.86 224.37C209.45 224.69 209.03 225 208.62 225.32C205.53 223.04 202.1 221.09 199.44 218.39C196.72 215.64 194.75 212.16 192.19 208.63H195.86C195.62 208.28 195.51 207.91 195.32 207.86C187.22 205.87 184.93 198.28 180.72 192.6C177.39 188.1 175.98 182.25 170.95 178.92C170.32 178.5 170 177.62 168.78 175.86C172.95 177.54 176 178.78 179.05 180.01C179.17 179.7 179.29 179.39 179.41 179.08C177.03 177.97 174.66 176.85 172.27 175.74C166.27 172.97 165.89 172.23 163.32 164.77C162.82 163.32 160.41 162.52 159.33 160.39L162.72 160.63C162.75 160.46 162.79 160.28 162.82 160.11C161.77 159.66 160.72 159.22 159.68 158.77C158.67 158.33 157.68 157.87 156.92 156.47C158.82 156.87 160.72 157.28 162.63 157.68C154.43 156.14 150.28 149.99 145.92 143.04C149.34 143.77 152.17 144.37 155 144.98C166.9 149.95 178.79 154.93 190.7 159.87C190.83 159.93 191.13 159.58 192.25 158.78C179.42 154.07 167.17 149.57 154.93 145.07L154.92 145.06ZM172.78 108.62C177.94 111.25 183.1 113.87 188.26 116.5C188.5 115.96 188.74 115.41 188.98 114.87C183.54 112.83 178.1 110.8 172.67 108.76C167.14 106.1 161.62 103.44 156.09 100.79C153.13 99.5201 150.17 98.2401 147.08 96.9101C146.53 98.8101 146.14 100.18 145.63 101.94C149.77 103.02 153.64 104.04 158.48 105.3C157.11 103.43 156.54 102.64 155.97 101.86C161.58 104.11 167.18 106.37 172.79 108.62H172.78ZM178.99 119.02L161.35 110.68C161.12 111.24 160.9 111.8 160.67 112.36C166.79 114.56 172.91 116.77 179.03 118.97C188.05 123.51 197.08 128.05 206.1 132.59C206.34 132.09 206.58 131.59 206.82 131.08C204.22 129.88 201.64 128.63 199 127.5C192.34 124.64 185.66 121.84 178.98 119.01L178.99 119.02ZM176.11 71.5701C182.51 73.8601 188.12 75.9401 193.78 77.8801C197.2 79.0501 200.61 79.7601 202.52 75.0901C194.13 72.6801 186 69.1101 176.12 71.5801L176.11 71.5701ZM145.55 126.96C145.37 127.39 145.2 127.83 145.02 128.26C156.5 132.91 167.98 137.56 179.46 142.21C179.62 141.82 179.78 141.43 179.94 141.04C168.48 136.35 157.02 131.65 145.55 126.96ZM205 71.1301C205.12 70.6601 205.24 70.1901 205.36 69.7201C194.89 67.0201 184.42 64.3201 173.95 61.6201C173.84 62.0501 173.73 62.4801 173.62 62.9101C184.08 65.6501 194.54 68.3901 204.99 71.1301H205ZM180.58 87.6701C180.46 88.0101 180.35 88.3501 180.23 88.6901C188.91 91.7601 197.58 94.8301 206.26 97.9001C206.43 97.4101 206.6 96.9101 206.77 96.4201C198.04 93.5001 189.32 90.5801 180.59 87.6701H180.58ZM165.44 99.1801C165.56 98.8501 165.69 98.5201 165.81 98.1801C160.71 96.0401 155.61 93.9101 150.51 91.7701C150.25 92.5001 149.99 93.2301 149.73 93.9601L165.44 99.1701V99.1801ZM205.61 177.77C205.78 177.32 205.94 176.87 206.11 176.42C199.21 173.91 192.3 171.4 185.4 168.89L185 169.96C191.87 172.56 198.74 175.16 205.61 177.77ZM195.97 131.17C196.13 130.77 196.29 130.37 196.45 129.98C189.28 126.92 182.1 123.86 174.93 120.81C174.77 121.19 174.61 121.56 174.45 121.94C181.62 125.02 188.79 128.1 195.97 131.17ZM191.83 100.22C191.97 99.8001 192.1 99.3801 192.24 98.9601C185.06 96.5801 177.89 94.2001 170.71 91.8101C170.58 92.2001 170.46 92.5901 170.33 92.9901C177.49 95.4001 184.66 97.8101 191.82 100.22H191.83ZM178.15 129.71C177.97 130.13 177.79 130.55 177.62 130.97C183.99 133.71 190.36 136.45 196.72 139.19C196.85 138.87 196.99 138.55 197.12 138.23C190.8 135.39 184.47 132.55 178.15 129.71ZM205.9 139.02C206.06 138.64 206.21 138.26 206.37 137.88L187.08 129.89L186.62 131.02C193.05 133.69 199.47 136.35 205.9 139.02ZM141.19 105.2C141 105.65 140.81 106.1 140.62 106.54C146.75 109.46 152.88 112.38 159 115.3C159.17 114.94 159.34 114.57 159.51 114.21C153.4 111.21 147.29 108.2 141.18 105.2H141.19ZM206.4 101.92C206.53 101.58 206.66 101.24 206.79 100.91C200.76 98.5901 194.72 96.2701 188.69 93.9401L188.32 94.9101C194.35 97.2501 200.38 99.5801 206.4 101.92ZM204.79 209.29C205.06 208.87 205.33 208.46 205.6 208.04C200.22 205.89 194.84 203.74 189.46 201.58C189.33 201.89 189.2 202.2 189.07 202.5C194.31 204.76 199.55 207.02 204.78 209.28L204.79 209.29ZM160.85 78.9001C160.7 79.3101 160.56 79.7301 160.41 80.1401C165.97 81.8101 171.52 83.4801 177.08 85.1501C177.18 84.8501 177.27 84.5401 177.37 84.2401C171.86 82.4601 166.35 80.6801 160.84 78.9001H160.85Z" fill="white"/>
<path d="M161.05 193.02C164.7 192.03 168.44 191.28 171.97 189.96C174.59 188.98 175.67 189.76 176.2 192.17C175.23 192.28 174.2 192.21 173.31 192.53C158.79 197.7 144.26 202.86 129.78 208.16C122.07 210.98 114.46 214.06 106.81 217.03C108.34 217.76 109.56 217.53 110.71 217.11C130.3 209.83 149.89 202.53 169.46 195.19C171.74 194.33 173.9 193.13 176.12 192.09C181.77 200.39 187.42 208.69 193.07 216.98C191.42 217.65 189.77 218.32 188.11 218.98C181.72 221.17 175.34 223.36 168.95 225.55C164.05 227 159.15 228.45 154.25 229.91C144.86 232.6 135.38 235.05 126.09 238.06C120.31 239.93 114.79 242.61 109.2 245.04C108.41 245.38 107.9 246.38 107.66 247.94C114.71 245.59 121.76 243.24 128.81 240.89C129.1 241.21 129.4 241.54 129.69 241.86C128.79 242.86 127.97 244.65 126.99 244.74C118.95 245.48 111.94 248.46 105.29 254.95C104.89 251.68 104.46 249.65 104.42 247.62C103.73 215.53 103.11 183.45 102.38 151.36C102.3 147.77 103.14 145.56 106.96 144.39C115.53 141.75 123.95 138.59 132.46 135.74C136.36 134.43 137.37 135.21 140.72 141.57C138.9 142.5 137.08 143.43 135.27 144.36C135.33 144.49 135.38 144.63 135.44 144.76C138.09 144.24 140.73 143.72 143.38 143.2L143.82 144.89C137.25 147.59 130.68 150.29 124.11 152.99L124.23 152.89C117.34 154.98 110.45 157.07 103.56 159.16C103.69 159.67 103.82 160.19 103.95 160.7L109.49 159.33C109.57 159.47 109.65 159.6 109.73 159.74C107.92 160.65 106.1 161.55 104.29 162.46C104.42 162.77 104.54 163.09 104.67 163.4C107.68 162.31 110.69 161.2 113.72 160.14C123.59 156.69 133.44 153.18 143.37 149.91C144.84 149.43 146.69 150.1 148.36 150.24C148.33 150.71 148.31 151.18 148.28 151.65C145.52 153.06 142.76 154.46 139.99 155.87C128.39 159.59 116.79 163.3 105.19 167.02C106.17 168.08 106.83 168.15 107.43 167.97C114.89 165.8 122.4 163.76 129.78 161.33C133.31 160.17 136.59 158.28 139.98 156.72C143.15 155.86 146.31 155.01 150.3 153.92C152.38 156.66 155.15 160.31 158.63 164.89C140.47 171.12 123.14 177.06 105.81 183C105.92 183.35 106.04 183.7 106.15 184.06C117.83 180.37 129.5 176.68 141.18 172.98C139.87 173.63 138.6 174.41 137.23 174.91C128.03 178.27 118.81 181.55 109.61 184.91C108.24 185.41 106.97 186.18 105.66 186.83C118.63 183.18 131.11 178.49 143.56 173.73C144.02 173.55 144.2 172.65 144.51 172.09C149.78 171.02 155.04 169.96 161.28 168.69C162.38 171.08 163.77 174.11 165.16 177.13C163.88 177.31 162.54 177.28 161.35 177.7C145.35 183.34 129.37 189.03 113.38 194.73C111 195.58 108.65 196.5 106.29 197.4C107.51 198.33 108.43 198.34 109.24 198.05C124.25 192.61 139.26 187.18 154.24 181.65C157.92 180.29 161.48 178.6 165.1 177.06C168.45 178.69 165.92 179.36 164.54 179.87C158.85 181.94 153.1 183.84 147.4 185.91C145.92 186.45 144.57 187.37 143.16 188.12C135.02 190.93 126.89 193.74 118.75 196.55C118.95 197.09 119.16 197.64 119.36 198.18C127.27 194.8 135.18 191.42 143.09 188.04C151.44 185.45 159.79 182.86 168.52 180.16C169.1 181.23 169.83 182.59 170.66 184.11C163.75 186.11 157 187.79 150.43 190.04C137.31 194.53 124.27 199.23 111.28 204.07C109.15 204.86 107.44 206.8 105.54 208.21C105.88 208.78 106.23 209.35 106.57 209.92C117.72 205.48 128.81 200.87 140.05 196.65C150.83 192.61 161.58 188.34 172.72 185.5C172.92 186.12 173.12 186.74 173.31 187.36C169.26 189.28 165.21 191.21 161.16 193.13C154.09 195.33 147.02 197.53 139.95 199.73C140.16 200.3 140.36 200.87 140.57 201.44C147.41 198.64 154.26 195.84 161.1 193.04L161.05 193.02ZM133.08 216.11C134.35 215.79 135.71 215.64 136.89 215.11C142.59 212.52 148.17 209.67 153.92 207.21C160.37 204.45 166.97 202.02 173.48 199.39C174.8 198.86 176.03 198.08 177.31 197.42C177.09 197.01 176.88 196.6 176.66 196.19C153.45 204.78 130.24 213.38 107.03 221.97C107.19 222.4 107.34 222.84 107.5 223.27C112.02 221.83 116.55 220.38 121.07 218.94C117.7 220.73 114.33 222.51 110.96 224.3C111.1 224.6 111.25 224.9 111.39 225.21C118.62 222.18 125.85 219.15 133.08 216.12V216.11ZM114.92 237.12C115.08 237.5 115.23 237.88 115.39 238.26C131.84 232.05 148.29 225.83 164.75 219.62C164.5 218.96 164.25 218.31 164 217.65C147.32 223.31 130.04 227.37 114.92 237.12ZM141.36 220.53C141.14 219.95 140.92 219.37 140.69 218.79C129.41 222.73 118.14 226.66 106.75 230.64C106.84 231.76 106.95 233.01 107.09 234.66C118.61 229.33 130.89 227.01 141.36 220.53ZM106.39 192.03L106.83 193.55C121.73 188.31 136.64 183.08 151.54 177.84C151.41 177.46 151.28 177.07 151.15 176.69C136.23 181.81 121.31 186.92 106.39 192.04V192.03ZM106.78 177.53C106.92 178 107.05 178.48 107.19 178.95C119.18 174.99 131.16 171.03 143.15 167.07L142.78 165.95C130.78 169.81 118.78 173.67 106.78 177.53ZM175.19 213.93C175.48 214.49 175.77 215.06 176.06 215.62C182.18 215.45 184.98 213.95 186.6 209.23C182.41 210.95 178.8 212.44 175.19 213.93ZM159.83 212.81C160 213.34 160.18 213.87 160.35 214.41C167.29 211.94 174.24 209.46 181.18 206.99C181.07 206.64 180.95 206.28 180.84 205.93C173.84 208.22 166.83 210.52 159.83 212.81ZM106.41 213.15C106.52 213.67 106.63 214.18 106.74 214.7C112.95 212.12 119.16 209.55 125.37 206.97C125.23 206.6 125.09 206.24 124.95 205.87C118.77 208.3 112.6 210.72 106.42 213.15H106.41ZM105.72 173.94C105.87 174.4 106.02 174.86 106.17 175.32C111.4 173.61 116.63 171.91 121.86 170.2C121.73 169.8 121.6 169.4 121.47 169C116.22 170.64 110.97 172.29 105.72 173.93V173.94Z" fill="white"/>
<path d="M48.7491 158.2C50.6391 154.96 52.5291 151.71 54.4991 148.33C68.5791 153.07 82.0691 157.74 95.6591 162.1C99.4891 163.33 100.759 165.31 99.5091 169.59C97.3991 168.94 95.2391 168.4 93.1691 167.62C81.1891 163.11 69.2491 158.48 57.2291 154.09C55.7291 153.54 53.7891 154.18 52.0591 154.27C52.0391 154.82 52.0191 155.36 51.9991 155.91C67.1291 161.73 82.2591 167.54 97.3891 173.36C97.5591 173.03 97.7291 172.7 97.8891 172.37C96.3391 171.56 94.7791 170.74 93.2291 169.93C93.2991 169.72 93.3691 169.52 93.4491 169.31C95.4591 169.99 97.4791 170.67 99.7591 171.45V183.27C81.7491 176.75 64.0791 170.36 46.3991 163.96L45.9691 165.12C63.7891 171.7 81.5991 178.27 100.099 185.1C100.729 207.28 101.379 229.81 102.059 253.8C94.2891 251.85 86.9891 250.59 80.0791 248.18C56.5191 239.98 33.0991 231.4 9.64914 222.9C7.37914 222.08 5.26914 220.84 1.61914 219.09C4.53914 216.66 6.67914 214.88 8.81914 213.1C9.93914 213.79 10.9691 214.69 12.1691 215.14C35.1991 223.7 58.2391 232.23 81.2991 240.71C86.0391 242.46 90.8691 243.99 95.6491 245.63C95.7891 245.25 95.9291 244.87 96.0691 244.49C94.5991 243.87 93.1591 243.19 91.6691 242.64C69.9891 234.72 48.3191 226.78 26.5991 218.96C20.7091 216.84 14.6791 215.1 8.70914 213.18C10.7091 210.2 12.7091 207.22 14.7191 204.23C42.5291 214.05 70.3291 223.88 98.1391 233.7C98.0691 232.42 97.6191 232 97.0891 231.81C71.3891 222.73 45.6891 213.65 19.9591 204.67C18.3391 204.1 16.4091 204.4 14.6291 204.29C20.9191 195.33 27.1291 186.33 33.5091 177.44C37.7691 171.5 42.2491 165.72 46.6891 159.91C47.2491 159.18 48.1191 158.69 48.8491 158.08C49.8091 158.82 50.7691 159.57 51.7191 160.32H48.8391C48.7791 160.68 48.7191 161.05 48.6591 161.41C65.0791 167.75 81.4991 174.08 97.9191 180.42C98.0991 180.02 98.2791 179.61 98.4591 179.21C97.3091 178.45 96.1691 177.7 95.0191 176.94C86.6891 173.47 78.3591 170 70.0291 166.53C62.9291 163.75 55.8291 160.97 48.7291 158.18L48.7491 158.2ZM63.1991 182.77C55.1691 179.72 47.1491 176.66 39.1191 173.61C38.9191 174.18 38.7191 174.76 38.5191 175.33C46.6291 177.95 54.7391 180.57 62.8491 183.18L97.2991 196.58C97.5291 195.97 97.7491 195.36 97.9791 194.75C86.3891 190.75 74.7991 186.76 63.2091 182.76L63.1991 182.77ZM95.9591 207.95C96.8491 207.82 97.7491 207.7 98.6391 207.57C98.7291 207.16 98.8191 206.75 98.9191 206.35C76.5691 198.46 54.2191 190.57 31.8691 182.68C31.7291 183.07 31.5891 183.47 31.4391 183.86C37.3191 186.26 43.1891 188.66 49.0691 191.06C42.5891 189.11 36.1191 187.17 29.6391 185.22C29.5291 185.59 29.4191 185.95 29.3091 186.32C52.2191 194.54 75.1191 202.76 98.0291 210.98C98.1991 210.58 98.3691 210.18 98.5291 209.78C97.6691 209.17 96.8191 208.56 95.9591 207.94V207.95ZM22.1791 199.12C21.5291 199.4 20.8691 199.69 19.0991 200.46C45.6691 209.69 71.0991 218.52 96.5291 227.35C96.1291 225.89 95.3791 225.28 94.5191 224.98C80.8991 220.21 67.2291 215.57 53.6391 210.72C43.0691 206.95 32.5891 202.93 22.0691 199.02C24.9391 199.81 27.8591 200.46 30.6791 201.42C52.2091 208.81 73.7091 216.27 95.2291 223.68C96.2691 224.04 97.4191 224.1 98.5091 224.3C98.0891 222.93 97.4491 222.51 96.7291 222.26C82.1091 217.27 67.4791 212.3 52.8491 207.34C43.4091 204.14 33.9691 200.94 24.5091 197.8C23.4691 197.46 21.1891 195.56 22.1791 199.11V199.12ZM13.9391 208.55C13.7491 209.06 13.5591 209.56 13.3791 210.07C41.3991 220.51 69.4091 230.95 97.4291 241.39C97.6091 240.91 97.7891 240.43 97.9591 239.95C69.9491 229.48 41.9491 219.01 13.9391 208.55ZM9.56914 215.78C9.38914 216.29 9.20914 216.8 9.02914 217.32C36.5491 227.35 64.0691 237.39 91.5791 247.42C91.7491 246.96 91.9091 246.5 92.0791 246.04C64.5691 235.96 37.0691 225.87 9.55914 215.79L9.56914 215.78ZM95.0891 218.67C95.2691 218.17 95.4391 217.66 95.6191 217.16C72.3091 208.92 48.9991 200.68 25.6991 192.44C25.5091 192.98 25.3291 193.52 25.1391 194.05C48.4591 202.26 71.7791 210.46 95.0991 218.67H95.0891ZM94.7691 214.97L95.5191 213.55C72.9991 205.55 50.4891 197.55 27.9691 189.56C27.7891 190.06 27.6091 190.56 27.4291 191.06C49.8691 199.03 72.3191 207 94.7591 214.97H94.7691ZM97.3691 199.34C97.5491 198.82 97.7391 198.29 97.9191 197.77C77.6991 190.67 57.4791 183.57 37.2591 176.47C37.0991 176.94 36.9291 177.41 36.7691 177.88C56.9691 185.03 77.1691 192.19 97.3691 199.34ZM97.3891 204.36C97.5491 203.91 97.7191 203.45 97.8791 203C76.6991 195.16 55.5191 187.31 34.3391 179.47C34.1791 179.91 34.0291 180.34 33.8691 180.78C55.0391 188.64 76.2191 196.5 97.3891 204.37V204.36ZM42.3491 169.14C42.1791 169.61 41.9991 170.07 41.8291 170.54C60.4391 177.41 79.0391 184.28 97.6491 191.15C97.8291 190.65 98.0191 190.15 98.1991 189.66C79.5791 182.82 60.9591 175.98 42.3491 169.14ZM44.0891 166.64C43.9291 167.08 43.7591 167.53 43.5991 167.97C61.7191 174.55 79.8291 181.14 97.9491 187.72C98.1291 187.22 98.3091 186.72 98.4991 186.23C80.3591 179.7 62.2291 173.17 44.0891 166.64ZM49.0891 218.96C48.9391 219.37 48.7991 219.78 48.6491 220.2C64.1291 225.59 79.6191 230.98 95.0991 236.38C95.2591 235.93 95.4191 235.49 95.5691 235.04C80.0691 229.68 64.5791 224.33 49.0791 218.97L49.0891 218.96ZM15.3791 205.73C15.2191 206.16 15.0591 206.59 14.8891 207.02C21.2291 209.42 27.5591 211.81 33.8991 214.21C34.0491 213.8 34.2091 213.39 34.3591 212.98C28.0291 210.56 21.7091 208.15 15.3791 205.73Z" fill="white"/>
<path d="M342.01 204C344.25 206.33 346.5 208.67 349.26 211.55C342.61 213.92 336.89 215.96 331.17 218L331.48 219.01C337.4 217.11 343.33 215.21 349.75 213.15C350.91 215.18 352.04 217.15 353.17 219.12C352.51 219.13 351.8 219 351.2 219.19C333.35 224.83 315.51 230.5 297.68 236.2C297.25 236.34 296.98 236.96 295.92 238.18C297.74 237.76 298.51 237.64 299.24 237.4C312.3 233.13 325.38 228.9 338.4 224.53C343.36 222.87 348.2 220.87 353.09 219.03C357.12 224.02 361.15 229 364.68 233.37C351.63 240.53 339.2 247.36 326.76 254.18C320.96 257.36 315.25 260.75 309.3 263.64C301.38 267.49 294.4 263.15 294.39 254.68C294.37 238.07 294.76 221.44 294.11 204.85C293.82 197.45 295.71 192.89 303.06 191.17C310.27 188.84 317.48 186.51 324.69 184.18L323.86 181.75C316.91 184.27 309.95 186.78 303 189.3C300.55 190.01 298.09 190.72 295.31 191.53C292.6 186.92 293.54 184.09 299.34 182.07C303.29 180.69 307.24 179.32 311.19 177.94C311.09 177.63 310.99 177.32 310.89 177.01C305.64 178.58 300.39 180.15 294.41 181.94C295.12 180.08 295.56 178.92 296 177.77C297.04 177.89 298.19 178.35 299.1 178.05C305.01 176.08 310.87 173.94 317.86 171.47C315.44 171.03 314.22 170.82 313.01 170.6L315.99 168.04C321.47 174.77 326.96 181.49 331.94 187.61C320.28 191.64 309.22 195.3 298.33 199.43C296.79 200.01 296.13 202.89 295.84 205.67C304.26 203.2 312.68 200.72 321.09 198.25C320.99 197.89 320.89 197.54 320.79 197.18C314.07 199.13 307.35 201.08 300.63 203.03C300.51 202.69 300.39 202.35 300.27 202.01C308.01 199.1 315.69 196.03 323.51 193.37C326.88 192.22 332.02 190.12 333.74 191.57C337.43 194.68 339.41 199.81 342.09 204.11C339.82 203.98 337.34 203.18 335.33 203.84C324.61 207.32 314 211.11 303.39 214.92C301.12 215.74 299.02 217.07 296.85 218.16C297.83 219.32 298.45 219.56 298.94 219.4C309.79 215.9 320.67 212.46 331.45 208.77C335.09 207.52 338.5 205.62 342.02 204.02L342.01 204ZM313.74 225.4C308.01 226.65 302.29 227.91 296.28 229.22C297.17 231.01 297.66 231.99 298.15 232.97C301.13 231.84 304.06 230.78 306.94 229.6C309.92 228.38 312.86 227.03 315.81 225.73C322.87 223.92 329.94 222.12 337 220.31C331.9 220 327 220.29 322.29 221.4C319.29 222.11 316.58 224.02 313.73 225.39L313.74 225.4ZM359.5 233.28C359.37 232.86 359.25 232.44 359.12 232.02C338.69 239.05 318.25 246.08 297.82 253.11C298 253.64 298.19 254.16 298.37 254.69C318.75 247.55 339.12 240.42 359.5 233.28ZM297.32 248.21C297.47 248.64 297.62 249.08 297.77 249.51C317.71 242.68 337.66 235.86 357.6 229.03C357.44 228.58 357.29 228.14 357.13 227.69C337.19 234.53 317.26 241.37 297.32 248.21ZM324.62 233.98C324.31 233.71 324 233.45 323.69 233.18C323.36 233.21 323.01 233.17 322.71 233.27C315.02 235.77 307.3 238.22 299.66 240.88C298.59 241.25 297.88 242.65 297 243.58C297.35 243.93 297.7 244.29 298.05 244.64C305.88 242.06 313.73 239.55 321.51 236.82C322.73 236.39 323.59 234.95 324.62 233.98ZM343.98 209.58C343.82 209.19 343.66 208.79 343.5 208.4C327.8 213.87 312.11 219.34 296.41 224.81C296.57 225.25 296.72 225.69 296.88 226.13C312.58 220.61 328.28 215.1 343.98 209.58ZM334.06 247C333.91 246.56 333.75 246.12 333.6 245.68C322.46 249.7 311.32 253.72 300.18 257.74C300.34 258.21 300.51 258.67 300.67 259.14C311.8 255.09 322.93 251.05 334.06 247ZM296.35 186.89C296.53 187.38 296.72 187.86 296.9 188.35C304.97 185.29 313.04 182.22 321.12 179.16C320.96 178.74 320.8 178.32 320.64 177.9C312.54 180.9 304.45 183.89 296.35 186.89ZM295.45 211.98C295.67 212.49 295.89 213.01 296.12 213.52L314.75 206.65C314.61 206.26 314.47 205.87 314.34 205.48L295.45 211.98ZM296.53 195.45C296.66 195.91 296.78 196.37 296.91 196.82C302.6 194.9 308.29 192.98 313.98 191.06L313.65 190.06C307.94 191.86 302.24 193.65 296.53 195.45Z" fill="white"/>
<path d="M362.049 135.98C374.249 151.83 386.459 167.68 398.639 183.55C398.919 183.91 398.899 184.49 399.019 184.97L399.099 184.9C381.859 189.93 364.599 194.86 347.419 200.09C344.479 200.98 342.999 200.83 341.489 197.98C339.579 194.37 337.059 191.09 334.809 187.67C346.329 184.04 357.849 180.41 369.369 176.77C368.539 175.42 367.879 175.04 367.389 175.19C357.799 178.13 348.199 181.06 338.669 184.2C337.129 184.71 335.929 186.23 334.569 187.28C327.119 180.74 322.899 173.12 323.509 162.6C324.249 149.89 323.679 137.1 323.679 123.34C330.129 121.29 337.939 118.59 345.909 116.45C347.349 116.07 349.399 118 351.179 118.87C351.049 119.37 350.919 119.87 350.779 120.38C342.139 123.14 333.509 125.91 324.869 128.67C325.009 129.16 325.149 129.64 325.289 130.13C328.589 129.13 331.899 128.16 335.189 127.11C338.669 126 342.109 124.75 345.589 123.64C353.059 121.27 353.849 121.68 357.149 129.25C352.459 131.18 347.759 133.11 343.059 135.03C336.859 136.71 329.669 136.51 325.679 143.92C336.689 140.32 346.999 136.95 357.309 133.58L357.119 132.81C355.569 133.06 354.019 133.31 352.459 133.57C357.929 129.93 358.079 129.97 362.099 136.05C350.209 139.87 338.319 143.68 326.439 147.5C326.549 147.84 326.649 148.18 326.759 148.52C328.169 148.36 329.579 148.19 330.999 148.03L330.969 147.96C329.709 148.82 328.449 149.68 327.189 150.54C327.309 150.84 327.429 151.14 327.559 151.43C334.509 148.94 341.459 146.44 348.409 143.95C350.959 142.65 353.509 141.35 356.059 140.05C358.059 138.69 360.049 137.34 362.049 135.98ZM385.509 178.52C387.029 177.56 388.549 176.6 390.059 175.63L389.589 174.61C381.879 177.19 374.169 179.77 366.459 182.36C366.619 182.96 366.789 183.57 366.949 184.17C368.989 183.67 371.019 183.18 373.059 182.68C379.089 181.38 385.109 180.09 391.139 178.79C391.029 178.34 390.909 177.89 390.799 177.44C389.039 177.8 387.269 178.16 385.509 178.52ZM340.029 160.99L335.979 163.57C336.059 163.8 336.149 164.02 336.229 164.25C348.369 160.24 360.509 156.22 373.999 151.76C372.299 150.6 371.089 149.19 370.439 149.42C364.259 151.57 358.169 154 352.059 156.35C343.849 158.44 335.639 160.52 327.429 162.61C327.549 163.06 327.669 163.5 327.789 163.95C331.869 162.97 335.949 161.98 340.029 161V160.99ZM379.839 163.95C379.899 163.14 379.969 162.33 380.029 161.53C378.249 161.36 376.329 160.66 374.719 161.1C363.669 164.15 352.709 167.53 341.659 170.6C336.849 171.94 331.909 172.81 327.029 173.89C327.129 174.3 327.219 174.71 327.319 175.11C344.829 171.39 362.329 167.66 379.839 163.94V163.95ZM333.749 156.08L333.579 155.12C344.219 151.41 354.859 147.71 366.429 143.68C364.929 143.19 364.579 142.94 364.339 143.02C352.519 146.96 340.679 150.87 328.919 155.01C327.859 155.38 327.319 157.25 326.539 158.42C326.859 158.67 327.179 158.93 327.509 159.18C336.269 156.48 345.019 153.79 353.779 151.09C353.659 150.7 353.539 150.31 353.419 149.92C346.859 151.97 340.299 154.02 333.739 156.07L333.749 156.08ZM338.879 190.99C344.109 193.89 358.049 189.41 363.719 183.21C354.949 185.96 347.479 188.29 338.879 190.99ZM392.999 182.99C392.889 182.63 392.779 182.26 392.669 181.9C381.599 185.28 370.519 188.66 359.449 192.04C359.549 192.38 359.659 192.71 359.759 193.05C370.839 189.7 381.929 186.35 393.009 182.99H392.999ZM355.259 163.1C355.129 162.68 354.989 162.26 354.859 161.84C347.299 164.37 339.739 166.91 332.169 169.44C332.279 169.8 332.399 170.16 332.509 170.53C340.089 168.05 347.669 165.58 355.249 163.1H355.259Z" fill="white"/>
<path d="M261.021 218.98C256.901 216.98 252.801 214.94 248.661 212.98C243.721 210.64 238.761 208.36 233.191 205.76C235.071 203.6 236.541 201.91 237.901 200.34C255.501 207.54 272.771 214.6 290.041 221.67C290.381 220.9 290.711 220.13 291.051 219.36C287.021 217.47 283.011 215.55 278.961 213.71C274.651 211.75 270.301 209.85 266.121 207.12C268.231 207.81 270.381 208.39 272.441 209.2C276.921 210.97 281.231 213.35 285.851 214.57C291.751 216.12 292.921 219.63 291.521 225.51C273.691 218.32 255.951 211.16 238.221 204.01C238.061 204.35 237.901 204.69 237.731 205.03C239.701 205.99 241.611 207.06 243.641 207.89C258.891 214.09 274.131 220.31 289.441 226.35C294.111 228.19 291.151 231.66 292.081 235.13C276.701 228.57 261.961 222.29 247.231 216C247.071 216.33 246.921 216.66 246.761 217C252.601 219.7 258.381 222.51 264.281 225.07C272.521 228.64 280.881 231.94 289.101 235.56C290.311 236.09 291.781 237.74 291.831 238.92C292.091 245.54 291.961 252.18 291.961 259.12C267.251 246.91 243.161 235 219.131 223.13C223.231 216.66 223.801 216.45 230.941 219.61C248.871 227.56 266.791 235.55 284.731 243.5C286.181 244.14 287.721 244.58 289.221 245.12C289.371 244.75 289.521 244.38 289.681 244.01C268.421 234.55 247.161 225.09 225.391 215.4C227.821 212.59 230.151 209.88 232.211 207.5C241.991 211.42 251.491 215.23 260.991 219.03C270.431 223.45 279.861 227.88 289.301 232.3C289.521 231.83 289.741 231.37 289.971 230.9C288.151 229.99 286.381 228.96 284.501 228.21C276.701 225.09 268.861 222.06 261.031 218.99L261.021 218.98ZM261.871 228.11C271.181 232.43 280.491 236.76 289.791 241.08C290.011 240.58 290.241 240.09 290.461 239.59C284.611 237.04 278.811 234.39 272.911 231.99C269.281 230.52 265.501 229.45 261.781 228.2C251.711 222.91 241.631 217.61 231.561 212.32C231.271 212.92 230.981 213.53 230.691 214.13C241.081 218.79 251.471 223.45 261.861 228.11H261.871ZM289.011 252.24C289.161 251.85 289.321 251.47 289.471 251.08C283.991 248.65 278.501 246.22 273.021 243.79C272.861 244.16 272.701 244.53 272.541 244.9C278.031 247.35 283.521 249.79 289.011 252.24Z" fill="white"/>
<path d="M370.06 234.97C368.07 232.63 366.07 230.3 364.08 227.96C379.76 222.51 395.44 217.05 411.12 211.6C411.04 211.21 410.96 210.82 410.88 210.43C409.35 210.6 407.82 210.77 406.29 210.94C398.83 213.3 391.38 215.67 383.92 218.03L384.06 217.94C377.64 219.97 371.15 221.79 364.83 224.11C361.9 225.19 360.13 224.96 359.02 221.97L358.91 222.02C371.38 217.66 383.86 213.29 396.33 208.93C401.2 206.91 406.08 204.88 410.95 202.86C411.29 199.1 409 201.38 407.96 201.7C392.24 206.55 376.53 211.44 360.86 216.45C359.42 216.91 358.24 218.15 356.93 219.03L357 218.94C355.79 217.67 354.57 216.39 352.79 214.52C370.97 208.52 388.9 204.22 405.73 196.93C405.53 196.34 405.34 195.74 405.14 195.15C400.92 196.35 396.7 197.51 392.49 198.75C379.28 202.66 366.1 206.63 352.87 210.46C351.82 210.76 350.52 210.18 349.33 210.02L349.18 208.45C354.91 206.64 360.6 204.74 366.36 203.04C377.52 199.75 388.72 196.62 399.87 193.31C401.36 192.87 402.65 191.73 404.03 190.92L403.94 191.03C410.55 198.79 417.15 206.55 424.59 215.3C414.91 218.47 406.44 221.22 397.99 224.01C389.47 226.82 380.95 229.63 372.48 232.58C371.46 232.93 370.77 234.21 369.93 235.05L370.04 234.95L370.06 234.97ZM386.77 224.83C386.66 224.49 386.55 224.15 386.44 223.81C380.16 225.86 373.87 227.92 367.59 229.97C367.72 230.37 367.85 230.77 367.98 231.17C374.24 229.05 380.51 226.94 386.77 224.82V224.83Z" fill="white"/>
<path d="M102.33 87.6494C112.96 101.159 122.87 113.759 132.99 126.619C131.18 127.649 129.7 128.489 127.71 129.619C130.54 129.359 132.75 129.149 134.96 128.949C135.05 129.319 135.14 129.679 135.23 130.049C124.44 134.579 113.65 139.099 102.33 143.859V87.6594V87.6494Z" fill="white"/>
<path d="M87.9109 135.01C82.3509 133.01 76.8009 131 71.2409 129.02C70.0109 128.58 68.7609 128.23 66.7109 127.58C77.3509 113.82 87.6609 100.49 97.9709 87.1602C98.3809 87.3202 98.7809 87.4902 99.1909 87.6502V137.05C95.1209 136.29 91.4609 135.61 87.7909 134.92L87.9109 135V135.01Z" fill="white"/>
<path d="M245.49 47.2903C233.34 50.2903 222.3 53.0203 211 55.8103V10.2803C211.39 10.1303 211.78 9.97031 212.17 9.82031C223.01 22.0103 233.85 34.2003 245.49 47.2903Z" fill="white"/>
<path d="M262.009 205.9C262.909 208.52 261.349 208.43 259.759 207.75C253.049 204.92 246.379 201.98 239.199 198.86C245.609 191.4 251.629 184.39 257.409 177.67C268.229 182.06 279.069 186.45 289.899 190.87C293.149 192.2 293.539 194.29 291.769 200.9C285.449 198.2 279.159 195.51 272.869 192.83L272.409 193.89C278.809 196.82 285.219 199.76 291.799 202.77V208.66C287.959 207.39 284.489 206.41 281.149 205.09C277.039 203.47 273.049 201.56 268.999 199.78C262.979 197.13 257.009 194.37 250.889 191.95C249.719 191.49 247.999 192.4 246.529 192.68L246.679 194.06C254.649 197.29 262.649 200.43 270.579 203.76C277.859 206.82 285.059 210.08 292.299 213.25C292.009 213.89 291.719 214.52 291.429 215.16C283.189 211.89 274.969 208.57 266.699 205.4C264.909 204.72 262.919 204.56 261.029 204.17C256.929 199.78 250.479 197.59 245.689 200.35C251.809 202.43 256.909 204.17 262.019 205.91L262.009 205.9ZM271.259 189.06C271.169 189.4 271.089 189.73 270.999 190.07C277.569 192.43 284.129 194.79 291.279 197.36C289.949 193.53 269.309 183.31 262.659 182.62C267.299 184.98 271.469 187.1 275.629 189.21C275.539 189.44 275.449 189.67 275.359 189.89C273.999 189.62 272.629 189.34 271.269 189.07L271.259 189.06Z" fill="white"/>
<path d="M207.64 8.80004V53.18C197.71 50.68 188.62 48.4 178.42 45.83C188.21 33.42 197.56 21.57 207.64 8.79004V8.80004Z" fill="white"/>
<path d="M321.26 118.57C323.4 117.57 325.55 116.57 328.87 115.01C326.14 115.39 324.63 115.6 322.21 115.94C319.7 104.37 323.18 92.93 321.88 81.58C322.28 81.4 322.67 81.22 323.07 81.04C330.41 89.88 337.76 98.72 345.48 108.02C342.02 109.54 339.28 110.75 336.54 111.96C336.63 112.21 336.72 112.46 336.82 112.72C340.04 111.83 343.26 110.94 346.48 110.05C346.67 110.64 346.85 111.24 347.04 111.83C339.18 116.01 330.28 117.25 322.03 120.32C321.77 119.74 321.52 119.15 321.26 118.57Z" fill="white"/>
<path d="M299.93 135.34C299.24 134.74 298.55 134.14 297.86 133.54C293.93 132.04 290 130.54 286.07 129.03C287.26 128.48 288.65 127.21 289.6 127.48C298.37 130 307.03 132.9 315.8 135.42C319.56 136.5 321.39 138.38 320.96 142.45C320.67 145.21 320.9 148.02 320.9 151.08C318.32 150.71 316.27 150.42 314.22 150.13C314.15 150.41 314.07 150.7 314 150.98C316.11 151.8 318.23 152.62 320.85 153.63C321.14 158.54 321.46 163.74 321.77 168.95C320.94 169 320.44 169.14 320.35 169.01C316.64 163.54 312.18 165.49 307.51 167.48C304.47 168.78 301.22 169.62 298.02 170.5C296.96 170.79 295.76 170.55 294.62 170.55C294.5 169.85 294.38 169.15 294.27 168.45C302.48 166.42 310.69 164.38 319.34 162.24C317.17 161.52 314.08 161.4 313.5 160.14C309.7 151.81 301.27 147.09 297.33 138.57C298.13 137.66 299.08 136.59 300.03 135.51C306.01 138.14 311.99 140.76 317.97 143.38C318.33 143.04 318.69 142.7 319.06 142.36C318.46 141.19 318.07 139.2 317.24 138.99C311.52 137.56 305.71 136.5 299.93 135.32V135.34Z" fill="white"/>
<path d="M99.27 154.97C96.12 154.23 93.3 153.57 90.49 152.91C90.41 153.17 90.34 153.44 90.26 153.7C93.53 154.92 96.8 156.14 100.07 157.36C99.83 158 99.59 158.64 99.35 159.28C85.53 154.68 71.71 150.08 57.25 145.26C59.42 142.32 61.14 139.5 63.38 137.18C64.24 136.29 66.44 135.94 67.72 136.34C77.56 139.4 87.35 142.63 97.1 145.96C100.29 147.05 100.4 147.92 99.27 154.96V154.97Z" fill="white"/>
<path d="M295.07 106.47C303.42 97.3497 310.93 89.1497 319.1 80.2197V115.14C311.07 112.24 303.7 109.59 295.07 106.47Z" fill="white"/>
<path d="M269.951 164.04C271.131 163.83 272.431 163.18 273.461 163.48C278.551 164.95 283.631 166.51 288.591 168.39C290.011 168.93 291.911 170.55 292.011 171.8C292.421 176.74 292.261 181.73 292.151 186.7C292.131 187.48 291.281 188.24 290.821 189C290.591 188.39 290.531 187.57 290.091 187.21C289.351 186.61 288.391 186.22 287.481 185.88C278.331 182.47 269.181 179.08 259.141 175.37C262.901 171.43 266.481 167.69 270.051 163.94C270.141 164.43 270.091 165.25 270.331 165.35C276.851 167.99 283.411 170.57 289.951 173.15C290.151 172.65 290.341 172.15 290.541 171.64C283.681 169.1 276.811 166.57 269.951 164.03V164.04ZM268.201 170.49C268.051 170.87 267.911 171.24 267.761 171.61C274.911 174.62 282.071 177.63 289.221 180.65C289.401 180.19 289.581 179.73 289.751 179.28C282.571 176.35 275.381 173.42 268.201 170.49ZM274.431 168.73C274.241 169.14 274.041 169.55 273.851 169.97C279.261 172.28 284.671 174.58 290.081 176.89C290.261 176.46 290.441 176.03 290.621 175.61C285.221 173.32 279.831 171.03 274.431 168.74V168.73Z" fill="white"/>
<path d="M194.959 220.07C196.619 221.23 198.279 222.4 200.049 223.64C187.999 232.94 159.279 242.58 153.719 238.76C157.969 237.03 161.849 235.46 165.729 233.88C165.649 233.59 165.559 233.3 165.479 233.02C160.379 234.76 155.279 236.5 150.169 238.24C150.069 237.88 149.959 237.52 149.859 237.16C154.589 235.08 159.309 233.01 164.039 230.93L163.929 231.03C168.389 229.79 172.949 228.83 177.289 227.25C183.309 225.06 189.149 222.41 195.069 219.95L194.969 220.06L194.959 220.07Z" fill="white"/>
<path d="M404.051 190.93C387.301 195.81 370.561 200.71 353.801 205.56C350.591 206.49 346.911 208.65 345.471 202.74C346.601 202.16 347.831 201.52 349.941 200.44C349.001 201.95 348.581 202.61 347.851 203.78C361.421 199.64 374.421 195.67 387.411 191.72C389.951 190.95 392.461 189.85 395.061 189.56C398.131 189.21 399.221 187.73 399.101 184.91C399.101 184.91 399.021 184.98 399.021 184.97C400.671 186.99 402.311 189.01 403.961 191.04L404.051 190.93Z" fill="white"/>
<path d="M286.069 129.03C289.999 130.53 293.929 132.03 297.859 133.54C293.879 132.99 289.889 132.44 285.909 131.89C285.819 132.07 285.719 132.26 285.629 132.44C287.779 133.68 289.939 134.93 292.389 136.34C290.899 138.06 289.739 139.39 288.579 140.72C286.359 140.19 284.319 139.7 282.279 139.21C282.209 139.38 282.129 139.56 282.059 139.73C283.369 140.5 284.679 141.26 287.219 142.75C284.229 143.54 282.259 144.06 279.839 144.69C280.879 144.98 281.689 145.21 283.829 145.81H278.599C278.919 146.23 279.239 146.65 279.549 147.07C278.619 148.21 277.689 149.35 276.769 150.5C275.119 152.55 273.529 154.64 271.799 156.63C270.619 158 269.249 159.21 267.969 160.49C267.539 160.14 267.119 159.8 266.689 159.45C269.479 153.95 272.269 148.46 275.059 142.96L274.949 143.08C278.659 138.39 282.369 133.71 286.069 129.02V129.03Z" fill="white"/>
<path d="M277.97 155.449C282.89 150.459 287.46 145.829 292.03 141.189C292.48 141.319 292.94 141.449 293.39 141.589C293.02 148.949 292.66 156.319 292.25 164.409C286.29 162.109 281.27 160.159 276.24 158.219C276.35 157.849 276.47 157.479 276.58 157.119C280.99 158.589 285.41 160.059 289.82 161.529C289.97 161.139 290.12 160.749 290.26 160.349C286.31 158.779 282.37 157.209 277.96 155.459L277.97 155.449Z" fill="white"/>
<path d="M188.1 218.979C189.75 218.309 191.4 217.639 193.06 216.979C193.69 218.009 194.33 219.049 194.96 220.079L195.06 219.969C184.68 223.659 174.3 227.349 163.92 231.049L164.03 230.949C161.31 231.659 158.59 232.389 155.86 233.079C148.55 234.929 141.23 236.749 133.92 238.589C133.8 238.179 133.69 237.76 133.57 237.35C140.46 234.87 147.35 232.389 154.24 229.919C159.14 228.469 164.04 227.019 168.94 225.559C175.33 223.369 181.71 221.18 188.1 218.99V218.979Z" fill="white"/>
<path d="M310 160.869C305.09 162.529 300.57 164.049 295.86 165.649C293.79 160.399 298.51 161.259 300.16 158.929C298.82 159.239 297.47 159.559 295.27 160.069C295.53 154.379 295.78 148.919 296.1 141.939C301.21 148.899 305.45 154.669 310 160.869Z" fill="white"/>
<path d="M291.96 121.01C292.19 117.1 294.06 115.77 297.91 116.94C303.95 118.78 310.04 120.48 316.13 122.15C320.29 123.29 320.07 126.37 319.93 129.67C310.37 126.7 301.11 123.82 291.85 120.95L291.96 121.01Z" fill="white"/>
<path d="M218.07 61.62C220.99 60.75 223.91 59.88 227.02 58.95C225.42 53.96 223.73 57.12 222.26 58.76C220.15 55.28 220.47 55.12 233.76 52.94C233.43 54.13 233.14 55.17 232.77 56.49C229.5 53.7 228.53 55.47 228.25 58.54C233.08 58.11 232.79 57.91 236.24 52.95C237.4 51.28 240.48 50.94 243.13 49.79C243.28 51.48 243.37 52.5 243.47 53.53C243.78 53.62 244.09 53.7 244.4 53.79C244.89 52.45 245.38 51.11 245.85 49.85C248.23 54.65 247.61 56.32 242.64 57.49C234.6 59.38 226.53 61.14 218.48 62.96L218.09 61.64L218.07 61.62Z" fill="white"/>
<path d="M292.84 109.729C303.34 109.879 318.26 116.089 318.43 120.849C310.28 116.699 300.18 118.409 292.84 109.729Z" fill="white"/>
<path d="M406.29 210.949C407.82 210.779 409.35 210.609 410.88 210.439C410.96 210.829 411.04 211.219 411.12 211.609C395.44 217.059 379.76 222.519 364.08 227.969C364.24 227.189 364.18 225.859 364.59 225.709C369.47 223.799 374.43 222.119 379.33 220.269C380.97 219.649 382.49 218.739 384.06 217.959L383.92 218.049C391.38 215.689 398.83 213.319 406.29 210.959V210.949Z" fill="white"/>
<path d="M410.959 202.87C406.089 204.89 401.209 206.92 396.339 208.94C389.289 211.05 382.159 212.94 375.199 215.33C369.659 217.24 364.339 219.77 358.919 222.03L359.029 221.98C358.359 220.97 357.689 219.96 357.019 218.95L356.949 219.04C362.949 217.23 368.949 215.42 374.949 213.62C386.949 210.03 398.959 206.45 410.959 202.87Z" fill="white"/>
<path d="M334.59 187.279C335.95 186.229 337.15 184.709 338.69 184.199C348.22 181.059 357.81 178.129 367.41 175.189C367.9 175.039 368.56 175.409 369.39 176.769C357.87 180.399 346.35 184.039 334.83 187.669L334.6 187.279H334.59Z" fill="black"/>
<path d="M352.479 133.58C354.029 133.33 355.579 133.08 357.139 132.82L357.329 133.59C347.019 136.96 336.699 140.33 325.699 143.93C329.689 136.52 336.879 136.72 343.079 135.04C346.219 134.55 349.349 134.07 352.489 133.58H352.479Z" fill="black"/>
<path d="M87.8006 134.93C91.6706 136.45 95.5506 137.96 99.4206 139.48C99.2206 140.06 99.0306 140.63 98.8306 141.21C87.6806 137.79 76.5406 134.38 65.3906 130.96L65.8006 129.2C69.3506 130.1 72.9206 130.97 76.4606 131.9C80.2906 132.91 84.1006 133.97 87.9106 135.01L87.7906 134.93H87.8006Z" fill="white"/>
<path d="M291.85 120.95C300.49 124.22 309.14 127.48 317.78 130.75C318.59 131.06 319.39 131.4 320.2 131.73C320.06 132.17 319.93 132.62 319.79 133.06C316.19 132 312.59 130.94 309 129.87C303.65 128.28 298.26 126.8 292.97 125.03C291.08 124.4 288.19 123.36 291.97 121.01L291.86 120.95H291.85Z" fill="white"/>
<path d="M315.99 168.03C315 168.88 314 169.73 313.01 170.59C309.3 171.85 305.6 173.12 301.89 174.38C299.54 174.38 297.18 174.38 293.27 174.38C295.51 173.25 296.48 172.61 297.55 172.25C302.24 170.66 306.92 169.03 311.68 167.68C312.98 167.31 314.55 167.89 316 168.03H315.99Z" fill="white"/>
<path d="M139.95 156.7C136.56 158.26 133.27 160.15 129.75 161.31C122.37 163.73 114.86 165.78 107.4 167.95C106.8 168.12 106.13 168.06 105.16 167C116.76 163.28 128.36 159.57 139.96 155.85C139.96 156.13 139.96 156.42 139.96 156.7H139.95Z" fill="black"/>
<path d="M303 189.29C309.95 186.77 316.91 184.26 323.86 181.74L324.69 184.17C317.48 186.5 310.27 188.83 303.06 191.16C303.04 190.54 303.02 189.92 303.01 189.3L303 189.29Z" fill="black"/>
<path d="M299.93 135.34C305.71 136.52 311.52 137.58 317.24 139.01C318.08 139.22 318.47 141.21 319.06 142.38C318.7 142.72 318.34 143.06 317.97 143.4C311.99 140.78 306.01 138.15 300.03 135.53L299.93 135.34Z" fill="black"/>
<path d="M144.459 172.06C144.149 172.62 143.969 173.53 143.509 173.7C131.059 178.47 118.589 183.16 105.609 186.8C106.919 186.15 108.189 185.38 109.559 184.88C118.759 181.52 127.979 178.24 137.179 174.88C138.549 174.38 139.809 173.6 141.129 172.95C142.239 172.65 143.339 172.35 144.449 172.05L144.459 172.06Z" fill="black"/>
<path d="M193.88 152.94C198.21 155.14 202.54 157.35 206.87 159.55C206.71 159.91 206.56 160.26 206.4 160.62C196.9 156.53 187.41 152.44 177.91 148.35C177.94 147.96 177.98 147.57 178.01 147.18C183.3 149.1 188.58 151.02 193.87 152.94H193.88Z" fill="black"/>
<path d="M186.68 57.0697C187.5 50.3297 187.98 50.1597 198.55 53.4997C196.86 55.3597 195.4 56.9697 193.33 59.2397C192.77 56.8097 192.45 55.4597 192.14 54.1097L191.05 52.9797C190.31 55.0397 189.57 57.0997 188.82 59.1597L186.67 57.0697H186.68Z" fill="white"/>
<path d="M262.01 205.9C256.9 204.16 251.79 202.42 245.68 200.34C250.48 197.58 256.93 199.77 261.02 204.16C261.35 204.74 261.68 205.32 262.01 205.89V205.9Z" fill="black"/>
<path d="M193.881 152.939C188.591 151.019 183.311 149.099 178.021 147.179C175.781 146.019 173.531 144.849 171.301 143.699C171.921 143.509 172.651 142.999 173.141 143.179C180.961 146.039 188.751 148.989 196.261 152.949H193.881V152.939Z" fill="black"/>
<path d="M145.281 132.129C151.831 135.029 158.391 137.929 164.941 140.819C161.371 139.759 157.731 138.889 154.251 137.609C149.481 135.849 144.821 133.759 140.301 131.149C141.961 131.479 143.621 131.799 145.281 132.129Z" fill="white"/>
<path d="M301.88 174.38C305.59 173.12 309.29 171.85 313 170.59C314.21 170.81 315.43 171.03 317.85 171.46C310.86 173.94 305 176.07 299.09 178.04C298.19 178.34 297.03 177.88 295.99 177.76C297.95 176.63 299.91 175.5 301.87 174.37L301.88 174.38Z" fill="black"/>
<path d="M290.869 167C284.839 165.14 278.809 163.28 272.779 161.42C272.999 160.79 273.209 160.16 273.429 159.53C279.369 161.63 285.319 163.73 291.259 165.84C291.129 166.23 290.999 166.62 290.869 167.01V167Z" fill="white"/>
<path d="M124.091 152.96C130.831 151 137.581 149.03 144.321 147.07C144.401 147.31 144.471 147.55 144.551 147.79C137.491 150.18 130.431 152.57 122.641 155.21C123.491 153.93 123.851 153.4 124.211 152.86L124.101 152.96H124.091Z" fill="white"/>
<path d="M205.889 60.0497C205.039 58.5197 204.499 57.5397 203.739 56.1797C202.659 57.2097 201.809 58.0197 200.369 59.3997V53.9297C203.099 54.6897 205.489 55.3597 208.359 56.1597C207.429 57.6297 206.849 58.5397 205.889 60.0497Z" fill="white"/>
<path d="M260.129 170.18C261.779 166.25 263.319 162.2 267.729 160.83C268.119 161.21 268.499 161.58 268.889 161.96C265.939 164.67 262.989 167.37 260.039 170.08L260.129 170.18Z" fill="white"/>
<path d="M379.39 205.05C373.72 206.68 368.04 208.32 362.37 209.95C362.27 209.62 362.18 209.28 362.08 208.95C367.78 207.29 373.48 205.63 379.18 203.97L379.4 205.05H379.39Z" fill="white"/>
<path d="M161.75 75.1894C171.96 77.7194 182.19 80.1894 192.37 82.8294C197.27 84.0994 202.08 85.6894 206.93 87.1394C206.8 87.7194 206.66 88.2894 206.53 88.8694C200.44 87.5294 194.28 86.4094 188.26 84.7894C181.04 82.8494 173.9 80.5994 166.81 78.2494C165.01 77.6494 163.5 76.1694 161.85 75.1094L161.75 75.1994V75.1894Z" fill="black"/>
<path d="M176.11 71.5696C186 69.0996 194.12 72.6696 202.51 75.0796C200.6 79.7496 197.19 79.0496 193.77 77.8696C188.11 75.9296 182.5 73.8596 176.1 71.5596L176.11 71.5696Z" fill="black"/>
<path d="M154.92 145.06C167.17 149.56 179.41 154.06 192.24 158.77C191.12 159.57 190.82 159.92 190.69 159.86C178.78 154.92 166.89 149.94 154.99 144.97L154.92 145.06Z" fill="black"/>
<path d="M145.55 126.96C157.01 131.65 168.47 136.35 179.94 141.04C179.78 141.43 179.62 141.82 179.46 142.21C167.98 137.56 156.5 132.91 145.02 128.26C145.2 127.83 145.37 127.39 145.55 126.96Z" fill="black"/>
<path d="M155.959 101.86C156.529 102.64 157.099 103.43 158.469 105.3C153.619 104.03 149.759 103.02 145.619 101.94C146.129 100.18 146.519 98.8102 147.069 96.9102C150.159 98.2402 153.119 99.5102 156.079 100.79C156.039 101.15 155.999 101.51 155.959 101.87V101.86Z" fill="black"/>
<path d="M169.809 64.1996C178.479 66.1996 187.169 68.1296 195.809 70.2296C199.409 71.0996 202.919 72.3396 206.139 74.4996C197.109 72.0796 188.059 69.7096 179.039 67.2096C175.939 66.3496 172.939 65.1396 169.879 64.0996L169.789 64.1996H169.809Z" fill="black"/>
<path d="M205.001 71.1301C194.541 68.3901 184.081 65.6501 173.631 62.9101C173.741 62.4801 173.851 62.0501 173.961 61.6201C184.431 64.3201 194.901 67.0201 205.371 69.7201C205.251 70.1901 205.131 70.6601 205.011 71.1301H205.001Z" fill="black"/>
<path d="M178.99 119.019C185.66 121.849 192.35 124.649 199.01 127.509C201.64 128.639 204.22 129.889 206.83 131.089C206.59 131.589 206.35 132.089 206.11 132.599C197.09 128.059 188.06 123.519 179.04 118.979L179 119.029L178.99 119.019Z" fill="black"/>
<path d="M180.581 87.6699C189.311 90.5899 198.031 93.5099 206.761 96.4199C206.591 96.9099 206.421 97.4099 206.251 97.8999C197.571 94.8299 188.901 91.7599 180.221 88.6899C180.341 88.3499 180.451 88.0099 180.571 87.6699H180.581Z" fill="black"/>
<path d="M165.44 99.1803L149.73 93.9703C149.99 93.2403 150.25 92.5103 150.51 91.7803C155.61 93.9203 160.71 96.0503 165.81 98.1903C165.69 98.5203 165.56 98.8503 165.44 99.1903V99.1803Z" fill="black"/>
<path d="M205.61 177.77C198.74 175.17 191.87 172.57 185 169.96L185.4 168.89C192.3 171.4 199.21 173.91 206.11 176.42C205.94 176.87 205.78 177.32 205.61 177.77Z" fill="black"/>
<path d="M195.969 131.17C188.799 128.09 181.629 125.01 174.449 121.94C174.609 121.56 174.769 121.19 174.929 120.81C182.099 123.87 189.279 126.93 196.449 129.98C196.289 130.38 196.129 130.78 195.969 131.17Z" fill="black"/>
<path d="M191.83 100.22C184.67 97.8096 177.5 95.3996 170.34 92.9896C170.47 92.5996 170.59 92.2096 170.72 91.8096C177.9 94.1896 185.07 96.5696 192.25 98.9596C192.11 99.3796 191.98 99.7996 191.84 100.22H191.83Z" fill="black"/>
<path d="M178.149 129.71C184.469 132.55 190.799 135.39 197.119 138.23C196.989 138.55 196.849 138.87 196.719 139.19C190.349 136.45 183.979 133.71 177.619 130.97C177.799 130.55 177.979 130.13 178.149 129.71Z" fill="black"/>
<path d="M205.899 139.02C199.469 136.35 193.049 133.69 186.619 131.02L187.079 129.89L206.369 137.88C206.209 138.26 206.059 138.64 205.899 139.02Z" fill="black"/>
<path d="M141.191 105.2C147.301 108.2 153.411 111.21 159.521 114.21C159.351 114.57 159.181 114.94 159.011 115.3C152.881 112.38 146.751 109.46 140.631 106.54C140.821 106.09 141.011 105.64 141.201 105.2H141.191Z" fill="black"/>
<path d="M206.4 101.919C200.37 99.5794 194.34 97.2495 188.32 94.9095L188.69 93.9395C194.72 96.2595 200.76 98.5795 206.79 100.909C206.66 101.249 206.53 101.589 206.4 101.919Z" fill="black"/>
<path d="M155.961 101.86C156.001 101.5 156.041 101.14 156.081 100.78C161.611 103.44 167.131 106.1 172.661 108.75L172.781 108.61C167.171 106.36 161.571 104.1 155.961 101.85V101.86Z" fill="black"/>
<path d="M179.03 118.97C172.91 116.77 166.79 114.56 160.67 112.36C160.9 111.8 161.12 111.24 161.35 110.68C167.23 113.46 173.11 116.24 178.99 119.02L179.03 118.97Z" fill="black"/>
<path d="M172.78 108.62L172.66 108.76C178.1 110.8 183.53 112.83 188.97 114.87C188.73 115.41 188.49 115.96 188.25 116.5C183.09 113.87 177.93 111.25 172.77 108.62H172.78Z" fill="black"/>
<path d="M204.79 209.29C199.55 207.03 194.31 204.77 189.08 202.51C189.21 202.2 189.34 201.89 189.47 201.59C194.85 203.74 200.23 205.89 205.61 208.05C205.34 208.47 205.07 208.88 204.8 209.3L204.79 209.29Z" fill="black"/>
<path d="M160.85 78.8994C166.36 80.6794 171.87 82.4594 177.38 84.2394C177.28 84.5394 177.19 84.8494 177.09 85.1494C171.53 83.4794 165.98 81.8094 160.42 80.1394C160.57 79.7294 160.71 79.3094 160.86 78.8994H160.85Z" fill="black"/>
<path d="M121.06 218.939C116.54 220.379 112.01 221.829 107.49 223.269C107.33 222.839 107.18 222.399 107.02 221.969C130.23 213.379 153.44 204.779 176.65 196.189C176.87 196.599 177.08 197.009 177.3 197.419C176.03 198.079 174.8 198.849 173.47 199.389C166.96 202.019 160.36 204.439 153.91 207.209C148.16 209.669 142.58 212.519 136.88 215.109C135.7 215.649 134.35 215.789 133.07 216.109L132.89 215.849C135.46 214.449 138.04 213.039 140.61 211.639C140.5 211.389 140.38 211.139 140.27 210.879C133.82 213.599 127.37 216.319 120.92 219.039L121.06 218.949V218.939Z" fill="black"/>
<path d="M114.92 237.119C130.03 227.379 147.32 223.309 164 217.649C164.25 218.309 164.5 218.959 164.75 219.619C148.3 225.829 131.85 232.049 115.39 238.259C115.23 237.879 115.08 237.499 114.92 237.119Z" fill="black"/>
<path d="M141.36 220.53C130.89 227 118.61 229.32 107.09 234.66C106.95 233.01 106.85 231.76 106.75 230.64C118.13 226.67 129.41 222.73 140.69 218.79C140.91 219.37 141.13 219.95 141.36 220.53Z" fill="black"/>
<path d="M176.111 192.08C173.891 193.12 171.741 194.32 169.451 195.18C149.881 202.53 130.291 209.82 110.701 217.1C109.551 217.53 108.331 217.75 106.801 217.02C114.451 214.06 122.061 210.97 129.771 208.15C144.251 202.85 158.781 197.7 173.301 192.52C174.191 192.2 175.221 192.27 176.191 192.16L176.111 192.07V192.08Z" fill="black"/>
<path d="M165.04 177.03C161.42 178.57 157.87 180.26 154.18 181.62C139.2 187.15 124.19 192.58 109.18 198.02C108.37 198.31 107.45 198.31 106.23 197.37C108.59 196.48 110.94 195.55 113.32 194.7C129.3 189 145.28 183.31 161.29 177.67C162.48 177.25 163.83 177.28 165.1 177.1L165.03 177.02L165.04 177.03Z" fill="black"/>
<path d="M106.391 192.03C121.311 186.91 136.231 181.8 151.151 176.68C151.281 177.06 151.411 177.45 151.541 177.83C136.641 183.07 121.731 188.3 106.831 193.54L106.391 192.02V192.03Z" fill="black"/>
<path d="M106.779 177.53C118.779 173.67 130.779 169.81 142.779 165.95L143.149 167.07C131.159 171.03 119.179 174.99 107.189 178.95C107.049 178.48 106.919 178 106.779 177.53Z" fill="black"/>
<path d="M143.039 188.01C135.129 191.39 127.219 194.77 119.309 198.15C119.109 197.61 118.899 197.06 118.699 196.52C126.839 193.71 134.969 190.9 143.109 188.09L143.049 188.01H143.039Z" fill="black"/>
<path d="M175.189 213.929C178.799 212.439 182.409 210.959 186.599 209.229C184.979 213.949 182.179 215.449 176.059 215.619C175.769 215.059 175.479 214.489 175.189 213.929Z" fill="black"/>
<path d="M159.83 212.81C166.83 210.52 173.84 208.22 180.84 205.93C180.95 206.28 181.07 206.64 181.18 206.99C174.24 209.46 167.29 211.94 160.35 214.41C160.18 213.88 160 213.35 159.83 212.81Z" fill="black"/>
<path d="M133.081 216.11C125.851 219.14 118.621 222.17 111.391 225.2C111.251 224.9 111.101 224.6 110.961 224.29C114.331 222.5 117.701 220.72 121.071 218.93L120.931 219.02C124.921 217.96 128.911 216.9 132.901 215.83L133.081 216.09V216.11Z" fill="black"/>
<path d="M106.41 213.15C112.59 210.72 118.76 208.3 124.94 205.87C125.08 206.24 125.22 206.6 125.36 206.97C119.15 209.55 112.94 212.12 106.73 214.7C106.62 214.18 106.51 213.67 106.4 213.15H106.41Z" fill="black"/>
<path d="M161.05 193.02C154.21 195.82 147.36 198.62 140.52 201.42C140.31 200.85 140.11 200.28 139.9 199.71C146.97 197.51 154.04 195.31 161.11 193.11L161.05 193.03V193.02Z" fill="black"/>
<path d="M105.721 173.94C110.971 172.3 116.221 170.65 121.471 169.01C121.601 169.41 121.731 169.81 121.861 170.21C116.631 171.92 111.401 173.62 106.171 175.33C106.021 174.87 105.871 174.41 105.721 173.95V173.94Z" fill="black"/>
<path d="M8.73047 213.189C14.7005 215.109 20.7205 216.849 26.6205 218.969C48.3405 226.789 70.0105 234.739 91.6905 242.649C93.1805 243.189 94.6205 243.879 96.0905 244.499C95.9505 244.879 95.8105 245.259 95.6705 245.639C90.8805 244.009 86.0605 242.469 81.3205 240.719C58.2605 232.239 35.2205 223.709 12.1905 215.149C10.9905 214.699 9.96047 213.799 8.84047 213.109L8.74047 213.189H8.73047Z" fill="black"/>
<path d="M13.9409 208.55C41.9509 219.02 69.9509 229.49 97.9609 239.95C97.7809 240.43 97.6009 240.91 97.4309 241.39C69.4109 230.95 41.4009 220.51 13.3809 210.07C13.5709 209.56 13.7609 209.06 13.9409 208.55Z" fill="black"/>
<path d="M9.56906 215.78C37.0791 225.86 64.5791 235.95 92.0891 246.03C91.9191 246.49 91.7591 246.95 91.5891 247.41C64.0691 237.38 36.5491 227.34 9.03906 217.31C9.21906 216.8 9.39906 216.29 9.57906 215.77L9.56906 215.78Z" fill="black"/>
<path d="M22.0696 199.02C32.5896 202.93 43.0696 206.94 53.6396 210.71C67.2296 215.56 80.8996 220.2 94.5196 224.97C95.3796 225.27 96.1296 225.88 96.5296 227.34C71.0996 218.51 45.6696 209.68 19.0996 200.45C20.8696 199.68 21.5296 199.4 22.1796 199.11L22.0696 199.01V199.02Z" fill="black"/>
<path d="M14.6406 204.3C16.4206 204.41 18.3506 204.11 19.9706 204.68C45.7006 213.66 71.4006 222.74 97.1006 231.82C97.6306 232.01 98.0806 232.43 98.1506 233.71C70.3506 223.88 42.5406 214.06 14.7306 204.24L14.6406 204.31V204.3Z" fill="black"/>
<path d="M22.1803 199.12C21.1903 195.57 23.4803 197.47 24.5103 197.81C33.9703 200.95 43.4103 204.15 52.8503 207.35C67.4803 212.31 82.1103 217.28 96.7303 222.27C97.4403 222.51 98.0903 222.94 98.5103 224.31C97.4103 224.11 96.2703 224.05 95.2303 223.69C73.7103 216.28 52.2103 208.82 30.6803 201.43C27.8703 200.46 24.9403 199.82 22.0803 199.03L22.1903 199.13L22.1803 199.12Z" fill="black"/>
<path d="M95.0909 218.669C71.7709 210.459 48.4509 202.259 25.1309 194.049C25.3209 193.509 25.5009 192.969 25.6909 192.439C49.0009 200.679 72.3109 208.919 95.6109 217.159C95.4309 217.659 95.2609 218.169 95.0809 218.669H95.0909Z" fill="black"/>
<path d="M95.9605 207.949C96.8205 208.559 97.6705 209.169 98.5305 209.789C98.3605 210.189 98.1905 210.59 98.0305 210.99C75.1205 202.77 52.2205 194.549 29.3105 186.329C29.4205 185.959 29.5305 185.599 29.6405 185.229C36.1205 187.179 42.5905 189.12 49.0705 191.07L48.9305 190.979C59.3005 194.929 69.6406 198.969 80.0506 202.799C85.3206 204.739 90.7306 206.309 96.0806 208.049L95.9706 207.96L95.9605 207.949Z" fill="black"/>
<path d="M94.7694 214.97C72.3294 207 49.8795 199.03 27.4395 191.06C27.6195 190.56 27.7995 190.06 27.9795 189.56C50.4995 197.56 73.0094 205.56 95.5294 213.55L94.7794 214.97H94.7694Z" fill="black"/>
<path d="M49.0597 191.06C43.1797 188.66 37.3097 186.26 31.4297 183.86C31.5697 183.47 31.7097 183.07 31.8597 182.68C54.2097 190.57 76.5597 198.46 98.9097 206.35C98.8197 206.76 98.7297 207.17 98.6297 207.57C97.7397 207.7 96.8397 207.82 95.9497 207.95L96.0597 208.04C95.4297 207.54 94.8797 206.84 94.1597 206.57C80.0697 201.39 65.9697 196.24 51.8497 191.15C50.9597 190.83 49.8997 191.02 48.9097 190.97L49.0497 191.06H49.0597Z" fill="black"/>
<path d="M97.3695 199.34C77.1695 192.19 56.9695 185.03 36.7695 177.88C36.9295 177.41 37.0995 176.94 37.2595 176.47C57.4795 183.57 77.6995 190.67 97.9195 197.77C97.7395 198.29 97.5495 198.82 97.3695 199.34Z" fill="black"/>
<path d="M97.3891 204.36C76.2191 196.5 55.0391 188.64 33.8691 180.77C34.0291 180.33 34.1791 179.9 34.3391 179.46C55.5191 187.3 76.6991 195.15 97.8791 202.99C97.7191 203.44 97.5491 203.9 97.3891 204.35V204.36Z" fill="black"/>
<path d="M42.3501 169.14C60.9701 175.98 79.5901 182.82 98.2001 189.66C98.0201 190.16 97.8301 190.66 97.6501 191.15C79.0401 184.28 60.4401 177.41 41.8301 170.54C42.0001 170.07 42.1801 169.61 42.3501 169.14Z" fill="black"/>
<path d="M95.0397 176.96C96.1897 177.72 97.3297 178.47 98.4797 179.23C98.2997 179.63 98.1197 180.04 97.9397 180.44C81.5197 174.1 65.0997 167.77 48.6797 161.43C48.7397 161.07 48.7997 160.7 48.8597 160.34C49.8197 160.34 50.7797 160.34 51.7297 160.34C55.7597 161.86 59.7897 163.39 63.8097 164.91C74.2197 168.93 84.6297 172.94 95.0397 176.96Z" fill="black"/>
<path d="M44.0896 166.64C62.2296 173.17 80.3596 179.7 98.4996 186.23C98.3196 186.73 98.1396 187.23 97.9496 187.72C79.8296 181.14 61.7196 174.55 43.5996 167.97C43.7596 167.53 43.9296 167.08 44.0896 166.64Z" fill="black"/>
<path d="M49.0902 218.96C64.5902 224.32 80.0802 229.67 95.5802 235.03C95.4202 235.48 95.2602 235.92 95.1102 236.37C79.6302 230.98 64.1402 225.59 48.6602 220.19C48.8102 219.78 48.9502 219.37 49.1002 218.95L49.0902 218.96Z" fill="black"/>
<path d="M95.0405 176.96C84.6305 172.94 74.2205 168.93 63.8105 164.91C65.8905 165.46 67.9705 166 70.0505 166.55C78.3805 170.02 86.7105 173.49 95.0405 176.96Z" fill="white"/>
<path d="M63.1998 182.77C74.7898 186.77 86.3798 190.76 97.9698 194.76C97.7398 195.37 97.5198 195.98 97.2898 196.59L62.8398 183.19C62.9598 183.05 63.0798 182.91 63.1898 182.77H63.1998Z" fill="black"/>
<path d="M62.8398 183.179C54.7298 180.559 46.6198 177.939 38.5098 175.329C38.7098 174.759 38.9098 174.179 39.1098 173.609C47.1398 176.659 55.1598 179.719 63.1898 182.769C63.0698 182.909 62.9498 183.049 62.8398 183.189V183.179Z" fill="black"/>
<path d="M70.0498 166.55C67.9698 166 65.8898 165.46 63.8098 164.91C59.7798 163.39 55.7498 161.86 51.7298 160.34C50.7698 159.59 49.8198 158.84 48.8598 158.1L48.7598 158.2C55.8598 160.99 62.9598 163.77 70.0598 166.55H70.0498Z" fill="black"/>
<path d="M15.3806 205.729C21.7106 208.149 28.0306 210.559 34.3606 212.979C34.2106 213.389 34.0506 213.8 33.9006 214.21C27.5606 211.81 21.2306 209.42 14.8906 207.02C15.0506 206.59 15.2106 206.159 15.3806 205.729Z" fill="black"/>
<path d="M342.01 204C338.49 205.6 335.08 207.51 331.44 208.75C320.65 212.44 309.78 215.88 298.93 219.38C298.44 219.54 297.81 219.3 296.84 218.14C299.02 217.05 301.11 215.72 303.38 214.9C313.99 211.09 324.6 207.3 335.32 203.82C337.33 203.17 339.82 203.96 342.08 204.09L342.01 204Z" fill="black"/>
<path d="M359.5 233.28C339.12 240.42 318.75 247.55 298.37 254.69C298.19 254.16 298 253.64 297.82 253.11C318.25 246.08 338.69 239.05 359.12 232.02C359.25 232.44 359.37 232.86 359.5 233.28Z" fill="black"/>
<path d="M297.32 248.209C317.26 241.369 337.19 234.529 357.13 227.689C357.29 228.139 357.44 228.579 357.6 229.029C337.66 235.859 317.71 242.679 297.77 249.509C297.62 249.079 297.47 248.639 297.32 248.209Z" fill="black"/>
<path d="M353.08 219.02C348.19 220.86 343.34 222.86 338.39 224.52C325.36 228.89 312.29 233.12 299.23 237.39C298.5 237.63 297.73 237.75 295.91 238.17C296.97 236.95 297.25 236.33 297.67 236.19C315.5 230.48 333.34 224.82 351.19 219.18C351.79 218.99 352.5 219.13 353.16 219.11L353.08 219.02Z" fill="black"/>
<path d="M324.62 233.98C323.59 234.95 322.73 236.39 321.51 236.82C313.73 239.55 305.88 242.06 298.05 244.64C297.7 244.29 297.35 243.93 297 243.58C297.88 242.66 298.59 241.26 299.66 240.88C307.3 238.22 315.01 235.77 322.71 233.27C323.01 233.17 323.36 233.21 323.69 233.18C324 233.45 324.31 233.71 324.62 233.98Z" fill="black"/>
<path d="M343.98 209.579C328.28 215.099 312.58 220.609 296.88 226.129C296.72 225.689 296.57 225.249 296.41 224.809C312.11 219.339 327.8 213.869 343.5 208.399C343.66 208.789 343.82 209.189 343.98 209.579Z" fill="black"/>
<path d="M315.819 225.74C312.869 227.03 309.929 228.38 306.949 229.61C304.069 230.79 301.129 231.84 298.159 232.98C297.669 232 297.179 231.02 296.289 229.23C302.299 227.92 308.019 226.66 313.739 225.41C314.429 225.52 315.129 225.63 315.819 225.74Z" fill="black"/>
<path d="M334.06 247C322.93 251.05 311.8 255.09 300.67 259.14C300.51 258.67 300.34 258.21 300.18 257.74C311.32 253.72 322.46 249.7 333.6 245.68C333.75 246.12 333.91 246.56 334.06 247Z" fill="black"/>
<path d="M315.82 225.739C315.12 225.629 314.43 225.519 313.74 225.409C316.58 224.039 319.3 222.119 322.3 221.419C327.01 220.309 331.92 220.019 337.01 220.329C329.95 222.139 322.88 223.939 315.82 225.749V225.739Z" fill="black"/>
<path d="M296.35 186.889C304.45 183.889 312.54 180.899 320.64 177.899C320.8 178.319 320.96 178.739 321.12 179.159C313.05 182.219 304.98 185.289 296.9 188.349C296.72 187.859 296.53 187.379 296.35 186.889Z" fill="black"/>
<path d="M295.449 211.979L314.339 205.479C314.479 205.869 314.619 206.259 314.749 206.649L296.119 213.52C295.899 213.01 295.679 212.489 295.449 211.979Z" fill="black"/>
<path d="M296.529 195.45C302.239 193.65 307.939 191.86 313.649 190.06L313.979 191.06C308.289 192.98 302.599 194.9 296.909 196.82C296.779 196.36 296.659 195.9 296.529 195.45Z" fill="black"/>
<path d="M379.839 163.95C362.329 167.67 344.829 171.4 327.319 175.12C327.219 174.71 327.129 174.3 327.029 173.9C331.909 172.82 336.849 171.95 341.659 170.61C352.709 167.54 363.669 164.16 374.719 161.11C376.329 160.67 378.249 161.37 380.029 161.54C379.969 162.35 379.899 163.16 379.839 163.96V163.95Z" fill="black"/>
<path d="M333.751 156.079C340.311 154.029 346.871 151.979 353.431 149.929C353.551 150.319 353.671 150.709 353.791 151.099C345.031 153.799 336.281 156.489 327.521 159.189C327.201 158.939 326.881 158.679 326.551 158.429C327.331 157.259 327.871 155.389 328.931 155.019C340.691 150.879 352.521 146.969 364.351 143.029C364.591 142.949 364.951 143.199 366.441 143.689C354.861 147.719 344.231 151.429 333.591 155.129L333.761 156.089L333.751 156.079Z" fill="black"/>
<path d="M352.06 156.34C358.17 153.99 364.26 151.56 370.44 149.41C371.09 149.19 372.3 150.59 374 151.75C360.51 156.21 348.37 160.22 336.23 164.24C336.15 164.01 336.06 163.79 335.98 163.56C337.33 162.7 338.68 161.84 340.03 160.98C344.04 159.43 348.05 157.88 352.06 156.34Z" fill="black"/>
<path d="M338.881 190.99C347.491 188.3 354.951 185.96 363.721 183.21C358.051 189.41 344.111 193.89 338.881 190.99Z" fill="black"/>
<path d="M373.071 182.679C371.031 183.179 369.001 183.669 366.961 184.169C366.801 183.569 366.631 182.959 366.471 182.359C374.181 179.779 381.891 177.199 389.601 174.609L390.071 175.629C388.551 176.589 387.031 177.549 385.521 178.519C381.371 179.909 377.221 181.289 373.081 182.679H373.071Z" fill="black"/>
<path d="M331.009 148.029C329.599 148.189 328.189 148.36 326.769 148.52C326.659 148.18 326.559 147.839 326.449 147.499C338.339 143.679 350.229 139.869 362.109 136.049L362.039 135.979C360.049 137.339 358.049 138.689 356.049 140.049C347.699 142.709 339.339 145.369 330.989 148.029H331.009Z" fill="black"/>
<path d="M392.999 182.989C381.919 186.339 370.829 189.689 359.749 193.049C359.649 192.709 359.539 192.379 359.439 192.039C370.509 188.659 381.589 185.279 392.659 181.899C392.769 182.259 392.879 182.629 392.989 182.989H392.999Z" fill="black"/>
<path d="M352.06 156.34C348.05 157.89 344.04 159.44 340.03 160.98C335.95 161.96 331.87 162.95 327.79 163.93C327.67 163.48 327.55 163.04 327.43 162.59C335.64 160.5 343.85 158.42 352.06 156.33V156.34Z" fill="black"/>
<path d="M331.01 148.03C339.36 145.37 347.72 142.71 356.07 140.05C353.52 141.35 350.97 142.65 348.42 143.95C346.68 144.27 344.92 144.52 343.21 144.93C339.13 145.9 335.06 146.94 330.99 147.96L331.02 148.03H331.01Z" fill="white"/>
<path d="M355.26 163.1C347.68 165.58 340.1 168.05 332.52 170.53C332.41 170.17 332.29 169.81 332.18 169.44C339.74 166.91 347.3 164.37 354.87 161.84C355 162.26 355.14 162.68 355.27 163.1H355.26Z" fill="black"/>
<path d="M373.071 182.679C377.221 181.289 381.371 179.909 385.511 178.519C387.271 178.159 389.041 177.799 390.801 177.439C390.911 177.889 391.031 178.339 391.141 178.789C385.111 180.089 379.091 181.379 373.061 182.679H373.071Z" fill="black"/>
<path d="M330.97 147.96C335.04 146.95 339.11 145.9 343.19 144.93C344.91 144.52 346.66 144.27 348.4 143.95C341.45 146.44 334.5 148.94 327.55 151.43C327.43 151.13 327.31 150.83 327.18 150.54C328.44 149.68 329.7 148.82 330.96 147.96H330.97Z" fill="black"/>
<path d="M261.859 228.12C251.469 223.46 241.079 218.8 230.689 214.14C230.979 213.54 231.269 212.93 231.559 212.33C241.629 217.62 251.709 222.92 261.779 228.21L261.859 228.13V228.12Z" fill="black"/>
<path d="M261.02 218.979C268.85 222.039 276.68 225.079 284.49 228.199C286.37 228.949 288.14 229.989 289.96 230.889C289.74 231.359 289.52 231.819 289.29 232.289C279.86 227.869 270.42 223.44 260.98 219.02L261.01 218.979H261.02Z" fill="black"/>
<path d="M261.779 228.199C265.499 229.449 269.279 230.519 272.909 231.989C278.819 234.389 284.619 237.039 290.459 239.589C290.239 240.089 290.009 240.579 289.789 241.079C280.479 236.759 271.169 232.429 261.859 228.109L261.779 228.199Z" fill="black"/>
<path d="M289.009 252.24C283.519 249.79 278.029 247.35 272.539 244.9C272.699 244.53 272.859 244.16 273.019 243.79C278.499 246.22 283.989 248.65 289.469 251.08C289.319 251.47 289.159 251.85 289.009 252.24Z" fill="black"/>
<path d="M410.959 202.87C398.959 206.45 386.949 210.03 374.949 213.62C368.949 215.42 362.949 217.23 356.949 219.04C358.249 218.16 359.439 216.92 360.879 216.46C376.549 211.46 392.259 206.56 407.979 201.71C409.019 201.39 411.309 199.1 410.969 202.87H410.959Z" fill="black"/>
<path d="M358.92 222.029C364.34 219.779 369.66 217.239 375.2 215.329C382.15 212.929 389.28 211.039 396.34 208.939C383.87 213.299 371.39 217.669 358.92 222.029Z" fill="black"/>
<path d="M386.77 224.83C380.51 226.95 374.24 229.06 367.98 231.18C367.85 230.78 367.72 230.38 367.59 229.98C373.87 227.93 380.16 225.87 386.44 223.82C386.55 224.16 386.66 224.5 386.77 224.84V224.83Z" fill="black"/>
<path d="M271.26 189.059C272.62 189.329 273.99 189.609 275.35 189.879C275.44 189.649 275.53 189.419 275.62 189.199C271.46 187.079 267.29 184.969 262.65 182.609C269.31 183.299 289.95 193.529 291.27 197.349C284.12 194.779 277.56 192.419 270.99 190.059C271.08 189.719 271.16 189.389 271.25 189.049L271.26 189.059Z" fill="black"/>
<path d="M268.2 170.49C275.38 173.42 282.57 176.35 289.75 179.28C289.57 179.74 289.39 180.2 289.22 180.65C282.07 177.64 274.91 174.63 267.76 171.61C267.91 171.23 268.05 170.86 268.2 170.49Z" fill="black"/>
<path d="M269.949 164.04C276.809 166.58 283.679 169.11 290.539 171.65C290.339 172.15 290.149 172.65 289.949 173.16C283.399 170.58 276.849 168.01 270.329 165.36C270.089 165.26 270.129 164.44 270.049 163.95L269.959 164.04H269.949Z" fill="black"/>
<path d="M274.43 168.73C279.83 171.02 285.22 173.31 290.62 175.6C290.44 176.03 290.26 176.46 290.08 176.88C284.67 174.57 279.26 172.27 273.85 169.96C274.04 169.55 274.24 169.14 274.43 168.72V168.73Z" fill="black"/>
<path d="M163.93 231.04C174.31 227.35 184.69 223.66 195.07 219.96C189.15 222.42 183.31 225.07 177.29 227.26C172.95 228.84 168.39 229.8 163.93 231.04Z" fill="black"/>
<path d="M132.9 215.85C128.91 216.91 124.92 217.97 120.93 219.04C127.38 216.32 133.83 213.6 140.28 210.88C140.39 211.13 140.51 211.38 140.62 211.64C138.05 213.04 135.47 214.45 132.9 215.85Z" fill="white"/>
<path d="M48.9199 190.97C49.8999 191.02 50.9699 190.83 51.8599 191.15C65.9799 196.24 80.0799 201.39 94.1699 206.57C94.8899 206.83 95.4399 207.54 96.0699 208.04C90.7199 206.3 85.3099 204.73 80.0399 202.79C69.6299 198.96 59.2899 194.92 48.9199 190.97Z" fill="white"/>
</svg>
