<svg width="179" height="237" viewBox="0 0 179 237" fill="none" xmlns="http://www.w3.org/2000/svg">
<path d="M39.9109 208.121L46.1181 234.591L46.0895 207.365C42.4051 174.535 34.9609 108.258 34.6586 105.786C34.3564 103.315 34.759 101.208 34.998 100.464L165.042 105.786L154.703 21.2364L16.4897 16.5829L22.0064 65.7465L26.3407 101.192L26.9279 101.946L39.9109 208.121Z" fill="#FFCD70" stroke="black"/>
<path d="M27.2913 102.231C29.1286 101.512 33.2418 100.15 34.9965 100.464" stroke="black"/>
<path d="M34.7031 100.412C33.5031 100.412 28.8698 101.412 26.7031 101.912L39.7031 208.412L46.2031 231.912L46.2031 206.912C42.3698 173.579 34.7031 106.412 34.7031 104.412C34.7031 101.912 36.2031 100.412 34.7031 100.412Z" fill="#FEF0D4" stroke="black"/>
</svg>
