<?xml version="1.0" encoding="UTF-8"?>
<svg id="Layer_2" xmlns="http://www.w3.org/2000/svg" viewBox="0 0 1024 1024">
  <defs>
    <style>
      .cls-1 {
        fill: #fff;
      }
    </style>
  </defs>
  <g id="Layer_1-2" data-name="Layer_1">
    <g>
      <path class="cls-1" d="M3.56,0h1020.44v1024c-340.15,0-680.29,0-1020.44,0,.14-2.32.39-4.64.39-6.96-.02-154.6-.08-309.2-.09-463.8,0-174.09.05-348.18.05-522.28,0-10.32-.23-20.64-.36-30.96ZM390.39,619.99c8.66,7.54,16.69,15.01,25.26,21.8,5.69,4.51,12.61,7.51,18.18,12.14,8.93,7.43,17.23,15.64,25.76,23.56,6.71,6.23,14.23,10.81,23.3,12.91,3.65.85,7.15,2.7,10.5,4.49,11.44,6.12,22.82,12.35,34.14,18.68,2.27,1.27,4.49,2.87,6.23,4.78,9.76,10.69,19.34,21.54,29.03,32.29,8.21,9.11,19.26,15.4,25.63,26.39,3.36,5.8,7.89,10.45,14.4,13.27,5.3,2.29,9,6.51,12.08,11.84,6.15,10.64,14.01,20.3,20.14,30.95,7.03,12.2,17.2,19.21,30.69,21.71,10.41,1.93,20.65,1.98,29.38-5.43,7.25-6.15,8.63-15.75,2.7-23.17-4.13-5.17-9.31-9.48-13.82-14.36-4.94-5.34-10.2-10.52-14.32-16.46-5.39-7.77-9.87-16.17-14.6-24.39-.84-1.46-1.69-3.55-1.28-4.99,1.2-4.2.04-7.75-2.51-10.72-6.23-7.27-8.23-18.24-18.82-21.75-.51-.17-.8-1.02-1.17-1.56-8.91-13.23-17.79-26.48-26.72-39.7-3.72-5.51-7.55-10.94-11.29-16.43-2.96-4.34-5.76-8.79-8.82-13.07-3.55-4.96-6.58-10.63-11.13-14.45-6.82-5.72-14.64-10.31-22.29-14.97-6.35-3.87-12.56-7.77-17.26-14.51,3.68-1.32,7.26-2.14,10.85-2.18,6.8-.09,13.95,1.71,20.35.18,18.7-4.48,34.76,3.75,50.83,10.05,13.21,5.18,25.04,13.78,37.76,20.33,6.57,3.38,13.04,6.37,16.99,13.14,1.07,1.84,3.41,3.37,5.49,4.13,8.26,3.02,16.49,6.51,25.05,8.19,5.43,1.07,9.97,2.6,14.34,5.95,9.45,7.26,21.61,6.05,28.67-3.61,5.07-6.94,11.73-9.8,19.4-12,10.68-3.05,21.67-5.43,30.32-13.31,4.88-4.44,8.18-9.54,9.08-16.15,1.35-9.95-7.35-23.08-20.93-18.3-4.08,1.44-8.15,2.92-12.31,4.11-10.37,2.95-20.66,6.68-31.77,4.65-4.22-.77-8.58-1.04-12.64-2.29-4.94-1.52-10.63-2.73-14.27-6-16.58-14.92-33.13-29.96-48.53-46.07-9.41-9.85-22.13-14.39-31.95-23.25-.93-.84-2.37-1.21-3.64-1.59-7.97-2.36-15.84-5.36-23.98-6.84-13.89-2.53-27.97-4.07-41.95-6.09-1.4-.2-3.71-.57-3.94-1.35-1.51-5.04-3.76-10.28-3.5-15.34.59-11.38-4.3-19.94-11.61-27.66-24.72-26.09-52.72-47.85-84.9-64.05-8.94-4.5-17.97-10-28.09-9.53-11.36.52-16.24-5-19.72-14.52-1.51-4.14-3.95-7.35,1.54-10.01-1.92-3.92-4.25-7.33-5.26-11.1-1.65-6.16-5.69-10.13-11.12-11.88-9.51-3.06-17.93-8.21-26.89-12.29-28.03-12.77-57.57-5.21-73.44,15.19-.67.86-1.81,1.38-2.77,1.98-3.06,1.92-6.48,3.41-9.16,5.75-18.79,16.47-37.32,33.23-56.15,49.65-8.02,7-12.55,15.72-15.09,25.84-3.04,12.12,3.45,21.64,9.82,30.17,2.96,3.96,5.73,7.58,7.43,12.18.97,2.64,2.21,5.22,3.65,7.64,16.89,28.12,33.8,56.24,50.81,84.29,4.56,7.51,8.56,15.56,16.47,20.37,7.25,4.41,14.29,9.24,21.88,12.97,4.62,2.27,7.41,5.05,9.46,9.79,8.41,19.42,21.9,35.71,33.69,53.02.98,1.43,3.27,2.82,4.93,2.79,8.5-.19,14.43,3.33,18.78,10.65,2.52,4.24,5.68,8.47,9.51,11.46,3.9,3.05,8.81,5.23,13.62,6.55,3.73,1.02,7.11-.63,10.33-4.02,3.7-3.89,4.03-9.44,7.43-12.73,5.33-5.14,1.78-8.96-.59-13.1-1.2-2.1-3.11-3.8-4.68-5.66,5.63-6.04,4.82-9.1-3.11-11.84-3.13-1.08-6.56-1.4-9.57-2.73-1.78-.78-3.42-2.63-4.35-4.4-1.97-3.76-2.93-8.11-5.21-11.64-5.57-8.64-8.94-17.97-10.77-28.35Z"/>
      <path class="cls-1" d="M2.56,1024c-.67-.33-1.78-.55-1.91-1.02-.29-1.09-.09-2.31-.09-3.48,0-338.33,0-676.66.14-1015C.7,3.21-1.77-.12,2.56,0c-.07,3.16-.2,6.32-.2,9.48,0,316.69-.01,633.38,0,950.07,0,21.48.13,42.97.2,64.45Z"/>
      <path d="M2.56,1024c-.07-21.48-.2-42.97-.2-64.45-.01-316.69,0-633.38,0-950.07,0-3.16.13-6.32.2-9.48h1c.12,10.32.36,20.64.36,30.96,0,174.09-.06,348.18-.05,522.28,0,154.6.07,309.2.09,463.8,0,2.32-.26,4.64-.39,6.96h-1Z"/>
      <path d="M390.39,619.99c1.83,10.38,5.2,19.71,10.77,28.35,2.27,3.53,3.24,7.88,5.21,11.64.93,1.77,2.58,3.62,4.35,4.4,3,1.33,6.43,1.65,9.57,2.73,7.93,2.74,8.74,5.8,3.11,11.84,1.57,1.85,3.47,3.55,4.68,5.66,2.37,4.13,5.92,7.96.59,13.1-3.41,3.29-3.73,8.84-7.43,12.73-3.23,3.39-6.61,5.04-10.33,4.02-4.81-1.32-9.72-3.51-13.62-6.55-3.84-2.99-6.99-7.22-9.51-11.46-4.35-7.31-10.28-10.83-18.78-10.65-1.65.04-3.95-1.36-4.93-2.79-11.8-17.32-25.28-33.61-33.69-53.02-2.05-4.74-4.84-7.52-9.46-9.79-7.58-3.73-14.63-8.56-21.88-12.97-7.91-4.82-11.92-12.86-16.47-20.37-17.01-28.05-33.92-56.16-50.81-84.29-1.45-2.41-2.68-5-3.65-7.64-1.7-4.61-4.47-8.23-7.43-12.18-6.37-8.53-12.85-18.05-9.82-30.17,2.53-10.11,7.06-18.84,15.09-25.84,18.83-16.42,37.36-33.18,56.15-49.65,2.68-2.35,6.1-3.84,9.16-5.75.96-.6,2.1-1.12,2.77-1.98,15.87-20.4,45.41-27.97,73.44-15.19,8.96,4.08,17.38,9.23,26.89,12.29,5.43,1.75,9.47,5.73,11.12,11.88,1.01,3.76,3.35,7.17,5.26,11.1-5.49,2.66-3.05,5.87-1.54,10.01,3.48,9.52,8.35,15.04,19.72,14.52,10.12-.46,19.15,5.03,28.09,9.53,32.18,16.2,60.18,37.96,84.9,64.05,7.31,7.72,12.2,16.28,11.61,27.66-.26,5.06,2,10.3,3.5,15.34.23.78,2.54,1.15,3.94,1.35,13.99,2.02,28.06,3.57,41.95,6.09,8.14,1.48,16,4.47,23.98,6.84,1.27.38,2.7.75,3.64,1.59,9.82,8.85,22.54,13.4,31.95,23.25,15.4,16.11,31.95,31.15,48.53,46.07,3.63,3.27,9.33,4.48,14.27,6,4.06,1.25,8.42,1.52,12.64,2.29,11.12,2.03,21.4-1.69,31.77-4.65,4.16-1.18,8.23-2.67,12.31-4.11,13.58-4.79,22.28,8.35,20.93,18.3-.9,6.61-4.2,11.71-9.08,16.15-8.65,7.88-19.65,10.26-30.32,13.31-7.67,2.19-14.33,5.06-19.4,12-7.07,9.66-19.22,10.87-28.67,3.61-4.36-3.35-8.9-4.88-14.34-5.95-8.56-1.69-16.79-5.17-25.05-8.19-2.09-.76-4.42-2.29-5.49-4.13-3.95-6.77-10.41-9.76-16.99-13.14-12.72-6.54-24.55-15.15-37.76-20.33-16.07-6.3-32.13-14.54-50.83-10.05-6.4,1.53-13.55-.26-20.35-.18-3.59.04-7.16.87-10.85,2.18,4.71,6.75,10.91,10.65,17.26,14.51,7.65,4.66,15.46,9.25,22.29,14.97,4.55,3.81,7.58,9.49,11.13,14.45,3.06,4.27,5.86,8.72,8.82,13.07,3.74,5.49,7.57,10.92,11.29,16.43,8.93,13.22,17.81,26.47,26.72,39.7.37.55.66,1.4,1.17,1.56,10.59,3.51,12.59,14.48,18.82,21.75,2.55,2.98,3.71,6.53,2.51,10.72-.41,1.44.44,3.53,1.28,4.99,4.72,8.22,9.2,16.63,14.6,24.39,4.13,5.94,9.38,11.12,14.32,16.46,4.51,4.88,9.69,9.19,13.82,14.36,5.93,7.42,4.55,17.02-2.7,23.17-8.74,7.41-18.98,7.36-29.38,5.43-13.49-2.5-23.66-9.51-30.69-21.71-6.14-10.65-13.99-20.31-20.14-30.95-3.08-5.33-6.77-9.55-12.08-11.84-6.52-2.82-11.04-7.47-14.4-13.27-6.37-10.99-17.42-17.28-25.63-26.39-9.69-10.75-19.27-21.6-29.03-32.29-1.74-1.91-3.96-3.51-6.23-4.78-11.32-6.33-22.7-12.57-34.14-18.68-3.35-1.79-6.85-3.64-10.5-4.49-9.07-2.11-16.59-6.68-23.3-12.91-8.53-7.92-16.82-16.12-25.76-23.56-5.57-4.63-12.49-7.63-18.18-12.14-8.57-6.79-16.59-14.26-25.26-21.8ZM552.4,641.47c-.82,1.66-1.64,3.32-2.34,4.74,3.69-.74,7.48-1.5,11.27-2.26-9.34,3.18-17.32,8.47-24.21,15.5-.75.76-1.94,1.08-2.93,1.6,4.15-4.23,8.3-8.45,12.45-12.68-.5-.54-1-1.09-1.5-1.63-6.14,4.9-12.4,9.68-18.39,14.76-2.87,2.43-5.24,5.46-7.83,8.22.57-1.56,1.13-3.12,2.09-5.74-9.18,8.32-16.79,16.26-20.85,27.06-1.21,3.21-.22,4.6,1.73,5.37,3.9-5.93,7.64-11.63,11.39-17.33,1.67-1.21,3.45-2.3,4.99-3.66,5.38-4.77,10.69-9.63,16.02-14.46-4.59,4.72-9.21,9.4-13.76,14.16-5.68,5.94-10.22,12.54-12.38,20.66-.64,2.42-.92,3.97,1.71,5.22,3.1,1.46,3.67-.92,4.72-2.7.69-1.18,1.37-2.36,2.17-3.76,1.46,3.37-4.46,6.11-.57,9.7,2.31-3.15,4.24-5.77,6.17-8.39-1.28,3.14-2.56,6.29-3.85,9.48,1.69.92,2.98,1.62,4.51,2.46,3.68-12.28,11.26-21.95,19.43-31.16,7.83-8.82,15.73-17.68,27.04-22.34-4.7,3.89-9.77,7.43-14.02,11.76-5.12,5.22-9.56,11.11-14.29,16.71.08.55.17,1.09.25,1.64-5.05,7.6-11.15,14.65-13.19,24.84,4.45-1.01,8.06-1.82,11.67-2.64-.49,1.8-1.94,2.52-2.71,3.69-1.01,1.55-2.5,3.89-1.97,5.1,1.18,2.72,3.61,4.09,6.97,2.49,2.66-1.27,5.56-2,8.36-2.98-3.59,2.09-7.19,4.19-10.78,6.28.1.43.21.86.31,1.29,2.12-.55,4.48-.69,6.32-1.73,5.56-3.13,10.92-6.62,16.35-9.97-6.54,4.77-13.07,9.53-19.61,14.3.05.18.1.37.15.55,6.35-2.56,12.7-5.12,19.05-7.68-5.67,3.19-11.34,6.37-17.01,9.56l.34,1.35c2.73-.36,5.45-.72,8.18-1.08.47.78.95,1.57,1.42,2.35-1.54.77-3.07,1.54-5.7,2.86,8.82,8.75,16.99,16.71,24.97,24.87,2.81,2.87,5.37,3.5,9.22,1.84,11.76-5.09,23.3-10.42,32.49-19.7-3.22,6.94-9.63,10.22-15.9,13.46-6.27,3.23-12.8,5.97-19.28,8.96,3.63,4.97,9.25,4.34,16.48.45,10.81-5.83,19.52-14.25,27.31-23.67,4.77-5.76,4.75-6.93.37-11.8-2.92,4.09-5.98,8.38-9.05,12.68,1.04-1.83,2.14-3.62,3.11-5.49,4.46-8.62,5.09-11.18-.4-17.91-4.91-6.03-9.15-12.6-13.83-18.84-1.01-1.34-2.6-2.24-3.93-3.34.07-3.07-.49-5.11-3.94-2.4.2-1.06.4-2.11.61-3.17-.33-.26-.66-.52-.99-.79-6.77,7.06-13.22,14.49-20.44,21.05-4.05,3.68-9.38,5.94-14.13,8.84,1.74-1.41,3.37-2.99,5.24-4.2,11.73-7.53,20.62-17.97,30.04-28.5-2.18-2.46-4.05-4.57-6.43-7.25-4.05,11.76-12.85,18.37-20.37,26-1.19,1.21-3.11,1.7-4.69,2.52,1.06-1.49,1.96-3.15,3.22-4.44,5.3-5.42,10.97-10.49,15.97-16.17,3.2-3.63,5.45-8.03.61-12.52-.88-.82-1-2.42-1.61-3.59-2.51-4.83-5-9.68-7.65-14.43-1.79-3.2-4.2-4.03-7.08-1.16.53-1.78,2.94-3.66-.27-5.25-2.65-1.66-5.3-3.32-7.95-4.98-2.13-3.86-5.12-4.61-8.91-2.46-3.64,1.1-7.29,2.21-10.93,3.31,3.66-2.34,7.31-4.67,11-7.03-.06-.1-.16-.41-.37-.6-4.54-4.26-8.59-.19-12.82.78,1.81-1.52,3.61-3.04,5.5-4.62-5.25-4.25-9.91-9.41-15.67-12.43-15.62-8.18-31.74-4.34-43.06,9.28-2.94,3.54-5.79,7.15-8.69,10.73,3.17-8.77,9.52-15.09,16.8-20.28,9.98-7.11,21.11-6.51,32.86-2.36-6.9-10.29-14.64-13.34-25.14-10.14-3.78,1.15-7.36,2.96-11.02,4.46,6.53-6.96,15.18-6.92,23.78-7.35-6.86-3.53-13.67-1.65-20.32.48-4.21,1.35-8.16,3.51-12.23,5.31,6.66-6.24,15.14-8.07,23.6-10.47-2.7.34-5.39.69-8.09,1.03,1.04-.87,2.08-1.73,3.11-2.6-5.39,0-11.03-.1-15.38,2.24-7.9,4.24-15.04,9.92-22.49,15.01-1.45.99-2.89,2-4.33,3.01,9.49-11.56,20.92-19.94,37.31-22.19-15.18-4.51-26.99-.26-37.4,9.28-4.11,3.77-8.05,7.73-12.07,11.61,6.68-7.12,13.36-14.24,20.04-21.35.29.2.58.4.86.6-2.32.59-4.65,1.17-6.97,1.76,14.91-8.26,30-6.58,45.2-.91,7.96,2.97,15.34,6.54,20.06,14.23,1.28,2.09,3.95,3.33,5.98,4.97-3.25-4.88-7.85-8.48-10.51-13.18-3.96-6.99-6.55-14.76-9.73-22.19.59-.7,1.72-1.42,1.7-2.11-.34-12.72,3.23-24.56,7.77-36.22.33-.84.04-1.92.04-4.07-2.75,3.16-4.63,5.33-6.51,7.5,1.28-3.08,2.57-6.17,3.85-9.25-7.87-2.95-7.52-2.76-11.35,4.39-5.85,10.91-4.68,21.81-1.13,32.92.35,1.11.73,2.22,1,3.35.25,1.06.37,2.16.54,3.24-7.51-15.64-8.84-31.23,2.35-47.28-3.53-.19-5.38-.29-7.23-.39-2.01-4.08-3.48-1.58-4.61.53-2.73,5.11-5.26,10.32-7.87,15.48.53-2.23,1.07-4.46,1.64-6.87-1.54,1.48-2.89,2.76-4.23,4.05,1.03-1.86,1.93-3.81,3.12-5.57,2.11-3.14,4.55-6.07,6.54-9.28,1.21-1.95,1.2-3.75-2.05-2.75-.14-1.79-.28-3.58-.42-5.36l-2.34-1.01c-3.7,4.17-7.4,8.34-11.09,12.51,3.62-4.5,7.24-9,11.16-13.88-7.72,6.51-15.08,12.71-22.45,18.92,2.87-2.9,5.7-5.84,8.61-8.7,3.78-3.72,7.61-7.38,11.42-11.07-.39-.51-.79-1.03-1.18-1.54-1.76.93-3.53,1.86-5.29,2.79-1.42.07-2.85.13-5.09.24,3.16-2.14,5.57-3.77,8.27-5.59-3.23-4.66-6.67-8.62-8.91-13.17-2.18-4.43-4.25-4.26-7.6-1.72-3.54,2.68-6.51,6.64-11.98,5.24-.99-.25-2.6.75-3.53,1.6-5.26,4.8-10.37,9.77-15.57,14.62-8.72,8.13-17.43,16.27-26.25,24.29-2.39,2.17-4.91,1.48-7.01-.74-3.2-3.38-6.39-6.76-9.49-10.23-4.3-4.81-8.5-9.7-12.74-14.56-.32.26-.64.52-.96.78,2.95,4.53,5.9,9.06,8.85,13.59-1.02-.44-2.03-.87-3.05-1.31.41-.04.83-.09,1.24-.13,2.3,9.66,4.6,19.33,6.9,28.99.31.03.62.05.93.08.12-5.66.24-11.33.36-16.99.6,1.8,2.01,3.78,1.66,5.38-2.03,9.48-4.07,19.01-6.97,28.25-1.17,3.74-4.55,6.78-6.89,10.16-.93,1.34-2.06,2.65-2.53,4.16-.31.99.06,2.76.79,3.32.75.58,2.39.4,3.47.03.93-.32,1.62-1.36,2.42-2.08.18.14.36.28.54.43-.95,1.53-1.91,3.07-3.56,5.72,5.16-2.16,9.21-3.85,13.26-5.54,1.94.26,3.89.53,5.83.79-1.84.87-3.67,1.75-5.51,2.62,1.95.3,3.93.29,5.7-.32,4.65-1.63,9.22-3.52,13.81-5.31-9.24,8.21-21.13,7.63-32.6,9.56.69,1.43,1.29,2.56,1.78,3.74,3,7.16,4.52,8.25,11.91,7.02,4.38-.73,8.63-2.2,12.94-3.33-6.25,2.33-12.5,4.66-19.75,7.36,3.32.51,6.24.95,9.12,1.39-1.39.61-2.79,1.23-4.19,1.85.05.38.09.76.14,1.14,2.19.1,4.39.2,6.58.3-.96.55-1.91,1.11-2.87,1.66.34.5.67,1.01,1.01,1.51,3.12-.95,6.24-1.9,9.36-2.85.07.17.15.35.22.52-1.99,1.12-3.98,2.23-5.98,3.35-.41.63-.82,1.25-1.23,1.88,1.45.73,2.9,1.46,4.36,2.19,1.03,1.04,2.06,2.08,3.09,3.12,3.54,3.04,7.08,6.07,10.63,9.11.38-.41.77-.82,1.15-1.22-.63-1.05-1.25-2.09-1.88-3.14,1.33-.75,2.92-1.24,3.94-2.29,6.41-6.53,12.7-13.19,19.02-19.8-4.51,5.01-9.37,9.75-13.39,15.13-2.43,3.25-3.71,7.43-5.16,11.32-.29.78,1,2.15,1.61,3.33,1.82-3.66,2.85-6.44,4.48-8.79,1.81-2.59,4.01-2.98,5.52.52,1.09,2.54,2.13,5.11,3.59,8.63,3.15-11.49,7.58-21.19,15.57-28.89-.93,1.71-1.93,3.4-2.79,5.15-3.38,6.97-7.7,13.67-9.82,21.01-2.95,10.17,2.43,20.73,10.34,24.42,0-7.52-.2-15.3.05-23.08.27-8.32,2.41-16.1,8.29-22.41-2.16,6.56-5.43,12.99-6.22,19.72-1,8.49-.18,17.23.32,25.83.12,2.07,2.04,4.04,3.13,6.06l1.61-.63c-3.62-13.51-.56-26.54,2.83-39.38,1.52-5.77,4.82-11.07,7.3-16.58-1.82,4.9-3.84,9.74-5.37,14.73-.54,1.76.12,3.88.23,5.84-5.69,12.86-5.96,25.86-1.62,38.97-2.06-16.58-2.08-18.44.24-25.79,3.47-11,8.26-20.42,11.08-22.65-3.3,7.94-7.33,16.47-10.37,25.33-3.07,8.93-.01,23.53,3.38,25.61-.51-6.43-1.9-13.81-1.44-21.06.45-6.96,2.23-14.04,7.61-19.37-1.93,5.44-4.72,10.74-5.62,16.34-2.43,15.06,3.73,31.83,21.75,33.57,3.41-6.2,6.62-12.03,9.83-17.87l-1.71,6.98c-3.52,3.78-4.54,8.36-4.43,13.33.9-.61,1.29-1.41,1.62-2.24,3.27-8.27,7.44-15.86,14.4-21.79,3.45-2.94,6.17-6.74,9.22-10.15,0,0-.12.08-.12.08,1.18-.48,2.45-.82,3.52-1.47,8.88-5.38,17.72-10.81,26.57-16.23ZM346.31,490.03c8.52,4.59,17.43,1.81,24.34,1.72-6.91-.47-15.66-1.06-24.41-1.65-.36-.3-.68-.76-1.1-.88-12.19-3.67-22.28-10.21-29.19-21.18-.15-.23-.78-.17-1.31-.26,3.39,9.86,19.31,20.95,31.66,22.25ZM386.27,666.07c4.07-5.15,9.15-8.38,16.13-8.28-.23-3.67-1.84-4.66-4.72-2.64-7.29,5.12-14.48,10.37-21.72,15.58,1.17-1.55,2.08-3.45,3.56-4.6,6.49-5.04,13.15-9.87,19.33-14.47-4.39-9.5-8.89-19.23-13.53-29.26-4.08.93-8.1,1.86-12.13,2.77-12.35,2.78-20.93,10.39-26.85,21.23-.75,1.37-1.22,3.85-.49,4.94,6.62,9.95,13.46,19.77,20.43,29.49,1.8,2.51,4.08,2.73,5.61-.62.87-.87,1.73-1.75,2.61-2.61,3.95-3.88,7.91-7.75,11.86-11.62-3.09,3.62-6.27,7.16-9.24,10.87-3.26,4.08-2.87,5.18,1.65,7.11,4.18-5.2,8.25-10.27,12.33-15.35-.14-.14-.28-.28-.43-.41-4.07,4.33-8.13,8.65-12.2,12.98,4.62-10.29,12.86-16.55,23.15-20.99-3.19,0-6.05.67-8.68,1.84-2.36,1.05-4.47,2.67-6.69,4.04ZM335.62,603.89c-2.87,2.94-5.74,5.88-8.6,8.83.28.24.55.48.83.72l8.83-6.1c-2.8,3.26-5.6,6.52-8.39,9.78.44.59.88,1.17,1.32,1.76,14.69-10.77,29.4-21.48,49.25-19.55-1.33-1.7-2.63-2.72-4.11-3.2-6.19-2.02-12.14-.38-18.03,1.53,1.9-1.15,3.8-2.3,5.71-3.45-4.94.61-9.75,1.95-14.44,3.62-3.36,1.2-6.56,2.84-9.83,4.28,11.87-9.39,25.21-11.1,39.71-7.55-5.96-4.52-12.74-5.65-19.51-3.94-6.67,1.68-13,4.68-19.48,7.1,3.94-2.26,7.69-4.99,11.87-6.68,7.96-3.23,16.29-2.72,24.6-1.04-7.61-4.1-15.87-4.54-23.44-1.64-8.09,3.11-15.44,8.17-23.11,12.38,4.27-3.31,8.3-7.01,12.87-9.84,10.32-6.4,21.73-5.87,33.69-4.96-1.64-1.25-3.29-2.5-4.23-3.22.9-1.28,2.62-2.67,2.56-3.98-.05-1.05-2.11-2.54-3.52-2.92-10.89-2.95-21.68-2.71-32.22,1.68,4.46-1.46,8.85-3.86,13.39-4.16,7.14-.47,14.36.48,21.5.83-.7-3.92-3.46-6.41-7.38-6.63-9.89-.55-19.8-.61-29.71-.86,1.84-.57,3.67-1.57,5.54-1.63,6.11-.21,12.24-.08,18.36-.08-8.62-3.69-17.6-4.08-26.67-3.5,14.74-2.91,28.45-.52,41.2,8.7-1.3-8.96-4.52-16.32-11.14-21.72-4.24-3.46-8.83-6.52-13.44-9.49-8.12-5.23-16.36-10.29-26.62-4.92,3.21-3.94,7.32-4.8,11.74-3.71,4.18,1.03,8.39,2.26,12.31,4,16.19,7.21,30.46,16.13,29.86,37.59.88-1.03,1.46-1.57,1.88-2.21,6.82-10.41,2.38-28.8-8.86-35.7-11.02-6.76-23.01-11.33-35.7-13.59-5.46-.97-11.3-1.06-16.79-.29-6.54.93-8.44,4.02-8.76,10.61-.72,14.84-.38,29.55,4.91,43.83,1.62-.53,3.31-1.09,5-1.65-5.77,4.87-5.92,5.62-2.27,10.74,2.02-1.88,4.07-3.78,6.11-5.68-.74,2.31-2.23,3.8-3.54,5.44-2.13,2.65-2.73,5.31.49,7.66.17.74.34,1.48.56,2.45,1.8-1.26,3.29-2.3,4.78-3.34-4.63,6.03-4.47,9.55.83,12.73-.21.86-.43,1.72-.79,3.16,2.01-.91,3.42-1.55,4.82-2.18-1.26,1.7-2.51,3.4-3.77,5.1.24.22.47.44.71.66,3.05-1.93,6.1-3.86,9.14-5.79ZM630.91,599.64c.56-1.19,1.06-2.41,1.7-3.55,5.56-9.82,11.18-19.6,16.66-29.46.66-1.19.6-2.79.87-4.2-.56-.12-1.13-.25-1.69-.37-1.1,2.69-1.97,5.5-3.33,8.06-3.7,7-7.61,13.89-11.43,20.83.86-1.97,1.71-3.94,2.59-5.9,3.06-6.82,6.2-13.59,9.12-20.47.56-1.31.24-3,.32-4.52-.29.02-.58.03-.87.05l-3.69,9.95c.35-2.46.85-4.92.99-7.39.06-1.19-.19-2.78-.94-3.55-2.55-2.57-5.35-4.91-8.13-7.24-6.96-5.83-12.91-4.88-17.76,2.85-1.24,1.98-2.23,4.1-3.34,6.16-.5-.34-1-.68-1.51-1.02,3.16-4.42,6.31-8.84,9.46-13.25q-4.91-3.74-11.57,5.13c1.06-2.73,2.12-5.46,3.18-8.19-.42-.17-.84-.34-1.26-.52-.94,2.34-2.15,4.61-2.77,7.03-1.72,6.75-3.54,13.51-4.71,20.38-2.38,13.91-4.37,27.9-6.49,41.85-.51,3.37.92,5.36,4.88,5.89-.17-2.55-.33-4.92-.49-7.28.28-.05.55-.1.83-.15.49,1.95.98,3.91,1.6,6.36.84-.95,1.33-1.56,1.87-2.12,8.75-9.02,17.51-18.03,26.27-27.04-.8,1.38-1.37,2.97-2.43,4.09-6.24,6.6-12.65,13.04-18.88,19.65-2.08,2.21-3.81,4.76-5.98,7.51,4.71,1.32,8.08,1.05,10.92-2.37,1.54-1.86,3.61-3.28,5.45-4.9.61.32,1.48,1.06,1.79.88,1.67-.98,3.2-2.2,4.79-3.33-2.39,2.71-4.68,5.53-7.22,8.1-1.77,1.79-4.39,3.32-1.95,6.08,2.33,2.64,4.74,2.1,7.13-.51,2.48-2.7,5.36-5.03,8.06-7.52.5.4.99.8,1.49,1.21-2.08,3.38-4.16,6.77-6.23,10.15.89-2.21,1.79-4.42,2.69-6.65-2.55,1.95-4.98,3.8-7.41,5.66.38.59.77,1.18,1.15,1.77,1.22-.3,2.44-.59,3.66-.89,1.04,4.49,4.63,6.45,8.14,4.01,5.29-3.67,10.39-7.63,15.36-11.72,3.17-2.6,5.96-5.65,8.92-8.5-7.76,7.89-15.52,15.78-23.34,23.72,1.57-.54,3.49-1.2,5.67-1.95-.9,1.35-1.61,2.42-2.68,4.03,17.08-6.64,37.6-37.21,32.58-49.53-1.64,3.3-3.51,7.05-5.38,10.8.88-2.66,2.01-5.26,2.58-7.98.49-2.33,1.42-5.67.3-7.05-4.21-5.18-9.18-9.74-14.03-14.7-1.66,1.85-2.74,3.05-3.8,4.23.47-2.29.93-4.58,1.4-6.86-.67-.21-1.34-.41-2.01-.62-1.82,3.61-3.39,7.38-5.52,10.81-5.05,8.11-10.36,16.05-15.56,24.06ZM471.95,454.79c4.86-3.56,9.72-7.12,14.36-10.52q-7.18-5.31-14.16.62c-2.35,2-4.6,4.1-6.9,6.16,3.88-4.31,7.76-8.63,11.6-12.9-25.83-17.05-49.37-25.37-60.59-20.75,4.13,5,8.21,9.76,12.08,14.69,2.51,3.2,4.71,6.66,7.04,10-5.47-6.08-10.94-12.16-17.28-19.21,1.03,4,1.09,7.25,2.6,9.53,6.34,9.51,13.08,18.76,19.78,28.04.98,1.36,2.49,2.32,3.76,3.47.32-.32.65-.65.97-.97-3.3-6.98-6.61-13.96-9.91-20.94,3.63,6.54,7.62,12.92,10.77,19.69,1.96,4.23,4.55,6.12,7.68,5.97,4.24-6.11,7.91-11.39,11.57-16.67-1.01,2.32-2.02,4.63-3.08,7.06,1.42.17,2.4.29,3.02.37-1.2,3.47-2.3,6.65-3.7,10.73,2.28-.7,3.04-.94,3.8-1.17,2.06,4.67,4.12,9.35,6.44,14.59,2.71-3.98,4.6-6.77,6.5-9.55-1.05,2.76-2.33,5.46-3.08,8.3-.45,1.72-.08,3.65-.08,5.59,4.77-6.45,8.11-13.37,13.54-17.61,5.48-4.28,13.03-5.9,19.61-8.66-6.25-6.52-9.61-6.9-16.82-1.47-1.84,1.39-3.47,3.1-5.05,4.8-2.79,2.99-5.47,6.09-8.2,9.14,4.19-9.2,11.15-15.65,20.45-19.79-.18-.37-.36-.73-.54-1.09-1.97.29-3.93.57-6.59.96,1.2-1.13,1.99-1.88,2.77-2.62-.16-.29-.32-.57-.48-.86-2.41.89-4.81,1.77-7.22,2.66-.19-.2-.37-.4-.56-.6,1.75-1.28,3.5-2.57,5.25-3.85-2.04-.45-3.88-.31-5.3.53-4.24,2.51-8.33,5.3-12.47,7.97-.53-.53-1.06-1.07-1.59-1.6ZM613.61,788.65c1.53-.9,3.05-1.79,4.58-2.69,5.77-3.38,11.54-6.77,17.31-10.15l-.67-.95c-2.86,1.04-5.73,2.08-8.59,3.12,1.2-.79,2.38-1.63,3.62-2.35,6.1-3.58,13.16-6.16,15.99-13.43.83-2.14.24-4.82.31-7.26l.08.08c-1.14-2.2-2.27-4.4-3.68-7.14-2.83,3.47-4.93,6.05-7.78,9.55q5.09-14.73,2.81-16.67c-1.51,9.44-5.82,16.93-13.86,21.94,2.5-3.05,5.07-6.04,7.48-9.16,3.23-4.18,4.54-8.98,4.5-14.16-.95.81-1.13,1.85-1.48,2.83-1.94,5.34-3.09,11.19-8.81,14.18,2.36-4.55,4.96-9,6.94-13.7.59-1.41-.53-3.53-.86-5.33-1.67.69-3.74.97-4.95,2.13-5.59,5.43-10.62,11.48-16.49,16.56-4.93,4.28-10.75,7.53-16.18,11.24.06.24.13.49.19.73,4.92-1.5,9.85-3,15.18-4.63-6.32,5.85-14.07,5.57-22.2,6.18,1.13,1.24,1.67,1.83,2.21,2.42,1.23.46,2.44,1.28,3.68,1.33,4.11.17,8.24.06,12.35.06.03.2.05.4.08.6-4.58.39-9.16.79-13.74,1.18,16.36,2.81,29.23-6.05,42.9-12.56-6.11,4.15-12.32,8.06-18.97,10.96-6.56,2.86-13.57,4.7-20.48,7.02,7.14,2.48,14.24,3.13,21.45.66,3.27-1.12,6.54-2.23,9.81-3.35-8.36,6.41-17.8,7.63-27.91,5.69-.12.45-.24.9-.36,1.35,4.43,1.34,8.85,2.67,13.28,4.01-.49.61-.99,1.22-2.22,2.75,2.95,0,5.05.27,7.06-.04,13.44-2.13,22.78-11.1,32.14-19.82,2.82-2.63,2.93-9.74,1.19-12.54-8.02,14.61-19.54,24.94-35.91,29.36ZM559.33,606c1.73,2.51,3.46,5.02,5.18,7.52-8.82-27.66,1.49-51.87,11.69-76.4-1.54.72-2.9,1.64-3.87,2.86-1.52,1.91-2.77,4.04-4.13,6.07,1.33-3.14,2.66-6.27,4.14-9.76-5.77-.53-11.16-1.03-16.45-1.51-3.03,14.03-10.23,17.45-18.67,12.62-1.04,1.19-2.23,2.35-3.2,3.68-7.38,10.14-11.36,21.74-11.38,34.03-.03,14.76,12.5,32.31,33.99,28.73-11.81-11.96-22.26-24.46-20.99-42.61.26,8.94,3.13,17.06,7.97,24.55,4.74,7.33,10.17,13.96,18.08,19.09-2.89-6.18-6.14-11.27-7.68-16.84-2.93-10.61-3.24-21.31,3.27-31.09-.23,1.11-.28,2.3-.71,3.33-3.96,9.4-3.79,19-1.1,28.59.71,2.54,2.53,4.76,3.84,7.13ZM587.21,558.07c-1.39,6.27-2.81,12.54-4.17,18.82-2.29,10.64-3.21,21.34-.66,32.04.39,1.62,2.14,2.92,3.26,4.36-1.23-14.31-.68-27.52,3.64-40.49-.18,1.64-.42,3.29-.54,4.93-.75,10.02-1.48,20.04-2.21,30.06.6.03,1.19.07,1.79.1v-14.3c.31,0,.63.01.94.02v19.59c1.73.52,3.16.94,4.15,1.24,2.12-12.29,3.95-24.27,6.3-36.15,2.37-11.99,5.25-23.87,7.94-35.96-2.74-1.95-4.2-.42-5.18,2.41-1.07,3.06-2.2,6.11-3.31,9.16l.08.07c.8-4.15,1.6-8.29,2.4-12.44-.43-.12-.86-.24-1.29-.35-2.91,10.68-5.82,21.36-8.8,32.27-.24-.91-.4-1.54-.64-2.42-.66.73-1.18,1.31-1.7,1.89,2.33-11.14,4.65-22.28,6.98-33.42-.53-.22-1.06-.44-1.59-.66-.81,1.32-1.88,2.54-2.38,3.96-1.8,5.09-3.42,10.24-5.1,15.37,1.4-6.4,2.81-12.81,4.21-19.21-15.64,18.13-22.07,65.45-10.03,73.86-4.79-19.43-.72-37.25,5.9-54.77ZM572.26,608.01c.96,1.55,1.93,3.09,2.89,4.64-1.23-12.67-4.87-25.19-.79-37.72,3.98-12.24,8.6-24.28,13.38-37.67-3.49.56-8.43.13-9.17,1.69-4.09,8.64-8.65,17.52-10.23,26.79-2.41,14.18-2.52,28.75,3.99,42.38-2.61-5.8-5.22-11.6-6.98-15.52,0,5.5,1.82,12.8,6.68,19.28.07-1.29.15-2.57.22-3.86ZM680.08,613.53c.5-6.81,3.91-13.54,1.15-21.68-.92,1.94-1.27,2.66-1.75,3.66-.27-1.82-.47-3.2-.67-4.57-3.96,14.16-10.4,26.75-20.14,37.66,2.11-1.97,4.23-3.95,6.34-5.92.38.49.76.97,1.13,1.46-6.62,4.93-13.24,9.85-20.06,14.93,5.13,4.19,6.22-2.56,9.93-2.53-1.71,2.04-3.23,3.85-5.39,6.41,2.17.25,3.52.4,4.86.56,1.61.79,3.21,1.58,4.82,2.37,3.97,4.02,7.83,8.16,12.01,11.93.77.69,3.02.3,4.31-.25,2.88-1.22,5.59-2.84,8.37-4.3l.57,1.11c-3.32,1.96-6.63,3.92-10.11,5.98,2.84,2.84,5.25,2.44,7.69.22,5.34-4.87,10.71-9.72,16.06-14.58-5.1,6.06-10.2,12.12-15.12,17.95,6.57,2.25,21.41-14.05,21.35-24.56-2.11,2.24-4.21,4.47-6.32,6.71.86-1.56,1.82-3.08,2.57-4.7,2.86-6.12,5.77-12.23,8.35-18.46.49-1.18.14-3.51-.73-4.34-5.74-5.45-11.73-10.64-16.98-15.33-4.86,8.55-9.67,17-14.47,25.44.71-1.65,1.37-3.33,2.14-4.96,2.69-5.67,5.52-11.28,8.11-17,2.03-4.48,1.62-8.3-3.37-10.19-1.57,5.7-3.12,11.35-4.67,16.99ZM302.41,477.97c-3.8,4.28-7.41,8.77-11.49,12.76-2.08,2.03-2.1,3.28-.96,5.87,4.15,9.36,7.8,18.95,11.75,28.4.66,1.57,1.88,2.91,2.76,4.23,0-7.35-.1-14.3.02-21.24.17-9.27,1.67-18.12,7.55-25.82,4.06-5.32,3.71-5.99-2.58-9.83-2.34,1.87-4.74,3.8-7.14,5.72.89-1.71,1.78-3.42,2.98-5.74-12.45-.59-13.99-11.52-19.05-19.62-1.62,2.51-3.56,4.55-4.4,6.98-2.41,6.99-4.79,13.89-11.37,18.74,8.64.97,15.14,4.16,17.52,13.07,5.28-4.96,9.84-9.24,14.41-13.53ZM496.32,483.96c-4.98,11.25-5.49,21.06-1.19,25.52,1.93-5.27,3.82-10.45,5.72-15.64-1.15,4.85-2.54,9.66-3.31,14.57-.26,1.67.47,4.32,1.71,5.27,5.71,4.36,11.75,8.29,18.38,12.85,3.32-15.86,14.09-24.56,28.37-32.28-6.96-6.37-13.01-11.82-18.93-17.4-1.91-1.8-3.63-2.13-5.59-.33-4.98,4.57-9.94,9.15-14.91,13.72-.19-.16-.38-.32-.57-.48.37-1.57.75-3.15,1.12-4.72,4.83-3.77,9.66-7.53,15.46-12.06-10.53,1.91-19.12,4.9-26.35,11.07,2.78-2.42,5.23-5.47,8.4-7.1,4.76-2.44,10.03-3.89,15.12-5.78-7.04-9.1-8.03-9.45-18.39-6.02-3,.99-5.94,2.16-8.86,3.36-9.52,3.93-11.69,12.98-14.71,21.4-.24.66-.01,1.83.46,2.35,3.83,4.23,7.77,8.37,12.45,13.35.22-3.25.31-5.33.52-7.41.24-2.31.21-4.76,1-6.89.97-2.6,2.68-4.92,4.08-7.36ZM353.6,608.9c-6.3,5.52-12.65,10.99-18.84,16.63-.95.87-2.01,2.96-1.6,3.77,2.06,4.08,4.6,7.92,6.96,11.84.95,1.98,1.9,3.96,3.09,6.46.98-1.3,1.42-1.78,1.75-2.32,6.82-11.32,15.99-19.41,29.46-21.77,3.24-.57,6.42-1.51,9.62-2.28-10.44-4.08-19.13-.82-27.14,5.38,6.57-9.74,16.93-8.69,26.96-8.75-.8-1.98-1.34-3.32-1.99-4.92-15.35.1-28.96,4.46-39.76,16.09,6.43-9.79,11.93-12.2,39.35-17.77-.67-7.99-1.38-8.61-8.77-7.63-1.97.26-3.93.63-5.89.96.86-.7,1.73-1.4,2.63-2.13-.25-.11-.4-.23-.55-.23-14.3.34-25.34,7.74-35.51,16.76-1.46,1.3-1.72,3.96-2.54,5.99.51.23,1.02.47,1.54.7,2.04-2.34,3.75-5.12,6.19-6.93,4.8-3.57,10.01-6.6,15.05-9.85ZM316.43,502.03c-1.19.34-3.31.47-3.44,1.04-1.37,6.12-2.42,12.31-3.44,17.83,4.76-1.12,8.8-2.86,12.85-2.89,18.52-.12,35.2,6.27,50.47,16.2,8.15,5.3,12.93,22.3,9.56,31.33-1.09,2.93-3.06,5.53-4.2,8.45-.99,2.53-1.37,5.3-2.02,7.97.7.24,1.41.48,2.11.72,1.95-3.91,4.39-7.65,5.74-11.76,3.5-10.64,4.35-21.44.16-32.18,1.03,1.82,2.59,3.53,3,5.48,2.72,12.91,1.03,25.27-6.27,36.35-2.83,4.29-2.82,7.78.13,12.13,6.59-5.68,11.98-12.08,12.26-20.94.41-13.19.05-26.45-8.38-37.74-3.13-4.19-6.36-8.36-9.92-12.19-7.36-7.92-16-14.16-26.51-17.11-11.28-3.16-22.83-5.5-32.21-13.82-1.65,4.19-4.02,7.71.09,11.13ZM384.39,514.98c-2.26-.13-3.28-.7-3.24-3.58.05-4.29,1.66-7.17,4.96-9.59,9.41-6.91,18.89-13.73,28.03-20.96,5-3.95,9.38-8.68,14.04-13.06.91-1.44,1.82-2.87,2.61-4.11,1.08.26,2.84.69,5.91,1.44-5.67-9-10.45-16.59-15.93-25.29-.18,3.44.27,5.51-.47,7-4.16,8.41-1.41,14.58,5.76,19.54-2.96-1.99-5.92-3.98-8.16-5.49-25.61,39.98-59.59,42.94-99.17,23.61,6.94,8.57,16.98,10.85,26.49,14.02,10.02,3.34,20.02,2.21,29.85-1-21.3,9.3-39.6.75-58.32-10.42,2.54,5.57,6.94,7.91,11.25,9.52,12.19,4.56,24.61,8.51,35.97,12.37,6.44-4.26,12.82-8.47,19.2-12.68l.9,1.31c-4.36,2.69-8.65,5.53-13.12,8.03-4.22,2.36-5.44,5.02-2.82,7.6,4.35,4.28,8.84,8.42,14.09,13.38-1.21-2.92-2-4.84-2.79-6.76.23-.35.46-.71.69-1.06,1.56.8,3.44,1.27,4.61,2.45,2.81,2.83,5.22,6.03,7.9,9,2.84,3.14,5.79,6.17,8.69,9.25-.3-2.25-1.45-3.65-2.53-5.1-4.85-6.5-9.67-13.02-14.5-19.53,1.86,1.6,4.07,2.93,5.53,4.84,5.74,7.51,11.21,15.23,16.88,22.79.76,1.02,2.1,1.6,3.17,2.39.29-.33.58-.66.87-.98-1.16-1.7-2.32-3.4-3.49-5.1-4.15-6-8.69-11.77-12.31-18.07-2.42-4.22-5.87-7.34-11.26-7.6.24.61.47,1.22.71,1.83ZM753.35,651.08l-.1-.04c-.67,4.47-3.81,6.45-7.75,7.39-6.94,1.65-13.95,3.03-20.88,4.7-5.34,1.29-10.08,3.63-12.85,8.98,1.57.17,3.24.01,3.97-.9,3.6-4.48,8.41-5.47,13.77-5.7,5.46-.24,11.24.08,16.28-1.64,9.72-3.32,19.05-7.78,28.45-11.98,12.54-5.61,19.22-17.11,17.58-29.52-.55-4.14-2.33-6.06-6.63-4.75-4.23,1.29-8.47,2.56-12.72,3.84q4.58,13.93,2.62,16.12c-.68-2.63-1.27-4.89-1.86-7.15l-.8.22c.18,2.47.35,4.93.53,7.4l-.98.24-3.41-5.96c-.29.08-.58.17-.87.25v7.84l-1.29.61c-1.67-3.15-3.35-6.3-5.71-10.75-.38,5.89,1,10.83-3.7,14.25-2.3-4.04-4.43-7.8-6.57-11.56-1.1,2.53-1.8,5.05-.96,6.85,2.03,4.32-.83,5.86-3.49,7.7-2.78,1.92-3.65-.45-5.04-2.11-.45-.54-1.83-.31-2.66-.41-.21-1.85-.38-3.38-.64-5.74-2.83,7.93-2.25,9.03,4.66,10.33-7.62.78-8.3.17-7.49-6.92.19-1.63.79-3.22.92-4.85.16-2.08.04-4.19.04-7.51-3.77,5.44-.47,11.11-5.44,15.54-3.38,3.01-3.59,9.59-5.33,14.89,3.89-.89,7.68-2.24,11.55-2.53,6.51-.49,12.36-2.02,16.79-7.16ZM264.66,524.09c-.77-.4-1.53-.79-2.3-1.19-2.41-2.97-4.85-5.91-7.21-8.91-1.99-2.52-3.39-6.08-5.96-7.43-3.66-1.92-8.17-2.25-13.53-3.56,1.36,2.54,2.1,4.09,2.99,5.57,12.02,19.95,23.68,40.14,36.24,59.75,7.71,12.04,12.43,26.38,24.79,35.06,8.32,5.84,17.02,11.13,25.55,16.67.33-.44.67-.87,1-1.31-.62-.89-1.24-1.77-1.86-2.66-1.6-5.19-2.63-10.65-4.91-15.52-8.64-18.49-14.04-37.76-13.91-58.2.04-6.77-3.26-11.04-6.92-15.91-3.62,2.69-7.03,5.05-10.25,7.65-3.59,2.9-5.9,1.98-7.7-1.97-3.45-7.57-7.21-15-10.42-22.67-1.72-4.11-4.34-5.94-9.31-5.82,3.35,7.19,6.56,14.07,9.93,21.31-2.37-.33-4.29-.6-6.2-.87ZM625.22,799.04c-3.08-1.53-6.15-3.07-9.23-4.6-.35.48-.7.97-1.06,1.45,1.01,2.03,1.83,4.19,3.08,6.06,6.37,9.54,13.35,18.71,19.14,28.58,5.32,9.09,13.24,13.64,22.75,16.46,4.97,1.47,9.62,1.84,13.95-1.95,5.84-5.11,12.07-9.79,17.83-14.98,2.41-2.18,2.39-4.96-.74-7.11-1.21-.83-2.23-2.01-3.18-3.16-1.97-2.41-3.88-2.61-6.88-1.32-7.55,3.26-14.26,7.38-20.13,13.31-2.57,2.6-8.05,5.45-10.57,4.37-7.28-3.14-10.8-10.58-14.68-17.23,3.55,3.43,6.51,7.33,9.59,11.14,5.23,6.48,9.33,6.19,13.9-.95.75-1.17,1.33-2.45,1.98-3.68-.27-.2-.53-.41-.8-.61-1.44,1.51-2.88,3.01-4.16,4.36-5.46-4.45,1.62-6.3,1.77-9.42-1.51-.52-2.83-.97-5.09-1.75,3.94-.96,6.77-1.21,9.19-2.34,4.23-1.97,8.22-4.48,12.3-6.76-.13,2.56-.27,5.12-.42,7.9,1.97-.97,4.24-2.1,5.71-2.82-6.46-9.36-12.7-18.4-18.48-26.78-.4.6-1.01,2.08-2.1,3-1.66,1.41-3.65,2.43-5.5,3.61.27.46.55.93.82,1.39,1.24-.27,2.52-.46,3.72-.84,1.42-.45,2.78-1.08,4.17-1.63.08,1.58.16,3.15.25,4.91.74.32,1.87.79,3.03,1.29-1.48,1.78-2.71,3.27-3.95,4.76.32.34.63.69.94,1.03,1.71-1,3.43-2,5.42-3.16.55,2.93,2.46,4.81,5.31,5.86.51.19.78,1.04,1.16,1.58-1.49-.09-3.24.3-4.41-.35-7.49-4.21-11.73,1.04-16.25,5.39-.92.89-1.26,2.34-2.08,3.36-2.29,2.87-5.07,2.47-6.44-.93-2.92-7.25-7.88-12.27-15.41-14.75-1.65-.54-3.06-1.82-4.57-2.76,2.69.55,5.37,1.1,8.24,1.69-.98-4.83-4.14-5.98-8.12-5.88-.57.01-1.14.25-3.05.7,2.38.57,3.43.82,4.44,1.06-.62,1.09-1.03,1.8-1.44,2.51ZM253,466.98c-1.31-1.01-2.62-2.04-3.94-3.04-8.4-6.33-17.9-8.68-28.18-7.02-8.67,1.41-9.08,2.63-5.33,10.7.63,1.36,1.5,2.65,1.86,4.08,2.5,9.9,9.92,12.89,18.95,13.97,8.79,1.04,21.03-4.92,23.93-11.9.45-.18,1.03-.25,1.32-.57,6.95-7.76,13.93-15.49,20.7-23.41.91-1.06,1.29-3.27.88-4.63-2.17-7.15-4.02-14.22-2.22-21.81.26-1.09-1.4-2.64-2.17-3.98-.25-.26-.51-.52-.76-.78.79-2.05,1.96-4.05,2.29-6.17.49-3.1.3-6.31.55-9.46.76-9.68,3.46-18.8,8.36-27.3-.87.25-1.42.61-1.91,1.04-20.86,18.39-41.85,36.61-62.48,55.26-7.24,6.55-10.42,15.51-11.72,25.3,13.1-4.31,24.99-3.05,35.89,4.78,1.65,1.19,2.65,3.27,3.96,4.94ZM384.32,369.5c-13.26-15.22-49.19-28.53-77.41-8.26-23.49,16.87-31.25,55.96-15.58,80.31,5.64-5.97,10.78-.96,15.97,1.05.44-.48.73-.69.86-.97.35-.75.65-1.53.95-2.3,8.81-22.28,22.22-41.24,41.26-55.9,9.84-7.58,20.59-13.46,33.96-13.93ZM420.44,496.69c-8.14,6.62-16.14,13.03-23.97,19.65-.7.6-.86,2.92-.29,3.78,4.99,7.4,10.22,14.65,15.83,22.59,8.89-7.74,17.41-15.15,25.71-22.38-6-8.21-11.47-15.7-17.28-23.65ZM419.47,488.93c9.62,8.48,14.56,19.13,21.41,28.52,3.71-3.34,7.31-6.77,11.14-9.93,2.46-2.04,2.39-3.88.77-6.39-2.51-3.9-4.73-7.98-7.07-11.99q-4.93-8.45,2.1-15.35c.17-.17.09-.6.11-.86-3.01-3.78-6.38-3.87-9.82-.82-6.31,5.59-12.53,11.29-18.65,16.83ZM529.64,538.44c-6.3,1.88-8.69,6.79-9.98,12.22-1.91,8.05-3.76,16.15-4.93,24.32-1.89,13.27,3.21,24.42,11.73,34.22,3.71,4.27,6.22,5.13,10.39,4.01-12.56-9.08-19.34-24.4-14.15-40.7,3.05-9.6,6.71-18.63,12.73-26.08-2.12-2.93-3.93-5.43-5.79-7.99ZM393.15,698.96c3.99,5.62,8.92,10.65,16.46,12.25-4.31-4.47-8.53-8.85-12.75-13.23.3-.3.6-.6.89-.9,6.17,4.62,12.34,9.25,18.51,13.87.48-.55.95-1.11,1.43-1.66-5.08-4.79-10.17-9.59-15.25-14.38.33-.37.66-.74.99-1.1,5.9,4.18,11.79,8.36,17.69,12.54.48-.58.95-1.16,1.43-1.74-3.64-6.29-11.41-8.58-15.72-14.22.24-.37.48-.75.71-1.12,5.43,3.46,10.86,6.92,16.28,10.38.29-.41.58-.81.87-1.22-4.49-4.96-8.98-9.92-13.46-14.88l1.36-1.35c4.85,3.95,9.7,7.9,15.1,12.29.02-7.31-8.49-17.78-14.63-19.81-6.66,8.12-13.15,16.03-19.92,24.29ZM284.4,533.79c4.43-3.66,8.15-6.44,11.48-9.64,1.02-.98,1.76-3.39,1.28-4.62-1.89-4.89-4.32-9.57-6.88-15.04-2.78,2.32-5.08,4.39-7.56,6.21-.68.49-1.91.22-2.9.3.16-.86.03-1.98.53-2.55,1.62-1.88,3.3-3.79,5.26-5.29,3.51-2.69,2.95-4.94-1.48-8.43-2.77,3.67-5.55,7.34-8.22,10.88-1.88-1.58-2.94-2.48-4-3.37-.46.27-.92.54-1.39.81,3.61,10.33,9.14,19.83,13.86,30.76ZM251.26,495.09c6.83,1.82,12.02,3.42,17.31,4.53,3.31.7,13.06-6.33,13.75-9.53.1-.48-.34-1.08-.52-1.63-1.45-4.56-12.4-9.5-16.15-6.68-4.8,3.61-8.9,8.15-14.38,13.31ZM230.41,493.5c2.3,4.2,2.41,7.96,7.08,8.41,9.45.91,17.75,3.43,20.66,14.3,1.05,3.93,4.7,5.61,9.22,5.36-3.17-7.08-6.15-13.87-9.28-20.59-.44-.94-1.52-2-2.48-2.22-7.98-1.78-16-3.37-25.2-5.26ZM408.52,668.48c-3.92-4.38-7.19-3.74-10.06-1.81-3.84,2.58-7.6,5.39-10.92,8.6-5.47,5.28-5.19,9.11,1.45,15.52,6.52-7.44,13-14.83,19.54-22.3ZM715.74,674.74c9.12,7.71,20.59,4.37,31.32-8.1-4.74.19-10.29.42-15.85.64-6.13.24-12.08.88-15.47,7.46ZM716.25,621.36c-.81,17.7-6.58,32.88-18.05,45.45,13.55-5.38,25.02-21.89,22.61-31.5-1.3,3.22-2.93,7.25-4.56,11.29q3.76-22.76,0-25.23ZM553.46,524.91c-6.61,1.92-11.92,3.14-16.99,5.02-5.44,2.02-5.58,6.15-.37,10.48.14-2.44.27-4.66.41-6.88.34,0,.68,0,1.01,0,1.3,4.14,2.61,8.29,3.91,12.43.56-.15,1.12-.3,1.68-.45-.55-4.67-1.09-9.33-1.64-14,.72-.09,1.44-.17,2.16-.26,1.04,4.8,2.08,9.59,3.12,14.39.53-.05,1.06-.1,1.59-.15v-15.25h1.45c.55,2.81,1.1,5.64,1.65,8.46.37-.03.73-.06,1.1-.09.27-4.06.55-8.11.93-13.7ZM387.13,380.22c1.22-3.82-.03-5.34-3.16-4.55-5.29,1.32-10.79,2.38-15.69,4.65-16.8,7.79-28.94,20.99-39.5,35.74-7.26,10.14-13.95,25.07-14.95,32.85.99-2.37,1.7-3.85,2.25-5.38,5.83-16.24,14.91-30.4,27.28-42.41,9.37-9.09,19.37-17.27,31.87-21.79,3.96-1.43,7.92-2.59,11.9.91ZM455.78,503.8c1.63-.3,3.5-.19,4.84-.98,2.12-1.25,3.97-2.99,5.77-4.71,9.62-9.18,8.15-7.08,2.56-16.5-8.35-14.07-12.15-14.47-23.29-2.67-.11.12-.23.24-.35.36-2.18,2.06-2.16,3.9.12,5.29,2.93-3.12,5.7-6.17,8.6-9.1,1.95-1.97,4.07-2.08,5.99.14,3.45,3.98,6.88,7.99,10.19,11.85-2.59,7.6-6.89,13.04-14.45,16.32ZM286.44,450.04c4.83,2.47,8.91,4.66,13.11,6.58.5.23,2.16-.81,2.43-1.57,1.13-3.25,1.95-6.62,2.94-10.16-6.89-5.03-8.68-4.68-18.47,5.14ZM495.29,515.35c.01,7.98,3.73,12.99,11.19,15.47,12.12,4.03,12.82,4.08,14.51,1.85-8.42-5.68-16.89-11.39-25.7-17.32ZM552.46,523.14c-2.41-6.01-6.44-3.73-9.57-2.93-10.87,2.77-20.07,7.91-18.89,19.15,6.65-11.39,17.44-13.42,28.46-16.22ZM409.86,670.13c-7.11,7.74-13.9,15.12-21.01,22.86.46.61,1.41,1.86,2.67,3.51,7.35-6.69,14.22-13.15,18.27-21.95.58-1.26.08-3.01.08-4.42ZM728.93,637.85c-1.97,5.13-4.46,11.64-6.95,18.15-.38-.15-.76-.3-1.14-.45.82-2.39,1.65-4.77,2.48-7.16-5.14,7.86-8.5,16.89-18.12,20.96,6.1-2.39,12.77-4.5,16.96-8.94,6.06-6.43,6.67-15.5,6.78-22.56ZM259.88,477.92c.44.37.89.75,1.33,1.12,12.29-2.39,14.39-13.44,18.57-22.71-.37-.31-.74-.62-1.1-.93-6.27,7.51-12.53,15.01-18.8,22.52ZM229.78,486.83c-.29.55-.58,1.11-.87,1.66,4.34,5.87,11.61,3.81,17.51,5.11,5.31,1.17,5.99-4.31,8.3-7.56-4.28,1.01-8.19,3.65-12.23,3.86-4.17.21-8.46-1.95-12.7-3.08ZM527.14,508.8c.25.13.5.26.76.39,6.9-1.82,13.8-3.64,20.91-5.52-1.16-2.27-1.05-7.5-6.12-5.07-5.54,2.66-10.39,6.74-15.54,10.2ZM437.05,466.82c-3.14-.59-27.66,19.25-29.5,25.5,10.34-8.94,20.18-17.44,29.5-25.5ZM652.51,791.88c-.29-.51-.57-1.01-.86-1.52-3.05,1.41-6.68,2.2-8.98,4.39-2.18,2.09-2.96,5.65-4.5,8.88.21.14,1.33,1.03,1.47.9,4.35-4.16,8.6-8.41,12.87-12.65ZM437.84,638.81c-.58.11-1.17.23-1.75.34-1.95,4.16,1.03,13.46,6.82,17.48-1.69-5.94-3.38-11.88-5.07-17.82ZM520.98,523.93c5.25-10.95,15.14-14.41,26.08-16.19-11.15-2.35-24.28,5.81-26.08,16.19ZM301.42,469.66c.56-.49,1.13-.98,1.69-1.46-2.64-4.8-4.28-10.51-11.8-10.93,3.37,4.13,6.74,8.26,10.11,12.39ZM568.35,612.47c-4.93-11.85-5.25-24.12-3.65-36.58-1.28,12.43-3.9,24.96,3.65,36.58ZM658.85,797c-6.56.35-11.27,2.2-14.51,7.36q4.38,1.05,14.51-7.36ZM645,786.25c.25.37.49.74.74,1.1,10.53-2.01,12.04-3.15,10.37-8.95-3.87,2.74-7.49,5.29-11.11,7.85ZM659.22,821.4c.33.58.66,1.16.99,1.74,5.68-1.15,8.4-5.87,11.79-9.8-.44-.54-.89-1.07-1.33-1.61-3.82,3.22-7.63,6.44-11.45,9.67ZM739.64,633.56c-.43,6.39.16,7.53,4.46,8.51,1.74-6.57.58-8.78-4.46-8.51ZM403.42,492.46c-.26-.33-.52-.66-.77-.99-6.44,5.22-12.88,10.43-19.32,15.65.37.48.74.96,1.12,1.45l18.98-16.11ZM756.58,639.17l1.9-.66c-.44-2.8-.7-5.65-1.45-8.36-.19-.71-1.92-1.33-2.93-1.32-.47,0-1.5,1.88-1.26,2.51,1.04,2.69,2.46,5.24,3.74,7.83ZM647.86,775.17c-4.23,3.59-8.46,7.18-12.68,10.77,4.95-2.75,11.59-3.57,12.68-10.77ZM720.97,646.34c3.83-9.6,4.06-15.61,1.1-20.44-.35,6.52-.73,13.66-1.1,20.44ZM412.34,667.31c1.89,5.87,6.55,6.16,11.08,6.7.25-.53.5-1.06.76-1.59-3.94-1.7-7.89-3.41-11.83-5.11ZM403.96,390.57c3.78-3.33,1.2-5.78-.26-8.99-1.64,1.72-2.91,3.06-4.36,4.57,1.7,1.62,2.99,2.86,4.62,4.42ZM648.18,816.88c2.57-3,4.88-5.7,7.59-8.87-6.63.3-8.85,2.98-7.59,8.87ZM438.17,463.41c.42-.29.84-.58,1.26-.87-3.67-5.31-7.35-10.62-11.02-15.93-.12,1.97.49,3.46,1.38,4.78,2.74,4.04,5.58,8.02,8.38,12.02ZM454.72,493.71c6.51-1.87,11.07-8.22,8.67-10.89.3,5.86-8.02,5.14-8.67,10.89ZM427.38,479.26c-.14-.2-.29-.39-.43-.59-5.44,4.76-10.87,9.52-16.31,14.28.35.37.7.74,1.04,1.12,5.23-4.94,10.46-9.87,15.69-14.81ZM524.27,708.07c.61.24,1.22.48,1.83.72,2.29-5.28,4.59-10.56,6.88-15.85-.43-.2-.86-.4-1.3-.6l-7.41,15.73ZM400.92,375.55c-.68-.11-1.36-.21-2.04-.32-.53,1.8-1.05,3.6-1.58,5.4,1.76.22,3.52.44,6.56.83-1.55-3.12-2.25-4.52-2.94-5.91ZM710.64,643.54c-.31-.12-.62-.25-.94-.37-3.28,5.84-6.56,11.69-9.84,17.53.37.19.74.39,1.11.58l9.66-17.74ZM711,637.52c.58.05,1.16.1,1.74.15.44-4.81.88-9.63,1.32-14.44-.54-.05-1.08-.1-1.62-.14-.48,4.81-.96,9.63-1.44,14.44ZM725.5,640.1c.4-.02.8-.05,1.19-.07-.26-4.7-.53-9.4-.79-14.09-.47.03-.94.06-1.41.08.34,4.69.67,9.39,1.01,14.08ZM698,661.8c-.44-.53-.88-1.06-1.33-1.59-2.27,1.86-4.53,3.72-6.8,5.58.51.6,1.02,1.19,1.53,1.79,2.2-1.93,4.4-3.85,6.59-5.78ZM782.62,652.07c.32.35.64.71.97,1.06,3.68-2.85,7.36-5.69,11.04-8.54-.28-.35-.56-.71-.84-1.06-3.72,2.85-7.44,5.69-11.16,8.54ZM283.84,433.08c-.27.07-.53.14-.8.2,1.01,3.82,2.01,7.65,3.02,11.47.68-.21,1.37-.41,2.05-.62-1.43-3.69-2.85-7.37-4.28-11.06ZM653.15,805.06c6.11.93,7.34-.13,6.7-5.01-2.06,1.54-3.94,2.95-6.7,5.01Z"/>
      <path class="cls-1" d="M384.32,369.5c-13.36.47-24.12,6.35-33.96,13.93-19.03,14.66-32.44,33.62-41.26,55.9-.31.77-.6,1.55-.95,2.3-.13.28-.42.49-.86.97-5.18-2.01-10.32-7.02-15.97-1.05-15.67-24.35-7.91-63.44,15.58-80.31,28.22-20.27,64.15-6.95,77.41,8.26Z"/>
      <path class="cls-1" d="M391.21,536.63c-2.95-4.53-5.9-9.06-8.85-13.59.32-.26.64-.52.96-.78,4.24,4.86,8.45,9.75,12.74,14.56,3.1,3.47,6.29,6.85,9.49,10.23,2.1,2.22,4.62,2.91,7.01.74,8.82-8.02,17.53-16.16,26.25-24.29,5.21-4.86,10.32-9.82,15.57-14.62.93-.85,2.54-1.85,3.53-1.6,5.47,1.4,8.45-2.56,11.98-5.24,3.35-2.53,5.43-2.71,7.6,1.72,2.24,4.55,5.68,8.51,8.91,13.17-2.69,1.82-5.11,3.45-8.27,5.59,2.24-.11,3.67-.17,5.09-.24-1.15,1.2-2.17,2.54-3.46,3.57-9.04,7.25-18.39,14.14-27.14,21.73-14.39,12.49-28.46,25.34-42.5,38.22-3.75,3.44-6.93,7.52-10.37,11.3-4.05,1.69-8.09,3.38-13.26,5.54,1.65-2.66,2.61-4.19,3.56-5.72-.18-.14-.36-.28-.54-.43-.8.72-1.48,1.76-2.42,2.08-1.08.37-2.73.55-3.47-.03-.73-.57-1.09-2.34-.79-3.32.47-1.5,1.6-2.82,2.53-4.16,2.34-3.38,5.72-6.42,6.89-10.16,2.9-9.24,4.94-18.76,6.97-28.25.34-1.6-1.06-3.57-1.66-5.38-2.13-3.55-4.26-7.09-6.38-10.64ZM404.77,551.57c-.5-.04-.99-.09-1.49-.13-1.09,9.95-2.17,19.9-3.26,29.86l1.01.13c1.25-9.95,2.49-19.9,3.74-29.86Z"/>
      <path class="cls-1" d="M278.81,419.37c.77,1.34,2.43,2.89,2.17,3.98-1.79,7.59.05,14.66,2.22,21.81.41,1.36.03,3.57-.88,4.63-6.77,7.92-13.76,15.65-20.7,23.41-.29.32-.87.39-1.32.57-2.43-2.26-4.87-4.53-7.3-6.79-1.3-1.67-2.31-3.75-3.96-4.94-10.9-7.83-22.8-9.1-35.89-4.78,1.3-9.79,4.48-18.75,11.72-25.3,20.62-18.65,41.62-36.87,62.48-55.26.49-.43,1.04-.79,1.91-1.04-4.91,8.5-7.6,17.62-8.36,27.3-.25,3.15-.06,6.35-.55,9.46-.34,2.13-1.5,4.12-2.29,6.17-12.33,11.96-24.65,23.93-36.98,35.89.43.44.86.88,1.29,1.32,12.15-12.14,24.3-24.29,36.44-36.43Z"/>
      <path class="cls-1" d="M503.33,672.96c-3.21,5.83-6.42,11.66-9.83,17.87-18.02-1.73-24.18-18.51-21.75-33.57.9-5.6,3.69-10.9,5.62-16.34,0,0-.09.1-.09.1,2.89-3.58,5.75-7.19,8.69-10.73,11.32-13.62,27.45-17.46,43.06-9.28,5.77,3.02,10.42,8.17,15.67,12.43-1.88,1.58-3.69,3.1-5.5,4.62l.09-.08c-6.12,4.65-12.8,8.74-18.23,14.11-6.51,6.43-11.94,13.94-17.84,20.99l.09-.1Z"/>
      <path class="cls-1" d="M318.54,572.94c-1.69.56-3.38,1.11-5,1.65-5.29-14.28-5.63-29-4.91-43.83.32-6.59,2.22-9.68,8.76-10.61,5.49-.78,11.33-.68,16.79.29,12.69,2.25,24.68,6.83,35.7,13.59,11.24,6.9,15.69,25.29,8.86,35.7-.42.64-1,1.18-1.88,2.21.61-21.46-13.66-30.38-29.86-37.59-3.92-1.75-8.13-2.97-12.31-4-4.42-1.09-8.53-.23-11.74,3.71,10.26-5.36,18.5-.31,26.62,4.92,4.61,2.97,9.2,6.03,13.44,9.49,6.62,5.4,9.84,12.76,11.14,21.72-12.75-9.22-26.46-11.61-41.2-8.7,9.08-.58,18.06-.2,26.67,3.5-6.12,0-12.25-.13-18.36.08-1.86.06-3.69,1.06-5.53,1.63-5.73,2.09-11.46,4.17-17.19,6.26ZM323.32,525.01c6.76,1.6,13.87,2.58,20.44,5.02,6.6,2.45,12.67,6.34,18.97,9.6-11.94-8.47-24.1-16.48-39.41-14.62Z"/>
      <path class="cls-1" d="M616.24,739.97c-9.19,9.28-20.73,14.62-32.49,19.7-3.85,1.67-6.4,1.04-9.22-1.84-7.98-8.15-16.15-16.12-24.97-24.87,2.63-1.32,4.16-2.09,5.7-2.86,6.63-3.71,13.27-7.42,19.9-11.13,6.52-5.32,13.2-10.46,19.47-16.05,2.61-2.32,4.35-5.62,6.49-8.47,1.32,1.1,2.92,2,3.93,3.34,4.68,6.23,8.92,12.8,13.83,18.84,5.48,6.73,4.85,9.29.4,17.91-.96,1.87-2.07,3.66-3.11,5.49,0,0,.06-.07.06-.07Z"/>
      <path class="cls-1" d="M569.48,654.26c2.89-2.87,5.3-2.05,7.09,1.16,2.65,4.75,5.14,9.6,7.65,14.43.61,1.17.73,2.77,1.61,3.59,4.84,4.49,2.59,8.89-.61,12.52-5,5.68-10.68,10.75-15.97,16.17-1.26,1.29-2.16,2.95-3.22,4.44,0,0-.08.33-.08.33-5.14,2.66-10.28,5.32-15.42,7.97-2.8.97-5.7,1.71-8.36,2.98-3.36,1.6-5.79.23-6.97-2.49-.53-1.21.96-3.56,1.97-5.1.77-1.17,2.23-1.9,2.71-3.69-3.61.82-7.22,1.63-11.67,2.64,2.04-10.18,8.14-17.24,13.19-24.84,5.38-5.71,10.76-11.42,16.14-17.13-.14-.15-.29-.3-.43-.44-5.32,5.31-10.64,10.63-15.96,15.94,4.73-5.6,9.17-11.49,14.29-16.71,4.26-4.33,9.32-7.87,14.02-11.76,0,0,.01-.01.01-.01Z"/>
      <path class="cls-1" d="M557.3,566.95c-6.52,9.79-6.2,20.48-3.27,31.09,1.54,5.57,4.79,10.66,7.68,16.84-7.9-5.13-13.34-11.76-18.08-19.09-4.84-7.49-7.71-15.62-7.97-24.55-1.28,18.15,9.18,30.65,20.99,42.61-21.5,3.58-34.02-13.97-33.99-28.73.03-12.29,4-23.89,11.38-34.03.96-1.32,2.15-2.49,3.2-3.68,8.44,4.83,15.64,1.4,18.67-12.62,5.29.49,10.68.98,16.45,1.51-1.48,3.48-2.81,6.62-4.14,9.76,0,0,.09-.12.09-.12-3.69,7.04-7.39,14.08-11.08,21.11,0,0,.09-.1.09-.1Z"/>
      <path class="cls-1" d="M511.22,581.97c3.17,7.44,5.77,15.2,9.73,22.19,2.66,4.7,7.25,8.29,10.51,13.18-2.03-1.63-4.69-2.88-5.98-4.97-4.72-7.69-12.11-11.26-20.06-14.23-15.2-5.67-30.29-7.36-45.2.91l-22.33,18.92c-.88.34-2,.43-2.6,1.04-4.65,4.69-9.11,9.56-13.83,14.17-1.12,1.1-2.99,1.43-4.51,2.11-.05-1.86-.9-4.32-.02-5.47,3.69-4.83,7.9-9.28,11.92-13.86,4.81-3.8,9.62-7.61,14.43-11.41,4.11-3.2,8.21-6.4,12.32-9.6.89-.47,1.78-.93,2.68-1.4,7.65-7.49,15.38-14.89,22.89-22.5,2.36-2.4,4.13-5.37,6.18-8.09l-.07.08c1.34-1.14,2.94-2.08,3.97-3.45,5.78-7.63,9.06-16.38,11.1-25.65,0,0-.07.1-.07.1,1.85.1,3.7.2,7.23.39-11.19,16.04-9.85,31.63-2.35,47.28-.18-1.08-.29-2.17-.54-3.24-.27-1.13-.65-2.24-1-3.35-3.54-11.1-4.72-22,1.13-32.92,3.84-7.15,3.49-7.34,11.35-4.39-1.28,3.08-2.57,6.16-3.85,9.25l.08-.12c-7.28,11.17-6.4,23.04-3.01,35.13l-.08-.1Z"/>
      <path class="cls-1" d="M631.25,587.96c-8.76,9.01-17.51,18.02-26.27,27.04-.54.56-1.03,1.17-1.87,2.12-.62-2.45-1.11-4.4-1.6-6.36-.28.05-.55.1-.83.15.16,2.36.32,4.73.49,7.28-3.96-.53-5.39-2.52-4.88-5.89,2.12-13.96,4.11-27.94,6.49-41.85,1.17-6.86,2.98-13.62,4.71-20.38.62-2.42,1.83-4.69,2.77-7.03.42.17.84.34,1.26.52-1.06,2.73-2.12,5.46-3.18,8.19q6.65-8.87,11.57-5.13c-3.15,4.41-6.3,8.83-9.46,13.25.5.34,1,.68,1.51,1.02,1.11-2.06,2.1-4.19,3.34-6.16,4.85-7.73,10.81-8.68,17.76-2.85,2.78,2.33,5.58,4.67,8.13,7.24.76.77,1.01,2.36.94,3.55-.14,2.47-.64,4.93-.99,7.39,0,0,.09-.12.09-.12-3.35,6.03-6.71,12.07-10.06,18.1l.07-.08Z"/>
      <path class="cls-1" d="M371.89,680.21c-1.52,3.35-3.81,3.13-5.61.62-6.97-9.72-13.8-19.54-20.43-29.49-.72-1.09-.26-3.56.49-4.94,5.92-10.85,14.5-18.46,26.85-21.23,4.03-.91,8.05-1.84,12.13-2.77,4.64,10.03,9.14,19.76,13.53,29.26-6.18,4.6-12.84,9.43-19.33,14.47-1.48,1.15-2.39,3.05-3.56,4.6-1.36,3.16-2.71,6.32-4.07,9.48Z"/>
      <path class="cls-1" d="M324.35,616.08c.62.89,1.24,1.77,1.86,2.66-.33.44-.67.87-1,1.31-8.53-5.54-17.23-10.83-25.55-16.67-12.36-8.67-17.08-23.02-24.79-35.06-12.56-19.61-24.22-39.8-36.24-59.75-.89-1.47-1.63-3.03-2.99-5.57,5.37,1.31,9.87,1.63,13.53,3.56,2.58,1.35,3.97,4.91,5.96,7.43,2.37,3,4.8,5.95,7.21,8.91-4.42,1.24-5.17,2.82-2.61,7.65,3.51,6.6,7.41,13.01,11.23,19.44,1.76,2.97,3.73,5.81,5.6,8.7.29-.2.59-.4.88-.59-5.71-9.74-11.43-19.49-17.17-29.27,3.41-1.6,5.63-2.35,7.78,1.08,17.77,28.3,35.7,56.5,53.66,84.69.47.74,1.8.95,2.73,1.4l-.1.08Z"/>
      <path class="cls-1" d="M674.2,808.9c-4.09,2.28-8.07,4.79-12.31,6.76-2.42,1.13-5.25,1.38-9.19,2.34,2.26.78,3.58,1.23,5.09,1.75-.14,3.12-7.23,4.96-1.77,9.42,1.28-1.35,2.72-2.85,4.16-4.36.27.2.53.41.8.61-.66,1.23-1.23,2.51-1.98,3.68-4.58,7.13-8.68,7.42-13.9.95-3.08-3.81-6.04-7.71-9.59-11.14,3.88,6.66,7.4,14.1,14.68,17.23,2.51,1.08,8-1.77,10.57-4.37,5.87-5.93,12.59-10.05,20.13-13.31,3-1.29,4.91-1.09,6.88,1.32.94,1.15,1.96,2.33,3.18,3.16,3.13,2.15,3.15,4.93.74,7.11-5.76,5.2-11.99,9.87-17.83,14.98-4.34,3.79-8.98,3.43-13.95,1.95-9.52-2.82-17.43-7.38-22.75-16.46-5.79-9.87-12.77-19.04-19.14-28.58-1.25-1.87-2.06-4.03-3.08-6.06.35-.48.7-.97,1.06-1.45,3.08,1.53,6.15,3.07,9.23,4.6l-.07-.08c1.52.94,2.93,2.22,4.57,2.76,7.53,2.48,12.49,7.5,15.41,14.75,1.37,3.4,4.15,3.8,6.44.93.82-1.02,1.16-2.48,2.08-3.36,4.52-4.36,8.76-9.6,16.25-5.39,1.17.66,2.93.26,4.41.35l-.09-.1Z"/>
      <path class="cls-1" d="M652.59,572.28c1.08-1.2,2.16-2.41,3.82-4.26,4.85,4.96,9.82,9.52,14.03,14.7,1.12,1.38.19,4.72-.3,7.05-.57,2.72-1.7,5.33-2.58,7.98-2.29,4.31-4.57,8.62-6.86,12.93-2.96,2.85-5.76,5.9-8.92,8.5-4.98,4.09-10.08,8.05-15.36,11.72-3.52,2.44-7.1.49-8.14-4.01l-.1.1c2.08-3.38,4.16-6.77,6.23-10.15-.5-.4-.99-.8-1.49-1.21-2.7,2.49-5.58,4.82-8.06,7.52-2.39,2.61-4.8,3.14-7.13.51-2.44-2.76.18-4.29,1.95-6.08,2.54-2.57,4.83-5.39,7.22-8.1,1.08-1.47,2.2-2.91,3.24-4.41,7.5-10.93,14.97-21.87,22.46-32.8Z"/>
      <path class="cls-1" d="M699.2,645.97c-5.36,4.86-10.72,9.7-16.06,14.58-2.44,2.23-4.85,2.62-7.69-.22,3.48-2.06,6.8-4.02,10.11-5.98l-.57-1.11c-2.78,1.46-5.49,3.09-8.37,4.3-1.29.54-3.54.94-4.31.25-4.18-3.78-8.04-7.92-12.01-11.93,5.85-5.73,11.71-11.45,17.56-17.18,4.8-8.45,9.61-16.89,14.47-25.44,5.25,4.68,11.24,9.87,16.98,15.33.88.83,1.22,3.15.73,4.34-2.59,6.24-5.5,12.34-8.35,18.46-.75,1.61-1.71,3.13-2.57,4.7l.09-.09Z"/>
      <path class="cls-1" d="M264.66,524.09c1.92.27,3.84.54,6.2.87-3.37-7.24-6.58-14.11-9.93-21.31,4.98-.13,7.6,1.71,9.31,5.82,3.21,7.67,6.97,15.1,10.42,22.67,1.8,3.95,4.12,4.87,7.7,1.97,3.22-2.6,6.63-4.96,10.25-7.65,3.66,4.87,6.96,9.14,6.92,15.91-.13,20.44,5.27,39.71,13.91,58.2,2.28,4.87,3.3,10.33,4.91,15.52,0,0,.1-.08.1-.08-1.86-3.27-3.59-6.63-5.61-9.81-9.86-15.55-19.64-31.15-29.76-46.53-7.91-12.01-16.27-23.72-24.43-35.56Z"/>
      <path class="cls-1" d="M435.39,442.07c-2.34-3.34-4.53-6.79-7.04-10-3.87-4.93-7.95-9.69-12.08-14.69,11.22-4.62,34.76,3.7,60.59,20.75-3.84,4.28-7.72,8.59-11.6,12.9,0,0,.08-.08.08-.08-3.67,5.28-7.33,10.56-11.57,16.67-3.14.15-5.72-1.74-7.68-5.97-3.14-6.77-7.13-13.15-10.77-19.69l.08.09Z"/>
      <path class="cls-1" d="M753.35,651.08c-4.43,5.14-10.27,6.67-16.79,7.16-3.87.29-7.66,1.64-11.55,2.53,1.73-5.3,1.94-11.88,5.33-14.89,4.97-4.42,1.67-10.1,5.44-15.54,0,3.32.12,5.43-.04,7.51-.13,1.63-.73,3.22-.92,4.85-.81,7.09-.13,7.7,7.49,6.92-6.91-1.31-7.49-2.41-4.66-10.33.26,2.36.43,3.89.64,5.74.84.11,2.21-.13,2.66.41,1.38,1.65,2.26,4.03,5.04,2.11,2.66-1.84,5.52-3.38,3.49-7.7-.84-1.8-.14-4.32.96-6.85,2.14,3.76,4.28,7.52,6.57,11.56,4.7-3.42,3.32-8.36,3.7-14.25,2.36,4.45,4.03,7.6,5.71,10.75l1.29-.61v-7.84c.29-.08.58-.17.87-.25l3.41,5.96.98-.24c-.18-2.47-.35-4.93-.53-7.4l.8-.22c.59,2.26,1.17,4.52,1.86,7.15q1.96-2.19-2.62-16.12c4.24-1.28,8.48-2.55,12.72-3.84,4.3-1.31,6.08.61,6.63,4.75,1.64,12.41-5.04,23.91-17.58,29.52-9.4,4.2-18.74,8.66-28.45,11.98-5.03,1.72-10.82,1.4-16.28,1.64-5.36.23-10.17,1.21-13.77,5.7-.73.91-2.4,1.06-3.97.9,2.77-5.35,7.51-7.69,12.85-8.98,6.93-1.67,13.94-3.05,20.88-4.7,3.94-.94,7.08-2.91,7.75-7.39,3.61-2.23,7.23-4.47,10.84-6.7-.12-.3-.23-.6-.35-.89-5.7,2.1-11.39,4.19-16.99,6.25,2.02.42,4.31.9,6.6,1.38Z"/>
      <path class="cls-1" d="M428.19,467.78c-4.66,4.38-9.05,9.11-14.04,13.06-9.15,7.24-18.63,14.06-28.03,20.96-3.3,2.42-4.91,5.3-4.96,9.59-.04,2.88.98,3.45,3.24,3.58l-.09-.11c4.83,6.51,9.66,13.03,14.51,19.53,1.08,1.45,2.23,2.85,2.53,5.1-2.9-3.08-5.86-6.11-8.69-9.25-2.68-2.96-5.09-6.17-7.9-9-1.17-1.18-3.05-1.66-4.61-2.45-.23.35-.46.71-.69,1.06.79,1.92,1.59,3.84,2.79,6.76-5.24-4.97-9.74-9.1-14.09-13.38-2.61-2.58-1.4-5.23,2.82-7.6,4.47-2.5,8.75-5.34,13.12-8.03l-.9-1.31c-6.38,4.21-12.76,8.42-19.2,12.68-11.36-3.86-23.78-7.81-35.97-12.37-4.3-1.61-8.71-3.95-11.25-9.52,18.72,11.17,37.01,19.72,58.32,10.42-9.84,3.21-19.84,4.33-29.85,1-9.51-3.17-19.55-5.45-26.49-14.02,39.58,19.33,73.57,16.37,99.17-23.61,2.24,1.51,5.2,3.5,8.16,5.49.71.47,1.41.95,2.12,1.42Z"/>
      <path class="cls-1" d="M507.13,485.04c-.37,1.57-.75,3.15-1.12,4.72-4.47,6.69-5.36,14.37-6.27,22.04,2.28-7.19,4.56-14.37,6.84-21.56,4.97-4.57,9.93-9.15,14.91-13.72,1.96-1.8,3.68-1.47,5.59.33,5.92,5.58,11.97,11.02,18.93,17.4-14.28,7.72-25.05,16.42-28.37,32.28-6.63-4.57-12.67-8.49-18.38-12.85-1.24-.95-1.97-3.6-1.71-5.27.77-4.91,2.16-9.72,3.31-14.56,2.09-2.93,4.18-5.87,6.27-8.81Z"/>
      <path class="cls-1" d="M480.96,535.76c3.7-4.17,7.4-8.34,11.09-12.51l2.34,1.01c.14,1.79.28,3.58.42,5.36-4.82,5.28-9.64,10.56-14.46,15.84-4.36,4.99-8.73,9.98-13.09,14.96-6.63,8-13.27,16.01-19.9,24.01-4.36,4.71-8.71,9.42-13.07,14.13-6.88,4.44-13.76,8.87-20.64,13.31-4.31,1.14-8.56,2.6-12.94,3.33-7.38,1.23-8.9.14-11.91-7.02-.49-1.18-1.1-2.31-1.78-3.74,11.47-1.93,23.36-1.35,32.6-9.56,7.32-6.41,14.85-12.58,21.88-19.29,5.5-5.24,10.19-11.32,15.56-16.71,7.82-7.86,15.93-15.43,23.91-23.13ZM408.09,605.31c-.07-.3-.13-.59-.2-.89-5.34,1.04-10.69,2.07-16.03,3.11.1.46.2.91.3,1.37,5.31-1.19,10.62-2.39,15.93-3.58Z"/>
      <path class="cls-1" d="M420.44,496.69c5.8,7.95,11.28,15.43,17.28,23.65-8.3,7.22-16.82,14.64-25.71,22.38-5.61-7.94-10.83-15.19-15.83-22.59-.58-.85-.42-3.18.29-3.78,7.83-6.62,15.83-13.04,23.97-19.65Z"/>
      <path class="cls-1" d="M316.43,502.03c-4.11-3.42-1.74-6.93-.09-11.13,9.38,8.32,20.93,10.66,32.21,13.82,10.52,2.95,19.15,9.19,26.51,17.11,3.56,3.83,6.79,7.99,9.92,12.19,8.43,11.29,8.79,24.54,8.38,37.74-.28,8.86-5.67,15.26-12.26,20.94-2.95-4.35-2.96-7.83-.13-12.13,7.31-11.08,8.99-23.44,6.27-36.35-.41-1.95-1.97-3.66-3-5.48l-5.85-6.19c-1.39-1.53-2.55-3.36-4.19-4.54-17.55-12.53-38.98-16.45-57.86-26.05l.08.07Z"/>
      <path class="cls-1" d="M253,466.98c2.43,2.26,4.87,4.53,7.3,6.79-2.9,6.98-15.14,12.95-23.93,11.9-9.03-1.07-16.45-4.07-18.95-13.97-.36-1.43-1.23-2.72-1.86-4.08-3.76-8.07-3.34-9.3,5.33-10.7,10.28-1.67,19.78.68,28.18,7.02,1.32,1,2.63,2.03,3.94,3.04ZM242.31,476.9s.1.09.1.09c-3.42-.46-6.84-1.11-10.27-1.24-.78-.03-2.07,1.67-2.29,2.74-.16.74,1.04,2.52,1.74,2.58,3.76.32,7.75.98,11.29.07,2.8-.72,2.47-3.15-.57-4.24Z"/>
      <path class="cls-1" d="M522.34,695.85c-1.93,2.62-3.85,5.24-6.17,8.39-3.89-3.6,2.04-6.33.57-9.7-.8,1.4-1.48,2.58-2.17,3.76-1.05,1.79-1.62,4.17-4.72,2.7-2.63-1.24-2.35-2.8-1.71-5.22,2.16-8.12,6.71-14.72,12.38-20.66,4.54-4.76,9.17-9.44,13.76-14.16l-.1.1c.99-.52,2.18-.84,2.93-1.6,6.89-7.03,14.87-12.33,24.21-15.5,0,0-.07.08-.07.08,2.65,1.66,5.3,3.32,7.95,4.98,0,0,.09-.04.09-.04-1.34.53-2.78.91-4.02,1.63-12.78,7.47-22.27,18.67-32.56,28.96-.75.75-1.01,1.99-1.49,3-2.96,4.43-5.92,8.86-8.89,13.29Z"/>
      <path class="cls-1" d="M413.64,611.87c6.88-4.44,13.76-8.87,20.64-13.31,4.36-4.71,8.71-9.42,13.07-14.13,6.63-8,13.27-16.01,19.9-24.01,4.36-4.99,8.73-9.98,13.09-14.96,4.82-5.28,9.64-10.56,14.46-15.84,3.25-1,3.26.8,2.05,2.75-2,3.21-4.43,6.14-6.54,9.28-1.18,1.76-2.09,3.71-3.12,5.57-9.95,11.79-19.77,23.7-29.87,35.35-14.7,16.95-32.21,30.44-51.77,41.34-2.19-.1-4.39-.2-6.58-.3-.05-.38-.09-.76-.14-1.14,1.4-.62,2.8-1.23,4.19-1.85-2.88-.44-5.8-.89-9.12-1.39,7.25-2.7,13.5-5.03,19.75-7.36Z"/>
      <path class="cls-1" d="M419.47,488.93c6.12-5.53,12.33-11.23,18.65-16.83,3.44-3.05,6.81-2.96,9.82.82-.03.26.06.69-.11.86q-7.03,6.9-2.1,15.35c2.34,4.01,4.57,8.09,7.07,11.99,1.62,2.51,1.69,4.35-.77,6.39-3.83,3.16-7.43,6.6-11.14,9.93-6.85-9.39-11.79-20.03-21.41-28.52Z"/>
      <path class="cls-1" d="M340.12,641.13c-2.37-3.92-4.9-7.76-6.96-11.84-.41-.81.65-2.9,1.6-3.77,6.19-5.64,12.54-11.1,18.84-16.63,4.4-1.44,8.8-2.87,13.2-4.31,1.96-.32,3.92-.69,5.89-.96,7.4-.98,8.1-.36,8.77,7.63-27.42,5.57-32.91,7.98-39.35,17.77,10.81-11.63,24.42-16,39.76-16.09.65,1.6,1.19,2.94,1.99,4.92-10.03.06-20.39-.99-26.96,8.75-1.38,1.17-2.78,2.33-4.15,3.52-4.22,3.66-8.42,7.34-12.63,11.01Z"/>
      <path class="cls-1" d="M378.39,532.56l5.85,6.19c4.19,10.75,3.34,21.55-.16,32.18-1.35,4.1-3.8,7.85-5.74,11.76-.7-.24-1.41-.48-2.11-.72.65-2.67,1.03-5.44,2.02-7.97,1.14-2.92,3.11-5.52,4.2-8.45,3.37-9.03-1.41-26.03-9.56-31.33-15.28-9.94-31.95-16.33-50.47-16.2-4.05.03-8.09,1.77-12.85,2.89,1.02-5.52,2.07-11.71,3.44-17.83.13-.57,2.25-.7,3.44-1.04,0,0-.08-.07-.08-.07,4.21,2.43,8.21,5.4,12.68,7.2,16.95,6.79,34.51,12.22,49.37,23.39Z"/>
      <path class="cls-1" d="M399.77,597.1c3.44-3.78,6.62-7.86,10.37-11.3,14.04-12.87,28.11-25.73,42.5-38.22,8.74-7.59,18.1-14.47,27.14-21.73,1.28-1.03,2.31-2.37,3.46-3.57,1.76-.93,3.53-1.86,5.29-2.79.39.51.79,1.03,1.18,1.54-3.81,3.69-7.65,7.35-11.42,11.07-2.91,2.86-5.74,5.8-8.61,8.7-2.82,2.31-5.75,4.51-8.45,6.96-9.44,8.59-18.87,17.2-28.17,25.95-8.89,8.36-15.61,19.19-27.46,24.19-1.94-.26-3.89-.53-5.83-.79Z"/>
      <path class="cls-1" d="M446.28,618.04c4.02-3.88,7.96-7.84,12.07-11.61,10.41-9.54,22.22-13.79,37.4-9.28-16.39,2.26-27.82,10.64-37.31,22.19,0,0,.15-.14.15-.14-7.99,7.7-12.41,17.4-15.57,28.89-1.46-3.52-2.5-6.08-3.59-8.63-1.51-3.5-3.71-3.11-5.52-.52-1.64,2.35-2.66,5.13-4.48,8.79-.61-1.18-1.9-2.55-1.61-3.33,1.45-3.89,2.72-8.07,5.16-11.32,4.02-5.37,8.89-10.12,13.39-15.13,0,0-.09.09-.09.09Z"/>
      <path class="cls-1" d="M477.38,640.91c-5.38,5.33-7.16,12.41-7.61,19.37-.47,7.26.93,14.64,1.44,21.06-3.39-2.08-6.45-16.68-3.38-25.61,3.05-8.87,7.08-17.39,10.37-25.33-2.82,2.23-7.61,11.65-11.08,22.65-2.32,7.35-2.29,9.21-.24,25.79-4.35-13.11-4.08-26.11,1.61-38.97,5.04-11.02,12.11-20.38,22.29-27.18,3.67-1.51,7.25-3.31,11.03-4.46,10.5-3.2,18.24-.15,25.14,10.14-11.75-4.15-22.87-4.76-32.86,2.36-7.28,5.19-13.63,11.51-16.8,20.28,0,0,.09-.1.09-.1Z"/>
      <path class="cls-1" d="M623.73,762.69c8.05-5.01,12.36-12.51,13.87-21.94q2.28,1.95-2.81,16.67c2.85-3.5,4.95-6.08,7.78-9.55,1.41,2.74,2.55,4.94,3.68,7.15-4.59,3.83-9.13,7.73-13.79,11.47-2.01,1.61-4.28,2.88-6.43,4.31-7.19,3.13-14.39,6.27-21.19,9.23,7.92-.17,14.84-4.25,21.57-8.81,3.03-1.69,6.42-2.95,8.99-5.16,3.89-3.35,7.21-7.37,10.77-11.11-.06,2.43.53,5.12-.31,7.26-2.83,7.27-9.89,9.85-15.99,13.43-1.24.73-2.41,1.57-3.62,2.35,0,0,.1-.08.1-.08-3.27,1.12-6.54,2.23-9.81,3.35-7.2,2.47-14.3,1.82-21.45-.66,6.92-2.32,13.92-4.16,20.48-7.02,6.65-2.9,12.86-6.8,18.97-10.96-13.67,6.51-26.54,15.37-42.9,12.56,4.58-.39,9.16-.79,13.74-1.18-.03-.2-.05-.4-.08-.6-4.12,0-8.24.11-12.35-.06-1.24-.05-2.45-.87-3.68-1.33,0,0-.09.04-.09.04,8.01-1.37,16.02-2.74,24.04-4.11,3.51-1.75,7.01-3.49,10.52-5.24Z"/>
      <path class="cls-1" d="M496.32,483.96c-1.39,2.44-3.1,4.76-4.08,7.36-.8,2.12-.76,4.57-1,6.89-.22,2.07-.3,4.16-.52,7.41-4.68-4.98-8.62-9.12-12.45-13.35-.47-.52-.69-1.69-.46-2.35,3.02-8.41,5.19-17.47,14.71-21.4,2.92-1.21,5.86-2.37,8.86-3.36,10.36-3.43,11.35-3.08,18.39,6.02-5.09,1.88-10.36,3.33-15.12,5.78-3.18,1.63-5.63,4.68-8.4,7.1,0,0,.08-.08.08-.08Z"/>
      <path class="cls-1" d="M337.93,577.49c10.54-4.39,21.33-4.63,32.22-1.68,1.41.38,3.48,1.87,3.52,2.92.06,1.31-1.66,2.7-2.56,3.98.94.72,2.58,1.97,4.23,3.22-11.96-.91-23.37-1.44-33.69,4.96-4.57,2.83-8.6,6.53-12.87,9.84-1.09.73-2.19,1.47-3.28,2.2-5.3-3.19-5.46-6.7-.83-12.73-1.49,1.04-2.98,2.08-4.78,3.34-.22-.97-.39-1.71-.56-2.45,6.2-4.54,12.4-9.07,18.61-13.61ZM366.59,578.41c-13.3-2.71-25.22.67-36.23,8.07,10.98-7.54,23.93-6.38,36.23-8.07Z"/>
      <path class="cls-1" d="M458.59,619.2s-.15.14-.15.14c1.44-1,2.88-2.02,4.33-3.01,7.45-5.09,14.59-10.76,22.49-15.01,4.35-2.33,9.99-2.25,15.38-2.24-1.04.87-2.08,1.73-3.11,2.6-6.01,2.42-12.03,4.84-18.04,7.26-6.22,2.6-10.79,6.85-13.23,13.23-.53.7-1.06,1.4-1.59,2.1-5.88,6.32-8.02,14.09-8.29,22.41-.25,7.77-.05,15.56-.05,23.08-7.91-3.69-13.28-14.25-10.34-24.42,2.12-7.34,6.44-14.04,9.82-21.01.85-1.75,1.85-3.44,2.79-5.15Z"/>
      <path class="cls-1" d="M405.61,597.89c11.85-5,18.56-15.83,27.46-24.19,9.3-8.74,18.73-17.35,28.17-25.95,2.69-2.45,5.62-4.65,8.45-6.96,7.36-6.2,14.73-12.41,22.44-18.92-3.92,4.88-7.54,9.38-11.16,13.88-7.98,7.7-16.09,15.27-23.91,23.13-5.37,5.39-10.06,11.46-15.56,16.71-7.03,6.71-14.56,12.88-21.88,19.29-4.6,1.79-9.16,3.68-13.81,5.31-1.76.62-3.74.63-5.7.32,1.84-.87,3.67-1.75,5.51-2.62Z"/>
      <path class="cls-1" d="M529.64,538.44c1.86,2.56,3.67,5.06,5.79,7.99-6.01,7.45-9.68,16.49-12.73,26.08-5.18,16.3,1.59,31.62,14.15,40.7-4.17,1.12-6.68.26-10.39-4.01-8.52-9.81-13.63-20.96-11.73-34.22,1.17-8.18,3.02-16.28,4.93-24.32,1.29-5.44,3.68-10.35,9.98-12.22Z"/>
      <path class="cls-1" d="M405.54,623.91c19.56-10.89,37.07-24.39,51.77-41.34,10.11-11.65,19.93-23.56,29.87-35.35,1.34-1.29,2.69-2.57,4.23-4.05-.58,2.41-1.11,4.64-1.64,6.87-4.35,6.03-8.56,12.16-13.08,18.05-3.41,4.44-7.21,8.58-10.83,12.86-7.53,7.86-15.06,15.72-22.59,23.59-4.81,3.8-9.62,7.61-14.43,11.41-4.5,4.32-8.94,8.69-13.52,12.91-1.43,1.32-3.26,2.21-4.91,3.3-1.45-.73-2.9-1.46-4.36-2.19.41-.63.82-1.25,1.23-1.88,1.99-1.12,3.98-2.23,5.98-3.35-.07-.17-.15-.35-.22-.52-3.12.95-6.24,1.9-9.36,2.85-.34-.5-.67-1.01-1.01-1.51.96-.55,1.91-1.11,2.87-1.66Z"/>
      <path class="cls-1" d="M302.41,477.97c-4.57,4.29-9.13,8.58-14.41,13.53-2.37-8.92-8.87-12.1-17.52-13.07,6.58-4.85,8.96-11.76,11.37-18.74.84-2.43,2.78-4.47,4.4-6.98,5.06,8.09,6.6,19.03,19.05,19.62-1.2,2.32-2.09,4.03-2.98,5.74,0,0,.08-.09.08-.09Z"/>
      <path class="cls-1" d="M302.33,478.06c2.4-1.92,4.8-3.85,7.14-5.72,6.29,3.84,6.64,4.51,2.58,9.83-5.88,7.7-7.38,16.55-7.55,25.82-.13,6.95-.02,13.9-.02,21.24-.87-1.32-2.1-2.65-2.76-4.23-3.95-9.45-7.6-19.03-11.75-28.4-1.14-2.59-1.12-3.84.96-5.87,4.08-3.99,7.69-8.48,11.49-12.76,0,0-.08.09-.08.09Z"/>
      <path class="cls-1" d="M393.15,698.96c6.77-8.26,13.26-16.17,19.92-24.29,6.14,2.03,14.65,12.5,14.63,19.81-5.39-4.39-10.25-8.34-15.1-12.29l-1.36,1.35c4.49,4.96,8.98,9.92,13.46,14.88-.29.41-.58.81-.87,1.22-5.43-3.46-10.86-6.92-16.28-10.38-.24.37-.48.75-.71,1.12,4.31,5.64,12.07,7.93,15.72,14.22-.48.58-.95,1.16-1.43,1.74-5.9-4.18-11.79-8.36-17.69-12.54-.33.37-.66.74-.99,1.1,5.08,4.79,10.17,9.59,15.25,14.38-.48.55-.95,1.11-1.43,1.66-6.17-4.62-12.34-9.25-18.51-13.87-.3.3-.6.6-.89.9,4.22,4.38,8.44,8.75,12.75,13.23-7.54-1.6-12.47-6.63-16.46-12.25Z"/>
      <path class="cls-1" d="M655.48,643.5c-1.35-.15-2.69-.31-4.86-.56,2.15-2.56,3.67-4.37,5.39-6.41-3.71-.03-4.8,6.72-9.93,2.53,6.82-5.07,13.44-10,20.06-14.93-.38-.49-.76-.97-1.13-1.46-2.11,1.97-4.23,3.95-6.34,5.92,9.74-10.91,16.19-23.5,20.14-37.66.2,1.38.4,2.75.67,4.57.48-1.01.82-1.73,1.75-3.66,2.76,8.14-.65,14.87-1.15,21.68-1.75,7.16-4.58,13.83-10.23,18.76-4.57,3.99-9.56,7.49-14.37,11.21Z"/>
      <path class="cls-1" d="M572.34,608.12c-6.51-13.63-6.4-28.2-3.99-42.38,1.58-9.28,6.14-18.15,10.23-26.79.74-1.56,5.68-1.12,9.17-1.69-4.79,13.39-9.4,25.43-13.38,37.67-4.08,12.53-.44,25.05.79,37.72-.96-1.55-1.93-3.09-2.89-4.64l.08.1Z"/>
      <path class="cls-1" d="M337.93,577.49c-6.2,4.54-12.4,9.07-18.61,13.61-3.22-2.36-2.62-5.01-.49-7.66,1.31-1.64,2.8-3.13,3.54-5.44-2.05,1.9-4.09,3.8-6.11,5.68-3.65-5.12-3.5-5.88,2.27-10.74,5.73-2.09,11.46-4.17,17.19-6.26,9.9.25,19.82.31,29.71.86,3.92.22,6.68,2.7,7.38,6.63-7.13-.35-14.36-1.3-21.5-.83-4.53.3-8.93,2.7-13.39,4.16ZM368.78,571.95c-8.26-4.63-22.57-5.03-29.03-1.07,9.77-2.81,19.43-1.85,29.03,1.07Z"/>
      <path class="cls-1" d="M589.23,572.93c.52-.57,1.03-1.15,1.7-1.88.23.89.4,1.51.64,2.42,2.97-10.91,5.88-21.59,8.8-32.27.43.12.86.24,1.29.35-.8,4.15-1.6,8.29-2.4,12.44-.63,1.14-1.62,2.2-1.85,3.42-2.44,12.73-5.03,25.45-6.97,38.26-.8,5.31-.13,10.85-.13,16.29.65-18.29,3.73-36.06,8.3-53.62.37-1.42.39-2.94.57-4.41,1.11-3.05,2.24-6.09,3.31-9.16.99-2.83,2.45-4.36,5.18-2.41-2.69,12.08-5.57,23.97-7.94,35.96-2.35,11.87-4.18,23.85-6.3,36.15-.99-.29-2.42-.72-4.15-1.24v-19.59c-.31,0-.63-.01-.94-.02v14.3c-.6-.03-1.19-.07-1.79-.1.73-10.02,1.46-20.04,2.21-30.06.12-1.65.36-3.29.54-4.93,0,0-.07.11-.07.11Z"/>
      <path class="cls-1" d="M284.4,533.79c-4.72-10.92-10.26-20.42-13.86-30.76.46-.27.92-.54,1.39-.81,1.06.89,2.12,1.79,4,3.37,2.67-3.53,5.45-7.21,8.22-10.88,4.43,3.49,4.99,5.74,1.48,8.43-1.96,1.5-3.64,3.4-5.26,5.29-.49.57-.37,1.68-.53,2.55.98-.08,2.22.2,2.9-.3,2.48-1.82,4.78-3.89,7.56-6.21,2.56,5.47,4.99,10.15,6.88,15.04.48,1.23-.26,3.64-1.28,4.62-3.33,3.2-7.05,5.99-11.48,9.64Z"/>
      <path class="cls-1" d="M479.49,608.96c6.01-2.42,12.03-4.84,18.04-7.26,2.69-.34,5.39-.69,8.09-1.03-8.46,2.4-16.94,4.23-23.6,10.47-2.79,2.72-5.58,5.44-8.38,8.17-2.49,5.51-5.78,10.81-7.3,16.58-3.39,12.84-6.45,25.88-2.83,39.38l-1.61.63c-1.09-2.02-3.02-3.98-3.13-6.06-.49-8.6-1.31-17.34-.32-25.83.79-6.72,4.05-13.15,6.22-19.72.53-.7,1.06-1.4,1.59-2.1,4.41-4.41,8.82-8.82,13.23-13.23Z"/>
      <path class="cls-1" d="M478.3,472.99c-1.89,2.78-3.79,5.57-6.5,9.55-2.31-5.24-4.38-9.92-6.44-14.59,0,0-.09.1-.09.1,2.76-3.89,5.52-7.78,8.27-11.66,4.14-2.68,8.23-5.46,12.47-7.97,1.42-.84,3.26-.98,5.3-.53-1.75,1.28-3.5,2.57-5.25,3.85-7.93,4.22-16.83,7.56-17.14,19.82,1.26-2.65,2.02-4.46,2.97-6.18,1.11-2.02,2.15-5.43,3.61-5.65,5.07-.78,7.14-5.41,11.11-7.38,2.41-.89,4.81-1.77,7.22-2.66.16.29.32.57.48.86-.79.74-1.57,1.48-2.77,2.62,2.65-.39,4.62-.68,6.59-.96.18.36.36.73.54,1.09-9.3,4.14-16.27,10.59-20.45,19.79l.08-.08Z"/>
      <path class="cls-1" d="M589.26,772c-.54-.59-1.08-1.18-2.21-2.42,8.13-.61,15.88-.33,22.2-6.18-5.33,1.62-10.25,3.13-15.18,4.63-.06-.24-.13-.49-.19-.73,5.43-3.71,11.24-6.96,16.18-11.24,5.87-5.09,10.89-11.14,16.49-16.56,1.21-1.17,3.27-1.45,4.95-2.13.34,1.8,1.46,3.93.86,5.33-1.98,4.71-4.58,9.16-6.94,13.7-.39.36-.78.71-1.17,1.07-8.91,7.87-18.57,13.8-31.17,12.8-1.25-.1-2.6,1.16-3.91,1.79,0,0,.09-.04.09-.04ZM612.87,760.46c.35.31.7.62,1.04.93,4.91-5.65,9.81-11.3,14.72-16.96-.32-.28-.65-.57-.97-.85-4.93,5.63-9.86,11.25-14.79,16.88Z"/>
      <path class="cls-1" d="M251.26,495.09c5.48-5.16,9.58-9.71,14.38-13.31,3.76-2.82,14.7,2.12,16.15,6.68.17.55.62,1.14.52,1.63-.68,3.2-10.44,10.23-13.75,9.53-5.29-1.11-10.48-2.71-17.31-4.53Z"/>
      <path class="cls-1" d="M565.94,706.91s.08-.33.08-.33c1.58-.82,3.5-1.31,4.69-2.52,7.52-7.63,16.32-14.25,20.37-26,2.38,2.68,4.25,4.79,6.43,7.25-9.42,10.53-18.31,20.97-30.04,28.5-1.87,1.2-3.5,2.79-5.24,4.2,0,0,.09-.08.09-.08-6.35,2.56-12.7,5.12-19.05,7.68-.05-.18-.1-.37-.15-.55,6.54-4.77,13.07-9.53,19.61-14.3,1.07-1.28,2.14-2.57,3.21-3.85Z"/>
      <path class="cls-1" d="M616.18,740.04c3.06-4.29,6.13-8.59,9.05-12.68,4.38,4.87,4.39,6.03-.37,11.8-7.79,9.42-16.5,17.84-27.31,23.67-7.23,3.9-12.85,4.52-16.48-.45,6.48-2.99,13.01-5.72,19.28-8.96,6.28-3.24,12.68-6.52,15.9-13.46,0,0-.06.07-.06.07Z"/>
      <path class="cls-1" d="M587.21,558.08c-6.62,17.51-10.69,35.33-5.9,54.76-12.04-8.4-5.62-55.73,10.03-73.86-1.4,6.4-2.81,12.81-4.21,19.21l.08-.11Z"/>
      <path class="cls-1" d="M587.13,558.19c1.69-5.13,3.3-10.29,5.1-15.37.51-1.42,1.57-2.65,2.38-3.96.53.22,1.06.44,1.59.66-2.33,11.14-4.65,22.28-6.98,33.42,0,0,.07-.11.07-.12-4.32,12.97-4.87,26.17-3.64,40.48-1.12-1.45-2.87-2.74-3.26-4.36-2.55-10.7-1.64-21.4.66-32.04,1.35-6.28,2.78-12.55,4.17-18.82,0,0-.08.11-.08.11Z"/>
      <path class="cls-1" d="M230.41,493.5c9.19,1.89,17.22,3.49,25.2,5.26.96.21,2.04,1.27,2.48,2.22,3.13,6.72,6.11,13.51,9.28,20.59-4.52.24-8.18-1.44-9.22-5.36-2.9-10.87-11.21-13.39-20.66-14.3-4.66-.45-4.78-4.21-7.08-8.41Z"/>
      <path class="cls-1" d="M408.52,668.48c-6.54,7.47-13.02,14.86-19.54,22.3-6.64-6.41-6.92-10.24-1.45-15.52,3.32-3.2,7.08-6.02,10.92-8.6,2.88-1.93,6.15-2.57,10.06,1.81Z"/>
      <path class="cls-1" d="M437.88,617.97c7.44-6.31,14.89-12.61,22.33-18.92,2.32-.59,4.65-1.17,6.97-1.76-.29-.2-.58-.4-.86-.6-6.68,7.12-13.36,14.24-20.04,21.35,0,0,.09-.09.09-.09-6.33,6.61-12.61,13.27-19.02,19.8-1.03,1.05-2.62,1.54-3.94,2.29-.52-.27-1.05-.54-1.57-.81.38-1.8.18-4.09,1.23-5.31,4.75-5.48,9.85-10.66,14.82-15.95Z"/>
      <path class="cls-1" d="M660.69,610.69c2.29-4.31,4.57-8.62,6.86-12.93,1.87-3.75,3.73-7.5,5.38-10.8,5.02,12.32-15.51,42.88-32.58,49.53,1.07-1.61,1.79-2.68,2.68-4.03-2.18.75-4.1,1.41-5.67,1.95,7.82-7.95,15.58-15.83,23.34-23.72Z"/>
      <path class="cls-1" d="M465.86,580.96c3.63-4.28,7.43-8.42,10.83-12.86,4.52-5.9,8.74-12.03,13.08-18.05,2.61-5.17,5.14-10.37,7.87-15.48,1.13-2.11,2.6-4.6,4.61-.53,0,0,.07-.1.07-.1-5.02,9.7-10.04,19.4-15.07,29.1l.07-.08c-6.18,6.36-12.39,12.68-18.51,19.09-3.59,3.76-7.04,7.66-10.55,11.5-.89.47-1.78.93-2.68,1.4.15-1-.06-2.3.49-2.96,3.16-3.76,6.5-7.37,9.78-11.03Z"/>
      <path class="cls-1" d="M507.13,485.04c-2.09,2.94-4.18,5.87-6.27,8.81-1.89,5.18-3.79,10.37-5.72,15.64-4.31-4.45-3.8-14.26,1.19-25.52,0,0-.08.08-.08.08,7.23-6.17,15.82-9.15,26.35-11.07-5.81,4.53-10.63,8.29-15.46,12.06Z"/>
      <path class="cls-1" d="M620.32,611.95c-1.83,1.62-3.9,3.04-5.45,4.9-2.84,3.42-6.2,3.69-10.92,2.37,2.17-2.75,3.9-5.3,5.98-7.51,6.23-6.61,12.64-13.05,18.88-19.65,1.06-1.13,1.63-2.72,2.43-4.09,0,0-.07.08-.07.08,3.35-6.03,6.71-12.07,10.06-18.1,0,0-.09.12-.09.12,1.23-3.32,2.46-6.63,3.69-9.95.29-.02.58-.03.87-.05-.08,1.51.24,3.2-.32,4.52-2.92,6.87-6.06,13.65-9.12,20.47-.88,1.96-1.73,3.94-2.59,5.9-3.08,5-6.17,10-9.26,15-1.37,2-2.75,4-4.12,6Z"/>
      <path class="cls-1" d="M522.34,695.85c2.96-4.43,5.92-8.86,8.89-13.29,2.69-1.87,5.72-3.42,8.01-5.69,3.87-3.85,6.95-8.55,10.97-12.21,6.08-5.53,12.7-10.49,19.09-15.69,0,0-.09.04-.09.04,3.22,1.59.8,3.47.27,5.25,0,0-.01.01-.01.01-11.3,4.67-19.21,13.52-27.04,22.34-8.17,9.21-15.75,18.88-19.43,31.16-1.53-.83-2.82-1.54-4.51-2.46,1.3-3.19,2.57-6.33,3.85-9.48Z"/>
      <path class="cls-1" d="M655.48,643.5c4.8-3.72,9.8-7.22,14.37-11.21,5.65-4.93,8.47-11.6,10.23-18.76,1.55-5.64,3.1-11.29,4.67-16.99,5,1.89,5.4,5.71,3.37,10.19-2.59,5.72-5.42,11.33-8.11,17-.77,1.63-1.43,3.3-2.14,4.96-5.85,5.73-11.71,11.45-17.56,17.18-1.6-.79-3.21-1.58-4.82-2.37Z"/>
      <path class="cls-1" d="M568.2,546.06c1.36-2.03,2.62-4.16,4.13-6.07.97-1.23,2.33-2.15,3.87-2.86-10.21,24.53-20.52,48.74-11.69,76.4-1.73-2.51-3.46-5.02-5.18-7.52l-.1.07c.16-1.52.7-3.12.41-4.55-2.47-12.48-1.55-24.81,1.97-36.91,1.84-6.33,4.43-12.45,6.68-18.67l-.09.12Z"/>
      <path class="cls-1" d="M473.64,619.3c2.79-2.72,5.58-5.44,8.38-8.17,4.07-1.8,8.02-3.96,12.23-5.31,6.64-2.13,13.46-4.01,20.32-.48-8.6.42-17.25.38-23.78,7.35-10.18,6.8-17.24,16.16-22.29,27.18-.11-1.96-.76-4.08-.22-5.84,1.53-4.99,3.54-9.83,5.37-14.73Z"/>
      <path class="cls-1" d="M478.22,473.08c2.73-3.05,5.41-6.15,8.2-9.14,1.58-1.7,3.21-3.41,5.05-4.8,7.21-5.43,10.57-5.05,16.82,1.47-6.57,2.76-14.13,4.38-19.61,8.66-5.43,4.24-8.77,11.17-13.54,17.61,0-1.94-.37-3.88.08-5.59.75-2.84,2.02-5.54,3.08-8.3,0,0-.08.08-.08.08Z"/>
      <path class="cls-1" d="M501.62,679.94c.57-2.33,1.14-4.65,1.71-6.98l-.09.1c4.83-5.18,9.45-10.59,14.54-15.5,6.99-6.73,14.34-13.08,21.53-19.6l-.09.08c4.23-.97,8.28-5.04,12.82-.78.21.2.32.51.37.6-3.68,2.35-7.34,4.69-10.99,7.02-6.37,4.76-12.74,9.52-19.12,14.28,0,0,.12-.08.12-.08-.7.14-1.39.29-2.09.43l-15.12,15.8c-1.2,1.54-2.41,3.08-3.61,4.61Z"/>
      <path class="cls-1" d="M715.74,674.74c3.39-6.58,9.34-7.22,15.47-7.46,5.56-.22,11.11-.45,15.85-.64-10.73,12.47-22.2,15.81-31.32,8.1Z"/>
      <path class="cls-1" d="M716.25,621.36q3.76,2.47,0,25.23c1.63-4.03,3.26-8.07,4.56-11.29,2.41,9.61-9.06,26.12-22.61,31.5,11.47-12.57,17.24-27.74,18.05-45.45Z"/>
      <path class="cls-1" d="M356.72,597.66c5.9-1.9,11.84-3.54,18.03-1.53,1.47.48,2.77,1.49,4.11,3.2-19.85-1.93-34.57,8.78-49.25,19.55-.44-.59-.88-1.17-1.32-1.76,2.8-3.26,5.6-6.52,8.39-9.78,0,0,.22-.29.22-.29,5.91-3.03,11.81-6.06,17.72-9.09.7-.1,1.41-.2,2.11-.3Z"/>
      <path class="cls-1" d="M613.61,788.65c16.36-4.42,27.89-14.76,35.91-29.36,1.74,2.8,1.63,9.91-1.19,12.54-9.36,8.72-18.7,17.69-32.14,19.82-2.01.32-4.11.04-7.06.04,1.23-1.53,1.73-2.14,2.22-2.75.75-.1,1.51-.2,2.26-.29Z"/>
      <path class="cls-1" d="M553.84,727.76c-2.73.36-5.45.72-8.18,1.08l-.34-1.35c5.67-3.19,11.34-6.37,17.01-9.56,0,0-.09.08-.09.08,4.75-2.9,10.08-5.16,14.13-8.84,7.22-6.57,13.67-13.99,20.44-21.05.33.26.66.52.99.79-.2,1.06-.4,2.11-.61,3.17,0,0,.09-.12.09-.12-.52.37-1.2.63-1.55,1.12-10.74,15.47-24.37,27.43-41.9,34.69Z"/>
      <path d="M264.66,524.09c8.16,11.84,16.53,23.55,24.43,35.56,10.12,15.38,19.9,30.98,29.76,46.53,2.01,3.18,3.74,6.54,5.61,9.81-.93-.45-2.25-.66-2.73-1.4-17.96-28.18-35.89-56.39-53.66-84.69-2.15-3.43-4.37-2.68-7.78-1.08,5.74,9.79,11.45,19.53,17.17,29.27-.29.2-.59.4-.88.59-1.87-2.9-3.84-5.74-5.6-8.7-3.82-6.44-7.72-12.84-11.23-19.44-2.57-4.83-1.81-6.4,2.61-7.65.77.4,1.53.79,2.3,1.19Z"/>
      <path class="cls-1" d="M428.19,467.78c-.71-.47-1.42-.95-2.12-1.42-7.17-4.96-9.91-11.14-5.76-19.54.73-1.49.28-3.56.47-7,5.48,8.7,10.26,16.29,15.93,25.29-3.07-.75-4.83-1.18-5.91-1.44-.79,1.24-1.7,2.67-2.61,4.11Z"/>
      <path class="cls-1" d="M465.25,451.05c2.3-2.06,4.55-4.16,6.9-6.16q6.97-5.94,14.16-.62c-4.64,3.4-9.5,6.96-14.36,10.52-2.23,4.42-4.46,8.84-6.69,13.27,0,0,.09-.1.09-.1-.76.23-1.52.47-3.8,1.17,1.41-4.08,2.51-7.26,3.7-10.73-.62-.08-1.6-.19-3.02-.37,1.06-2.43,2.07-4.75,3.08-7.06,0,0-.08.08-.08.08Z"/>
      <path class="cls-1" d="M435.3,441.98c3.3,6.98,6.61,13.96,9.91,20.94-.32.32-.65.65-.97.97-1.27-1.15-2.78-2.11-3.76-3.47-6.69-9.27-13.44-18.52-19.78-28.04-1.52-2.27-1.57-5.52-2.6-9.53,6.34,7.04,11.81,13.12,17.28,19.21,0,0-.08-.09-.08-.09Z"/>
      <path class="cls-1" d="M553.46,524.91c-.38,5.59-.65,9.65-.93,13.7-.37.03-.73.06-1.1.09l-1.65-8.48h-1.45v15.26c-.53.05-1.06.1-1.59.15-1.04-4.8-2.08-9.59-3.12-14.39-.72.09-1.44.17-2.16.26.55,4.67,1.09,9.33,1.64,14-.56.15-1.12.3-1.68.45-1.3-4.14-2.61-8.29-3.91-12.43-.34,0-.68,0-1.01,0-.13,2.22-.26,4.44-.41,6.88-5.21-4.33-5.08-8.46.37-10.48,5.07-1.88,10.38-3.1,16.99-5.02Z"/>
      <path class="cls-1" d="M340.12,641.13c4.21-3.67,8.42-7.35,12.63-11.01,1.37-1.19,2.77-2.35,4.15-3.52,8-6.2,16.69-9.46,27.13-5.38-3.21.77-6.38,1.71-9.62,2.28-13.47,2.35-22.64,10.45-29.46,21.77-.33.55-.77,1.03-1.75,2.32-1.19-2.49-2.14-4.47-3.09-6.46Z"/>
      <path class="cls-1" d="M387.13,380.22c-3.98-3.5-7.94-2.34-11.9-.91-12.5,4.52-22.5,12.7-31.87,21.79-12.38,12.01-21.46,26.17-27.28,42.41-.55,1.53-1.25,3.01-2.25,5.38,1-7.77,7.7-22.71,14.95-32.85,10.56-14.75,22.7-27.95,39.5-35.74,4.9-2.27,10.39-3.33,15.69-4.65,3.14-.78,4.38.73,3.16,4.55Z"/>
      <path class="cls-1" d="M455.78,503.8c7.56-3.29,11.86-8.72,14.45-16.32-3.31-3.85-6.74-7.86-10.19-11.85-1.92-2.22-4.04-2.11-5.99-.14-2.9,2.93-5.67,5.98-8.6,9.1-2.28-1.39-2.3-3.23-.12-5.29.12-.11.23-.23.35-.36,11.13-11.8,14.93-11.4,23.29,2.67,5.59,9.42,7.06,7.32-2.56,16.5-1.8,1.71-3.66,3.46-5.77,4.71-1.34.79-3.21.68-4.84.98Z"/>
      <path class="cls-1" d="M620.32,611.95c1.37-2,2.75-4,4.12-6,2.15-2.1,4.31-4.21,6.47-6.31,5.2-8.01,10.52-15.95,15.56-24.06,2.13-3.42,3.7-7.19,5.52-10.81.67.21,1.34.41,2.01.62-.47,2.29-.93,4.58-1.4,6.88-7.49,10.95-14.97,21.89-22.46,32.81-1.03,1.5-2.16,2.95-3.24,4.41-1.58,1.13-3.11,2.35-4.78,3.33-.32.19-1.18-.56-1.79-.88Z"/>
      <path class="cls-1" d="M286.44,450.04c9.8-9.82,11.58-10.16,18.47-5.14-.99,3.54-1.8,6.9-2.94,10.16-.26.75-1.93,1.8-2.43,1.57-4.2-1.92-8.28-4.11-13.11-6.58Z"/>
      <path class="cls-1" d="M495.29,515.35c8.81,5.94,17.28,11.65,25.7,17.32-1.69,2.23-2.39,2.18-14.51-1.85-7.46-2.48-11.17-7.49-11.19-15.47Z"/>
      <path class="cls-1" d="M552.46,523.14c-11.02,2.81-21.81,4.83-28.46,16.22-1.17-11.24,8.02-16.38,18.89-19.15,3.13-.8,7.15-3.08,9.57,2.93Z"/>
      <path class="cls-1" d="M534.29,660.97c-5.33,4.83-10.63,9.69-16.02,14.46-1.54,1.36-3.32,2.45-4.99,3.66,1.88-3.12,3.76-6.24,5.64-9.36,2.59-2.76,4.96-5.78,7.83-8.22,5.99-5.09,12.24-9.86,18.39-14.76.5.54,1,1.09,1.5,1.63-4.15,4.23-8.3,8.45-12.45,12.68,0,0,.1-.1.1-.1Z"/>
      <path class="cls-1" d="M338.87,597.72c6.48-2.42,12.81-5.42,19.48-7.1,6.78-1.71,13.55-.58,19.51,3.94-14.5-3.56-27.84-1.84-39.71,7.55-.84.6-1.69,1.19-2.53,1.79-3.05,1.93-6.1,3.86-9.14,5.79-.24-.22-.47-.44-.71-.66,1.26-1.7,2.51-3.4,3.77-5.1,3.11-2.07,6.22-4.13,9.32-6.2Z"/>
      <path class="cls-1" d="M514.23,547.06c1.88-2.17,3.77-4.34,6.51-7.5,0,2.16.28,3.23-.04,4.07-4.54,11.66-8.11,23.5-7.77,36.22.02.69-1.11,1.41-1.7,2.11,0,0,.08.1.08.1-1.3-11.91-1.75-23.74,3.01-35.13l-.08.12Z"/>
      <path class="cls-1" d="M518.92,669.73c-1.88,3.12-3.76,6.24-5.64,9.36-3.75,5.7-7.49,11.4-11.39,17.33-1.95-.77-2.94-2.15-1.73-5.37,4.06-10.8,11.67-18.73,20.85-27.06-.95,2.62-1.52,4.18-2.09,5.74Z"/>
      <path class="cls-1" d="M409.86,670.13c0,1.41.5,3.16-.08,4.42-4.05,8.8-10.92,15.26-18.27,21.95-1.25-1.65-2.21-2.91-2.67-3.51,7.12-7.74,13.9-15.12,21.01-22.86Z"/>
      <path class="cls-1" d="M674.3,809c-.38-.54-.65-1.39-1.16-1.58-2.85-1.05-4.76-2.94-5.31-5.86-1.99,1.16-3.7,2.16-5.42,3.16-.32-.34-.63-.69-.94-1.03,1.24-1.49,2.47-2.98,3.95-4.76-1.17-.5-2.29-.97-3.03-1.29-.09-1.76-.17-3.33-.25-4.91-1.39.55-2.75,1.18-4.17,1.63-1.21.39-2.48.57-3.72.84-.27-.46-.55-.93-.82-1.39,1.85-1.18,3.84-2.2,5.5-3.61,1.09-.92,1.7-2.4,2.1-3,5.78,8.37,12.02,17.42,18.48,26.78-1.47.73-3.74,1.85-5.71,2.82.15-2.77.28-5.34.42-7.9,0,0,.1.1.1.1Z"/>
      <path class="cls-1" d="M728.93,637.85c-.11,7.06-.72,16.13-6.78,22.56-4.19,4.45-10.86,6.55-16.96,8.94,9.62-4.07,12.98-13.1,18.12-20.96-.83,2.39-1.65,4.77-2.48,7.16.38.15.76.3,1.14.45,2.49-6.51,4.99-13.02,6.95-18.15Z"/>
      <path class="cls-1" d="M259.88,477.92c6.27-7.51,12.53-15.01,18.8-22.52.37.31.74.62,1.1.93-4.19,9.27-6.29,20.32-18.57,22.71-.44-.37-.89-.75-1.33-1.12Z"/>
      <path class="cls-1" d="M338.87,597.72c-3.11,2.07-6.22,4.13-9.32,6.2-1.4.64-2.81,1.27-4.82,2.18.36-1.44.57-2.3.79-3.16,1.09-.73,2.19-1.47,3.28-2.2,7.67-4.21,15.02-9.27,23.11-12.38,7.57-2.9,15.83-2.46,23.44,1.64-8.32-1.68-16.64-2.19-24.6,1.04-4.17,1.69-7.92,4.42-11.87,6.68Z"/>
      <path class="cls-1" d="M386.26,666.07c2.22-1.37,4.33-2.98,6.69-4.04,2.63-1.17,5.5-1.84,8.68-1.84-10.29,4.43-18.54,10.69-23.15,20.99,4.07-4.33,8.13-8.65,12.2-12.98.14.14.28.28.43.41-4.08,5.08-8.16,10.15-12.33,15.35-4.52-1.93-4.91-3.03-1.65-7.11,2.97-3.71,6.15-7.25,9.24-10.87,0,0-.1.09-.1.09Z"/>
      <path class="cls-1" d="M366.8,604.59c-4.4,1.44-8.8,2.87-13.2,4.31-5.04,3.25-10.24,6.29-15.05,9.85-2.43,1.81-4.15,4.59-6.19,6.93-.51-.23-1.02-.47-1.54-.7.82-2.03,1.07-4.69,2.54-5.99,10.16-9.02,21.21-16.42,35.51-16.76.15,0,.3.12.55.23-.9.73-1.76,1.43-2.63,2.13Z"/>
      <path class="cls-1" d="M384.39,514.98c-.24-.61-.47-1.22-.71-1.83,5.39.26,8.85,3.38,11.27,7.6,3.62,6.3,8.16,12.07,12.31,18.07,1.17,1.69,2.33,3.4,3.49,5.1-.29.33-.58.66-.87.98-1.07-.79-2.41-1.37-3.17-2.39-5.67-7.56-11.14-15.28-16.88-22.79-1.46-1.91-3.67-3.24-5.53-4.84,0,0,.09.11.09.11Z"/>
      <path class="cls-1" d="M601.13,694.46c-2.14,2.85-3.88,6.14-6.49,8.47-6.28,5.59-12.96,10.73-19.47,16.05.98-1.4,1.86-2.89,2.95-4.2,6.36-7.64,12.77-15.23,19.16-22.84,0,0-.09.12-.09.12,3.45-2.71,4.01-.67,3.94,2.4Z"/>
      <path class="cls-1" d="M613.61,788.65c-.75.1-1.51.2-2.26.29-4.43-1.34-8.85-2.67-13.28-4.01.12-.45.24-.9.36-1.35,10.11,1.95,19.56.72,27.91-5.69,0,0-.1.08-.1.08,2.86-1.04,5.73-2.08,8.59-3.12l.67.95c-5.77,3.38-11.54,6.77-17.31,10.15-1.53.9-3.05,1.79-4.58,2.69Z"/>
      <path class="cls-1" d="M699.11,646.07c2.11-2.24,4.21-4.47,6.31-6.71.07,10.52-14.77,26.81-21.34,24.57,4.91-5.83,10.01-11.89,15.12-17.95,0,0-.09.09-.09.09Z"/>
      <path class="cls-1" d="M559.33,606c-1.31-2.37-3.12-4.59-3.84-7.13-2.69-9.59-2.86-19.19,1.1-28.59.43-1.03.48-2.22.71-3.33,0,0-.09.1-.09.1,3.77.15,1.68,2.81,1.43,4.07-2.36,11.71-1.84,23.33.59,34.94l.1-.07Z"/>
      <path class="cls-1" d="M229.78,486.83c4.24,1.12,8.53,3.29,12.7,3.08,4.04-.2,7.95-2.85,12.23-3.86-2.3,3.24-2.99,8.72-8.3,7.56-5.9-1.3-13.16.76-17.51-5.11.29-.55.58-1.11.87-1.66Z"/>
      <path d="M597.28,691.95c-6.39,7.61-12.8,15.2-19.16,22.84-1.09,1.31-1.97,2.79-2.95,4.2-6.63,3.71-13.27,7.42-19.9,11.13-.47-.78-.95-1.57-1.42-2.35,17.53-7.26,31.15-19.22,41.9-34.69.34-.49,1.02-.75,1.55-1.12Z"/>
      <path class="cls-1" d="M630.91,599.64c-2.16,2.1-4.31,4.21-6.47,6.31,3.09-5,6.17-10,9.26-15.01,3.82-6.94,7.72-13.83,11.43-20.83,1.35-2.56,2.23-5.37,3.33-8.06.56.12,1.13.25,1.69.37-.27,1.41-.21,3.01-.87,4.2-5.48,9.86-11.11,19.64-16.66,29.46-.64,1.14-1.14,2.36-1.7,3.55Z"/>
      <path class="cls-1" d="M371.89,680.21c1.36-3.16,2.71-6.32,4.07-9.48,7.23-5.2,14.42-10.46,21.72-15.58,2.88-2.02,4.49-1.03,4.72,2.64-6.98-.1-12.06,3.13-16.13,8.28,0,0,.1-.09.1-.09-3.95,3.87-7.91,7.75-11.86,11.62-.88.86-1.74,1.74-2.61,2.61Z"/>
      <path class="cls-1" d="M391.21,536.63c2.13,3.55,4.26,7.09,6.38,10.64-.12,5.66-.24,11.32-.37,16.99-.31-.03-.62-.05-.93-.08-2.3-9.66-4.6-19.33-6.9-28.99-.41.04-.83.09-1.24.13,1.02.44,2.03.87,3.05,1.31Z"/>
      <path class="cls-1" d="M527.14,508.8c5.15-3.46,10.01-7.54,15.54-10.2,5.06-2.43,4.96,2.8,6.12,5.07-7.1,1.87-14.01,3.7-20.91,5.52-.25-.13-.5-.26-.76-.39Z"/>
      <path d="M437.88,617.97c-4.97,5.29-10.08,10.46-14.82,15.95-1.05,1.21-.85,3.51-1.23,5.31-2.78-1.31-5.55-2.62-8.33-3.93-1.03-1.04-2.06-2.08-3.09-3.12,1.65-1.09,3.48-1.98,4.91-3.3,4.59-4.22,9.03-8.6,13.52-12.91-4.02,4.59-8.23,9.03-11.92,13.86-.88,1.15-.03,3.61.02,5.47,1.52-.68,3.39-1.01,4.51-2.11,4.72-4.61,9.18-9.48,13.83-14.17.6-.61,1.72-.71,2.6-1.04Z"/>
      <path class="cls-1" d="M335.62,603.89c.84-.6,1.69-1.19,2.53-1.79,3.27-1.44,6.47-3.09,9.83-4.28,4.69-1.67,9.51-3.01,14.44-3.62-1.9,1.15-3.8,2.3-5.71,3.46-.7.1-1.41.2-2.11.3-5.91,3.03-11.81,6.06-17.71,9.09,0,0-.22.3-.22.29-2.94,2.03-5.88,4.07-8.83,6.1-.28-.24-.55-.48-.83-.72,2.87-2.94,5.74-5.88,8.6-8.83Z"/>
      <path class="cls-1" d="M437.05,466.82c-9.32,8.06-19.15,16.56-29.5,25.5,1.84-6.24,26.36-26.09,29.5-25.5Z"/>
      <path class="cls-1" d="M520.34,659.52c.7-.14,1.39-.29,2.09-.43-3.05,3.41-5.77,7.21-9.21,10.15-6.96,5.93-11.13,13.51-14.4,21.79-.33.83-.72,1.63-1.62,2.24-.11-4.97.9-9.55,4.43-13.33,1.2-1.54,2.41-3.08,3.61-4.61,5.04-5.27,10.08-10.53,15.12-15.8Z"/>
      <path class="cls-1" d="M565.94,706.91c-1.07,1.28-2.14,2.57-3.21,3.85-5.44,3.35-10.79,6.83-16.35,9.97-1.85,1.04-4.2,1.18-6.32,1.73-.1-.43-.21-.86-.31-1.29,3.59-2.09,7.19-4.19,10.78-6.28,5.14-2.66,10.28-5.32,15.42-7.97Z"/>
      <path class="cls-1" d="M624.25,757.45c.39-.36.78-.71,1.17-1.07,5.73-2.99,6.87-8.84,8.81-14.18.36-.98.53-2.02,1.48-2.83.04,5.17-1.28,9.98-4.5,14.16-2.41,3.12-4.98,6.11-7.48,9.16-3.51,1.75-7.02,3.5-10.52,5.24,1.54-1.19,3.21-2.26,4.6-3.61,2.24-2.19,4.3-4.57,6.44-6.87Z"/>
      <path class="cls-1" d="M652.51,791.88c-4.27,4.24-8.52,8.49-12.87,12.65-.14.13-1.25-.76-1.47-.9,1.55-3.23,2.32-6.79,4.5-8.88,2.29-2.2,5.93-2.99,8.98-4.39.29.51.57,1.01.86,1.52Z"/>
      <path class="cls-1" d="M437.84,638.81c1.69,5.94,3.38,11.88,5.07,17.82-5.79-4.02-8.77-13.32-6.82-17.48.58-.11,1.17-.23,1.75-.34Z"/>
      <path class="cls-1" d="M346.3,490.03c-12.35-1.3-28.27-12.39-31.66-22.25.53.1,1.16.03,1.31.26,6.9,10.97,17,17.51,29.19,21.18.42.13.73.58,1.1.88l.07-.07Z"/>
      <path class="cls-1" d="M522.3,659.17c6.37-4.76,12.74-9.52,19.12-14.28,3.64-1.1,7.28-2.21,10.93-3.31,0,0,.05-.1.05-.1-8.85,5.42-17.69,10.85-26.57,16.23-1.08.65-2.34.99-3.52,1.47Z"/>
      <path class="cls-1" d="M520.98,523.93c1.8-10.38,14.93-18.54,26.08-16.19-10.94,1.79-20.84,5.24-26.08,16.19Z"/>
      <path class="cls-1" d="M301.42,469.66c-3.37-4.13-6.74-8.26-10.11-12.39,7.53.41,9.16,6.12,11.8,10.93-.56.49-1.13.98-1.69,1.46Z"/>
      <path class="cls-1" d="M568.35,612.47c-7.54-11.62-4.92-24.16-3.65-36.58-1.6,12.46-1.28,24.73,3.65,36.58Z"/>
      <path class="cls-1" d="M658.85,797q-10.12,8.4-14.51,7.36c3.24-5.16,7.95-7.01,14.51-7.36Z"/>
      <path class="cls-1" d="M645,786.25c3.62-2.55,7.23-5.11,11.11-7.85,1.67,5.8.16,6.94-10.37,8.95-.25-.37-.49-.74-.74-1.1Z"/>
      <path class="cls-1" d="M659.22,821.4c3.82-3.22,7.63-6.44,11.45-9.67.44.54.89,1.07,1.33,1.61-3.39,3.92-6.11,8.65-11.79,9.8-.33-.58-.66-1.16-.99-1.74Z"/>
      <path class="cls-1" d="M739.64,633.56c5.04-.26,6.2,1.95,4.46,8.51-4.3-.99-4.89-2.12-4.46-8.51Z"/>
      <path class="cls-1" d="M403.42,492.46l-18.98,16.11c-.37-.48-.74-.97-1.12-1.45,6.44-5.22,12.88-10.43,19.32-15.65.26.33.52.66.77.99Z"/>
      <path class="cls-1" d="M756.58,639.17c-1.28-2.6-2.7-5.14-3.74-7.83-.24-.63.79-2.5,1.26-2.51,1.01-.01,2.74.61,2.93,1.32.75,2.71,1.01,5.56,1.45,8.36l-1.9.66Z"/>
      <path class="cls-1" d="M647.86,775.17c-1.09,7.2-7.73,8.02-12.68,10.77,4.23-3.59,8.46-7.18,12.68-10.77Z"/>
      <path class="cls-1" d="M552.4,641.47s-.06.1-.05.1c3.79-2.15,6.78-1.41,8.91,2.46,0,0,.07-.08.07-.08-3.79.76-7.58,1.52-11.27,2.26.7-1.42,1.52-3.08,2.34-4.74Z"/>
      <path class="cls-1" d="M572.26,608.01c-.07,1.29-.15,2.57-.22,3.86-4.86-6.48-6.68-13.78-6.68-19.28,1.76,3.91,4.37,9.71,6.98,15.52,0,0-.08-.1-.08-.1Z"/>
      <path class="cls-1" d="M720.97,646.34c.36-6.78.75-13.92,1.1-20.44,2.96,4.83,2.73,10.84-1.1,20.44Z"/>
      <path class="cls-1" d="M412.34,667.31c3.94,1.7,7.89,3.41,11.83,5.11-.25.53-.5,1.06-.76,1.59-4.53-.55-9.19-.83-11.08-6.7Z"/>
      <path class="cls-1" d="M403.96,390.57c-1.63-1.56-2.92-2.8-4.62-4.42,1.44-1.51,2.72-2.85,4.36-4.57,1.46,3.22,4.04,5.66.26,8.99Z"/>
      <path class="cls-1" d="M346.24,490.11c8.75.59,17.5,1.18,24.41,1.65-6.91.09-15.82,2.87-24.34-1.72,0,0-.07.07-.07.07Z"/>
      <path class="cls-1" d="M648.18,816.88c-1.25-5.9.96-8.57,7.59-8.87-2.72,3.17-5.03,5.88-7.59,8.87Z"/>
      <path class="cls-1" d="M438.17,463.41c-2.8-4-5.64-7.98-8.38-12.02-.89-1.31-1.5-2.81-1.38-4.78,3.67,5.31,7.35,10.62,11.02,15.93-.42.29-.84.58-1.26.87Z"/>
      <path class="cls-1" d="M454.72,493.71c.65-5.75,8.97-5.02,8.67-10.89,2.4,2.67-2.16,9.01-8.67,10.89Z"/>
      <path class="cls-1" d="M427.38,479.26c-5.23,4.94-10.46,9.87-15.69,14.81-.35-.37-.7-.74-1.04-1.12,5.44-4.76,10.87-9.52,16.31-14.28.14.2.29.39.43.59Z"/>
      <path class="cls-1" d="M625.22,799.04c.41-.71.81-1.42,1.44-2.51-1.01-.24-2.06-.49-4.44-1.06,1.92-.45,2.48-.68,3.05-.7,3.99-.1,7.14,1.05,8.12,5.88-2.87-.59-5.55-1.14-8.24-1.69,0,0,.07.08.07.08Z"/>
      <path class="cls-1" d="M524.27,708.07l7.41-15.73c.43.2.86.4,1.3.6-2.29,5.28-4.59,10.56-6.88,15.85-.61-.24-1.22-.48-1.83-.72Z"/>
      <path class="cls-1" d="M400.92,375.55c.69,1.4,1.39,2.79,2.94,5.91-3.04-.38-4.8-.6-6.56-.83.53-1.8,1.05-3.6,1.58-5.4.68.11,1.36.21,2.04.32Z"/>
      <path d="M541.15,682.74c5.32-5.31,10.64-10.63,15.96-15.94.14.15.29.3.43.44-5.38,5.71-10.76,11.42-16.14,17.13-.08-.55-.17-1.09-.25-1.64Z"/>
      <path class="cls-1" d="M710.64,643.54l-9.66,17.74c-.37-.19-.74-.39-1.11-.58,3.28-5.84,6.56-11.69,9.84-17.53.31.12.62.25.94.37Z"/>
      <path class="cls-1" d="M711,637.52c.48-4.81.96-9.63,1.44-14.44.54.05,1.08.1,1.62.14-.44,4.81-.88,9.63-1.32,14.44-.58-.05-1.16-.1-1.74-.15Z"/>
      <path class="cls-1" d="M413.5,635.29c2.78,1.31,5.55,2.62,8.33,3.93.52.27,1.05.54,1.57.81.63,1.05,1.25,2.09,1.88,3.14-.38.41-.77.82-1.15,1.22-3.54-3.04-7.08-6.07-10.63-9.11Z"/>
      <path class="cls-1" d="M725.5,640.1c-.34-4.69-.67-9.39-1.01-14.08.47-.03.94-.06,1.41-.08.26,4.7.53,9.4.79,14.09-.4.02-.8.05-1.19.07Z"/>
      <path d="M465.27,468.05c2.23-4.42,4.46-8.84,6.69-13.27.53.53,1.06,1.07,1.59,1.6-2.76,3.89-5.52,7.78-8.27,11.66Z"/>
      <path class="cls-1" d="M628.27,626.91c-1.22.3-2.44.59-3.66.89-.38-.59-.77-1.18-1.15-1.77,2.43-1.86,4.86-3.71,7.41-5.66-.9,2.23-1.8,4.44-2.69,6.64,0,0,.1-.1.1-.1Z"/>
      <path class="cls-1" d="M698,661.8c-2.2,1.93-4.4,3.85-6.59,5.78-.51-.6-1.02-1.19-1.53-1.79,2.27-1.86,4.53-3.72,6.8-5.58.44.53.88,1.06,1.33,1.59Z"/>
      <path class="cls-1" d="M782.62,652.07c3.72-2.85,7.44-5.69,11.16-8.54.28.35.56.71.84,1.06-3.68,2.85-7.36,5.69-11.04,8.54-.32-.35-.64-.71-.97-1.06Z"/>
      <path class="cls-1" d="M283.84,433.08c1.43,3.69,2.85,7.37,4.28,11.06-.68.21-1.37.41-2.05.62-1.01-3.82-2.01-7.65-3.02-11.47.27-.07.53-.14.8-.2Z"/>
      <path class="cls-1" d="M653.15,805.06c2.76-2.07,4.64-3.47,6.7-5.01.64,4.88-.59,5.94-6.7,5.01Z"/>
      <path d="M404.77,551.57c-1.25,9.95-2.49,19.9-3.74,29.86l-1.01-.13c1.09-9.95,2.17-19.9,3.26-29.86.5.04.99.09,1.49.13Z"/>
      <path d="M278.81,419.37c-12.15,12.14-24.3,24.29-36.44,36.43-.43-.44-.86-.88-1.29-1.32,12.33-11.96,24.65-23.93,36.98-35.89.25.26.51.52.76.78Z"/>
      <path d="M539.31,637.96c-7.19,6.51-14.54,12.87-21.53,19.6-5.09,4.91-9.71,10.31-14.54,15.5,5.9-7.04,11.34-14.56,17.84-20.99,5.42-5.36,12.1-9.45,18.23-14.11Z"/>
      <path d="M323.32,525.01c15.31-1.86,27.46,6.14,39.41,14.62-6.3-3.26-12.37-7.15-18.97-9.6-6.57-2.44-13.68-3.42-20.44-5.02Z"/>
      <path d="M559.23,606.07c-2.43-11.61-2.96-23.23-.59-34.94.26-1.26,2.34-3.92-1.43-4.07,3.69-7.04,7.39-14.08,11.08-21.11-2.25,6.22-4.83,12.33-6.68,18.67-3.52,12.1-4.44,24.42-1.97,36.91.28,1.43-.25,3.03-.41,4.55Z"/>
      <path d="M458.26,593.55c3.51-3.84,6.96-7.74,10.55-11.5,6.12-6.41,12.34-12.73,18.51-19.09-2.04,2.71-3.81,5.69-6.18,8.09-7.51,7.62-15.24,15.02-22.89,22.5Z"/>
      <path d="M465.86,580.96c-3.28,3.66-6.62,7.27-9.78,11.03-.55.66-.35,1.96-.49,2.96-4.11,3.2-8.21,6.4-12.32,9.6,7.53-7.86,15.06-15.72,22.6-23.59Z"/>
      <path d="M514.32,546.94c-4.77,11.39-4.32,23.22-3.01,35.13-3.39-12.09-4.26-23.96,3.01-35.13Z"/>
      <path d="M487.26,563.04c5.02-9.7,10.04-19.4,15.07-29.1-2.04,9.27-5.32,18.02-11.1,25.65-1.03,1.37-2.63,2.31-3.97,3.45Z"/>
      <path d="M641.24,569.94c-3.35,6.03-6.71,12.07-10.06,18.1,3.35-6.03,6.71-12.07,10.06-18.1Z"/>
      <path d="M753.35,651.08c-2.29-.48-4.58-.95-6.6-1.38,5.59-2.06,11.29-4.16,16.99-6.25.12.3.23.6.35.89-3.62,2.23-7.23,4.46-10.84,6.7,0,0,.1.04.1.04Z"/>
      <path d="M506.57,490.24c-2.28,7.19-4.56,14.37-6.84,21.56.91-7.67,1.8-15.35,6.27-22.04.19.16.38.32.57.48Z"/>
      <path d="M408.09,605.31c-5.31,1.19-10.62,2.39-15.93,3.58-.1-.46-.2-.91-.3-1.37,5.34-1.04,10.69-2.07,16.03-3.11.07.3.13.59.2.89Z"/>
      <path d="M480.34,545.46c-4.36,4.99-8.73,9.98-13.09,14.96,4.36-4.99,8.73-9.98,13.09-14.96Z"/>
      <path d="M447.35,584.44c-4.36,4.71-8.71,9.42-13.07,14.13,4.36-4.71,8.71-9.42,13.07-14.13Z"/>
      <path d="M378.39,532.56c-14.87-11.18-32.43-16.6-49.37-23.39-4.47-1.79-8.46-4.76-12.68-7.2,18.88,9.6,40.31,13.53,57.86,26.05,1.64,1.17,2.81,3.01,4.19,4.54Z"/>
      <path d="M242.31,476.9c3.04,1.09,3.37,3.53.57,4.24-3.54.9-7.53.25-11.29-.07-.7-.06-1.9-1.83-1.74-2.58.23-1.08,1.51-2.77,2.29-2.74,3.43.13,6.85.78,10.27,1.24-3.59,0-7.17,0-11.89,0,3.46,3.98,10.04,4.79,12,2.52.4-.46-.12-1.73-.21-2.62Z"/>
      <path d="M569.3,648.97c-6.39,5.2-13,10.15-19.09,15.69-4.03,3.66-7.1,8.36-10.97,12.21-2.29,2.28-5.31,3.82-8.01,5.69.49-1.01.74-2.25,1.49-3,10.29-10.29,19.77-21.49,32.56-28.96,1.24-.72,2.67-1.09,4.02-1.63Z"/>
      <path d="M624.25,757.45c-2.14,2.3-4.2,4.68-6.44,6.87-1.39,1.35-3.06,2.42-4.6,3.61-8.01,1.37-16.02,2.74-24.04,4.11,1.31-.63,2.66-1.89,3.91-1.79,12.59,1,22.26-4.93,31.17-12.8Z"/>
      <path d="M646.16,754.94c-3.56,3.74-6.88,7.76-10.77,11.11-2.57,2.22-5.97,3.48-8.99,5.16-.13-.14-.25-.28-.38-.42,2.15-1.42,4.43-2.7,6.43-4.31,4.67-3.74,9.2-7.63,13.79-11.47,0,0-.08-.08-.08-.08Z"/>
      <path d="M626.4,771.21c-6.73,4.56-13.64,8.63-21.57,8.81,6.8-2.96,13.99-6.09,21.19-9.23.13.14.25.28.38.42Z"/>
      <path d="M366.59,578.41c-12.3,1.69-25.26.53-36.23,8.07,11.01-7.4,22.93-10.77,36.23-8.07Z"/>
      <path d="M479.49,608.96c-4.41,4.41-8.82,8.82-13.23,13.23,2.44-6.38,7.01-10.63,13.23-13.23Z"/>
      <path d="M368.78,571.95c-9.61-2.92-19.27-3.87-29.03-1.07,6.46-3.97,20.78-3.57,29.03,1.07Z"/>
      <path d="M599.16,553.92c-.18,1.47-.2,2.99-.57,4.41-4.58,17.57-7.65,35.34-8.3,53.62,0-5.44-.67-10.97.13-16.29,1.94-12.81,4.54-25.53,6.97-38.26.23-1.21,1.21-2.28,1.85-3.42,0,0-.08-.07-.08-.07Z"/>
      <path d="M486.62,452.34c-3.97,1.97-6.04,6.61-11.11,7.38-1.46.22-2.5,3.64-3.61,5.65-.94,1.72-1.71,3.54-2.97,6.18.3-12.26,9.21-15.6,17.14-19.82.19.2.37.4.56.6Z"/>
      <path d="M612.87,760.46c4.93-5.63,9.86-11.25,14.79-16.88.32.28.65.57.97.85-4.91,5.65-9.81,11.3-14.72,16.96-.35-.31-.7-.62-1.04-.93Z"/>
      <path d="M520.34,659.52c-5.04,5.27-10.08,10.53-15.12,15.8,5.04-5.27,10.08-10.53,15.12-15.8Z"/>
      <path d="M336.89,607.05c5.9-3.03,11.81-6.06,17.71-9.09-5.9,3.03-11.81,6.06-17.71,9.09Z"/>
      <path class="cls-1" d="M242.31,476.9c.09.89.61,2.16.21,2.62-1.96,2.26-8.55,1.45-12-2.52,4.72,0,8.31,0,11.89,0,0,0-.11-.09-.11-.09Z"/>
    </g>
  </g>
</svg>