<?xml version="1.0" encoding="UTF-8"?>
<svg id="Layer_2" xmlns="http://www.w3.org/2000/svg" viewBox="0 0 192 186">
  <defs>
    <style>
      .cls-1 {
        fill: #fff;
      }
    </style>
  </defs>
  <g id="Layer_1-2" data-name="Layer_1">
    <g>
      <path class="cls-1" d="M192,186H0V0h192v186ZM55.01,126.99c1.67-3.75,3.24-7.56,5.07-11.23.84-1.69,1.96-4.09,3.4-4.48,7.64-2.03,15.42-3.53,24.16-5.43,1.23,17.03-5.48,30.13-16.37,43.19,4.02-1.51,7.37-2.76,10.71-4.02l.04-.04c.93-.65,2.08-1.12,2.75-1.96,10.1-12.58,20.09-25.24,30.23-37.78,2.03-2.51,4.23-5.54,7.03-6.66,7.35-2.93,15.22-4.58,22.61-7.44,5.96-2.31,11.7-5.33,17.18-8.63,3.3-1.99,2.7-5.31-.88-6.28-4.54-1.24-9.56-2.41-14.07-1.68-9.99,1.61-19.74,4.62-29.68,6.63-3.26.66-7.07.82-10.16-.2-20.41-6.76-40.69-13.91-62.07-21.3,1.05,2.99,1.19,7.04,3.2,8.46,6.21,4.39,14.16,5.76,19.12,12.71,2.7,3.78,7.82,5.82,12.53,9.12-2.75,1.23-4.78,2.13-6.81,3.04,0,0,.03-.02.03-.02-2.44.44-5.05.46-7.28,1.4-4.29,1.82-7.52,1.22-10.45-2.52-2.56-3.28-6.25-2.07-8.46-.16-2.42,2.08-4.06,1.3-6.22.46-2.78-1.08-5.55-2.27-8.43-2.98-1-.25-2.31.79-3.48,1.24.5.57.99,1.13,1.49,1.7,4.56,3.9,9.12,7.79,13.68,11.69-.54.79-1.08,1.58-1.63,2.36-.94,1.36-1.89,2.71-2.84,4.07,1.47.69,2.91,1.87,4.43,1.98,2.85.2,4.02,1.18,4.14,4.16.19,4.52.89,9.02,1.52,14.83,2.36-1.81,3.93-3,5.49-4.2l.02-.03Z"/>
      <path d="M81.98,145.02c-3.35,1.26-6.69,2.51-10.71,4.02,10.9-13.07,17.6-26.17,16.37-43.19-8.74,1.9-16.52,3.4-24.16,5.43-1.44.38-2.56,2.79-3.4,4.48-1.84,3.67-3.4,7.48-5.07,11.23,1.75-5.71,3.5-11.43,5.5-17.98-3.54,1.06-6.2,1.54-8.53,2.68-1.19.58-2.54,2.36-2.52,3.58.04,4.11.65,8.21,1.08,12.65,1.62-.33,3.04-.62,4.45-.91-1.56,1.19-3.12,2.39-5.49,4.2-.63-5.81-1.33-10.31-1.52-14.83-.12-2.99-1.29-3.97-4.14-4.16-1.51-.1-2.95-1.28-4.43-1.98.95-1.36,1.89-2.71,2.84-4.07.55-.79,1.09-1.57,1.63-2.36,3.19-3.63,2.67-7.5-1.38-9.34-2.82-1.29-5.71-2.51-8.69-3.35-1.03-.29-2.4.64-3.61,1.01-.5-.57-.99-1.13-1.49-1.7,1.17-.45,2.48-1.49,3.48-1.24,2.88.71,5.65,1.91,8.43,2.98,2.16.84,3.81,1.62,6.22-.46,2.21-1.91,5.9-3.12,8.46.16,2.92,3.74,6.16,4.34,10.45,2.52,2.22-.95,4.84-.96,7.28-1.4-1.52,2.48-3.04,4.95-4.94,8.04,2.05-.31,3.65-.45,5.2-.81,13.6-3.23,27.15-6.68,40.79-9.72,12.69-2.83,24.72-8.93,38.32-7.7,1.58.14,3.46-2.94,5.19-4.53-1.59-.91-3.09-2.11-4.8-2.63-1.34-.41-3-.24-4.42.08-15.57,3.58-31.11,7.28-46.67,10.87-9.55,2.21-19.13,4.28-28.7,6.42,2.03-.91,4.06-1.81,6.81-3.04-4.71-3.3-9.83-5.35-12.53-9.12-4.97-6.95-12.91-8.32-19.12-12.71-2.01-1.42-2.15-5.47-3.2-8.46,21.38,7.39,41.66,14.53,62.07,21.3,3.09,1.02,6.9.86,10.16.2,9.94-2.01,19.69-5.02,29.68-6.63,4.51-.73,9.53.44,14.07,1.68,3.58.97,4.18,4.29.88,6.28-5.47,3.31-11.22,6.33-17.18,8.63-7.39,2.86-15.25,4.5-22.61,7.44-2.79,1.11-4.99,4.15-7.03,6.66-10.15,12.54-20.13,25.21-30.23,37.78-.68.85-1.83,1.32-2.75,1.96.4-1.22.5-2.68,1.26-3.63,11.63-14.62,23.34-29.17,35.36-44.14-6.82,1.9-13.3,3.83-19.85,5.47-3.85.97-5.19,2.88-4.22,6.84.4,1.6.06,3.72-.7,5.22-4.6,9.07-9.43,18.02-14.16,27.02-.57,1.09-1.03,2.24-1.65,3.62,1.65-.15,2.79-.26,3.93-.37ZM72.03,77.02c-.9.15-1.81.3-3.76.63,3.33,2.74,5.77,5.21,8.66,6.89,1.19.69,3.36-.3,5.09-.53,2.02,1.5,4.24,4.48,6.03,4.24,5.89-.78,11.63-2.72,18.79-4.57-18.64-6.6-35.81-12.75-53.06-18.68-1.55-.53-3.57.32-5.37.53.94,1.67,1.88,2.25,2.89,2.68,6.9,2.95,13.82,5.87,20.73,8.8ZM92.57,105.82c-.76.06-1.53.12-2.29.18.3,2.42.6,4.84.9,7.25l2.33-.28c-.31-2.38-.62-4.77-.93-7.15ZM61.22,107.14l-.36-1.9c-3.14.65-6.28,1.29-9.43,1.94.11.59.21,1.17.32,1.76,3.16-.6,6.31-1.2,9.47-1.8Z"/>
      <path class="cls-1" d="M30.19,92.13c1.21-.37,2.59-1.3,3.61-1.01,2.97.85,5.86,2.07,8.69,3.35,4.05,1.84,4.57,5.71,1.38,9.34-4.56-3.9-9.12-7.79-13.68-11.69Z"/>
      <path class="cls-1" d="M72.99,93.01c9.57-2.13,19.15-4.21,28.7-6.42,15.56-3.59,31.1-7.29,46.67-10.87,1.42-.33,3.07-.5,4.42-.08,1.71.53,3.21,1.72,4.8,2.63-1.74,1.59-3.61,4.67-5.19,4.53-13.6-1.22-25.63,4.87-38.32,7.7-13.64,3.04-27.19,6.49-40.79,9.72-1.55.37-3.15.5-5.2.81,1.9-3.09,3.42-5.57,4.94-8.04,0,0-.03.02-.03.02Z"/>
      <path class="cls-1" d="M81.98,145.02c-1.14.11-2.28.21-3.93.37.63-1.38,1.08-2.53,1.65-3.62,4.73-9,9.56-17.95,14.16-27.02.76-1.5,1.09-3.61.7-5.22-.98-3.96.36-5.88,4.22-6.84,6.56-1.64,13.04-3.58,19.85-5.47-12.02,14.97-23.73,29.52-35.36,44.14-.75.94-.85,2.41-1.26,3.63,0,0-.04.04-.04.04Z"/>
      <path class="cls-1" d="M72.03,77.02c-6.91-2.93-13.83-5.85-20.73-8.8-1.01-.43-1.95-1.01-2.89-2.68,1.8-.21,3.82-1.06,5.37-.53,17.24,5.93,34.41,12.08,53.06,18.68-7.16,1.85-12.9,3.79-18.79,4.57-1.79.24-4.01-2.74-6.03-4.24-3.33-2.33-6.66-4.66-9.99-7Z"/>
      <path class="cls-1" d="M54.99,127.01c-1.41.29-2.83.58-4.45.91-.43-4.44-1.04-8.54-1.08-12.65-.01-1.22,1.34-3,2.52-3.58,2.34-1.14,5-1.62,8.53-2.68-2.01,6.56-3.76,12.27-5.5,17.98,0,0-.02.03-.02.03Z"/>
      <path class="cls-1" d="M72.03,77.02c3.33,2.33,6.66,4.66,9.99,7-1.73.23-3.9,1.22-5.09.53-2.89-1.68-5.32-4.15-8.66-6.89,1.95-.33,2.85-.48,3.76-.63Z"/>
      <path class="cls-1" d="M92.57,105.82c.31,2.38.62,4.77.93,7.15l-2.33.28c-.3-2.42-.6-4.84-.9-7.25.76-.06,1.53-.12,2.29-.18Z"/>
      <path class="cls-1" d="M61.22,107.14c-3.16.6-6.31,1.2-9.47,1.8-.11-.59-.21-1.17-.32-1.76,3.14-.65,6.28-1.29,9.43-1.94l.36,1.9Z"/>
    </g>
  </g>
</svg>