<?xml version="1.0" encoding="UTF-8"?>
<svg id="Layer_2" xmlns="http://www.w3.org/2000/svg" viewBox="0 0 433 270">
  <defs>
    <style>
      .cls-1 {
        fill: #fff;
      }
    </style>
  </defs>
  <g id="Layer_1-2" data-name="Layer_1">
    <g>
      <path class="cls-1" d="M0,216C0,144,0,72,0,0c144.33,0,288.67,0,433,0,0,90,0,180,0,270-144.33,0-288.67,0-433,0C0,252.67,0,235.33,0,218c1.63,1.61,2.98,4.01,4.93,4.72,26.86,9.78,53.81,19.32,80.74,28.92,3.15,1.12,6.25,2.39,9.46,3.28,2.17.6,4.5.96,6.74.9,2.4-.06,5.5.1,7.06-1.26,6.2-5.4,12.57-9.36,21.06-6.26,3.05-9.11,9.07-11.9,18.31-8.8,1.73.58,3.34,1.67,5.11,1.97,2.83.49,5.91,1.23,8.57.59,5.79-1.4,11.39-3.57,17.06-5.48,8.34-2.82,16.55-6.08,25.03-8.38,5.12-1.39,11.18-3,15.88-1.53,9.6,3.01,18.71,7.75,27.76,12.29,17.09,8.57,34.01,17.49,50.99,26.29,5.02,2.6,9.68,2.42,14.6-.65,10.3-6.43,20.72-12.68,31.26-18.69,8.29-4.72,16.45-10.13,27.3-8.7-.86-1.09-1.33-1.68-1.8-2.27l-.11.1c19.3-6.48,38.59-12.95,58.95-19.78-1.77-1.41-2.98-2.26-2.92-2.35,2.49-4.18-1.9-3.88-3.45-5.4-1.52-1.5-3.21-2.87-4.51-4.55-12.98-16.83-25.88-33.71-38.82-50.57-9.09-11.85-18.19-23.68-27.28-35.53-.7-.92-1.94-2.07-1.79-2.89,1.02-5.39-3.1-8.13-5.73-11.56-3.85-5.01-7.86-9.89-11.95-14.71-3.59-4.24-7.38-8.31-11.13-12.52-1.48,1.14-2.37,1.64-3.02,2.35-7.55,8.18-14.94,16.52-22.68,24.52-2.61,2.69-4.45,5.28-3.87,9.09.58,3.79-.93,6.69-3.42,9.39-1.44,1.57-2.43,3.55-3.69,5.3-3.42,4.76-6.94,9.46-10.24,14.31-.4.59.33,1.94.54,2.93,0,0,.11-.12.11-.12-2.13,1.48-4.26,2.95-6.01,4.16.21,1.1.97,2.54.53,3.28-1.82,3.07-4.49,5.7-5.91,8.91-1.52,3.44-5.66,6.2-3.54,10.86l-.09-.09c-3.92,3.45-7.84,6.9-11.76,10.35-.28-.27-.55-.54-.83-.81,1.65-.1,3.29-.2,4.94-.3.15.54.3,1.07.46,1.61-2.36.83-4.77,1.54-7.05,2.54-1.17.51-2.13,1.53-3.18,2.32-2.01.29-4.11.29-6.01.91-6.07,2-12.09,4.14-18.04,6.46-1.17.45-1.94,1.92-2.9,2.93,2.09.43,3.23.21,4.29-.24,7.41-3.14,14.8-6.32,22.19-9.49h5.06c-7.24,7.79-17.5,7.72-25.38,12.72,5.9-1.81,11.8-3.62,17.69-5.44.26.45.53.91.79,1.36-3.69,2.89-7.07,6.41-11.17,8.5-4.06,2.07-8.85,2.71-13.33,3.98l.4,1.28c4.5-1.25,9-2.49,13.5-3.74l.6,1.28c-1.55.93-3,2.09-4.66,2.74-2.47.96-5.19,1.33-7.6,2.41-1.3.58-2.17,2.13-3.23,3.24.33.29.67.58,1,.86,2.1-.46,4.19-.91,6.89-1.5-3.39,3.8-6.16,6.92-10.01,11.24V67.18c10.96-2.65,21.94-5.37,32.98-7.89,1.39-.32,3.68-.09,4.45.82,3.29,3.91,6.16,8.17,9.17,12.29-5.17-1.93-10.67-.51-12.04,3.46,4.15-1.23,8.06-2.38,11.98-3.54,2.39,2.59,4.77,5.18,7.67,8.33-17.13,6.63-33.31,12.9-49.49,19.16l.52,1.29c16.41-6.23,32.82-12.46,49.56-18.81,1.09,1.76,2.3,3.69,3.5,5.62-10.31,3.78-20.62,7.56-30.94,11.33,10.17-2.37,19.96-5.84,29.71-9.42.55-.2.76-1.32,1.13-2.02,5.9,7.59,11.79,15.18,17.69,22.78l1.15-.51c-.73-1.8-1.13-3.85-2.25-5.36-10.39-14.03-20.86-28.01-31.42-41.91-3.38-4.44-7.53-8.38-6.78-14.75.11-.96-.61-2.25-1.32-3.05-11.18-12.54-22.39-25.04-33.65-37.5-4.32-4.78-5.61-4.66-9.56.35-8.44,10.73-16.87,21.46-25.39,32.12-2.91,3.64-6.2,6.93-5.47,12.27.17,1.21-.95,2.78-1.81,3.93-6.92,9.16-14.03,18.18-20.88,27.4-7.71,10.37-15.22,20.9-22.86,31.42-.73-.45-1.24-.61-1.52-.97-7.88-10.1-15.81-20.15-23.54-30.36-2.16-2.85-3.36-3.53-5.83-.17-5.82,7.9-12.59,15.14-17.97,23.31-5.95,9.04-16.06,15.64-16.94,27.8-.03.35-.8.59-1.09.98-18.46,25.27-36.87,50.57-55.43,75.76-1.45,1.97-4,3.12-6.04,4.65ZM242.02,82.04c-8.94,2.95-17.88,5.91-26.82,8.86l.74,1.99c8.67-3.65,17.34-7.29,26.01-10.94,5.94-2.11,11.87-4.22,17.81-6.33-.25-.6-.5-1.2-.76-1.79-5.66,2.73-11.33,5.47-16.99,8.2ZM241.98,144.97c10.08-2.92,20.17-5.84,30.25-8.76-.2-.61-.4-1.21-.59-1.82-9.86,3.55-19.73,7.1-29.59,10.66-8.46,2.48-16.93,4.96-25.39,7.44.22.64.43,1.28.65,1.92,8.23-3.14,16.46-6.29,24.68-9.43ZM264.19,95.94c-8.56,3.06-17.14,6.1-25.69,9.2-7.71,2.8-15.39,5.69-23.08,8.54.22.87.44,1.73.67,2.6,10.32-.69,20.04-4.71,29.94-7.46,10.32-2.86,20.48-6.27,30.71-9.45l-.38-1.16c-19.27,5.75-38.53,11.5-57.8,17.25l-.48-1.6c18.57-6.43,37.15-12.87,55.72-19.3-.08-.33-.15-.65-.23-.98-.61-.08-1.22-.15-1.82-.23.08-4.04-2.62-1.22-3.34-.99-14.21,4.57-28.36,9.32-42.51,14.08-3.72,1.25-7.37,2.69-11.06,4.04.15.42.3.85.45,1.27,1.95-.63,3.91-1.26,5.86-1.89,14.34-4.64,28.69-9.29,43.03-13.93ZM285.36,111.42c-.13-.44-.26-.88-.39-1.33-22.92,6.52-45.84,13.05-68.76,19.57.14.49.29.98.43,1.47,22.91-6.57,45.82-13.14,68.72-19.72ZM216.37,148.52c.14.5.29,1,.43,1.5,21.06-6.77,42.12-13.54,63.18-20.31-.15-.45-.29-.91-.44-1.36-21.05,6.73-42.11,13.46-63.16,20.18ZM216.06,124.77c.17.54.33,1.08.5,1.62,21.43-6.39,42.85-12.78,64.28-19.17-.11-.36-.22-.73-.33-1.09-21.48,6.21-42.96,12.43-64.44,18.64ZM217.27,119.29c.13.45.26.91.4,1.36,20.51-5.98,41.01-11.95,61.52-17.93l-.4-1.36c-20.51,5.98-41.01,11.95-61.52,17.93ZM263.19,79.81c-.18-.48-.36-.96-.54-1.44-15.74,5.91-31.49,11.81-47.23,17.72.2.53.39,1.05.59,1.58,15.73-5.95,31.45-11.9,47.18-17.85ZM267.31,87.17c-.19-.42-.38-.84-.57-1.26-17.06,6.12-34.13,12.24-51.19,18.35.16.43.31.86.47,1.3,17.1-6.13,34.19-12.26,51.29-18.38ZM286.5,115.57c-.17-.49-.35-.99-.52-1.48-11.63,3.34-23.25,6.68-34.88,10.01.11.36.21.72.32,1.09,11.69-3.21,23.39-6.42,35.08-9.62ZM215.23,185.82c.2.54.39,1.07.59,1.61,9.62-3.54,19.23-7.07,28.85-10.61-.14-.37-.27-.74-.41-1.11-9.68,3.37-19.35,6.74-29.03,10.1ZM246.17,135.92c-.13-.39-.26-.79-.38-1.18-9.43,3.01-18.86,6.02-28.3,9.03.15.46.3.92.45,1.38,9.41-3.08,18.82-6.16,28.23-9.24ZM216.53,134.04c.16.54.32,1.08.47,1.62,8.31-2.59,16.63-5.19,24.94-7.78-.11-.39-.22-.77-.33-1.16l-25.08,7.32ZM217.27,139.43c.16.52.32,1.05.48,1.57,7.73-2.7,15.47-5.39,23.2-8.09-.14-.4-.28-.79-.41-1.19-7.75,2.57-15.51,5.13-23.26,7.7ZM235.71,153.97c-.15-.36-.3-.71-.45-1.07-6.34,2.3-12.68,4.59-19.01,6.89.17.46.34.91.5,1.37,6.32-2.4,12.64-4.79,18.96-7.19ZM249.19,62.57c-.13-.52-.27-1.04-.4-1.56-6.56,1.76-13.13,3.52-19.69,5.28.09.34.17.68.26,1.01,6.61-1.58,13.22-3.16,19.83-4.74ZM216.66,164.67c.16.45.33.9.49,1.35,6.28-2.36,12.55-4.72,18.83-7.08-.12-.32-.23-.65-.35-.97-6.32,2.23-12.65,4.47-18.97,6.7ZM232.8,174.91c-.15-.42-.3-.84-.45-1.25-5.28,1.93-10.55,3.85-15.83,5.78l.43,1.19c5.28-1.9,10.57-3.81,15.85-5.71Z"/>
      <path d="M242.61,185.79c1.05-.79,2.01-1.81,3.18-2.32,2.28-1,4.69-1.71,7.05-2.54-.15-.54-.3-1.07-.46-1.61-1.65.1-3.29.2-4.94.3.28.27.55.54.83.81,3.92-3.45,7.84-6.9,11.76-10.35,2.95-2.71,5.9-5.42,8.85-8.12-.39-.38-.77-.75-1.16-1.13-4.4,1.37-5.94,5.42-7.6,9.35-2.12-4.65,2.01-7.42,3.54-10.86,1.42-3.21,4.09-5.84,5.91-8.91.44-.73-.32-2.18-.53-3.28,1.75-1.21,3.88-2.69,6.01-4.16-2.79,5.5-5.58,10.99-8.37,16.49.43.35.85.69,1.28,1.04,1.28-1.28,2.64-2.49,3.83-3.86,1.72-1.98,3.31-4.08,4.97-6.13.92-1.15,1.86-2.29,2.78-3.43-.32-.42-.64-.84-.95-1.26h5.23c-2.14-.6-2.95-.83-3.99-1.12,2.42-.64,4.39-1.16,7.38-1.94-2.54-1.49-3.85-2.26-5.16-3.02.07-.17.15-.35.22-.52,2.04.49,4.09.98,6.3,1.51,1.16-1.33,2.32-2.66,3.81-4.38-2.45-1.42-4.6-2.66-6.76-3.9.09-.18.19-.37.28-.55,3.98.55,7.97,1.1,11.95,1.65.69.6,1.38,1.2,2.07,1.8l.1.19c-.95,1.07-1.89,2.15-2.7,3.06,3.94,8.52,12.37,13.24,16.17,21.57.57,1.26,3.67,1.37,5.84,2.1-8.65,2.14-16.86,4.17-25.07,6.21.12.7.24,1.4.35,2.1,1.14,0,2.34.24,3.4-.05,3.2-.88,6.45-1.72,9.49-3.02,4.67-1.99,9.13-3.94,12.84,1.53.09.13.59-.02,1.42-.06-.31-5.21-.63-10.41-.92-15.32-2.62-1.01-4.74-1.83-6.85-2.65.07-.28.15-.57.22-.85,2.05.29,4.1.58,6.68.95,0-3.06-.23-5.87.06-8.63.43-4.07-1.4-5.95-5.16-7.03-8.77-2.53-17.43-5.43-26.2-7.94-.95-.27-2.34,1-3.53,1.55-3.71,4.69-7.42,9.37-11.12,14.06-.21-1-.94-2.35-.54-2.94,3.3-4.85,6.81-9.54,10.24-14.31,1.26-1.75,2.24-3.73,3.69-5.3,2.49-2.71,4.01-5.61,3.42-9.39-.59-3.81,1.26-6.4,3.87-9.09,7.74-8,15.12-16.34,22.68-24.52.66-.71,1.54-1.21,3.02-2.35,3.75,4.21,7.54,8.28,11.13,12.52,4.08,4.82,8.1,9.7,11.95,14.71,2.63,3.43,6.75,6.17,5.73,11.56-.16.82,1.09,1.97,1.79,2.89,9.08,11.85,18.19,23.68,27.28,35.53,12.93,16.86,25.84,33.74,38.82,50.57,1.29,1.68,2.98,3.05,4.51,4.55,1.55,1.52,5.94,1.23,3.45,5.4-.06.09,1.15.94,2.92,2.35-20.35,6.83-39.65,13.31-58.95,19.78.84-.85,1.54-2.12,2.55-2.47,8.47-2.95,16.99-5.76,25.51-8.57,8.46-2.79,16.93-5.55,26.6-8.71-7.44-8.75-14.05-16.51-20.65-24.27-1.65-2.02-3.29-4.05-4.94-6.07-.12-.48-.11-1.06-.38-1.41-12.18-15.87-24.38-31.72-36.59-47.57,0,0,.07.07.07.07-4.02-6.07-4.18-6.11-9.64-2.48-3.14.49-6.27.97-9.41,1.46,4.7-1.93,9.4-3.86,14.09-5.78-3.3-7.57-4.09-7.98-11.56-5.61-3.48,1.11-6.92,2.35-10.4,3.47-3.29,1.05-6.6,2.02-9.9,3.02-.14-.49-.28-.97-.42-1.46,8.64-2.76,17.27-5.53,25.91-8.29.13-.5.26-1,.4-1.51-1.77-.87-3.83-2.8-5.27-2.42-7.97,2.14-15.78,4.83-22.23,6.89,0,13.75.56,26.54-.17,39.26-.61,10.52,3.61,18.14,11.06,24.68l.23.38c2.26,3.42,4.78,6.71,6.68,10.32,1.51,2.86,2.99,3,5.93,2.11,17.18-5.22,34.44-10.16,51.68-15.19.11,2.82-.98,4.3-4.04,4.65-2.6.3-5.11,1.39-7.65,2.16-12.99,3.96-25.99,7.92-39.56,12.06.73-1.17,1.14-1.83,2.09-3.34-2.11,1.08-3.34,1.72-4.47,2.3,1.44,5.91,5.12,3.75,8.33,2.82,16.76-4.85,33.5-9.75,50.25-14.63-1.38.81-2.67,1.94-4.16,2.39-11.15,3.31-22.35,6.45-33.51,9.73-5.76,1.7-11.46,3.6-17.18,5.41l.15,1.57c1.18.17,2.49.75,3.54.44,13.23-3.83,26.42-7.8,39.62-11.71,4.2-1.24,8.43-2.4,12.65-3.6.2.59.39,1.19.59,1.78-16.83,7.28-34.76,11.58-52.94,17.59,1.79,1.87,3,3.15,4.21,4.42.67,1.01,1.34,2.02,2.01,3.03,1.11,2.98,2.88,3.21,5.81,2.14,6.31-2.32,12.81-4.15,19.23-6.17-1.57.78-3.1,1.7-4.73,2.31-4.9,1.85-9.87,3.54-14.74,5.44-.4.16-.35,1.48-.51,2.26,1.99,2.34,3.99,4.67,5.98,7.01.47.59.94,1.18,1.8,2.27-10.86-1.43-19.02,3.98-27.3,8.7-10.55,6.01-20.96,12.26-31.26,18.69-4.92,3.07-9.58,3.25-14.6.65-16.98-8.8-33.9-17.72-50.99-26.29-9.05-4.54-18.16-9.28-27.76-12.29-4.7-1.47-10.76.14-15.88,1.53-8.48,2.3-16.69,5.56-25.03,8.38-5.66,1.91-11.27,4.09-17.06,5.48-2.66.64-5.74-.1-8.57-.59-1.76-.3-3.37-1.39-5.11-1.97-9.23-3.1-15.25-.31-18.31,8.8-8.49-3.1-14.85.86-21.06,6.26-1.56,1.36-4.66,1.2-7.06,1.26-2.24.05-4.57-.3-6.74-.9-3.21-.89-6.32-2.16-9.46-3.28-26.93-9.6-53.87-19.15-80.74-28.92C2.98,222.01,1.63,219.61,0,218c0-.67,0-1.33,0-2,2.04-1.53,4.59-2.69,6.04-4.65,18.56-25.19,36.97-50.5,55.43-75.76.29-.39,1.06-.63,1.09-.98.88-12.15,10.99-18.76,16.94-27.8,5.38-8.17,12.15-15.41,17.97-23.31,2.47-3.35,3.67-2.68,5.83.17,7.72,10.21,15.66,20.27,23.54,30.36.28.35.79.52,1.52.97,7.64-10.52,15.15-21.05,22.86-31.42,6.85-9.21,13.96-18.24,20.88-27.4.87-1.15,1.98-2.71,1.81-3.93-.73-5.34,2.56-8.63,5.47-12.27,8.53-10.66,16.95-21.39,25.39-32.12,3.95-5.02,5.24-5.13,9.56-.35,11.25,12.47,22.47,24.97,33.65,37.5.71.8,1.43,2.09,1.32,3.05-.75,6.36,3.4,10.3,6.78,14.75,10.57,13.9,21.03,27.88,31.42,41.91,1.12,1.51,1.52,3.56,2.25,5.36l-1.15.51c-5.9-7.59-11.79-15.18-17.69-22.78l.1.1c-1.2-1.93-2.41-3.87-3.5-5.62-16.74,6.35-33.15,12.58-49.56,18.81l-.52-1.29c16.18-6.27,32.37-12.53,49.49-19.16-2.9-3.15-5.29-5.74-7.67-8.33,0,0,.07.09.07.09-3.02-4.13-5.89-8.39-9.18-12.3-.76-.91-3.05-1.13-4.45-.82-11.03,2.52-22.02,5.24-32.98,7.89v158.13c3.85-4.32,6.62-7.43,10.01-11.24-2.7.59-4.79,1.04-6.89,1.5-.33-.29-.67-.58-1-.86,1.06-1.11,1.93-2.66,3.23-3.24,2.41-1.08,5.12-1.45,7.6-2.41,1.66-.65,3.11-1.81,4.66-2.74l-.6-1.28c-4.5,1.25-9,2.49-13.5,3.74l-.4-1.28c4.47-1.27,9.27-1.91,13.33-3.98,4.1-2.09,7.47-5.61,11.17-8.5-.26-.45-.53-.91-.79-1.36-5.9,1.81-11.8,3.62-17.69,5.44,7.88-5,18.14-4.93,25.38-12.72-2.19,0-3.62,0-5.06,0,.16-.19.32-.38.48-.58ZM178.02,147.18l-.1,1.17c-12.67-4.87-25.35-9.75-38.02-14.62-.34.67-.68,1.35-1.02,2.02,3.61,2.22,7.21,4.48,10.86,6.64,1.67.99,3.46,1.79,5.2,2.67,0,0,.07-.09.07-.09-2.83-.6-5.66-1.21-9.08-1.94,4.37,6.96,8.51,13.11,16.71,14.64-1.9-.4-3.8-.81-5.71-1.21.75,1.41,1.75,1.87,2.76,2.3,1.04.46,2.1.9,3.14,1.34-.03.17-.07.35-.1.52l-3.39-.24c1.07,2.14,3.49,2.93,3.99,4.38,2.57,7.46,2.95,8.19,8.95,10.97,2.38,1.1,4.76,2.22,7.14,3.34-.12.31-.24.62-.36.93-3.05-1.23-6.11-2.47-10.27-4.15,1.22,1.75,1.54,2.64,2.17,3.06,5.02,3.33,6.44,9.19,9.77,13.68,4.2,5.68,6.5,13.27,14.6,15.26.19.05.31.42.54.77h-3.67c2.56,3.53,4.53,7.01,7.25,9.76,2.67,2.7,6.09,4.65,9.18,6.93.41-.32.83-.63,1.24-.95,0-1.59.01-3.18,0-4.78-.23-24.13-.48-48.26-.71-72.38-.09-9.14-.08-18.28-.3-27.42-.03-1.38-.78-3.51-1.8-3.97-3.69-1.68-7.63-2.79-11.48-4.12-.12.32-.23.64-.35.95,4.07,1.81,8.14,3.63,12.21,5.44-.21.47-.42.94-.63,1.4-15.58-6.58-31.16-13.16-46.75-19.73l.19-.44c16.08,5.01,32.16,10.01,48.2,15,2.8-6.96-4.17-5.24-6.78-8.23,2.86.67,5.03,1.18,7.72,1.81,0-12.5.17-24.59-.2-36.67-.05-1.68-2.49-4.23-4.31-4.77-8.76-2.61-17.73-4.49-26.52-6.99-4.73-1.34-7.35.1-8.53,4.7,0,0,.08-.1.08-.1-1.98,2.32-3.95,4.65-6.26,7.36,14.72,4.12,28.67,8.03,42.63,11.94-2.66.55-5.12.1-7.53-.55-11.06-2.95-22.09-6.02-33.18-8.85-1.09-.28-2.52.76-3.8,1.19,0,0,.09-.09.09-.09-1.23,1.08-2.7,1.99-3.64,3.28-7.63,10.47-15.17,21.01-22.94,31.82,2.98,1.56,5.41,2.83,7.85,4.1-.12.23-.24.46-.36.69-2.7-.98-5.39-1.97-8.09-2.95l-.63,1.41c4.74,2.29,9.48,4.58,14.22,6.86-4.4-.88-8.41-2.69-12.52-4.24-1.3-.49-2.86-.25-4.31-.34.22,1.61-.1,3.65.77,4.74,3.67,4.62,7.12,9.6,13.1,11.67-1.66-.33-3.32-.65-4.98-.98,4.52,2.61,9.18,4.69,13.95,6.46,3.48,1.29,7.12,2.16,10.69,3.21,2.12.96,4.23,1.92,6.34,2.87l6.73,3.49ZM301.88,174.38c-1.96,1.13-3.92,2.25-5.88,3.38-.44,1.16-.89,2.32-1.6,4.18,5.98-1.79,11.23-3.36,16.48-4.93.1.31.2.62.3.93-3.95,1.38-7.9,2.75-11.85,4.13-5.8,2.02-6.74,4.85-4.03,9.46,2.78-.81,5.24-1.52,7.69-2.23.02.62.04,1.24.05,1.86-7.35,1.72-9.24,6.29-8.95,13.68.65,16.59.26,33.22.28,49.83.01,8.47,7,12.81,14.91,8.96,5.95-2.89,11.65-6.28,17.46-9.46,12.44-6.82,24.87-13.65,37.92-20.81-3.53-4.36-7.56-9.35-11.59-14.34l.09.09c-1.13-1.97-2.26-3.94-3.42-5.97-6.42,2.06-12.34,3.96-18.27,5.86l-.31-1.01c5.72-2.04,11.44-4.08,18.09-6.45-2.77-2.88-5.01-5.21-7.25-7.55,0,0,.07.09.07.09-2.68-4.3-4.67-9.43-8.36-12.54-1.71-1.45-6.86.65-10.23,1.8-7.82,2.67-15.5,5.74-23.24,8.64.12.34.24.68.36,1.02,6.72-1.95,13.44-3.9,20.16-5.85.1.36.2.71.3,1.07-8.42,2.47-16.84,4.95-25.25,7.42.29-2.78.96-5.65,2.49-6.24,10.88-4.13,21.94-7.78,33.61-11.82-4.98-6.11-10.47-12.84-15.95-19.57-1.45-.14-3.02-.72-4.32-.35-4.76,1.34-9.44,2.98-14.13,4.57-1.07.36-2.04,1-4.28,2.13,3.91,0,6.26,0,8.62,0ZM291.85,120.95c9.26,2.88,18.52,5.75,28.08,8.72.13-3.3.36-6.37-3.8-7.52-6.09-1.67-12.18-3.37-18.22-5.21-3.85-1.18-5.71.15-5.94,4.07-3.79,2.35-.89,3.39,1,4.02,5.29,1.77,10.68,3.25,16.03,4.84,3.6,1.07,7.2,2.13,10.79,3.19.14-.44.27-.89.41-1.33-.81-.33-1.61-.67-2.42-.98-8.64-3.27-17.28-6.54-25.93-9.8ZM194.96,220.07c-.63-1.03-1.27-2.07-1.9-3.1-5.65-8.3-11.3-16.6-16.95-24.89l.09.1c-.53-2.42-1.61-3.2-4.23-2.22-3.53,1.32-7.27,2.07-10.92,3.06,0,0,.06.08.06.08,4.05-1.92,8.1-3.85,12.14-5.77-.2-.62-.4-1.24-.59-1.86-11.14,2.84-21.9,7.1-32.67,11.15-11.24,4.22-22.32,8.83-33.48,13.27-.34-.57-.69-1.14-1.03-1.71,1.9-1.41,3.61-3.35,5.74-4.14,12.99-4.84,26.03-9.55,39.15-14.03,6.56-2.24,13.32-3.92,20.23-5.93-.82-1.52-1.56-2.88-2.14-3.95-8.73,2.7-17.08,5.29-25.43,7.88l.06.08c1.41-.75,2.75-1.67,4.24-2.21,5.69-2.07,11.44-3.97,17.14-6.04,1.38-.5,3.91-1.17.56-2.81l.07.08c-1.39-3.03-2.78-6.05-3.88-8.45-6.24,1.26-11.5,2.33-16.77,3.4-1.11.3-2.21.6-3.32.9-11.68,3.69-23.35,7.38-35.03,11.08-.11-.35-.23-.7-.34-1.06,17.33-5.94,34.66-11.88,52.82-18.11-3.48-4.58-6.25-8.23-8.33-10.97-3.99,1.08-7.15,1.94-10.32,2.8,0-.28,0-.57,0-.85,2.76-1.41,5.52-2.81,8.29-4.22.03-.47.05-.94.08-1.41-1.67-.14-3.52-.81-4.99-.33-9.93,3.27-19.78,6.78-29.65,10.23-3.03,1.06-6.03,2.17-9.05,3.26-.13-.31-.25-.63-.38-.94,1.81-.91,3.63-1.81,5.44-2.72-.08-.14-.16-.27-.24-.41l-5.54,1.37c-.13-.51-.26-1.03-.39-1.54,6.89-2.09,13.78-4.18,20.67-6.27-.36.53-.71,1.07-1.56,2.35,7.79-2.64,14.85-5.03,21.91-7.42-.08-.24-.15-.48-.23-.72-6.74,1.96-13.49,3.93-20.23,5.89,6.57-2.7,13.14-5.4,19.71-8.1l-.44-1.69c-2.65.52-5.29,1.04-7.94,1.56-.06-.13-.11-.27-.17-.4,1.82-.93,3.63-1.86,5.45-2.79-3.35-6.36-4.36-7.13-8.26-5.83-8.51,2.85-16.93,6.01-25.5,8.65-3.82,1.18-4.66,3.38-4.58,6.97.74,32.08,1.35,64.17,2.04,96.26.04,2.04.47,4.06.87,7.33,6.66-6.49,13.67-9.47,21.7-10.21.98-.09,1.8-1.88,2.7-2.88-.29-.32-.59-.65-.88-.97-7.05,2.35-14.1,4.7-21.15,7.05.24-1.56.75-2.56,1.54-2.9,5.59-2.43,11.11-5.11,16.89-6.98,9.29-3.01,18.76-5.46,28.16-8.15-6.89,2.48-13.78,4.96-20.67,7.43.12.41.23.83.35,1.24,7.31-1.84,14.63-3.66,21.94-5.51,2.73-.69,5.45-1.42,8.17-2.13-4.73,2.08-9.45,4.15-14.18,6.23.1.36.21.72.31,1.08,5.1-1.74,10.2-3.48,15.31-5.22.08.29.17.58.25.86-3.88,1.58-7.75,3.15-12.01,4.88,5.56,3.82,34.28-5.82,46.33-15.12-1.77-1.24-3.43-2.41-5.09-3.57ZM270.04,163.95c-3.57,3.74-7.15,7.49-10.91,11.43,10.04,3.72,19.19,7.1,28.34,10.51.92.34,1.87.73,2.61,1.33.44.36.5,1.18.73,1.79.46-.77,1.31-1.53,1.33-2.3.11-4.97.27-9.96-.14-14.9-.1-1.25-2-2.88-3.42-3.41-4.95-1.88-10.03-3.44-15.13-4.91-1.03-.3-2.33.35-3.51.56l.09-.09ZM261.03,204.16c1.9.4,3.89.55,5.67,1.23,8.28,3.17,16.5,6.49,24.73,9.76.29-.64.58-1.27.87-1.91-7.24-3.17-14.44-6.43-21.72-9.49-7.93-3.33-15.93-6.47-23.9-9.7l-.15-1.38c1.47-.28,3.19-1.2,4.36-.73,6.11,2.42,12.09,5.18,18.11,7.83,4.05,1.78,8.04,3.69,12.15,5.31,3.34,1.32,6.81,2.3,10.65,3.57v-5.89c-6.58-3.02-12.99-5.95-19.39-8.88l.46-1.06c6.29,2.69,12.58,5.37,18.9,8.07,1.78-6.61,1.38-8.7-1.87-10.03-10.83-4.42-21.67-8.8-32.49-13.2-5.78,6.72-11.8,13.73-18.21,21.19,7.18,3.12,13.84,6.06,20.56,8.89,1.59.67,3.15.76,2.25-1.85-.33-.58-.66-1.16-.99-1.73ZM87.8,134.93c3.67.68,7.33,1.37,11.4,2.13v-49.4c-.41-.16-.81-.33-1.22-.49-10.31,13.33-20.62,26.66-31.26,40.42,2.05.65,3.3,1,4.53,1.44,5.56,1.98,11.12,3.99,16.68,5.99-3.82-1.04-7.63-2.1-11.46-3.11-3.54-.93-7.11-1.8-10.66-2.7l-.41,1.76c11.15,3.42,22.29,6.83,33.44,10.25.2-.58.39-1.15.59-1.73-3.87-1.52-7.75-3.03-11.62-4.55ZM260.99,219.01c-9.5-3.81-19.01-7.62-28.78-11.53-2.06,2.38-4.39,5.09-6.82,7.9,21.77,9.69,43.03,19.15,64.29,28.61-.15.37-.3.74-.46,1.11-1.5-.54-3.04-.98-4.49-1.62-17.94-7.95-35.85-15.94-53.79-23.89-7.14-3.17-7.71-2.95-11.81,3.52,24.03,11.88,48.12,23.78,72.83,35.99,0-6.94.14-13.58-.13-20.2-.05-1.18-1.52-2.83-2.73-3.36-8.22-3.62-16.58-6.92-24.82-10.49-5.9-2.56-11.69-5.37-17.52-8.07.16-.33.31-.66.47-1,14.74,6.28,29.47,12.57,44.85,19.13-.93-3.47,2.03-6.94-2.64-8.78-15.31-6.04-30.55-12.26-45.8-18.46-2.02-.82-3.94-1.9-5.91-2.86.16-.34.32-.68.49-1.02,17.73,7.15,35.47,14.31,53.3,21.5,1.39-5.88.22-9.38-5.67-10.94-4.62-1.22-8.92-3.6-13.41-5.37-2.06-.81-4.21-1.39-6.32-2.08,4.17,2.74,8.52,4.63,12.84,6.59,4.05,1.84,8.06,3.76,12.09,5.65-.34.77-.67,1.54-1.01,2.31-17.27-7.06-34.54-14.13-52.14-21.33-1.37,1.57-2.83,3.26-4.71,5.42,5.57,2.59,10.53,4.88,15.47,7.22,4.14,1.96,8.24,4,12.36,6l-.03.04ZM8.82,213.11c-2.13,1.78-4.27,3.55-7.19,5.99,3.65,1.75,5.76,2.99,8.03,3.81,23.45,8.5,46.88,17.08,70.43,25.28,6.9,2.4,14.21,3.67,21.98,5.62-.69-24-1.33-46.53-1.96-68.7-18.5-6.83-36.31-13.4-54.13-19.98l.43-1.16c17.68,6.4,35.35,12.79,53.36,19.31v-11.82c-2.28-.77-4.29-1.45-6.31-2.14-.07.21-.14.41-.22.62,1.55.81,3.11,1.63,4.66,2.44-.17.33-.34.66-.5.99-15.13-5.82-30.26-11.63-45.39-17.45.02-.55.04-1.09.06-1.64,1.73-.09,3.67-.73,5.17-.18,12.02,4.39,23.96,9.02,35.94,13.53,2.07.78,4.23,1.32,6.34,1.97,1.25-4.28-.02-6.26-3.85-7.49-13.59-4.35-27.08-9.03-41.16-13.77-1.97,3.38-3.86,6.62-5.74,9.86l.09-.09c-.73.6-1.6,1.1-2.15,1.83-4.43,5.81-8.92,11.59-13.18,17.53-6.38,8.89-12.6,17.9-18.88,26.85,0,0,.09-.06.09-.06-2,2.98-4,5.96-6,8.94,0,0,.09-.08.09-.08ZM102.33,87.65v56.2c11.32-4.75,22.11-9.28,32.9-13.81-.09-.37-.18-.73-.27-1.1-2.21.2-4.42.41-7.25.67,1.99-1.13,3.47-1.97,5.28-3-10.12-12.86-20.03-25.46-30.66-38.97ZM245.49,47.29c-11.64-13.09-22.48-25.28-33.32-37.47-.39.15-.78.31-1.17.46v45.53c11.3-2.79,22.34-5.52,34.49-8.52ZM207.64,8.8c-10.08,12.78-19.43,24.63-29.22,37.04,10.2,2.56,19.29,4.85,29.22,7.35V8.8ZM321.26,118.57c.26.58.51,1.17.77,1.75,8.25-3.07,17.16-4.31,25.01-8.49-.19-.59-.37-1.19-.56-1.78-3.22.89-6.44,1.78-9.66,2.67-.09-.25-.18-.5-.28-.76,2.74-1.21,5.48-2.42,8.94-3.94-7.72-9.3-15.07-18.14-22.41-26.98-.4.18-.79.36-1.19.54,1.3,11.34-2.18,22.78.33,34.36,2.42-.34,3.92-.55,6.66-.93-3.33,1.55-5.47,2.55-7.61,3.56ZM99.27,154.97c1.12-7.04,1.02-7.91-2.17-9-9.75-3.33-19.54-6.56-29.38-9.62-1.28-.4-3.48-.05-4.34.84-2.23,2.32-3.96,5.13-6.13,8.08,14.47,4.82,28.29,9.42,42.1,14.02.24-.64.48-1.28.72-1.92-3.27-1.22-6.54-2.44-9.81-3.66.08-.26.15-.53.23-.79,2.82.66,5.63,1.32,8.78,2.06ZM295.07,106.47c8.64,3.11,16,5.77,24.03,8.67v-34.92c-8.17,8.92-15.68,17.13-24.03,26.25ZM277.97,155.45c4.41,1.75,8.36,3.32,12.3,4.89-.15.39-.3.78-.44,1.18-4.41-1.47-8.83-2.94-13.24-4.41-.11.37-.23.74-.34,1.1,5.03,1.94,10.05,3.89,16.01,6.19.4-8.09.77-15.46,1.14-22.82-.45-.13-.91-.26-1.36-.4-4.57,4.64-9.14,9.27-14.06,14.26ZM310,160.87c-4.55-6.19-8.78-11.96-13.9-18.93-.32,6.98-.57,12.44-.83,18.13,2.2-.52,3.55-.83,4.89-1.14-1.65,2.32-6.37,1.47-4.3,6.72,4.71-1.59,9.23-3.12,14.14-4.78ZM218.07,61.62l.39,1.32c8.06-1.82,16.13-3.58,24.16-5.47,4.97-1.17,5.59-2.84,3.21-7.64-.47,1.27-.96,2.6-1.45,3.94-.31-.09-.62-.17-.93-.26-.09-1.03-.18-2.06-.34-3.74-2.65,1.15-5.73,1.49-6.89,3.16-3.45,4.96-3.16,5.16-7.99,5.59.28-3.07,1.25-4.83,4.52-2.05.37-1.32.66-2.36.99-3.55-13.3,2.19-13.61,2.34-11.5,5.82,1.48-1.63,3.16-4.79,4.76.19-3.11.93-6.03,1.8-8.95,2.67ZM292.84,109.73c7.34,8.67,17.43,6.97,25.59,11.12-.17-4.75-15.09-10.97-25.59-11.12ZM186.68,57.07l2.15,2.09c.74-2.06,1.48-4.12,2.23-6.18l1.09,1.13c.31,1.35.63,2.7,1.19,5.13,2.06-2.27,3.53-3.88,5.22-5.74-10.56-3.34-11.04-3.17-11.87,3.57ZM290.87,167c.13-.39.26-.78.39-1.17-5.94-2.1-11.89-4.2-17.83-6.31-.22.63-.43,1.26-.65,1.89,6.03,1.86,12.06,3.72,18.09,5.58ZM205.89,60.05c.96-1.51,1.54-2.42,2.47-3.89-2.87-.8-5.26-1.47-7.99-2.23v5.47c1.44-1.38,2.3-2.19,3.37-3.22.76,1.36,1.3,2.34,2.15,3.87ZM379.39,205.05l-.22-1.08c-5.7,1.66-11.4,3.32-17.1,4.98.1.33.19.67.29,1,5.67-1.63,11.35-3.27,17.02-4.9Z"/>
      <path d="M271.76,93.37c.61.08,1.22.15,1.82.23.08.33.15.65.23.98-18.57,6.43-37.15,12.87-55.72,19.3l.48,1.6c19.27-5.75,38.53-11.5,57.8-17.25l.38,1.16c-10.23,3.17-20.4,6.59-30.71,9.45-9.91,2.74-19.63,6.77-29.94,7.46-.22-.87-.44-1.73-.67-2.6,7.69-2.85,15.37-5.73,23.08-8.54,8.55-3.11,17.13-6.14,25.69-9.2,2.52-.86,5.04-1.72,7.57-2.58Z"/>
      <path d="M285.36,111.42c-22.91,6.57-45.82,13.14-68.72,19.72-.14-.49-.29-.98-.43-1.47,22.92-6.52,45.84-13.05,68.76-19.57.13.44.26.88.39,1.33Z"/>
      <path d="M216.37,148.52c21.05-6.73,42.11-13.46,63.16-20.18.15.45.29.91.44,1.36-21.06,6.77-42.12,13.54-63.18,20.31-.14-.5-.29-1-.43-1.5Z"/>
      <path d="M216.06,124.77c21.48-6.21,42.96-12.43,64.44-18.64.11.36.22.73.33,1.09-21.43,6.39-42.85,12.78-64.28,19.17-.17-.54-.33-1.08-.5-1.62Z"/>
      <path d="M217.27,119.29c20.51-5.98,41.01-11.95,61.52-17.93l.4,1.36c-20.51,5.98-41.01,11.95-61.52,17.93-.13-.45-.26-.91-.4-1.36Z"/>
      <path d="M271.76,93.37c-2.52.86-5.04,1.72-7.57,2.58-14.34,4.64-28.69,9.29-43.03,13.93-1.95.63-3.91,1.26-5.86,1.89-.15-.42-.3-.85-.45-1.27,3.68-1.35,7.34-2.79,11.06-4.04,14.15-4.77,28.3-9.51,42.51-14.08.72-.23,3.42-3.05,3.34.99Z"/>
      <path d="M263.19,79.81c-15.73,5.95-31.45,11.9-47.18,17.85-.2-.53-.39-1.05-.59-1.58,15.74-5.91,31.49-11.81,47.23-17.72.18.48.36.96.54,1.44Z"/>
      <path d="M267.31,87.17c-17.1,6.13-34.19,12.26-51.29,18.38-.16-.43-.31-.86-.47-1.3,17.06-6.12,34.13-12.24,51.19-18.35.19.42.38.84.57,1.26Z"/>
      <path d="M242.61,185.79c-.15.2-.31.39-.48.58-7.39,3.16-14.78,6.34-22.19,9.48-1.05.45-2.2.67-4.29.24.96-1,1.73-2.47,2.9-2.93,5.95-2.31,11.98-4.46,18.04-6.46,1.9-.63,4-.63,6.01-.91Z"/>
      <path d="M286.5,115.57c-11.69,3.21-23.39,6.42-35.08,9.62-.11-.36-.21-.72-.32-1.09,11.63-3.34,23.25-6.68,34.88-10.01.17.49.35.99.52,1.48Z"/>
      <path d="M215.23,185.82c9.68-3.37,19.35-6.74,29.03-10.1.14.37.27.74.41,1.11-9.62,3.54-19.23,7.07-28.85,10.61-.2-.54-.39-1.07-.59-1.61Z"/>
      <path d="M270.9,87.82c-.37.69-.58,1.81-1.13,2.02-9.74,3.58-19.53,7.05-29.71,9.42,10.31-3.78,20.62-7.55,30.94-11.33,0,0-.1-.1-.1-.1Z"/>
      <path d="M246.17,135.92c-9.41,3.08-18.82,6.16-28.23,9.24-.15-.46-.3-.92-.45-1.38,9.43-3.01,18.86-6.02,28.3-9.03.13.39.26.79.38,1.18Z"/>
      <path d="M242.04,145.04c9.86-3.55,19.73-7.1,29.59-10.66.2.61.4,1.21.59,1.82-10.08,2.92-20.17,5.84-30.25,8.76l.06.08Z"/>
      <path d="M216.53,134.04l25.08-7.32c.11.39.22.77.33,1.16-8.31,2.59-16.63,5.19-24.94,7.78-.16-.54-.32-1.08-.47-1.62Z"/>
      <path d="M217.27,139.43c7.75-2.57,15.51-5.13,23.26-7.7.14.4.28.79.41,1.19-7.73,2.7-15.47,5.39-23.2,8.09-.16-.52-.32-1.05-.48-1.57Z"/>
      <path d="M241.96,81.96c-8.67,3.65-17.34,7.29-26.01,10.94l-.74-1.99c8.94-2.95,17.88-5.91,26.82-8.86l-.07-.08Z"/>
      <path d="M241.98,144.97c-8.23,3.14-16.46,6.29-24.68,9.43-.22-.64-.43-1.28-.65-1.92,8.46-2.48,16.93-4.96,25.39-7.44,0,0-.06-.08-.06-.08Z"/>
      <path d="M235.71,153.97c-6.32,2.4-12.64,4.79-18.96,7.19-.17-.46-.34-.91-.5-1.37,6.34-2.3,12.68-4.59,19.01-6.89.15.36.3.71.45,1.07Z"/>
      <path d="M249.19,62.57c-6.61,1.58-13.22,3.16-19.83,4.74-.09-.34-.17-.68-.26-1.01,6.56-1.76,13.13-3.52,19.69-5.28.13.52.27,1.04.4,1.56Z"/>
      <path d="M216.66,164.67c6.32-2.23,12.65-4.47,18.97-6.7.12.32.23.65.35.97-6.28,2.36-12.55,4.72-18.83,7.08-.16-.45-.33-.9-.49-1.35Z"/>
      <path d="M242.02,82.04c5.66-2.73,11.33-5.47,16.99-8.2.25.6.5,1.2.76,1.79-5.94,2.11-11.87,4.22-17.81,6.33,0,0,.07.08.07.08Z"/>
      <path d="M259.24,72.33c-3.92,1.16-7.83,2.31-11.98,3.54,1.37-3.97,6.87-5.39,12.04-3.46,0,0-.06-.08-.06-.08Z"/>
      <path d="M232.8,174.91c-5.28,1.9-10.57,3.81-15.85,5.71l-.43-1.19c5.28-1.93,10.55-3.85,15.83-5.78.15.42.3.84.45,1.25Z"/>
      <path class="cls-1" d="M154.92,145.06c-1.74-.88-3.53-1.68-5.2-2.67-3.65-2.16-7.24-4.42-10.86-6.64.34-.67.68-1.35,1.02-2.02,12.67,4.87,25.35,9.75,38.02,14.62,9.5,4.09,18.99,8.18,28.49,12.27.16-.36.31-.71.47-1.07-4.33-2.2-8.66-4.41-12.99-6.61h2.38c-7.52-3.96-15.31-6.91-23.12-9.77-.48-.18-1.22.33-1.83.53-2.12-.96-4.23-1.92-6.35-2.88-6.55-2.9-13.11-5.8-19.66-8.69-5.98-2.07-9.43-7.05-13.1-11.67-.87-1.09-.54-3.13-.77-4.74,1.44.09,3.01-.14,4.31.34,4.11,1.55,8.12,3.37,12.52,4.24-4.74-2.29-9.48-4.58-14.22-6.86l.63-1.41c2.7.98,5.39,1.97,8.09,2.95.12-.23.24-.46.36-.69-2.44-1.27-4.87-2.55-7.85-4.1,7.77-10.81,15.31-21.35,22.94-31.82.94-1.29,2.41-2.19,3.64-3.28,1.65,1.07,3.16,2.55,4.96,3.14,7.1,2.35,14.23,4.6,21.45,6.54,6.02,1.62,12.17,2.74,18.27,4.08.13-.58.27-1.15.4-1.73-4.85-1.45-9.66-3.04-14.56-4.31-10.18-2.64-20.41-5.1-30.62-7.64,1.27-.43,2.7-1.47,3.8-1.19,11.09,2.83,22.12,5.9,33.18,8.85,2.41.64,4.87,1.1,7.53.55-13.96-3.91-27.91-7.82-42.63-11.94,2.31-2.72,4.29-5.04,6.27-7.37,3.05,1.04,6.06,2.25,9.16,3.11,9.01,2.5,18.06,4.87,27.1,7.29-3.23-2.16-6.74-3.4-10.33-4.27-8.65-2.1-17.33-4.03-26-6.03,1.18-4.59,3.81-6.04,8.53-4.7,8.79,2.49,17.76,4.38,26.52,6.99,1.81.54,4.25,3.08,4.31,4.77.37,12.08.2,24.17.2,36.67-2.7-.63-4.87-1.14-7.72-1.81,2.61,2.98,9.58,1.27,6.78,8.23-16.04-4.99-32.12-10-48.2-15l-.19.44c15.58,6.58,31.16,13.16,46.75,19.73.21-.47.42-.94.63-1.4-4.07-1.81-8.14-3.63-12.21-5.44.12-.32.23-.64.35-.95,3.85,1.33,7.79,2.44,11.48,4.12,1.02.46,1.76,2.59,1.8,3.97.23,9.14.22,18.28.3,27.42.23,24.13.47,48.26.71,72.38.02,1.59,0,3.18,0,4.78-.41.32-.83.63-1.24.95-3.09-2.28-6.52-4.23-9.18-6.93-2.72-2.75-4.69-6.23-7.25-9.76h3.67c-.24-.35-.35-.72-.54-.77-8.1-1.99-10.39-9.58-14.6-15.26-3.33-4.5-4.74-10.35-9.77-13.68-.63-.42-.95-1.3-2.17-3.06,4.17,1.68,7.22,2.92,10.27,4.15.12-.31.24-.62.36-.93-2.38-1.11-4.75-2.23-7.14-3.34-6-2.77-6.38-3.51-8.95-10.97-.5-1.45-2.91-2.25-3.99-4.38l3.39.24c.03-.17.07-.35.1-.52-1.05-.45-2.1-.89-3.14-1.34-1.01-.44-2-.9-2.76-2.3,1.9.4,3.8.81,5.71,1.21-8.2-1.54-12.35-7.69-16.71-14.64,3.42.73,6.25,1.33,9.08,1.94,11.9,4.97,23.79,9.95,35.7,14.89.13.06.43-.29,1.55-1.09-12.83-4.71-25.08-9.21-37.32-13.71ZM172.78,108.62c5.16,2.63,10.32,5.25,15.48,7.88.24-.54.48-1.09.72-1.63-5.44-2.04-10.88-4.07-16.31-6.11-5.53-2.66-11.05-5.32-16.58-7.97-2.96-1.27-5.92-2.55-9.01-3.88-.55,1.9-.94,3.27-1.45,5.03,4.14,1.08,8.01,2.1,12.85,3.36-1.37-1.87-1.94-2.66-2.51-3.44,5.61,2.25,11.21,4.51,16.82,6.76ZM178.99,119.02l-17.64-8.34c-.23.56-.45,1.12-.68,1.68,6.12,2.2,12.24,4.41,18.36,6.61,9.02,4.54,18.05,9.08,27.07,13.62.24-.5.48-1,.72-1.51-2.6-1.2-5.18-2.45-7.82-3.58-6.66-2.86-13.34-5.66-20.02-8.49ZM176.11,71.57c6.4,2.29,12.01,4.37,17.67,6.31,3.42,1.17,6.83,1.88,8.74-2.79-8.39-2.41-16.52-5.98-26.4-3.51ZM145.55,126.96c-.18.43-.35.87-.53,1.3,11.48,4.65,22.96,9.3,34.44,13.95.16-.39.32-.78.48-1.17-11.46-4.69-22.92-9.39-34.39-14.08ZM205,71.13c.12-.47.24-.94.36-1.41-10.47-2.7-20.94-5.4-31.41-8.1-.11.43-.22.86-.33,1.29,10.46,2.74,20.92,5.48,31.37,8.22ZM180.58,87.67c-.12.34-.23.68-.35,1.02,8.68,3.07,17.35,6.14,26.03,9.21.17-.49.34-.99.51-1.48-8.73-2.92-17.45-5.84-26.18-8.75ZM165.44,99.18c.12-.33.25-.66.37-1-5.1-2.14-10.2-4.27-15.3-6.41-.26.73-.52,1.46-.78,2.19l15.71,5.21ZM205.61,177.77c.17-.45.33-.9.5-1.35-6.9-2.51-13.81-5.02-20.71-7.53l-.4,1.07c6.87,2.6,13.74,5.2,20.61,7.81ZM195.97,131.17c.16-.4.32-.8.48-1.19-7.17-3.06-14.35-6.12-21.52-9.17-.16.38-.32.75-.48,1.13,7.17,3.08,14.34,6.16,21.52,9.23ZM191.83,100.22c.14-.42.27-.84.41-1.26-7.18-2.38-14.35-4.76-21.53-7.15-.13.39-.25.78-.38,1.18,7.16,2.41,14.33,4.82,21.49,7.23ZM178.15,129.71c-.18.42-.36.84-.53,1.26,6.37,2.74,12.74,5.48,19.1,8.22.13-.32.27-.64.4-.96-6.32-2.84-12.65-5.68-18.97-8.52ZM205.9,139.02c.16-.38.31-.76.47-1.14l-19.29-7.99-.46,1.13c6.43,2.67,12.85,5.33,19.28,8ZM141.19,105.2c-.19.45-.38.9-.57,1.34,6.13,2.92,12.26,5.84,18.38,8.76.17-.36.34-.73.51-1.09-6.11-3-12.22-6.01-18.33-9.01ZM206.4,101.92c.13-.34.26-.68.39-1.01-6.03-2.32-12.07-4.64-18.1-6.97l-.37.97c6.03,2.34,12.06,4.67,18.08,7.01ZM204.79,209.29c.27-.42.54-.83.81-1.25-5.38-2.15-10.76-4.3-16.14-6.46-.13.31-.26.62-.39.92,5.24,2.26,10.48,4.52,15.71,6.78ZM160.85,78.9c-.15.41-.29.83-.44,1.24,5.56,1.67,11.11,3.34,16.67,5.01.1-.3.19-.61.29-.91-5.51-1.78-11.02-3.56-16.53-5.34Z"/>
      <path class="cls-1" d="M161.05,193.02c3.65-.99,7.39-1.74,10.92-3.06,2.62-.98,3.7-.2,4.23,2.21-.97.11-2,.04-2.89.36-14.52,5.17-29.05,10.33-43.53,15.63-7.71,2.82-15.32,5.9-22.97,8.87,1.53.73,2.75.5,3.9.08,19.59-7.28,39.18-14.58,58.75-21.92,2.28-.86,4.44-2.06,6.66-3.1,5.65,8.3,11.3,16.6,16.95,24.89-1.65.67-3.3,1.34-4.96,2-6.39,2.19-12.77,4.38-19.16,6.57-4.9,1.45-9.8,2.9-14.7,4.36-9.39,2.69-18.87,5.14-28.16,8.15-5.78,1.87-11.3,4.55-16.89,6.98-.79.34-1.3,1.34-1.54,2.9,7.05-2.35,14.1-4.7,21.15-7.05.29.32.59.65.88.97-.9,1-1.72,2.79-2.7,2.88-8.04.74-15.05,3.72-21.7,10.21-.4-3.27-.83-5.3-.87-7.33-.69-32.09-1.31-64.17-2.04-96.26-.08-3.59.76-5.8,4.58-6.97,8.57-2.64,16.99-5.8,25.5-8.65,3.9-1.31,4.91-.53,8.26,5.83-1.82.93-3.64,1.86-5.45,2.79.06.13.11.27.17.4,2.65-.52,5.29-1.04,7.94-1.56l.44,1.69c-6.57,2.7-13.14,5.4-19.71,8.1l.12-.1c-6.89,2.09-13.78,4.18-20.67,6.27.13.51.26,1.03.39,1.54l5.54-1.37c.08.14.16.27.24.41-1.81.91-3.63,1.81-5.44,2.72.13.31.25.63.38.94,3.01-1.09,6.02-2.2,9.05-3.26,9.87-3.45,19.72-6.96,29.65-10.23,1.47-.48,3.32.19,4.99.33-.03.47-.05.94-.08,1.41-2.76,1.41-5.52,2.81-8.29,4.22-11.6,3.72-23.2,7.43-34.8,11.15.98,1.06,1.64,1.13,2.24.95,7.46-2.17,14.97-4.21,22.35-6.64,3.53-1.16,6.81-3.05,10.2-4.61,3.17-.86,6.33-1.71,10.32-2.8,2.08,2.74,4.85,6.39,8.33,10.97-18.16,6.23-35.49,12.17-52.82,18.11.11.35.23.7.34,1.06,11.68-3.69,23.35-7.38,35.03-11.08-1.31.65-2.58,1.43-3.95,1.93-9.2,3.36-18.42,6.64-27.62,10-1.37.5-2.64,1.27-3.95,1.92,12.97-3.65,25.45-8.34,37.9-13.1.46-.18.64-1.08.95-1.64,5.27-1.07,10.53-2.13,16.77-3.4,1.1,2.39,2.49,5.42,3.88,8.44-1.28.18-2.62.15-3.81.57-16,5.64-31.98,11.33-47.97,17.03-2.38.85-4.73,1.77-7.09,2.67,1.22.93,2.14.94,2.95.65,15.01-5.44,30.02-10.87,45-16.4,3.68-1.36,7.24-3.05,10.86-4.59,3.35,1.63.82,2.3-.56,2.81-5.69,2.07-11.44,3.97-17.14,6.04-1.48.54-2.83,1.46-4.24,2.21-8.14,2.81-16.27,5.62-24.41,8.43.2.54.41,1.09.61,1.63,7.91-3.38,15.82-6.76,23.73-10.14,8.35-2.59,16.7-5.18,25.43-7.88.58,1.07,1.31,2.43,2.14,3.95-6.91,2-13.66,3.68-20.23,5.93-13.12,4.49-26.16,9.19-39.15,14.03-2.13.79-3.84,2.73-5.74,4.14.34.57.69,1.14,1.03,1.71,11.15-4.44,22.24-9.05,33.48-13.27,10.78-4.04,21.53-8.31,32.67-11.15.2.62.4,1.24.59,1.86-4.05,1.92-8.1,3.85-12.15,5.77-7.07,2.2-14.14,4.4-21.21,6.6.21.57.41,1.14.62,1.71,6.84-2.8,13.69-5.6,20.53-8.4ZM133.08,216.11c1.27-.32,2.63-.47,3.81-1,5.7-2.59,11.28-5.44,17.03-7.9,6.45-2.76,13.05-5.19,19.56-7.82,1.32-.53,2.55-1.31,3.83-1.97-.22-.41-.43-.82-.65-1.23-23.21,8.59-46.42,17.19-69.63,25.78.16.43.31.87.47,1.3,4.52-1.44,9.05-2.89,13.57-4.33-3.37,1.79-6.74,3.57-10.11,5.36.14.3.29.6.43.91,7.23-3.03,14.46-6.06,21.69-9.09ZM114.92,237.12c.16.38.31.76.47,1.14,16.45-6.21,32.9-12.43,49.36-18.64-.25-.66-.5-1.31-.75-1.97-16.68,5.66-33.96,9.72-49.08,19.47ZM141.36,220.53c-.22-.58-.44-1.16-.67-1.74-11.28,3.94-22.55,7.87-33.94,11.85.09,1.12.2,2.37.34,4.02,11.52-5.33,23.8-7.65,34.27-14.13ZM106.39,192.03l.44,1.52c14.9-5.24,29.81-10.47,44.71-15.71-.13-.38-.26-.77-.39-1.15-14.92,5.12-29.84,10.23-44.76,15.35ZM106.78,177.53c.14.47.27.95.41,1.42,11.99-3.96,23.97-7.92,35.96-11.88l-.37-1.12c-12,3.86-24,7.72-36,11.58ZM175.19,213.93c.29.56.58,1.13.87,1.69,6.12-.17,8.92-1.67,10.54-6.39-4.19,1.72-7.8,3.21-11.41,4.7ZM159.83,212.81c.17.53.35,1.06.52,1.6,6.94-2.47,13.89-4.95,20.83-7.42-.11-.35-.23-.71-.34-1.06-7,2.29-14.01,4.59-21.01,6.88ZM106.41,213.15c.11.52.22,1.03.33,1.55,6.21-2.58,12.42-5.15,18.63-7.73-.14-.37-.28-.73-.42-1.1-6.18,2.43-12.35,4.85-18.53,7.28ZM105.72,173.94c.15.46.3.92.45,1.38,5.23-1.71,10.46-3.41,15.69-5.12-.13-.4-.26-.8-.39-1.2-5.25,1.64-10.5,3.29-15.75,4.93Z"/>
      <path class="cls-1" d="M48.75,158.2c1.89-3.24,3.78-6.49,5.75-9.87,14.08,4.74,27.57,9.41,41.16,13.77,3.83,1.23,5.1,3.21,3.85,7.49-2.11-.65-4.27-1.19-6.34-1.97-11.98-4.51-23.92-9.14-35.94-13.53-1.5-.55-3.44.09-5.17.18-.02.55-.04,1.09-.06,1.64,15.13,5.82,30.26,11.63,45.39,17.45.17-.33.34-.66.5-.99-1.55-.81-3.11-1.63-4.66-2.44.07-.21.14-.41.22-.62,2.01.68,4.03,1.36,6.31,2.14v11.82c-18.01-6.52-35.68-12.91-53.36-19.31l-.43,1.16c17.82,6.58,35.63,13.15,54.13,19.98.63,22.18,1.28,44.71,1.96,68.7-7.77-1.95-15.07-3.21-21.98-5.62-23.56-8.2-46.98-16.78-70.43-25.28-2.27-.82-4.38-2.06-8.03-3.81,2.92-2.43,5.06-4.21,7.2-5.99,1.12.69,2.15,1.59,3.35,2.04,23.03,8.56,46.07,17.09,69.13,25.57,4.74,1.75,9.57,3.28,14.35,4.92.14-.38.28-.76.42-1.14-1.47-.62-2.91-1.3-4.4-1.85-21.68-7.92-43.35-15.86-65.07-23.68-5.89-2.12-11.92-3.86-17.89-5.78,2-2.98,4-5.96,6.01-8.95,27.81,9.82,55.61,19.65,83.42,29.47-.07-1.28-.52-1.7-1.05-1.89-25.7-9.08-51.4-18.16-77.13-27.14-1.62-.57-3.55-.27-5.33-.38,6.29-8.96,12.5-17.96,18.88-26.85,4.26-5.94,8.74-11.72,13.18-17.53.56-.73,1.43-1.22,2.16-1.83.96.74,1.92,1.49,2.87,2.24h-2.88c-.06.36-.12.73-.18,1.09,16.42,6.34,32.84,12.67,49.26,19.01.18-.4.36-.81.54-1.21-1.15-.76-2.29-1.51-3.44-2.27-8.33-3.47-16.66-6.94-24.99-10.41-7.1-2.78-14.2-5.56-21.3-8.35ZM63.2,182.77c-8.03-3.05-16.05-6.11-24.08-9.16-.2.57-.4,1.15-.6,1.72,8.11,2.62,16.22,5.24,24.33,7.85l34.45,13.4c.23-.61.45-1.22.68-1.83-11.59-4-23.18-7.99-34.77-11.99ZM95.96,207.95c.89-.13,1.79-.25,2.68-.38.09-.41.18-.82.28-1.22-22.35-7.89-44.7-15.78-67.05-23.67-.14.39-.28.79-.43,1.18,5.88,2.4,11.75,4.8,17.63,7.2-6.48-1.95-12.95-3.89-19.43-5.84-.11.37-.22.73-.33,1.1,22.91,8.22,45.81,16.44,68.72,24.66.17-.4.34-.8.5-1.2-.86-.61-1.71-1.22-2.57-1.84ZM22.18,199.12c-.65.28-1.31.57-3.08,1.34,26.57,9.23,52,18.06,77.43,26.89-.4-1.46-1.15-2.07-2.01-2.37-13.62-4.77-27.29-9.41-40.88-14.26-10.57-3.77-21.05-7.79-31.57-11.7,2.87.79,5.79,1.44,8.61,2.4,21.53,7.39,43.03,14.85,64.55,22.26,1.04.36,2.19.42,3.28.62-.42-1.37-1.06-1.79-1.78-2.04-14.62-4.99-29.25-9.96-43.88-14.92-9.44-3.2-18.88-6.4-28.34-9.54-1.04-.34-3.32-2.24-2.33,1.31ZM13.94,208.55c-.19.51-.38,1.01-.56,1.52,28.02,10.44,56.03,20.88,84.05,31.32.18-.48.36-.96.53-1.44-28.01-10.47-56.01-20.94-84.02-31.4ZM9.57,215.78c-.18.51-.36,1.02-.54,1.54,27.52,10.03,55.04,20.07,82.55,30.1.17-.46.33-.92.5-1.38-27.51-10.08-55.01-20.17-82.52-30.25ZM95.09,218.67c.18-.5.35-1.01.53-1.51-23.31-8.24-46.62-16.48-69.92-24.72-.19.54-.37,1.08-.56,1.61,23.32,8.21,46.64,16.41,69.96,24.62ZM94.77,214.97l.75-1.42c-22.52-8-45.03-16-67.55-23.99-.18.5-.36,1-.54,1.5,22.44,7.97,44.89,15.94,67.33,23.91ZM97.37,199.34c.18-.52.37-1.05.55-1.57-20.22-7.1-40.44-14.2-60.66-21.3-.16.47-.33.94-.49,1.41,20.2,7.15,40.4,14.31,60.6,21.46ZM97.39,204.36c.16-.45.33-.91.49-1.36-21.18-7.84-42.36-15.69-63.54-23.53-.16.44-.31.87-.47,1.31,21.17,7.86,42.35,15.72,63.52,23.59ZM42.35,169.14c-.17.47-.35.93-.52,1.4,18.61,6.87,37.21,13.74,55.82,20.61.18-.5.37-1,.55-1.49-18.62-6.84-37.24-13.68-55.85-20.52ZM44.09,166.64c-.16.44-.33.89-.49,1.33,18.12,6.58,36.23,13.17,54.35,19.75.18-.5.36-1,.55-1.49-18.14-6.53-36.27-13.06-54.41-19.59ZM49.09,218.96c-.15.41-.29.82-.44,1.24,15.48,5.39,30.97,10.78,46.45,16.18.16-.45.32-.89.47-1.34-15.5-5.36-30.99-10.71-46.49-16.07ZM15.38,205.73c-.16.43-.32.86-.49,1.29,6.34,2.4,12.67,4.79,19.01,7.19.15-.41.31-.82.46-1.23-6.33-2.42-12.65-4.83-18.98-7.25Z"/>
      <path class="cls-1" d="M342.01,204c2.24,2.33,4.49,4.67,7.25,7.55-6.65,2.37-12.37,4.41-18.09,6.45l.31,1.01c5.92-1.9,11.85-3.8,18.27-5.86,1.16,2.03,2.29,4,3.42,5.97-.66.01-1.37-.12-1.97.07-17.85,5.64-35.69,11.31-53.52,17.01-.43.14-.7.76-1.76,1.98,1.82-.42,2.59-.54,3.32-.78,13.06-4.27,26.14-8.5,39.16-12.87,4.96-1.66,9.8-3.66,14.69-5.5,4.03,4.99,8.06,9.97,11.59,14.34-13.05,7.16-25.48,13.99-37.92,20.81-5.8,3.18-11.51,6.57-17.46,9.46-7.92,3.85-14.9-.49-14.91-8.96-.02-16.61.37-33.24-.28-49.83-.29-7.4,1.6-11.96,8.95-13.68,7.21-2.33,14.42-4.66,21.63-6.99l-.83-2.43c-6.95,2.52-13.91,5.03-20.86,7.55-2.45.71-4.91,1.42-7.69,2.23-2.71-4.61-1.77-7.44,4.03-9.46,3.95-1.38,7.9-2.75,11.85-4.13-.1-.31-.2-.62-.3-.93-5.25,1.57-10.5,3.14-16.48,4.93.71-1.86,1.15-3.02,1.59-4.17,1.04.12,2.19.58,3.1.28,5.91-1.97,11.77-4.11,18.76-6.58-2.42-.44-3.64-.65-4.85-.87l2.98-2.56c5.48,6.73,10.97,13.45,15.95,19.57-11.66,4.03-22.72,7.69-33.61,11.82-1.54.58-2.2,3.46-2.49,6.24,8.42-2.47,16.84-4.95,25.25-7.42-.1-.36-.2-.71-.3-1.07-6.72,1.95-13.44,3.9-20.16,5.85-.12-.34-.24-.68-.36-1.02,7.74-2.91,15.42-5.98,23.24-8.64,3.37-1.15,8.51-3.25,10.23-1.8,3.69,3.11,5.67,8.24,8.35,12.54-2.27-.13-4.75-.93-6.76-.27-10.72,3.48-21.33,7.27-31.94,11.08-2.27.82-4.37,2.15-6.54,3.24.98,1.16,1.6,1.4,2.09,1.24,10.85-3.5,21.73-6.94,32.51-10.63,3.64-1.25,7.05-3.15,10.57-4.75ZM313.74,225.4c-5.73,1.25-11.45,2.51-17.46,3.82.89,1.79,1.38,2.77,1.87,3.75,2.98-1.13,5.91-2.19,8.79-3.37,2.98-1.22,5.92-2.57,8.87-3.87,7.06-1.81,14.13-3.61,21.19-5.42-5.1-.31-10-.02-14.71,1.09-3,.71-5.71,2.62-8.56,3.99ZM359.5,233.28c-.13-.42-.25-.84-.38-1.26-20.43,7.03-40.87,14.06-61.3,21.09.18.53.37,1.05.55,1.58,20.38-7.14,40.75-14.27,61.13-21.41ZM297.32,248.21c.15.43.3.87.45,1.3,19.94-6.83,39.89-13.65,59.83-20.48-.16-.45-.31-.89-.47-1.34-19.94,6.84-39.87,13.68-59.81,20.52ZM324.62,233.98c-.31-.27-.62-.53-.93-.8-.33.03-.68-.01-.98.09-7.69,2.5-15.41,4.95-23.05,7.61-1.07.37-1.78,1.77-2.66,2.7.35.35.7.71,1.05,1.06,7.83-2.58,15.68-5.09,23.46-7.82,1.22-.43,2.08-1.87,3.11-2.84ZM343.98,209.58c-.16-.39-.32-.79-.48-1.18-15.7,5.47-31.39,10.94-47.09,16.41.16.44.31.88.47,1.32,15.7-5.52,31.4-11.03,47.1-16.55ZM334.06,247c-.15-.44-.31-.88-.46-1.32-11.14,4.02-22.28,8.04-33.42,12.06.16.47.33.93.49,1.4,11.13-4.05,22.26-8.09,33.39-12.14ZM296.35,186.89c.18.49.37.97.55,1.46,8.07-3.06,16.14-6.13,24.22-9.19-.16-.42-.32-.84-.48-1.26-8.1,3-16.19,5.99-24.29,8.99ZM295.45,211.98c.22.51.44,1.03.67,1.54l18.63-6.87c-.14-.39-.28-.78-.41-1.17l-18.89,6.5ZM296.53,195.45c.13.46.25.92.38,1.37,5.69-1.92,11.38-3.84,17.07-5.76l-.33-1c-5.71,1.8-11.41,3.59-17.12,5.39Z"/>
      <path class="cls-1" d="M362.05,135.98c12.2,15.85,24.41,31.7,36.59,47.57.28.36.26.94.38,1.42,0,0,.08-.07.08-.07-17.24,5.03-34.5,9.96-51.68,15.19-2.94.89-4.42.74-5.93-2.11-1.91-3.61-4.43-6.89-6.68-10.31,11.52-3.63,23.04-7.26,34.56-10.9-.83-1.35-1.49-1.73-1.98-1.58-9.59,2.94-19.19,5.87-28.72,9.01-1.54.51-2.74,2.03-4.1,3.08-7.45-6.54-11.67-14.16-11.06-24.68.74-12.71.17-25.5.17-39.26,6.45-2.05,14.26-4.75,22.23-6.89,1.44-.38,3.49,1.55,5.27,2.42-.13.5-.26,1-.4,1.51-8.64,2.76-17.27,5.53-25.91,8.29.14.49.28.97.42,1.46,3.3-1,6.61-1.97,9.9-3.02,3.48-1.11,6.92-2.36,10.4-3.47,7.47-2.37,8.26-1.96,11.56,5.61-4.69,1.93-9.39,3.86-14.09,5.78-6.2,1.68-13.39,1.48-17.38,8.89,11.01-3.6,21.32-6.97,31.63-10.34l-.19-.77c-1.55.25-3.1.5-4.66.76,5.47-3.64,5.62-3.6,9.64,2.48-11.89,3.82-23.78,7.63-35.66,11.45.11.34.21.68.32,1.02,1.41-.16,2.82-.33,4.24-.49l-.03-.07c-1.26.86-2.52,1.72-3.78,2.58.12.3.24.6.37.89,6.95-2.49,13.9-4.99,20.85-7.48,2.55-1.3,5.1-2.6,7.65-3.9,2-1.36,3.99-2.71,5.99-4.07ZM385.51,178.52c1.52-.96,3.04-1.92,4.55-2.89l-.47-1.02c-7.71,2.58-15.42,5.16-23.13,7.75.16.6.33,1.21.49,1.81,2.04-.5,4.07-.99,6.11-1.49,6.03-1.3,12.05-2.59,18.08-3.89-.11-.45-.23-.9-.34-1.35-1.76.36-3.53.72-5.29,1.08ZM340.03,160.99l-4.05,2.58c.08.23.17.45.25.68,12.14-4.01,24.28-8.03,37.77-12.49-1.7-1.16-2.91-2.57-3.56-2.34-6.18,2.15-12.27,4.58-18.38,6.93-8.21,2.09-16.42,4.17-24.63,6.26.12.45.24.89.36,1.34,4.08-.98,8.16-1.97,12.24-2.95ZM379.84,163.95c.06-.81.13-1.62.19-2.42-1.78-.17-3.7-.87-5.31-.43-11.05,3.05-22.01,6.43-33.06,9.5-4.81,1.34-9.75,2.21-14.63,3.29.1.41.19.82.29,1.22,17.51-3.72,35.01-7.45,52.52-11.17ZM333.75,156.08l-.17-.96c10.64-3.71,21.28-7.41,32.85-11.44-1.5-.49-1.85-.74-2.09-.66-11.82,3.94-23.66,7.85-35.42,11.99-1.06.37-1.6,2.24-2.38,3.41.32.25.64.51.97.76,8.76-2.7,17.51-5.39,26.27-8.09-.12-.39-.24-.78-.36-1.17-6.56,2.05-13.12,4.1-19.68,6.15ZM338.88,190.99c5.23,2.9,19.17-1.58,24.84-7.78-8.77,2.75-16.24,5.08-24.84,7.78ZM393,182.99c-.11-.36-.22-.73-.33-1.09-11.07,3.38-22.15,6.76-33.22,10.14.1.34.21.67.31,1.01,11.08-3.35,22.17-6.7,33.25-10.06ZM355.26,163.1c-.13-.42-.27-.84-.4-1.26-7.56,2.53-15.12,5.07-22.69,7.6.11.36.23.72.34,1.09,7.58-2.48,15.16-4.95,22.74-7.43Z"/>
      <path class="cls-1" d="M261.02,218.98c-4.12-2-8.22-4.04-12.36-6-4.94-2.34-9.9-4.62-15.47-7.22,1.88-2.16,3.35-3.85,4.71-5.42,17.6,7.2,34.87,14.26,52.14,21.33.34-.77.67-1.54,1.01-2.31-4.03-1.89-8.04-3.81-12.09-5.65-4.31-1.96-8.66-3.86-12.84-6.59,2.11.69,4.26,1.27,6.32,2.08,4.48,1.77,8.79,4.15,13.41,5.37,5.9,1.55,7.07,5.06,5.67,10.94-17.83-7.19-35.57-14.35-53.3-21.5-.16.34-.32.68-.49,1.02,1.97.96,3.88,2.03,5.91,2.86,15.25,6.2,30.49,12.42,45.8,18.46,4.67,1.84,1.71,5.31,2.64,8.78-15.38-6.56-30.12-12.84-44.85-19.13-.16.33-.31.66-.47,1,5.84,2.7,11.62,5.51,17.52,8.07,8.24,3.57,16.6,6.87,24.82,10.49,1.21.53,2.68,2.18,2.73,3.36.26,6.62.13,13.26.13,20.2-24.71-12.21-48.8-24.12-72.83-35.99,4.1-6.47,4.67-6.68,11.81-3.52,17.93,7.95,35.85,15.94,53.79,23.89,1.45.64,2.99,1.08,4.49,1.62.15-.37.3-.74.46-1.11-21.26-9.46-42.52-18.92-64.29-28.61,2.43-2.81,4.76-5.52,6.82-7.9,9.78,3.92,19.28,7.73,28.78,11.53,9.44,4.42,18.87,8.85,28.31,13.27.22-.47.44-.93.67-1.4-1.82-.91-3.59-1.94-5.47-2.69-7.8-3.12-15.64-6.15-23.47-9.22ZM261.87,228.11c9.31,4.32,18.62,8.65,27.92,12.97.22-.5.45-.99.67-1.49-5.85-2.55-11.65-5.2-17.55-7.6-3.63-1.47-7.41-2.54-11.13-3.79-10.07-5.29-20.15-10.59-30.22-15.88-.29.6-.58,1.21-.87,1.81,10.39,4.66,20.78,9.32,31.17,13.98ZM289.01,252.24c.15-.39.31-.77.46-1.16-5.48-2.43-10.97-4.86-16.45-7.29-.16.37-.32.74-.48,1.11,5.49,2.45,10.98,4.89,16.47,7.34Z"/>
      <path class="cls-1" d="M370.06,234.97c-1.99-2.34-3.99-4.67-5.98-7.01,15.68-5.45,31.36-10.91,47.04-16.36-.08-.39-.16-.78-.24-1.17-1.53.17-3.06.34-4.59.51-7.46,2.36-14.91,4.73-22.37,7.09,0,0,.14-.09.14-.09-6.42,2.03-12.91,3.85-19.23,6.17-2.93,1.08-4.7.85-5.81-2.14,0,0-.11.05-.11.05,12.47-4.36,24.95-8.73,37.42-13.09,4.87-2.02,9.75-4.05,14.62-6.07.34-3.76-1.95-1.48-2.99-1.16-15.72,4.85-31.43,9.74-47.1,14.75-1.44.46-2.62,1.7-3.93,2.58,0,0,.07-.09.07-.09-1.21-1.27-2.43-2.55-4.21-4.42,18.18-6,36.11-10.3,52.94-17.59-.2-.59-.39-1.19-.59-1.78-4.22,1.2-8.44,2.36-12.65,3.6-13.21,3.91-26.39,7.88-39.62,11.71-1.05.3-2.35-.28-3.54-.44l-.15-1.57c5.73-1.81,11.42-3.71,17.18-5.41,11.16-3.29,22.36-6.42,33.51-9.73,1.49-.44,2.78-1.58,4.16-2.39l-.09.11c6.61,7.76,13.21,15.52,20.65,24.27-9.68,3.17-18.15,5.92-26.6,8.71-8.52,2.81-17.04,5.62-25.51,8.57-1.02.35-1.71,1.63-2.55,2.47,0,0,.11-.1.11-.1ZM386.77,224.83c-.11-.34-.22-.68-.33-1.02-6.28,2.05-12.57,4.11-18.85,6.16.13.4.26.8.39,1.2,6.26-2.12,12.53-4.23,18.79-6.35Z"/>
      <path class="cls-1" d="M102.33,87.65c10.63,13.51,20.54,26.11,30.66,38.97-1.81,1.03-3.29,1.87-5.28,3,2.83-.26,5.04-.47,7.25-.67.09.37.18.73.27,1.1-10.79,4.53-21.58,9.05-32.9,13.81v-56.2Z"/>
      <path class="cls-1" d="M87.91,135.01c-5.56-2-11.11-4.01-16.67-5.99-1.23-.44-2.48-.79-4.53-1.44,10.64-13.76,20.95-27.09,31.26-40.42.41.16.81.33,1.22.49v49.4c-4.07-.76-7.73-1.44-11.4-2.13l.12.08Z"/>
      <path class="cls-1" d="M245.49,47.29c-12.15,3-23.19,5.73-34.49,8.52V10.28c.39-.15.78-.31,1.17-.46,10.84,12.19,21.68,24.38,33.32,37.47Z"/>
      <path class="cls-1" d="M262.01,205.9c.9,2.62-.66,2.53-2.25,1.85-6.71-2.83-13.38-5.77-20.56-8.89,6.41-7.46,12.43-14.47,18.21-21.19,10.82,4.39,21.66,8.78,32.49,13.2,3.25,1.33,3.64,3.42,1.87,10.03-6.32-2.7-12.61-5.39-18.9-8.07l-.46,1.06c6.4,2.93,12.81,5.87,19.39,8.88v5.89c-3.84-1.27-7.31-2.25-10.65-3.57-4.11-1.62-8.1-3.53-12.15-5.31-6.02-2.65-11.99-5.41-18.11-7.83-1.17-.46-2.89.45-4.36.73l.15,1.38c7.97,3.23,15.97,6.37,23.9,9.7,7.28,3.06,14.48,6.32,21.72,9.49-.29.64-.58,1.27-.87,1.91-8.24-3.27-16.46-6.59-24.73-9.76-1.79-.68-3.78-.84-5.67-1.23-4.1-4.39-10.55-6.58-15.34-3.82,6.12,2.08,11.22,3.82,16.33,5.56ZM271.26,189.06c-.09.34-.17.67-.26,1.01,6.57,2.36,13.13,4.72,20.28,7.29-1.33-3.83-21.97-14.05-28.62-14.74,4.64,2.36,8.81,4.48,12.97,6.59-.09.23-.18.46-.27.68-1.36-.27-2.73-.55-4.09-.82Z"/>
      <path class="cls-1" d="M207.64,8.8v44.38c-9.93-2.5-19.02-4.78-29.22-7.35,9.79-12.41,19.14-24.26,29.22-37.04Z"/>
      <path class="cls-1" d="M321.26,118.57c2.14-1,4.29-2,7.61-3.56-2.73.38-4.24.59-6.66.93-2.51-11.57.97-23.01-.33-34.36.4-.18.79-.36,1.19-.54,7.34,8.84,14.69,17.68,22.41,26.98-3.46,1.52-6.2,2.73-8.94,3.94.09.25.18.5.28.76,3.22-.89,6.44-1.78,9.66-2.67.19.59.37,1.19.56,1.78-7.86,4.18-16.76,5.42-25.01,8.49-.26-.58-.51-1.17-.77-1.75Z"/>
      <path class="cls-1" d="M299.93,135.34c-.69-.6-1.38-1.2-2.07-1.8-3.93-1.5-7.86-3-11.79-4.51,1.19-.55,2.58-1.82,3.53-1.55,8.77,2.52,17.43,5.42,26.2,7.94,3.76,1.08,5.59,2.96,5.16,7.03-.29,2.76-.06,5.57-.06,8.63-2.58-.37-4.63-.66-6.68-.95-.07.28-.15.57-.22.85,2.11.82,4.23,1.64,6.85,2.65.29,4.91.61,10.11.92,15.32-.83.05-1.33.19-1.42.06-3.71-5.47-8.17-3.52-12.84-1.53-3.04,1.3-6.29,2.14-9.49,3.02-1.06.29-2.26.05-3.4.05-.12-.7-.24-1.4-.35-2.1,8.21-2.03,16.42-4.07,25.07-6.21-2.17-.72-5.26-.84-5.84-2.1-3.8-8.33-12.23-13.05-16.17-21.57.8-.91,1.75-1.98,2.7-3.06,5.98,2.63,11.96,5.25,17.94,7.87.36-.34.72-.68,1.09-1.02-.6-1.17-.99-3.16-1.82-3.37-5.72-1.43-11.53-2.49-17.31-3.67Z"/>
      <path class="cls-1" d="M99.27,154.97c-3.15-.74-5.97-1.4-8.78-2.06-.08.26-.15.53-.23.79,3.27,1.22,6.54,2.44,9.81,3.66-.24.64-.48,1.28-.72,1.92-13.82-4.6-27.64-9.2-42.1-14.02,2.17-2.94,3.89-5.76,6.13-8.08.86-.89,3.06-1.24,4.34-.84,9.84,3.06,19.63,6.29,29.38,9.62,3.19,1.09,3.3,1.96,2.17,9Z"/>
      <path class="cls-1" d="M295.07,106.47c8.35-9.12,15.86-17.32,24.03-26.25v34.92c-8.03-2.9-15.4-5.55-24.03-8.67Z"/>
      <path class="cls-1" d="M269.95,164.04c1.18-.21,2.48-.86,3.51-.56,5.09,1.47,10.17,3.03,15.13,4.91,1.42.54,3.32,2.16,3.42,3.41.41,4.94.25,9.93.14,14.9-.02.78-.87,1.54-1.33,2.3-.23-.61-.29-1.43-.73-1.79-.74-.6-1.7-.99-2.61-1.33-9.15-3.41-18.3-6.8-28.34-10.51,3.76-3.94,7.34-7.68,10.91-11.43.09.49.04,1.31.28,1.41,6.52,2.64,13.08,5.22,19.62,7.8.2-.5.39-1,.59-1.51-6.86-2.54-13.73-5.07-20.59-7.61ZM268.2,170.49c-.15.38-.29.75-.44,1.12,7.15,3.01,14.31,6.02,21.46,9.04.18-.46.36-.92.53-1.37-7.18-2.93-14.37-5.86-21.55-8.79ZM274.43,168.73c-.19.41-.39.82-.58,1.24,5.41,2.31,10.82,4.61,16.23,6.92.18-.43.36-.86.54-1.28-5.4-2.29-10.79-4.58-16.19-6.87Z"/>
      <path class="cls-1" d="M194.96,220.07c1.66,1.16,3.32,2.33,5.09,3.57-12.05,9.3-40.77,18.94-46.33,15.12,4.25-1.73,8.13-3.3,12.01-4.88-.08-.29-.17-.58-.25-.86-5.1,1.74-10.2,3.48-15.31,5.22-.1-.36-.21-.72-.31-1.08,4.73-2.08,9.45-4.15,14.18-6.23,0,0-.11.1-.11.1,4.46-1.24,9.02-2.2,13.36-3.78,6.02-2.19,11.86-4.84,17.78-7.3l-.1.11Z"/>
      <path class="cls-1" d="M404.05,190.93c-16.75,4.88-33.49,9.78-50.25,14.63-3.21.93-6.89,3.09-8.33-2.82,1.13-.58,2.36-1.22,4.47-2.3-.94,1.51-1.36,2.17-2.09,3.34,13.57-4.14,26.57-8.11,39.56-12.06,2.54-.77,5.05-1.87,7.65-2.16,3.07-.35,4.16-1.83,4.04-4.65,0,0-.08.07-.08.06,1.65,2.02,3.29,4.04,4.94,6.07,0,0,.09-.11.09-.11Z"/>
      <path class="cls-1" d="M286.07,129.03c3.93,1.5,7.86,3,11.79,4.51-3.98-.55-7.97-1.1-11.95-1.65-.09.18-.19.37-.28.55,2.15,1.24,4.31,2.49,6.76,3.9-1.49,1.72-2.65,3.05-3.81,4.38-2.22-.53-4.26-1.02-6.3-1.51-.07.17-.15.35-.22.52,1.31.77,2.62,1.53,5.16,3.02-2.99.79-4.96,1.31-7.38,1.94,1.04.29,1.85.52,3.99,1.12h-5.23c.32.42.64.84.95,1.26-.93,1.14-1.86,2.28-2.78,3.43-1.65,2.05-3.24,4.14-4.97,6.13-1.18,1.37-2.55,2.58-3.83,3.86-.43-.35-.85-.69-1.28-1.04,2.79-5.5,5.58-10.99,8.37-16.49,0,0-.11.12-.11.12,3.71-4.69,7.42-9.37,11.12-14.06Z"/>
      <path class="cls-1" d="M277.97,155.45c4.92-4.99,9.49-9.62,14.06-14.26.45.13.91.26,1.36.4-.37,7.36-.73,14.73-1.14,22.82-5.96-2.3-10.98-4.25-16.01-6.19.11-.37.23-.74.34-1.1,4.41,1.47,8.83,2.94,13.24,4.41.15-.39.3-.78.44-1.18-3.95-1.57-7.89-3.14-12.3-4.89Z"/>
      <path class="cls-1" d="M188.1,218.98c1.65-.67,3.3-1.34,4.96-2,.63,1.03,1.27,2.07,1.9,3.1,0,0,.1-.11.1-.11-10.38,3.69-20.76,7.38-31.14,11.08,0,0,.11-.1.11-.1-2.72.71-5.44,1.44-8.17,2.13-7.31,1.85-14.63,3.67-21.94,5.51-.12-.41-.23-.83-.35-1.24,6.89-2.48,13.78-4.96,20.67-7.43,4.9-1.45,9.8-2.9,14.7-4.36,6.39-2.19,12.77-4.38,19.16-6.57Z"/>
      <path class="cls-1" d="M310,160.87c-4.91,1.66-9.43,3.18-14.14,4.78-2.07-5.25,2.65-4.39,4.3-6.72-1.34.31-2.69.63-4.89,1.14.26-5.69.51-11.15.83-18.13,5.11,6.96,9.35,12.73,13.9,18.93Z"/>
      <path class="cls-1" d="M291.96,121.01c.23-3.91,2.1-5.24,5.95-4.07,6.04,1.84,12.13,3.54,18.22,5.21,4.16,1.14,3.94,4.22,3.8,7.52-9.56-2.97-18.82-5.85-28.08-8.72l.11.06Z"/>
      <path class="cls-1" d="M218.07,61.62c2.92-.87,5.84-1.74,8.95-2.67-1.6-4.99-3.29-1.83-4.76-.19-2.11-3.48-1.79-3.64,11.5-5.82-.33,1.19-.62,2.23-.99,3.55-3.27-2.79-4.24-1.02-4.52,2.05,4.83-.43,4.54-.63,7.99-5.59,1.16-1.67,4.24-2.01,6.89-3.16.15,1.69.24,2.71.34,3.74.31.09.62.17.93.26.49-1.34.98-2.68,1.45-3.94,2.38,4.8,1.76,6.47-3.21,7.64-8.04,1.89-16.11,3.65-24.16,5.47l-.39-1.32Z"/>
      <path class="cls-1" d="M292.84,109.73c10.5.15,25.42,6.36,25.59,11.12-8.15-4.15-18.25-2.44-25.59-11.12Z"/>
      <path class="cls-1" d="M406.29,210.95c1.53-.17,3.06-.34,4.59-.51.08.39.16.78.24,1.17-15.68,5.45-31.36,10.91-47.04,16.36.16-.78.1-2.11.51-2.26,4.88-1.91,9.84-3.59,14.74-5.44,1.64-.62,3.16-1.53,4.73-2.31,0,0-.14.09-.14.09,7.46-2.36,14.91-4.73,22.37-7.09Z"/>
      <path class="cls-1" d="M410.96,202.87c-4.87,2.02-9.75,4.05-14.62,6.07-7.05,2.11-14.18,4-21.14,6.39-5.54,1.91-10.86,4.44-16.28,6.7,0,0,.11-.05.11-.05-.67-1.01-1.34-2.02-2.01-3.03,0,0-.07.09-.07.09,6-1.81,12-3.62,18-5.42,12-3.59,24.01-7.17,36.01-10.75Z"/>
      <path d="M334.59,187.28c1.36-1.05,2.56-2.57,4.1-3.08,9.53-3.14,19.12-6.07,28.72-9.01.49-.15,1.15.22,1.98,1.58-11.52,3.63-23.04,7.27-34.56,10.9,0,0-.23-.39-.23-.39Z"/>
      <path d="M352.48,133.58c1.55-.25,3.1-.5,4.66-.76l.19.77c-10.31,3.37-20.63,6.74-31.63,10.34,3.99-7.41,11.18-7.21,17.38-8.89,3.14-.49,6.27-.97,9.41-1.46Z"/>
      <path class="cls-1" d="M87.8,134.93c3.87,1.52,7.75,3.03,11.62,4.55-.2.58-.39,1.15-.59,1.73-11.15-3.42-22.29-6.83-33.44-10.25l.41-1.76c3.55.9,7.12,1.77,10.66,2.7,3.83,1.01,7.64,2.07,11.45,3.11,0,0-.12-.08-.12-.08Z"/>
      <path class="cls-1" d="M291.85,120.95c8.64,3.27,17.29,6.53,25.93,9.8.81.31,1.61.65,2.42.98-.14.44-.27.89-.41,1.33-3.6-1.06-7.2-2.12-10.79-3.19-5.35-1.59-10.74-3.07-16.03-4.84-1.89-.63-4.78-1.67-1-4.02,0,0-.11-.06-.11-.06Z"/>
      <path class="cls-1" d="M315.99,168.03c-.99.85-1.99,1.7-2.98,2.56-3.71,1.26-7.41,2.53-11.12,3.79-2.35,0-4.71,0-8.62,0,2.24-1.13,3.21-1.77,4.28-2.13,4.69-1.59,9.37-3.22,14.13-4.57,1.3-.37,2.87.21,4.32.35Z"/>
      <path d="M139.95,156.7c-3.39,1.56-6.68,3.45-10.2,4.61-7.38,2.42-14.89,4.47-22.35,6.64-.6.17-1.27.11-2.24-.95,11.6-3.72,23.2-7.43,34.8-11.15,0,.28,0,.57,0,.85Z"/>
      <path d="M303,189.29c6.95-2.52,13.91-5.03,20.86-7.55l.83,2.43c-7.21,2.33-14.42,4.66-21.63,6.99-.02-.62-.04-1.24-.05-1.86Z"/>
      <path d="M299.93,135.34c5.78,1.18,11.59,2.24,17.31,3.67.84.21,1.23,2.2,1.82,3.37-.36.34-.72.68-1.09,1.02-5.98-2.62-11.96-5.25-17.94-7.87,0,0-.1-.19-.1-.19Z"/>
      <path d="M144.46,172.06c-.31.56-.49,1.47-.95,1.64-12.45,4.77-24.92,9.46-37.9,13.1,1.31-.65,2.58-1.42,3.95-1.92,9.2-3.36,18.42-6.64,27.62-10,1.37-.5,2.63-1.28,3.95-1.93,1.11-.3,2.21-.6,3.32-.9Z"/>
      <path d="M193.88,152.94c4.33,2.2,8.66,4.41,12.99,6.61-.16.36-.31.71-.47,1.07-9.5-4.09-18.99-8.18-28.49-12.27.03-.39.07-.78.1-1.17,5.29,1.92,10.57,3.84,15.86,5.76Z"/>
      <path class="cls-1" d="M186.68,57.07c.82-6.74,1.3-6.91,11.87-3.57-1.69,1.86-3.15,3.47-5.22,5.74-.56-2.43-.88-3.78-1.19-5.13l-1.09-1.13c-.74,2.06-1.48,4.12-2.23,6.18l-2.15-2.09Z"/>
      <path d="M262.01,205.9c-5.11-1.74-10.22-3.48-16.33-5.56,4.8-2.76,11.25-.57,15.34,3.82.33.58.66,1.16.99,1.73Z"/>
      <path d="M193.88,152.94c-5.29-1.92-10.57-3.84-15.86-5.76-2.24-1.16-4.49-2.33-6.72-3.48.62-.19,1.35-.7,1.84-.52,7.82,2.86,15.61,5.81,23.12,9.77h-2.38Z"/>
      <path class="cls-1" d="M145.28,132.13c6.55,2.9,13.11,5.8,19.66,8.69-3.57-1.06-7.21-1.93-10.69-3.21-4.77-1.76-9.43-3.85-13.95-6.46,1.66.33,3.32.65,4.98.98Z"/>
      <path d="M301.88,174.38c3.71-1.26,7.41-2.53,11.12-3.79,1.21.22,2.43.44,4.85.87-6.99,2.48-12.85,4.61-18.76,6.58-.9.3-2.06-.16-3.1-.28,1.96-1.13,3.92-2.26,5.88-3.39Z"/>
      <path class="cls-1" d="M290.87,167c-6.03-1.86-12.06-3.72-18.09-5.58.22-.63.43-1.26.65-1.89,5.94,2.1,11.89,4.2,17.83,6.31-.13.39-.26.78-.39,1.17Z"/>
      <path class="cls-1" d="M124.09,152.96c6.74-1.96,13.49-3.93,20.23-5.89.08.24.15.48.23.72-7.06,2.39-14.12,4.78-21.91,7.42.85-1.28,1.21-1.81,1.57-2.35,0,0-.11.1-.11.1Z"/>
      <path class="cls-1" d="M205.89,60.05c-.85-1.53-1.39-2.51-2.15-3.87-1.08,1.03-1.93,1.84-3.37,3.22v-5.47c2.73.76,5.12,1.43,7.99,2.23-.93,1.47-1.51,2.38-2.47,3.89Z"/>
      <path class="cls-1" d="M260.13,170.18c1.65-3.93,3.19-7.98,7.6-9.35.39.38.77.75,1.16,1.13-2.95,2.71-5.9,5.41-8.85,8.12,0,0,.09.1.09.1Z"/>
      <path class="cls-1" d="M379.39,205.05c-5.67,1.63-11.35,3.27-17.02,4.9-.1-.33-.19-.67-.29-1,5.7-1.66,11.4-3.32,17.1-4.98l.22,1.08Z"/>
      <path d="M161.75,75.19c10.21,2.53,20.44,5,30.62,7.64,4.9,1.27,9.71,2.86,14.56,4.31-.13.58-.27,1.15-.4,1.73-6.09-1.34-12.25-2.46-18.27-4.08-7.22-1.94-14.36-4.19-21.45-6.54-1.8-.6-3.31-2.08-4.96-3.14,0,0-.1.09-.1.09Z"/>
      <path d="M176.11,71.57c9.89-2.47,18.01,1.1,26.4,3.51-1.91,4.67-5.32,3.97-8.74,2.79-5.66-1.94-11.27-4.01-17.67-6.31Z"/>
      <path d="M154.92,145.06c12.25,4.5,24.49,9,37.32,13.71-1.12.8-1.42,1.15-1.55,1.09-11.91-4.94-23.8-9.92-35.7-14.89,0,0-.07.09-.07.09Z"/>
      <path d="M145.55,126.96c11.46,4.69,22.92,9.39,34.39,14.08-.16.39-.32.78-.48,1.17-11.48-4.65-22.96-9.3-34.44-13.95.18-.43.35-.87.53-1.3Z"/>
      <path d="M155.96,101.86c.57.78,1.14,1.57,2.51,3.44-4.85-1.27-8.71-2.28-12.85-3.36.51-1.76.9-3.13,1.45-5.03,3.09,1.33,6.05,2.6,9.01,3.88-.04.36-.08.72-.12,1.08Z"/>
      <path d="M169.81,64.2c8.67,2,17.36,3.93,26,6.03,3.6.87,7.11,2.11,10.33,4.27-9.03-2.42-18.08-4.79-27.1-7.29-3.1-.86-6.1-2.07-9.16-3.11,0,0-.09.1-.09.1Z"/>
      <path d="M205,71.13c-10.46-2.74-20.92-5.48-31.37-8.22.11-.43.22-.86.33-1.29,10.47,2.7,20.94,5.4,31.41,8.1-.12.47-.24.94-.36,1.41Z"/>
      <path d="M178.99,119.02c6.67,2.83,13.36,5.63,20.02,8.49,2.63,1.13,5.21,2.38,7.82,3.58-.24.5-.48,1-.72,1.51-9.02-4.54-18.05-9.08-27.07-13.62l-.04.05Z"/>
      <path d="M180.58,87.67c8.73,2.92,17.45,5.84,26.18,8.75-.17.49-.34.99-.51,1.48-8.68-3.07-17.35-6.14-26.03-9.21.12-.34.23-.68.35-1.02Z"/>
      <path d="M165.44,99.18l-15.71-5.21c.26-.73.52-1.46.78-2.19,5.1,2.14,10.2,4.27,15.3,6.41-.12.33-.25.66-.37,1Z"/>
      <path d="M205.61,177.77c-6.87-2.6-13.74-5.2-20.61-7.81l.4-1.07c6.9,2.51,13.81,5.02,20.71,7.53-.17.45-.33.9-.5,1.35Z"/>
      <path d="M195.97,131.17c-7.17-3.08-14.34-6.16-21.52-9.23.16-.38.32-.75.48-1.13,7.17,3.06,14.35,6.12,21.52,9.17-.16.4-.32.8-.48,1.19Z"/>
      <path d="M191.83,100.22c-7.16-2.41-14.33-4.82-21.49-7.23.13-.39.25-.78.38-1.18,7.18,2.38,14.35,4.76,21.53,7.15-.14.42-.27.84-.41,1.26Z"/>
      <path d="M178.15,129.71c6.32,2.84,12.65,5.68,18.97,8.52-.13.32-.27.64-.4.96-6.37-2.74-12.74-5.48-19.1-8.22.18-.42.36-.84.53-1.26Z"/>
      <path d="M205.9,139.02c-6.43-2.67-12.85-5.33-19.28-8l.46-1.13,19.29,7.99c-.16.38-.31.76-.47,1.14Z"/>
      <path d="M141.19,105.2c6.11,3,12.22,6.01,18.33,9.01-.17.36-.34.73-.51,1.09-6.13-2.92-12.26-5.84-18.38-8.76.19-.45.38-.9.57-1.34Z"/>
      <path d="M206.4,101.92c-6.03-2.34-12.06-4.67-18.08-7.01l.37-.97c6.03,2.32,12.07,4.64,18.1,6.97-.13.34-.26.68-.39,1.01Z"/>
      <path d="M155.96,101.86c.04-.36.08-.72.12-1.08,5.53,2.66,11.05,5.32,16.58,7.97,0,0,.12-.14.12-.14-5.61-2.25-11.21-4.51-16.82-6.76Z"/>
      <path d="M179.03,118.97c-6.12-2.2-12.24-4.41-18.36-6.61.23-.56.45-1.12.68-1.68,5.88,2.78,11.76,5.56,17.64,8.34,0,0,.04-.05.04-.05Z"/>
      <path d="M172.78,108.62s-.12.14-.12.14c5.44,2.04,10.87,4.07,16.31,6.11-.24.54-.48,1.09-.72,1.63-5.16-2.63-10.32-5.25-15.48-7.88Z"/>
      <path d="M204.79,209.29c-5.24-2.26-10.48-4.52-15.71-6.78.13-.31.26-.62.39-.92,5.38,2.15,10.76,4.3,16.14,6.46-.27.42-.54.83-.81,1.25Z"/>
      <path d="M160.85,78.9c5.51,1.78,11.02,3.56,16.53,5.34-.1.3-.19.61-.29.91-5.56-1.67-11.11-3.34-16.67-5.01.15-.41.29-.83.44-1.24Z"/>
      <path d="M121.06,218.94c-4.52,1.44-9.05,2.89-13.57,4.33-.16-.43-.31-.87-.47-1.3,23.21-8.59,46.42-17.19,69.63-25.78.22.41.43.82.65,1.23-1.27.66-2.5,1.43-3.83,1.97-6.51,2.63-13.11,5.05-19.56,7.82-5.75,2.46-11.33,5.31-17.03,7.9-1.18.54-2.53.68-3.81,1l-.18-.26c2.57-1.4,5.15-2.81,7.72-4.21-.11-.25-.23-.5-.34-.76-6.45,2.72-12.9,5.44-19.35,8.16l.14-.09Z"/>
      <path d="M114.92,237.12c15.11-9.74,32.4-13.81,49.08-19.47.25.66.5,1.31.75,1.97-16.45,6.21-32.9,12.43-49.36,18.64-.16-.38-.31-.76-.47-1.14Z"/>
      <path d="M141.36,220.53c-10.47,6.47-22.75,8.79-34.27,14.13-.14-1.65-.24-2.9-.34-4.02,11.38-3.97,22.66-7.91,33.94-11.85.22.58.44,1.16.67,1.74Z"/>
      <path d="M176.11,192.08c-2.22,1.04-4.37,2.24-6.66,3.1-19.57,7.35-39.16,14.64-58.75,21.92-1.15.43-2.37.65-3.9-.08,7.65-2.96,15.26-6.05,22.97-8.87,14.48-5.3,29.01-10.45,43.53-15.63.89-.32,1.92-.25,2.89-.36,0,0-.08-.09-.08-.09Z"/>
      <path d="M165.04,177.03c-3.62,1.54-7.17,3.23-10.86,4.59-14.98,5.53-29.99,10.96-45,16.4-.81.29-1.73.29-2.95-.65,2.36-.89,4.71-1.82,7.09-2.67,15.98-5.7,31.96-11.39,47.97-17.03,1.19-.42,2.54-.39,3.81-.57,0,0-.07-.08-.07-.08Z"/>
      <path d="M106.39,192.03c14.92-5.12,29.84-10.23,44.76-15.35.13.38.26.77.39,1.15-14.9,5.24-29.81,10.47-44.71,15.71l-.44-1.52Z"/>
      <path d="M106.78,177.53c12-3.86,24-7.72,36-11.58l.37,1.12c-11.99,3.96-23.97,7.92-35.96,11.88-.14-.47-.27-.95-.41-1.42Z"/>
      <path d="M143.04,188.01c-7.91,3.38-15.82,6.76-23.73,10.14-.2-.54-.41-1.09-.61-1.63,8.14-2.81,16.27-5.62,24.41-8.43,0,0-.06-.08-.06-.08Z"/>
      <path d="M175.19,213.93c3.61-1.49,7.22-2.97,11.41-4.7-1.62,4.72-4.42,6.22-10.54,6.39-.29-.56-.58-1.13-.87-1.69Z"/>
      <path d="M159.83,212.81c7-2.29,14.01-4.59,21.01-6.88.11.35.23.71.34,1.06-6.94,2.47-13.89,4.95-20.83,7.42-.17-.53-.35-1.06-.52-1.6Z"/>
      <path d="M133.08,216.11c-7.23,3.03-14.46,6.06-21.69,9.09-.14-.3-.29-.6-.43-.91,3.37-1.79,6.74-3.57,10.11-5.36,0,0-.14.09-.14.09,3.99-1.06,7.98-2.12,11.97-3.19,0,0,.18.26.18.26Z"/>
      <path d="M106.41,213.15c6.18-2.43,12.35-4.85,18.53-7.28.14.37.28.73.42,1.1-6.21,2.58-12.42,5.15-18.63,7.73-.11-.52-.22-1.03-.33-1.55Z"/>
      <path d="M161.05,193.02c-6.84,2.8-13.69,5.6-20.53,8.4-.21-.57-.41-1.14-.62-1.71,7.07-2.2,14.14-4.4,21.21-6.6,0,0-.06-.08-.06-.08Z"/>
      <path d="M105.72,173.94c5.25-1.64,10.5-3.29,15.75-4.93.13.4.26.8.39,1.2-5.23,1.71-10.46,3.41-15.69,5.12-.15-.46-.3-.92-.45-1.38Z"/>
      <path d="M188.1,218.98c-6.39,2.19-12.77,4.38-19.16,6.57,6.39-2.19,12.77-4.38,19.16-6.57Z"/>
      <path d="M8.73,213.19c5.97,1.92,11.99,3.66,17.89,5.78,21.72,7.82,43.39,15.77,65.07,23.68,1.49.54,2.93,1.23,4.4,1.85-.14.38-.28.76-.42,1.14-4.79-1.63-9.61-3.17-14.35-4.92-23.06-8.48-46.1-17.01-69.13-25.57-1.2-.45-2.23-1.35-3.35-2.04,0,0-.1.08-.1.08Z"/>
      <path d="M13.94,208.55c28.01,10.47,56.01,20.94,84.02,31.4-.18.48-.36.96-.53,1.44-28.02-10.44-56.03-20.88-84.05-31.32.19-.51.38-1.01.56-1.52Z"/>
      <path d="M9.57,215.78c27.51,10.08,55.01,20.17,82.52,30.25-.17.46-.33.92-.5,1.38-27.52-10.03-55.04-20.07-82.55-30.1.18-.51.36-1.02.54-1.54Z"/>
      <path d="M22.07,199.02c10.52,3.91,21,7.92,31.57,11.69,13.59,4.85,27.26,9.49,40.88,14.26.86.3,1.61.91,2.01,2.37-25.43-8.83-50.86-17.66-77.43-26.89,1.77-.77,2.43-1.05,3.08-1.34l-.11-.1Z"/>
      <path d="M14.64,204.3c1.78.11,3.71-.19,5.33.38,25.73,8.98,51.43,18.06,77.13,27.14.53.19.98.61,1.05,1.89-27.8-9.83-55.61-19.65-83.42-29.47,0,0-.09.07-.09.07Z"/>
      <path d="M22.18,199.12c-.99-3.55,1.3-1.65,2.33-1.31,9.46,3.14,18.9,6.34,28.34,9.54,14.63,4.96,29.26,9.93,43.88,14.92.71.24,1.36.67,1.78,2.04-1.1-.2-2.24-.26-3.28-.62-21.52-7.41-43.02-14.87-64.55-22.26-2.81-.97-5.74-1.61-8.6-2.4,0,0,.11.1.11.1Z"/>
      <path d="M95.09,218.67c-23.32-8.21-46.64-16.41-69.96-24.62.19-.54.37-1.08.56-1.61,23.31,8.24,46.62,16.48,69.92,24.72-.18.5-.35,1.01-.53,1.51Z"/>
      <path d="M95.96,207.95c.86.61,1.71,1.22,2.57,1.84-.17.4-.34.8-.5,1.2-22.91-8.22-45.81-16.44-68.72-24.66.11-.37.22-.73.33-1.1,6.48,1.95,12.95,3.89,19.43,5.84l-.14-.09c10.37,3.95,20.71,7.99,31.12,11.82,5.27,1.94,10.68,3.51,16.03,5.25l-.11-.09Z"/>
      <path d="M94.77,214.97c-22.44-7.97-44.89-15.94-67.33-23.91.18-.5.36-1,.54-1.5,22.52,8,45.03,16,67.55,23.99l-.75,1.42Z"/>
      <path d="M49.06,191.06c-5.88-2.4-11.75-4.8-17.63-7.2.14-.39.28-.79.43-1.18,22.35,7.89,44.7,15.78,67.05,23.67-.09.41-.18.82-.28,1.22-.89.13-1.79.25-2.68.38,0,0,.11.09.11.09-.63-.5-1.18-1.2-1.9-1.47-14.09-5.18-28.19-10.33-42.31-15.42-.89-.32-1.95-.13-2.94-.18,0,0,.14.09.14.09Z"/>
      <path d="M97.37,199.34c-20.2-7.15-40.4-14.31-60.6-21.46.16-.47.33-.94.49-1.41,20.22,7.1,40.44,14.2,60.66,21.3-.18.52-.37,1.05-.55,1.57Z"/>
      <path d="M97.39,204.36c-21.17-7.86-42.35-15.72-63.52-23.59.16-.44.31-.87.47-1.31,21.18,7.84,42.36,15.69,63.54,23.53-.16.45-.33.91-.49,1.36Z"/>
      <path d="M42.35,169.14c18.62,6.84,37.24,13.68,55.85,20.52-.18.5-.37,1-.55,1.49-18.61-6.87-37.21-13.74-55.82-20.61.17-.47.35-.93.52-1.4Z"/>
      <path d="M95.04,176.96c1.15.76,2.29,1.51,3.44,2.27-.18.4-.36.81-.54,1.21-16.42-6.34-32.84-12.67-49.26-19.01.06-.36.12-.73.18-1.09.96,0,1.92,0,2.87,0,4.03,1.52,8.06,3.05,12.08,4.57,10.41,4.02,20.82,8.03,31.23,12.05Z"/>
      <path d="M44.09,166.64c18.14,6.53,36.27,13.06,54.41,19.59-.18.5-.36,1-.55,1.49-18.12-6.58-36.23-13.17-54.35-19.75.16-.44.33-.89.49-1.33Z"/>
      <path d="M49.09,218.96c15.5,5.36,30.99,10.71,46.49,16.07-.16.45-.32.89-.47,1.34-15.48-5.39-30.97-10.78-46.45-16.18.15-.41.29-.82.44-1.24Z"/>
      <path class="cls-1" d="M95.04,176.96c-10.41-4.02-20.82-8.03-31.23-12.05,2.08.55,4.16,1.09,6.24,1.64,8.33,3.47,16.66,6.94,24.99,10.41Z"/>
      <path d="M63.2,182.77c11.59,4,23.18,7.99,34.77,11.99-.23.61-.45,1.22-.68,1.83l-34.45-13.4c.12-.14.24-.28.35-.42Z"/>
      <path d="M62.84,183.18c-8.11-2.62-16.22-5.24-24.33-7.85.2-.57.4-1.15.6-1.72,8.03,3.05,16.05,6.11,24.08,9.16-.12.14-.24.28-.35.42Z"/>
      <path d="M70.05,166.55c-2.08-.55-4.16-1.09-6.24-1.64-4.03-1.52-8.06-3.05-12.08-4.57-.96-.75-1.91-1.5-2.87-2.24,0,0-.1.1-.1.1,7.1,2.79,14.2,5.57,21.3,8.35Z"/>
      <path d="M15.38,205.73c6.33,2.42,12.65,4.83,18.98,7.25-.15.41-.31.82-.46,1.23-6.34-2.4-12.67-4.79-19.01-7.19.16-.43.32-.86.49-1.29Z"/>
      <path d="M342.01,204c-3.52,1.6-6.93,3.51-10.57,4.75-10.79,3.69-21.66,7.13-32.51,10.63-.49.16-1.12-.08-2.09-1.24,2.18-1.09,4.27-2.42,6.54-3.24,10.61-3.81,21.22-7.6,31.94-11.08,2.01-.65,4.5.14,6.76.27,0,0-.07-.09-.07-.09Z"/>
      <path d="M359.5,233.28c-20.38,7.14-40.75,14.27-61.13,21.41-.18-.53-.37-1.05-.55-1.58,20.43-7.03,40.87-14.06,61.3-21.09.13.42.25.84.38,1.26Z"/>
      <path d="M297.32,248.21c19.94-6.84,39.87-13.68,59.81-20.52.16.45.31.89.47,1.34-19.94,6.83-39.89,13.65-59.83,20.48-.15-.43-.3-.87-.45-1.3Z"/>
      <path d="M353.08,219.02c-4.89,1.84-9.74,3.84-14.69,5.5-13.03,4.37-26.1,8.6-39.16,12.87-.73.24-1.5.36-3.32.78,1.06-1.22,1.34-1.84,1.76-1.98,17.83-5.71,35.67-11.37,53.52-17.01.6-.19,1.31-.05,1.97-.07,0,0-.08-.09-.08-.09Z"/>
      <path d="M324.62,233.98c-1.03.97-1.89,2.41-3.11,2.84-7.78,2.73-15.63,5.24-23.46,7.82-.35-.35-.7-.71-1.05-1.06.88-.92,1.59-2.32,2.66-2.7,7.64-2.66,15.35-5.11,23.05-7.61.3-.1.65-.06.98-.09.31.27.62.53.93.8Z"/>
      <path d="M343.98,209.58c-15.7,5.52-31.4,11.03-47.1,16.55-.16-.44-.31-.88-.47-1.32,15.7-5.47,31.39-10.94,47.09-16.41.16.39.32.79.48,1.18Z"/>
      <path d="M315.82,225.74c-2.95,1.29-5.89,2.64-8.87,3.87-2.88,1.18-5.82,2.23-8.79,3.37-.49-.98-.98-1.96-1.87-3.75,6.01-1.31,11.73-2.57,17.45-3.82.69.11,1.39.22,2.08.33Z"/>
      <path d="M334.06,247c-11.13,4.05-22.26,8.09-33.39,12.14-.16-.47-.33-.93-.49-1.4,11.14-4.02,22.28-8.04,33.42-12.06.15.44.31.88.46,1.32Z"/>
      <path d="M315.82,225.74c-.7-.11-1.39-.22-2.08-.33,2.84-1.37,5.56-3.29,8.56-3.99,4.71-1.11,9.62-1.4,14.71-1.09-7.06,1.81-14.13,3.61-21.19,5.42Z"/>
      <path d="M296.35,186.89c8.1-3,16.19-5.99,24.29-8.99.16.42.32.84.48,1.26-8.07,3.06-16.14,6.13-24.22,9.19-.18-.49-.37-.97-.55-1.46Z"/>
      <path d="M295.45,211.98l18.89-6.5c.14.39.28.78.41,1.17l-18.63,6.87c-.22-.51-.44-1.03-.67-1.54Z"/>
      <path d="M296.53,195.45c5.71-1.8,11.41-3.59,17.12-5.39l.33,1c-5.69,1.92-11.38,3.84-17.07,5.76-.13-.46-.25-.92-.38-1.37Z"/>
      <path d="M379.84,163.95c-17.51,3.72-35.01,7.45-52.52,11.17-.1-.41-.19-.82-.29-1.22,4.88-1.08,9.82-1.95,14.63-3.29,11.05-3.07,22.01-6.45,33.06-9.5,1.61-.44,3.53.26,5.31.43-.06.81-.13,1.62-.19,2.42Z"/>
      <path d="M333.75,156.08c6.56-2.05,13.12-4.1,19.68-6.15.12.39.24.78.36,1.17-8.76,2.7-17.51,5.39-26.27,8.09-.32-.25-.64-.51-.97-.76.78-1.17,1.32-3.04,2.38-3.41,11.76-4.14,23.59-8.05,35.42-11.99.24-.08.6.17,2.09.66-11.58,4.03-22.21,7.74-32.85,11.44l.17.96Z"/>
      <path d="M352.06,156.34c6.11-2.35,12.2-4.78,18.38-6.93.65-.22,1.86,1.18,3.56,2.34-13.49,4.46-25.63,8.47-37.77,12.49-.08-.23-.17-.45-.25-.68,1.35-.86,2.7-1.72,4.05-2.58,4.01-1.55,8.02-3.1,12.03-4.64Z"/>
      <path d="M338.88,190.99c8.61-2.69,16.07-5.03,24.84-7.78-5.67,6.2-19.61,10.68-24.84,7.78Z"/>
      <path d="M373.07,182.68c-2.04.5-4.07.99-6.11,1.49-.16-.6-.33-1.21-.49-1.81,7.71-2.58,15.42-5.16,23.13-7.75l.47,1.02c-1.52.96-3.04,1.92-4.55,2.89-4.15,1.39-8.3,2.77-12.44,4.16Z"/>
      <path d="M331.01,148.03c-1.41.16-2.82.33-4.24.49-.11-.34-.21-.68-.32-1.02,11.89-3.82,23.78-7.63,35.66-11.45,0,0-.07-.07-.07-.07-1.99,1.36-3.99,2.71-5.99,4.07-8.35,2.66-16.71,5.32-25.06,7.98Z"/>
      <path d="M393,182.99c-11.08,3.35-22.17,6.7-33.25,10.06-.1-.34-.21-.67-.31-1.01,11.07-3.38,22.15-6.76,33.22-10.14.11.36.22.73.33,1.09Z"/>
      <path d="M352.06,156.34c-4.01,1.55-8.02,3.1-12.03,4.64-4.08.98-8.16,1.97-12.24,2.95-.12-.45-.24-.89-.36-1.34,8.21-2.09,16.42-4.17,24.63-6.26Z"/>
      <path class="cls-1" d="M331.01,148.03c8.35-2.66,16.71-5.32,25.06-7.98-2.55,1.3-5.1,2.6-7.65,3.9-1.74.32-3.5.57-5.21.98-4.08.97-8.15,2.01-12.22,3.03l.03.07Z"/>
      <path d="M355.26,163.1c-7.58,2.48-15.16,4.95-22.74,7.43-.11-.36-.23-.72-.34-1.09,7.56-2.53,15.12-5.07,22.69-7.6.13.42.27.84.4,1.26Z"/>
      <path d="M373.07,182.68c4.15-1.39,8.3-2.77,12.44-4.16,1.76-.36,3.53-.72,5.29-1.08.11.45.23.9.34,1.35-6.03,1.3-12.05,2.59-18.08,3.89Z"/>
      <path d="M330.97,147.96c4.07-1.01,8.14-2.06,12.22-3.03,1.72-.41,3.47-.66,5.21-.98-6.95,2.49-13.9,4.99-20.85,7.48-.12-.3-.24-.6-.37-.89,1.26-.86,2.52-1.72,3.78-2.58Z"/>
      <path d="M261.86,228.12c-10.39-4.66-20.78-9.32-31.17-13.98.29-.6.58-1.21.87-1.81,10.07,5.29,20.15,10.59,30.22,15.88l.08-.08Z"/>
      <path d="M261.02,218.98c7.83,3.06,15.66,6.1,23.47,9.22,1.88.75,3.65,1.79,5.47,2.69-.22.47-.44.93-.67,1.4-9.43-4.42-18.87-8.85-28.31-13.27,0,0,.03-.04.03-.04Z"/>
      <path d="M261.78,228.2c3.72,1.25,7.5,2.32,11.13,3.79,5.91,2.4,11.71,5.05,17.55,7.6-.22.5-.45.99-.67,1.49-9.31-4.32-18.62-8.65-27.93-12.97,0,0-.08.09-.08.09Z"/>
      <path d="M289.01,252.24c-5.49-2.45-10.98-4.89-16.47-7.34.16-.37.32-.74.48-1.11,5.48,2.43,10.97,4.86,16.45,7.29-.15.39-.31.77-.46,1.16Z"/>
      <path d="M410.96,202.87c-12,3.58-24.01,7.16-36.01,10.75-6,1.8-12,3.61-18,5.42,1.3-.88,2.49-2.12,3.93-2.58,15.67-5,31.38-9.9,47.1-14.75,1.04-.32,3.33-2.61,2.99,1.16Z"/>
      <path d="M358.92,222.03c5.42-2.25,10.74-4.79,16.28-6.7,6.95-2.4,14.08-4.29,21.14-6.39-12.47,4.36-24.95,8.73-37.42,13.09Z"/>
      <path d="M406.29,210.95c-7.46,2.36-14.91,4.73-22.37,7.09,7.46-2.36,14.91-4.73,22.37-7.09Z"/>
      <path d="M386.77,224.83c-6.26,2.12-12.53,4.23-18.79,6.35-.13-.4-.26-.8-.39-1.2,6.28-2.05,12.57-4.11,18.85-6.16.11.34.22.68.33,1.02Z"/>
      <path d="M271.26,189.06c1.36.27,2.73.55,4.09.82.09-.23.18-.46.27-.68-4.16-2.12-8.33-4.23-12.97-6.59,6.66.69,27.3,10.92,28.62,14.74-7.15-2.57-13.71-4.93-20.28-7.29.09-.34.17-.67.26-1.01Z"/>
      <path d="M268.2,170.49c7.18,2.93,14.37,5.86,21.55,8.79-.18.46-.36.92-.53,1.37-7.15-3.01-14.31-6.02-21.46-9.04.15-.38.29-.75.44-1.12Z"/>
      <path d="M269.95,164.04c6.86,2.54,13.73,5.07,20.59,7.61-.2.5-.39,1-.59,1.51-6.55-2.58-13.1-5.15-19.62-7.8-.24-.1-.2-.92-.28-1.41,0,0-.09.09-.09.09Z"/>
      <path d="M274.43,168.73c5.4,2.29,10.79,4.58,16.19,6.87-.18.43-.36.86-.54,1.28-5.41-2.31-10.82-4.61-16.23-6.92.19-.41.39-.82.58-1.24Z"/>
      <path d="M163.93,231.04c10.38-3.69,20.76-7.38,31.14-11.08-5.92,2.46-11.76,5.11-17.78,7.3-4.34,1.58-8.9,2.54-13.36,3.78Z"/>
      <path class="cls-1" d="M132.9,215.85c-3.99,1.06-7.98,2.12-11.97,3.19,6.45-2.72,12.9-5.44,19.35-8.16.11.25.23.5.34.76-2.57,1.4-5.15,2.81-7.72,4.21Z"/>
      <path class="cls-1" d="M48.92,190.97c.98.05,2.05-.14,2.94.18,14.12,5.09,28.22,10.24,42.31,15.42.72.26,1.27.97,1.9,1.47-5.35-1.74-10.76-3.31-16.03-5.25-10.41-3.83-20.75-7.87-31.12-11.82Z"/>
    </g>
  </g>
</svg>