<?xml version="1.0" encoding="UTF-8"?>
<svg id="Layer_1" xmlns="http://www.w3.org/2000/svg" viewBox="0 0 1024 1024">
  <defs>
    <style>
      .cls-1 {
        fill: #fff;
      }
    </style>
  </defs>
  <path class="cls-1" d="M1024,1024H0V0c341.33,0,682.67,0,1024,0v1024ZM546.54,475.94c1.99,1.6,3.97,3.2,5.81,4.68,1.04-2.62,2.12-4.85,2.77-7.21.33-1.17.38-3.12-.32-3.75-3.42-3.08-7.14-5.84-10.75-8.71-1.9-2.96-3.49-2.42-5.02.36-.81,1.47-1.81,2.84-2.35,3.66-2.32-2.85-4.33-5.32-6.63-8.15-.53.43.33-.02.28-.26-1.72-7.88-2.46-16.31-9.58-21.69-3.11-2.35-4.28-4.28-1.41-7.65.66-.77-.05-2.76-.22-4.17-.32-2.61-.75-5.2-1.05-7.81-.35-3.09,1.18-4.09,4.14-3.93,3.58.19,7.19.04,10.78.04-3.41-1.28-6.97-1.46-10.43-2.13-1.64-.32-3.11-1.55-4.66-2.36,1.13-1.56,1.95-3.59,3.46-4.57,2.99-1.95,6.37-3.32,9.58-4.93-4.39.45-8.24,2.24-12.28,3.34-1.77.48-3.93-.45-5.92-.74.57-1.42.97-2.94,1.76-4.23,1.84-2.98,3.88-5.84,5.83-8.75-3.36,2.28-6.09,5.02-8.14,8.19-1.97,3.04-4.62,2.55-7.01,1.78-1.26-.4-2.31-2.39-2.85-3.87-1.04-2.87-1.66-5.89-2.46-8.85-.42.1-.84.21-1.26.31.74,3.98,1.49,7.96,2.25,12.07-8,4.06-11.98-4.94-19.84-5.42,4.21,2.78,7.3,4.7,10.22,6.85.79.59,1.58,2.02,1.4,2.85-.17.79-1.53,1.63-2.52,1.88-4.65,1.21-7.44-1.19-8.66-6.39-1.97-8.39-4.33-16.69-6.5-25.04-.46-1.75-1.49-3.68-1.13-5.26,1.44-6.27-.41-11.66-2.84-17.34-.98-2.3-.07-7.82,1.28-8.32,6.95-2.54,4.19-6.9,3.38-11.18-2.04.22-3.76.4-6.36.68,2.65-7.03,4.99-13.21,7.32-19.39-1.44-.11-2.17.16-2.35.63-1.2,3.22-1.68,6.93-3.61,9.59-1.32,1.81-4.59,2.27-7.08,3.05-.3.09-1.78-2.25-1.67-2.36,1.54-1.45,3.15-2.91,4.98-3.94,1.1-.62,2.63-.49,5.19-.89-5.37-2.63-8.69-1.34-10.99,2.14-2.79,4.22-.1,7.36,3.68,10.8-3.4.15-5.91.26-8.4.37q-.86,9.32,13.09,11.86c-3.17.25-5.05.4-7.7.61-.24,4.72-.93,9.26-.6,13.73.76,10.29,5.7,19.81,5.6,30.4-.04,4.52,2.02,9.03,2.76,13.61.36,2.25.11,4.66-.24,6.95-1.05,6.84-2.52,13.62-3.3,20.49-.24,2.09.56,5.45,2.04,6.38,4.85,3.03,4.96,7.62,4.81,12.14-.19,5.74-3.77,12.11,3.96,15.82.09.04.1.31.1.47-.2,5.69,2.9,11.26-2.85,16.85-6.88,6.68-5.23,12.72,3.74,17.5-1.7,4.12-3.87,8.22-5.06,12.59-.91,3.34-1.77,7.5-.57,10.45,4.31,10.6,3.62,21.69,3.39,32.49-.2,9.33-.7,18.32,1.67,27.59,2.66,10.37,1.22,23.86-11.11,27.34-5.17,1.46-7.93,3.87-7.6,9.33,0,0,.08-.04.08-.04-.75,1.25-2.33,2.68-2.11,3.73,1.58,7.62,1.67,7.51-5.65,10.28-1.26.48-2.97,2.04-2.98,3.11-.03,2.88-.22,7.37,1.39,8.34,3.68,2.21,2.93,4.57,2.6,6.84-28.79,5.82-57.12,11.5-85.44,17.28-23.38,4.78-44.85,13.6-62.45,30.3-1.23,1.17-2.02,2.8-3.01,4.21-.13.12-.26.25-.38.38-4.34,4.62-9.25,8.83-12.92,13.92-11.59,16.07-10.42,30.62,4.11,44.14,14.21,13.21,29.97,24.45,48.5,30.96,24.14,8.48,49.37,12.41,74.56,15.79,29.51,3.96,59.23,6.4,88.87,9.42,38.15,3.88,76.27,6.45,114.62,2.01,24.35-2.82,48.48-6.17,71.76-14.25,17.44-6.05,35.42-10.87,51.26-20.66,6.54-4.04,13-8.96,17.85-14.83,8.52-10.32,7.48-21.14-1.45-31.16-1.76-1.97-3.73-3.86-5.91-5.35-19.87-13.51-40.74-25.34-63.17-33.92-44.43-16.98-90.64-27.62-137.17-36.96-1.49-.3-3.96-1.18-4.05-2.02-.66-5.76-.91-11.57-1.03-17.37-.01-.75,1.38-1.96,2.33-2.22,5.1-1.4,3.9-5.53,3.09-8.52-.38-1.42-3.7-2.29-5.82-2.94-1.46-.45-3.17-.09-5.59-.09.42-3.83.77-7.01,1.18-10.82-1.04-1.63-2.27-4.16-4.05-6.25-4.99-5.85-3.58-13.23-5.05-19.92-.1-.45.77-1.04.97-1.63.58-1.8,1.44-3.63,1.45-5.46.01-2.29-1.09-4.6-1.02-6.88.07-2.09,1.06-4.15,1.65-6.22.48-.8-.77-2.57-.43-2.96,3.3-3.85.55-7.8.49-11.67-.03-1.62-.65-4.09.15-4.72,3.11-2.46,1.92-5.4,1.62-8.25-1.05-9.93-2.2-19.84-3.27-29.77-.08-.72.12-1.47.21-2.44,1.66.77,2.89,1.35,4.6,2.15,1.68-4.03,3.27-7.67,4.71-11.37,1.37-3.5,2.42-6.81,6.12-9.16,2.49-1.58,3.52-5.46,5.2-8.32l-2.25.28c-2.05-2.53-4.09-5.06-6.14-7.59Z"/>
  <path class="cls-1" d="M300.58,700.96c.12-.13.25-.26.38-.38.79-.6,1.64-1.14,2.36-1.82,15.19-14.47,33.02-24.16,53.43-28.81,20.11-4.58,40.3-8.83,60.51-12.96,11.35-2.32,22.81-4.1,35-6.26-.36,5.1-.85,9.36-.94,13.64-.27,13-4.69,11.85-13.48,14.06-7.72,1.95-15.81,2.76-20.71,10.34-.64,1-2.08,1.73-3.29,2.07-6.93,1.96-13.92,3.75-20.87,5.64-8.81,2.41-17.65,4.72-26.37,7.44-1.48.46-3.2,2.68-3.41,4.27-.7,5.44-1.1,10.96-1.02,16.45.1,6.62-.42,12.6-7.75,15.36-.73.27-1.29,1.04-1.88,1.62-6.8,6.71-6.09,12.98,2.07,17.83,1.71,1.02,3.54,1.86,5.38,2.63,28.77,11.93,59.19,16.72,89.85,19.76,29.82,2.95,59.75,4.76,89.66,6.66,33.05,2.1,65.92.15,98.52-5.76,7.1-1.29,13.94-3.48,19.25-8.78,6.82-6.81,6.7-15.11-1.27-19.73-15.93-9.24-30.98-20.22-48.72-26.14-1.33-.44-2.8-2.59-2.93-4.06-.44-4.97-.28-9.99-.39-14.98-.08-3.82,1.15-8.68-.73-11.17-1.8-2.4-6.85-2.36-10.48-3.37-1.92-.53-3.86-.99-5.79-1.52-11.18-3.05-22.31-6.31-33.56-9.03-3.32-.8-3.19-2.63-3.29-5-.12-2.97-.02-6.01-.67-8.87-.66-2.88-2.13-5.58-3.56-9.14,2.59.14,3.58.05,4.51.26,33.9,7.65,67.92,14.59,101.28,24.64,31.79,9.57,61.8,22.65,90.05,39.92,4.1,2.51,8.16,5.23,11.73,8.43,12.92,11.55,13.73,25.68.57,36.95-8.44,7.23-18.49,13.25-28.78,17.5-33.16,13.71-67.31,23.58-103.43,26.76-30.33,2.67-60.5,3.59-90.78.73-24.87-2.35-49.7-5.15-74.59-7.17-34.27-2.77-68.1-8.1-101.55-15.91-24.75-5.78-45.29-19.13-63.35-36.35-12.19-11.62-13.26-24.73-4.09-38.81,3.88-5.97,8.73-11.3,13.15-16.93ZM677.57,790.66c-6.86,1.65-14.96,3.59-23.07,5.53,16.58-1.49,19.02-2.17,23.07-5.53Z"/>
  <path d="M300.58,700.96c-4.41,5.62-9.26,10.96-13.15,16.93-9.17,14.09-8.1,27.19,4.09,38.81,18.06,17.22,38.61,30.57,63.35,36.35,33.46,7.81,67.29,13.14,101.55,15.91,24.89,2.01,49.73,4.81,74.59,7.17,30.28,2.87,60.45,1.94,90.78-.73,36.12-3.18,70.28-13.05,103.43-26.76,10.29-4.25,20.34-10.28,28.78-17.5,13.16-11.28,12.36-25.41-.57-36.95-3.57-3.19-7.63-5.92-11.73-8.43-28.26-17.26-58.26-30.34-90.05-39.92-33.36-10.05-67.39-16.99-101.28-24.64-.93-.21-1.92-.12-4.51-.26,1.43,3.56,2.9,6.26,3.56,9.14.66,2.86.55,5.9.67,8.87.09,2.36-.03,4.19,3.29,5,11.26,2.72,22.38,5.98,33.56,9.03,1.92.52,3.87.98,5.79,1.52,3.63,1.01,8.67.98,10.48,3.37,1.88,2.5.65,7.35.73,11.17.11,5-.05,10.02.39,14.98.13,1.47,1.61,3.62,2.93,4.06,17.75,5.93,32.79,16.9,48.72,26.14,7.97,4.62,8.09,12.92,1.27,19.73-5.31,5.3-12.15,7.49-19.25,8.78-32.6,5.91-65.47,7.86-98.52,5.76-29.91-1.9-59.85-3.71-89.66-6.66-30.65-3.03-61.08-7.83-89.85-19.76-1.84-.76-3.67-1.61-5.38-2.63-8.16-4.85-8.87-11.12-2.07-17.83.59-.58,1.15-1.35,1.88-1.62,7.33-2.77,7.85-8.74,7.75-15.36-.08-5.48.31-11.01,1.02-16.45.21-1.59,1.92-3.8,3.41-4.27,8.71-2.72,17.56-5.03,26.37-7.44,6.95-1.9,13.94-3.68,20.87-5.64,1.21-.34,2.64-1.08,3.29-2.07,4.9-7.58,12.99-8.4,20.71-10.34,8.78-2.21,13.2-1.06,13.48-14.06.09-4.27.58-8.53.94-13.64-12.18,2.16-23.65,3.94-35,6.26-20.21,4.13-40.4,8.38-60.51,12.96-20.41,4.65-38.24,14.34-53.43,28.81-.71.68-1.57,1.21-2.36,1.82.99-1.42,1.78-3.05,3.01-4.21,17.6-16.71,39.07-25.53,62.45-30.3,28.31-5.79,56.65-11.47,85.44-17.28.33-2.27,1.08-4.63-2.6-6.84-1.61-.97-1.42-5.46-1.39-8.34.01-1.08,1.72-2.64,2.98-3.11,7.31-2.77,7.23-2.66,5.65-10.28-.22-1.05,1.36-2.48,2.1-3.73-2,4.61,2.07,4.15,4.17,4.46,10.53,1.56,21.1,2.8,31.66,4.16,2.7.35,5.4.68,8.1,1.02.17-.57.34-1.13.51-1.7-2.12-.77-4.19-1.94-6.38-2.25-8.56-1.22-17.17-2.06-25.73-3.25-4.16-.58-8.27-1.59-12.4-2.4-.33-5.46,2.43-7.87,7.6-9.33,12.33-3.48,13.77-16.96,11.11-27.34-2.37-9.27-1.87-18.26-1.67-27.59.23-10.81.92-21.9-3.39-32.49-1.2-2.95-.34-7.11.57-10.45,1.18-4.37,3.35-8.47,5.06-12.59-8.96-4.78-10.62-10.82-3.74-17.5,5.75-5.59,2.65-11.16,2.85-16.85,0-.16,0-.43-.1-.47-7.74-3.7-4.15-10.07-3.96-15.82.15-4.53.04-9.11-4.81-12.14-1.48-.93-2.27-4.29-2.04-6.38.78-6.87,2.25-13.65,3.3-20.49.35-2.28.6-4.7.24-6.95-.74-4.58-2.8-9.09-2.76-13.61.1-10.59-4.84-20.1-5.6-30.4-.33-4.47.36-9.02.6-13.73,2.64-.21,4.53-.36,7.7-.61q-13.94-2.54-13.09-11.86c2.49-.11,5-.22,8.4-.37-3.78-3.44-6.48-6.58-3.68-10.8,2.3-3.47,5.61-4.76,10.99-2.14-2.57.4-4.09.28-5.19.89-1.83,1.03-3.44,2.49-4.98,3.94-.11.11,1.37,2.45,1.67,2.36,2.49-.78,5.76-1.24,7.08-3.05,1.93-2.66,2.41-6.37,3.61-9.59.18-.48.91-.75,2.35-.63-2.33,6.18-4.67,12.36-7.32,19.39,2.6-.28,4.31-.46,6.36-.68.8,4.28,3.56,8.64-3.38,11.18-1.35.49-2.27,6.01-1.28,8.32,2.43,5.67,4.28,11.07,2.84,17.34-.36,1.59.67,3.51,1.13,5.26,2.18,8.34,4.53,16.64,6.5,25.04,1.22,5.2,4.01,7.6,8.66,6.39.98-.26,2.34-1.09,2.52-1.88.18-.83-.61-2.26-1.4-2.85-2.92-2.15-6.01-4.07-10.22-6.85,7.86.48,11.84,9.49,19.84,5.42-.77-4.11-1.51-8.09-2.25-12.07.42-.1.84-.21,1.26-.31.79,2.96,1.41,5.98,2.46,8.85.54,1.49,1.59,3.47,2.85,3.87,2.39.77,5.05,1.26,7.01-1.78,2.05-3.17,4.78-5.9,8.14-8.19-1.96,2.91-3.99,5.77-5.83,8.75-.79,1.28-1.18,2.81-1.76,4.23,1.98.29,4.14,1.22,5.92.74,4.04-1.1,7.89-2.89,12.28-3.34-3.22,1.61-6.59,2.98-9.58,4.93-1.51.98-2.33,3.01-3.46,4.57,1.55.82,3.02,2.05,4.66,2.36,3.46.67,7.02.85,10.43,2.13-3.59,0-7.2.14-10.78-.04-2.96-.16-4.5.84-4.14,3.93.3,2.61.73,5.2,1.05,7.81.17,1.42.88,3.4.22,4.17-2.87,3.36-1.7,5.29,1.41,7.65,7.11,5.38,7.86,13.8,9.58,21.69.05.25-.81.69-.28.26,2.3,2.82,4.31,5.3,6.63,8.15.53-.82,1.54-2.19,2.35-3.66,1.53-2.79,3.12-3.32,5.02-.36,0,0-.27.31-.27.31-1.28.69-3.05,1.06-3.75,2.14-3.35,5.15-5.73,10.5-5.76,17.04-.04,8.82-2.62,17.65.36,26.88.97-.62,1.88-.88,2.24-1.48,2.76-4.54,5.52-9.09,7.98-13.79.43-.83-.24-2.56-.88-3.57-4.22-6.69-3.98-8.01,2.58-12.45v-.09c2.03,2.53,4.08,5.06,6.13,7.59l2.25-.28c-1.68,2.85-2.71,6.73-5.2,8.32-3.71,2.36-4.75,5.66-6.12,9.16-1.44,3.7-3.03,7.33-4.71,11.37-1.71-.8-2.94-1.37-4.6-2.15-.09.97-.29,1.72-.21,2.44,1.08,9.92,2.22,19.84,3.27,29.77.3,2.85,1.49,5.79-1.62,8.25-.8.63-.18,3.1-.15,4.72.07,3.87,2.81,7.82-.49,11.67-.34.4.92,2.16.43,2.96-.59,2.07-1.58,4.13-1.65,6.22-.07,2.28,1.03,4.59,1.02,6.88,0,1.82-.87,3.66-1.45,5.46-.19.6-1.06,1.19-.97,1.63,1.47,6.68.06,14.07,5.05,19.92,1.78,2.08,3.01,4.62,4.05,6.25-.42,3.81-.76,6.99-1.18,10.82,2.42,0,4.13-.36,5.59.09,2.13.65,5.44,1.51,5.82,2.94.81,2.99,2.01,7.12-3.09,8.52-.95.26-2.34,1.47-2.33,2.22.12,5.8.36,11.61,1.03,17.37.1.83,2.57,1.72,4.05,2.02,46.53,9.34,92.74,19.97,137.17,36.96,22.43,8.57,43.3,20.41,63.17,33.92,2.18,1.48,4.15,3.37,5.91,5.35,8.94,10.02,9.97,20.84,1.45,31.16-4.85,5.88-11.31,10.79-17.85,14.83-15.84,9.79-33.83,14.61-51.26,20.66-23.27,8.08-47.4,11.43-71.76,14.25-38.35,4.44-76.48,1.88-114.62-2.01-29.64-3.02-59.36-5.46-88.87-9.42-25.18-3.38-50.42-7.31-74.56-15.79-18.53-6.51-34.29-17.74-48.5-30.96-14.54-13.52-15.7-28.07-4.11-44.14,3.68-5.1,8.58-9.31,12.92-13.92ZM472.76,630.28c.91,1.9,1.82,3.79,2.94,6.11,2.92-6.02,3.61-6.17,8.33-2.5-.29-2.09-.53-5.33-1.74-5.76-2.1-.73-4.83.17-7.24.64-.88.17-1.61,1.08-2.41,1.65.54-1.81,1.91-3.93-1.46-4.41-3.73-.53-7.47-.99-12.57-1.66.89,2.67,1.31,5.82,2.07,5.91,3.98.44,8.04.1,12.09,0ZM461.9,674.59c.92-2.09,2.43-4.13,2.65-6.29.43-4.25.23-8.58.13-12.87-.03-1.5-.53-2.99-.81-4.48-.65.14-1.29.28-1.94.42v23.24c-3.21-.15-6.41-.3-9.62-.45-.03.35-.07.71-.1,1.06,13.15,2.16,26.3,4.32,39.44,6.48.3-.68.59-1.36.89-2.04-1.41-.86-2.73-2.21-4.24-2.48-4.85-.87-9.77-1.44-14.68-1.92-3.89-.38-7.82-.45-11.71-.66ZM492.91,464.07c-.84,1.36-1.66,2.73-2.52,4.07-3.67,5.73-7.36,11.46-11.04,17.19.49.3.97.6,1.46.9,5.31-8.1,10.62-16.19,15.93-24.29-.21-.14-.43-.27-.64-.41-1.13.9-2.25,1.81-3.38,2.71.62-1.49,1.24-2.97,1.86-4.46-4.79,3.47-8.94,7.35-12.48,11.73-3.72,4.61-7.05,9.57-10.13,14.64-.84,1.38-.13,3.7-.13,5.42,7.29-9.52,14.17-18.51,21.06-27.51ZM532.77,646.81c-5.86,1.56-11.73,3.11-17.87,4.74.74,9.46,1.44,18.36,2.13,27.22,8.2-.24,11.73-2.22,11.37-6.09-3.09.89-6.14,1.77-8.65,2.5v-19.3l-1.66-.03v15.62c-.98-4.52-.62-9.01-1.08-13.42-.43-4.16,1.1-6.04,4.96-7.14,3.67-1.05,7.14-2.77,10.72-4.18,3.82-.1,4.51,1.98,4.34,5.4-.29,5.56-.08,11.15-.08,16.73.42,0,.84,0,1.26-.01v-23.58c-1.77.5-3.6,1.02-5.43,1.54ZM482.91,653c.28,7.29-1.04,14.69,1.66,21.86,1.14-6.61,1.23-13.19,1.01-19.76-.02-.68-1.86-1.3-2.85-1.94,3.28-.18,6.57-.35,10.28-.55v23.78c.47.02.93.04,1.4.06.61-8.13,1.23-16.26,1.84-24.33,3.22.43,4.97.67,6.72.9.03-.23.05-.46.08-.69-16.24-1.99-32.47-3.98-48.71-5.97-.14.49-.29.98-.43,1.47.83.43,1.62,1.16,2.48,1.24,7.08.66,14.19,1.07,21.26,1.84,1.81.2,3.51,1.37,5.27,2.1ZM371.43,706.71c-1.1.42-2.21.84-3.31,1.26-.01.41-.02.82-.04,1.24l14.44,4.96c1.23.96,2.31,2.27,3.7,2.82,8.79,3.49,18.53,5.46,26.25,10.53,9.46,6.21,19.16,5.19,29.15,5.35,23.58.39,47.2.12,70.72,1.45,12.68.72,24.7,0,36.65-4.2,5.45-1.91,11.22-2.89,16.84-4.3,0,0,.27.29.27.29-2.41.97-4.76,2.15-7.24,2.86-8.89,2.54-17.83,4.93-26.51,7.3v51.18c6.07,0,11.72-.2,17.36.03,30.09,1.26,59.94-.88,89.48-6.65,5.39-1.05,10.92-3.39,15.42-6.52,8.58-5.95,7.96-14.61-.91-20.01-8.24-5.02-16.71-9.66-25.01-14.58-8.7-5.16-17.63-9.67-26.66-11.22-1.5,3.55-2.79,6.62-4.09,9.69,2.99-10.83,1.69-12.61-8.11-11.06-.27.04-.5.41-.49.41v14.5c3.21-1.47,6-2.75,8.78-4.02-3.02,2.57-5.7,5.83-10.48,5.44,0-3.03-.15-5.8.03-8.54.29-4.49-.97-7.72-5.25-10.11-2.68-1.5-4.48-4.56-6.67-6.92,1.62,1.28,3.31,2.47,4.83,3.86,3.83,3.49,8.03,5.36,14.35,3.4-6.69-3.87-12.59-7.28-19.03-11.01v3.9c-1.86-.16-5.18-.86-5.35-.4-1.82,4.94-6.3,5.22-10.26,6.33-7.96,2.25-16.21,3.74-23.84,6.78-4.37,1.74-8.58,1.44-12.69,1.39-10.45-.13-20.89-1.71-31.34-1.83-20.15-.25-40.31.11-60.46.19-.48,0-.96-.38-1.74-.71.74-.41,1-.67,1.26-.67,25.49-.09,50.98-.17,76.46-.19,1.07,0,2.14.61,3.22.91,7.22-.6,14.51-.77,21.64-1.94,4.85-.8,9.48-2.94,14.17-4.57,8.9-3.08,17.78-6.23,26.68-9.34.61-.21,1.23-.52,1.85-.57,9.1-.7,14.65-7.4,21.15-12.49.16-.13.06-.59.15-2.09-12.03-2.62-24.25-5.34-36.5-7.87-1.32-.27-4.11.56-4.12.94-.06,2.01.37,4.1,1.02,6.03.23.69,1.56,1,2.78,1.71-5.38.22-6.47,3.64-7.38,7.63-.49,2.16-1.55,4.8-3.23,5.98-10.33,7.23-20.69,14.55-33.98,15.3-1.43.08-2.82.86-4.23,1.31-1.35-.62-2.68-1.73-4.04-1.77-17.98-.52-35.96-.86-53.94-1.3-4.08-.1-8.16-.39-12.24-.6,2.95-1.08,5.88-1.16,8.79-1.06,19.14.64,38.28,1.5,57.43,1.87,6.08.12,12.66.21,18.15-1.92,7.97-3.09,15.18-8.16,22.67-12.48,3.79-2.19,4.31-5.44,2.8-9.37-3.95,1.34-7.59,2.59-11.24,3.83-.08-.27-.15-.53-.23-.8,1.49-.86,2.98-1.72,4.29-2.48-1.43-2-2.67-3.73-3.6-5.03-1.05,1.94-2.03,3.75-3.01,5.55-.32-.2-.63-.41-.95-.61v-4.2c-2.09,2.14-3.12,4.49-4.43,6.66-1.74,2.87-3.57,5.7-5.62,8.35-1.25,1.61-2.76,3.5-4.56,4.12-12.28,4.31-24.64,2.05-36.96-.11-.26-.05-.43-.64-.72-1.09,7.54.84,14.84,1.66,22.12,2.47v-12.17c-15.62-2.4-30.83-4.73-46.17-7.08-.5,1.88-.9,3.39-1.42,5.36-4.89-.52-9.56-1.02-14.28-1.53.66,4.13,10.62,8.49,22.65,10.24,1.54-3.23-1.84-8.62,4.02-9.97,4.64-1.07,8.3,1.77,10.69,4.8,1.26,1.6-.34,5.45-.65,8.29-.4-.04-.8-.09-1.19-.13l-.43-5.99c-.27.01-.53.03-.8.04-.21,1.61-.43,3.21-.64,4.82-.27-.04-.54-.08-.81-.12v-6.65c-1.98-.11-3.64-.19-5.33-.28-.16,2.61-.28,4.54-.4,6.47-.47-.04-.95-.09-1.42-.13.29-3.2.58-6.41.87-9.61-.32-.04-.63-.07-.95-.11-.35,3.34-.71,6.69-1.14,10.8-8.15-2.44-15.96-4.53-23.51-7.31-1.24-.46-1.77-3.91-1.91-6.03-.16-2.35,1.2-4.93.65-7.1-.76-2.98-.49-4.62,1.93-6.84,2.07-1.9,2.79-5.27,4.11-7.99-.47-.34-.95-.69-1.42-1.03-2.41.51-4.84.94-7.22,1.54-2.17.55-5.37.63-6.25,2.06-4.78,7.8-11.86,11.03-20.46,12.82-7.57,1.57-14.86,4.47-22.28,6.78-7.29-1.99-14.02.03-20.64,2.87ZM484.1,547.91c-1.07.67-2.08,1.76-3.23,1.95-3.91.63-3.99,3.16-3.53,7.05,16.74-10.04,19.92-27.26,24.95-43.36l1.19.46c-2.1,7.24-4.2,14.48-6.35,21.86,6.64-3.68,9.78-8.81,10.16-16.45.54-10.78,2.34-21.49,3.46-32.25.84-8.09,1.45-16.2,2.16-24.31.34-3.5.69-7,1.03-10.5-5.45,6.94-11,13.68-14.5,21.36-6.94,15.22-13.12,30.82-18.89,46.52-3.24,8.81-4.79,18.18-2.9,28.17,2.24-.18,4.34-.35,6.44-.51ZM432.22,761.2c20.11-.37,37.42,7.52,55.06,14.51,5.12,2.03,10.99,2.29,16.56,2.98.99.12,3.16-1.6,3.18-2.5.21-13.61.14-27.22.14-41.48h-74.95v26.48ZM521.58,786.13c.12-.43.24-.87.36-1.3-5.52-1.56-11-4.27-16.55-4.42-8.72-.23-16.94-1.77-24.6-5.56-18.61-9.19-38.32-12.97-58.92-12.85-1.12,0-2.35-.16-3.35-.63-15.58-7.46-31.34-14.59-46.61-22.65-6.98-3.69-11.84-1.62-16.97,2.67-8.07,6.76-7.7,13.45,2.06,17.48,11.48,4.75,23.32,8.91,35.36,11.97,28.48,7.23,57.65,10.17,86.92,12.17,14.11.97,28.2,2.07,42.3,3.11ZM363.16,733.24c18.5,8.64,36.48,17.04,55.75,26.04,0-8.24-.44-15.56.17-22.79.35-4.23-1.22-5.92-4.7-7.24-15.03-5.71-30.01-11.56-45.02-17.3-1.43-.55-3.02-.71-4.87-1.13-.47,7.99-.9,15.26-1.33,22.41ZM501.26,572.37c8.72-4.81,16.47-8.86,23.92-13.39,1.32-.8,2.16-3.61,2.03-5.4-1.34-17.56-2.91-35.11-4.46-52.66-.5-5.64-1.1-11.27-1.67-16.96-1.18,1.93-2.24,3.58-3.22,5.28-2.99,5.21-7.87,8.87-8.12,16.21-.42,12.55-2.87,25.04-4.51,37.55-1.24,9.47-2.56,18.94-3.98,29.36ZM530.02,736.7c-7.21-.55-14.25-1.09-21.4-1.63v44.04c7.15,2.38,14.02,4.67,21.4,7.12v-49.53ZM505.17,532.8c-.37-.29-.74-.57-1.11-.86-3.08,3.31-7.75,6.13-8.93,10.01-3.69,12.17-6.31,24.7-8.83,37.19-.85,4.2-1.52,7.91-6.59,9.51,7.32,2.06,21.7-4.5,25.32-11.24-5.06-.96-5.39-4.6-4.82-8.69,1.65-11.97,3.31-23.95,4.97-35.92ZM444.65,693.31c-.17.62-.34,1.24-.52,1.86,2.69.95,5.31,2.32,8.09,2.79,11.95,2.05,23.91,4.14,35.94,5.62,8.63,1.07,17.34,3.84,26.08,1.05,12.64-4.03,25.22-8.27,37.72-12.72,1.51-.54,2.33-3,3.48-4.57-4.69.42-8.41,1.28-12.01,2.49-8.19,2.76-16.26,5.84-24.49,8.48-4.2,1.35-8.77,3.27-12.92,2.78-18.47-2.17-36.85-5.15-55.27-7.75-1.99-.28-4.06-.04-6.09-.04ZM469.17,350.82c-2.89,22.88-.69,45.85,6.5,68.3,4.75-6.22,7.01-12.43,1.18-19.48-1.28-1.55-1.17-4.38-1.4-6.65-.32-3.05-.15-6.15-.55-9.19-.86-6.51-3.06-13.07-2.62-19.46.38-5.59-.73-9.89-3.11-13.53ZM472.93,520.13c.39.01.77.03,1.16.04l10.48-25.65,1.49.63c-2.31,5.41-5.02,10.7-6.83,16.28-1.81,5.6-2.73,11.48-4.04,17.24.13-.03.25-.06.38-.09,7.77-19.85,15.54-39.69,23.34-59.63-.98,1.05-1.98,2.11-2.96,3.19-10.23,11.26-17.03,24.55-22.32,38.63-1.06,2.81-.51,6.23-.71,9.37ZM516.25,566.89c-.67-.19-1.34-.38-2.01-.57-.5,2.43-1.29,4.85-1.45,7.3-.71,11.27-1.38,22.55-1.78,33.83-.16,4.45.44,4.73,5.24,4.57v-45.14ZM522.99,478.05c-.2.09-.39.17-.59.26,2.15,23.82,4.3,47.64,6.46,71.61,9.12-3.87,9.65-7.52,2.55-13.77-.74-.65-1.23-1.89-1.34-2.9-1.63-15.38-3.1-30.77-4.8-46.14-.34-3.06-1.5-6.03-2.28-9.05ZM492.02,438.47c-.41-.08-.81-.15-1.22-.23-1.53,3.82-2.77,7.79-4.66,11.42-3.26,6.26-1.19,14.08-6.02,19.82-.09.11.22.56.63,1.56,6.88-7.97,13.52-15.67,20.17-23.36-.23-.29-.45-.58-.68-.88-2.64.98-5.28,1.96-8.22,3.05v-11.38ZM420.44,734.13v26.27h5.98v-25.9c-1.69-.1-3.44-.21-5.98-.36ZM602.34,707.98c-5.73,3.35-10.66,6.23-17.04,9.96,6.42,3.54,11.46,6.32,17.04,9.4v-19.35ZM505.41,632.19c-.17,3.81-.05,4.01,3.67,3.53,1.97-.26,4.24-.33,5.78-1.37,5.71-3.86,12.14-4.56,18.7-5.28,5.82-.63,6.35-1.81,4.6-7.31-10.72,3.42-21.45,6.83-32.75,10.43ZM502.42,621.49c-4.1-6.95-31.74-11.08-41.41-5.66,14.33,1.96,27.66,3.78,41.41,5.66ZM511.88,493.11c.61.17,1.23.34,1.84.51.34-2.23,1.22-4.53.92-6.66-.87-6.29,1.01-10.14,6.14-11.37-4.2-2.77-4.68-4.06-3.31-9.18.3-1.12.89-2.19,1.03-3.33.83-6.75,1.06-13.46-2.01-19.85-1.54,16.63-3.08,33.26-4.62,49.89ZM493.24,691.03c1.16-3.44.42-5.08-3.33-5.3-3.28-.19-6.52-1.06-9.78-1.56-5.24-.8-10.48-1.54-15.73-2.31-.27.57-.55,1.14-.82,1.71,1.37,1.38,2.57,3.73,4.13,3.99,8.41,1.43,16.91,2.35,25.53,3.47ZM533.93,536.07c-.58-16.64-2-32.67-6.12-48.31-.75.74-.93,1.4-.87,2.03,1.38,14.19,2.73,28.39,4.3,42.56.15,1.32,1.76,2.48,2.69,3.71ZM466.4,688.98c-.46,1.39-.78,2.33-1.29,3.86-2.49-7.34-8.55-4.57-12.97-5.55-1.2-.26-2.96,2.03-4.46,3.15.3.47.59.95.89,1.42,2.57-1.06,5.15-2.13,7.72-3.19.2.44.41.88.61,1.32-.88.44-1.76.88-3.64,1.82,8.16,1.2,15.28,2.14,22.36,3.33,3.7.62,7.36,1.88,10.22-3.5.3,2.45.43,3.59.57,4.73q4.69.35,4.28-3.63c-2.12-.42-4.27-1.35-6.27-1.09-1.69.22-3.21,1.81-5.27,3.09-.22-1.23-.51-2.83-.85-4.7-4.37,4.48-8.62,4.15-11.9-1.06ZM514.58,615.16c-.77,1.8-1.27,2.98-1.66,3.9-2.37.12-4.52-.02-6.55.42-.93.2-1.6,1.54-2.39,2.36,1.03.48,2.18,1.54,3.08,1.36,7.45-1.47,14.86-3.16,22.28-4.82,1.61-.36,3.2-.81,4.78-1.26,1.29-.36,2.57-.79,3.39-1.04-2.93-.58-5.88-1.16-8.85-1.75-3.88,3.99-8.61,3.98-14.07.82ZM522.47,710.94c-3.37,1.18-6.32,2.23-9.28,3.24q-5.52,1.88-4.51,5.64c3.02-.64,6.09-1.2,9.11-1.93,7.76-1.88,9.74-6.06,6.64-13.84-4.31,1.18-4.35,1.3-1.97,6.9ZM484.55,628.42c.68,2.24,1.05,5.72,1.87,5.83,5.7.77,11.44,3.32,17.39.99q-1.23-4.01-19.27-6.82ZM514.91,439.06c-.53-.11-1.07-.22-1.6-.33-7.62,12.17-15.25,24.34-22.87,36.5.4.27.8.54,1.21.81,7.57-11.08,15.17-22.14,22.65-33.29.63-.95.43-2.45.62-3.7ZM503.41,420.43c-4.11-2.72-1.11-4.98,1.71-8.61-3.8.51-6.06.82-8.55,1.15.6,1.85.81,3.03,1.35,4.03,1.27,2.38,2.31,6.1,4.17,6.6,1.85.5,4.87-1.95,6.83-3.71,1.24-1.11,2.39-3.68,1.91-4.97-.47-1.25-3.07-1.71-5-2.65-.93,3.17-1.63,5.52-2.41,8.16ZM582.78,715.7c1.86.11,2.81.47,3.37.15,4.87-2.81,9.71-5.67,14.45-8.69.8-.51,1.36-1.81,1.52-2.83.96-6.38-.77-7.84-9.36-7.55,1.82.52,3.36.55,4.25,1.32.98.84,1.8,2.34,1.9,3.61.08,1.08-.65,2.72-1.55,3.3-3.47,2.22-7.24,3.97-10.71,6.2-1.36.87-2.22,2.52-3.87,4.5ZM535.7,682.72c.36-.36.73-.71,1.09-1.07-1.23-.53-2.62-1.71-3.67-1.47-3.71.87-7.27,2.35-10.95,3.36-2.57.7-5.49,1.35-3.75,4.66.62,1.18,3.91,1.8,5.67,1.37,4.19-1.02,8.19-2.8,12.27-4.28-.06-.25-.13-.51-.19-.76l-16.25,4.22c-.09-.33-.17-.66-.26-.99,5.35-1.68,10.69-3.36,16.04-5.04ZM531.05,611.76c-.88-12.01-1.76-24.01-2.64-36.02-.27,12.12-4.87,24.67,2.64,36.02ZM525.6,640.7c-.25-.72-.51-1.44-.76-2.16-3.41.96-6.81,1.91-11.02,3.1,1.31-1.61,1.96-2.4,2.91-3.56-9.94,1.58-10.83,2.29-10.17,8.45,6.45-1.97,12.75-3.9,19.04-5.83ZM496.79,587.22c-4.99,7.84-1.66,17.62-6.58,26.28,4.96-1.34,7.65-12.74,6.58-26.28ZM451.14,679.64v5.53c3.92.57,7.74,1.12,12.76,1.84-1.24-2.61-2.1-4.43-3.02-6.36.95-.26,2.32-.63,3.69-1h-13.43ZM477.06,557.79c-.4.13-.8.26-1.2.39.63,6.4,1.25,12.81,1.94,19.81,1.6-4.58,4.91-9.48,3.67-11.37-4.25-6.47,5.92-4.97,4.21-9.09-2.01,1.13-4.15,2.32-6.24,3.49-.95-1.29-1.66-2.26-2.38-3.23ZM460.67,636.24c-.05.24-.1.49-.15.73h-8.5c-.04.56-.08,1.12-.12,1.68,7.57,1.1,15.14,2.19,22.71,3.29.18-.66.35-1.31.53-1.97-1.99-.59-3.96-1.32-5.98-1.73-1.95-.4-4.09-.12-5.93-.77-1.57-.56-2.83-2.01-4.23-3.06-.24.36-.48.72-.72,1.09l2.4.75ZM507.57,434.97c.32-2.75.6-5.13,1.01-8.56-2.94,2.67-7.77-2.65-9.11,3.68-.68-.53-1.3-1.03-2.41-1.9,2.18,5.95,4.05,7.09,10.52,6.78ZM525.5,613.94c-1.25-7.67-2.43-14.9-3.61-22.14-.24,0-.49,0-.73.01v22.5c1.45-.07,2.58-.07,3.7-.2.59-.07,1.17-.34.65-.18ZM493.56,545.72l-1.91-.63c-3.87,12.4-7.74,24.81-11.61,37.21.41.13.82.27,1.23.4l12.29-36.99ZM472.96,652.12c.24,7.73.46,14.62.67,21.52.73-.02,1.45-.04,2.18-.06,0-6.68.08-13.36-.14-20.03-.02-.57-2.02-1.08-2.71-1.43ZM519.26,442.07c3.65,12.85,7.04,24.82,10.49,36.96.57-6.33-6.55-32.13-10.49-36.96ZM548.31,673.98c-.13-.44-.25-.89-.38-1.33-11.77,3.29-23.54,6.58-35.32,9.87.17.61.34,1.22.52,1.82l35.18-10.36ZM518.84,603.68c.36-9.5.93-24.22,1.5-38.93-.5-.02-1-.03-1.5-.05v38.99ZM431.07,760.2l-1.26-24.79c-2.55,6.86-2.04,23.02,1.26,24.79ZM492.76,644.59c-1.08-2.31-1.35-3.77-1.88-3.88-4.27-.88-8.58-1.55-12.91-2.11-.46-.06-1.55,1.09-1.51,1.59.07.76.8,1.96,1.42,2.08,4.48.83,9,1.44,14.88,2.32ZM538.18,618.4c-11.15,2.45-22.3,4.9-33.45,7.35,11.81.46,22.73-3,33.45-7.35ZM514.3,411.88c-3.48-6.34-14.58-8.2-18.22-2.77,6,.91,12.31,1.87,18.22,2.77ZM490.04,421.68c.84-.11,1.68-.21,2.51-.32.32-3.41.82-6.84.67-10.23-.02-.36-3.95-.53-6.64-.86,1.34,4.43,2.4,7.92,3.46,11.41ZM504.15,646.19c1.71-7.19-4.04-5.93-7.28-8.57-.33,2.82-.57,4.86-.86,7.29,2.91.46,5.42.85,8.14,1.28ZM516.03,691.62c.06-.32.12-.64.18-.96-.91-.56-1.81-1.13-2.78-1.72.99-.72,1.83-1.32,3.01-2.17-8.69-.94-10.2-.02-9.31,4.85h8.9ZM505.17,687.91c-2.89-.43-5.16-1.05-7.39-.95-.88.04-1.7,1.66-2.55,2.57,2.8,1.15,5.61,2.31,8.63,3.55.5-1.98.82-3.21,1.31-5.16ZM486.87,646.49c.1-.36.2-.71.3-1.07-11.24-1.72-22.48-3.44-33.72-5.15-.06.41-.11.82-.17,1.23,11.19,1.67,22.39,3.33,33.58,5ZM505.05,698.98l.29-1.65c-3.2-.5-6.41-1.01-9.61-1.51.03-.27.07-.54.1-.81h6.56c-3.02.54-7.84-5.2-9.85,2.29,4.64.62,8.58,1.15,12.52,1.68ZM426.65,684.18c-6.7-1.32-5.68,5.96-9.58,7.51,4.67-.57,9.54-.86,9.58-7.51ZM527.74,650.78c-.64.07-1.27.13-1.91.2.33,6.57.66,13.14,1,19.71.3-.03.61-.05.91-.08v-19.84ZM521.14,465.56c-1.96,2.39-2.95,3.97-.33,6.73,2.37,2.5,3.58,6.11,5.25,9.25.61,1.15,1.1,2.37,1.64,3.56.47-.22.93-.43,1.4-.65-2.58-6.14-5.17-12.27-7.96-18.9ZM525.04,591.65c.5-9.02,1.05-19.16,1.61-29.3-.54-.03-1.07-.05-1.61-.08v29.38ZM487.61,591.59l-1.43-.56c-3.53,4.84-4.05,10.49-3.36,16.48,1.6-5.31,3.19-10.61,4.79-15.92ZM492.45,684.96c.09-.46.18-.91.27-1.37-7.98-1.23-15.95-2.47-23.93-3.7-.05.32-.1.64-.15.96,7.94,1.37,15.88,2.74,23.81,4.11ZM469.42,672.56c.32,0,.63,0,.95,0v-16.37c-.32.02-.63.04-.95.06v16.3ZM535.34,650c-.32.04-.63.09-.95.13v17.53c.32-.02.63-.04.95-.07v-17.59ZM479.95,624.73c-.09.33-.18.65-.28.98,7.29,1.18,14.57,2.35,21.86,3.53.07-.49.14-.98.21-1.47-7.26-1.01-14.53-2.03-21.79-3.04ZM469.99,416.97c-.51-.06-1.02-.12-1.53-.18-.45,3.68-.9,7.35-1.41,11.45,2.94-1.32,5.16-2.32,7.39-3.32-.08-.16-.16-.32-.24-.48-1.61.19-3.23.38-5.07.59.33-3.09.59-5.58.86-8.07ZM510.05,649.62c.06.31.12.62.18.94,7.27-1.92,14.53-3.84,21.8-5.76-.1-.4-.2-.79-.3-1.19-7.22,2.01-14.45,4.01-21.67,6.02ZM522.91,563.81c-.33.07-.65.13-.98.2v19.77c.33,0,.65,0,.98,0v-19.97ZM489.19,672.48c.31,0,.61.02.92.02v-13.19c-.31,0-.61.01-.92.02v13.15ZM490.13,424.51c-.41-.13-.82-.25-1.23-.38-1.63,4.96-3.26,9.91-4.89,14.87.51.16,1.02.31,1.53.47,1.53-4.99,3.06-9.98,4.59-14.97ZM530.59,637.25c.08.41.16.82.23,1.22,3.2-.47,6.4-.95,10.05-1.49-.37-1.68-.67-3.04-.77-3.5-3.33,1.32-6.42,2.54-9.51,3.76ZM492.83,408.2c0-.88.01-1.75.02-2.63h-7.06c.02.88,0,2.52.07,2.52,2.32.13,4.64.11,6.96.11ZM533.75,550.44c-.38-.24-.76-.47-1.14-.71-1.11,1.5-2.67,2.87-3.11,4.55-.17.64,2.22,1.95,4.25,3.64v-7.48ZM475.09,647.1l.29-.7c-2.22-.49-4.43-1.05-6.67-1.45-2.26-.4-4.53-.74-6.82-.9-2.08-.15-4.17-.03-6.26-.03.02.17.04.35.06.53,6.46.85,12.92,1.71,19.39,2.56Z"/>
  <path d="M546.54,475.94s.01.09.01.09c1.67.16,3.35.31,5.24.49,3.26-3.43,2.47-6.5-1.44-9.41-2.35-1.74-4.39-3.89-6.57-5.85l.27-.31c3.61,2.87,7.33,5.63,10.75,8.71.7.63.64,2.58.32,3.75-.65,2.35-1.73,4.58-2.77,7.21-1.84-1.48-3.82-3.08-5.81-4.68Z"/>
  <path d="M677.57,790.66c-4.04,3.36-6.49,4.04-23.07,5.53,8.1-1.94,16.21-3.89,23.07-5.53Z"/>
  <path class="cls-1" d="M392.07,703.84c7.42-2.31,14.71-5.21,22.28-6.78,8.6-1.79,15.68-5.02,20.46-12.82.88-1.43,4.08-1.51,6.25-2.06,2.38-.61,4.81-1.04,7.22-1.54.47.34.95.69,1.42,1.03-1.32,2.72-2.04,6.09-4.11,7.99-2.42,2.23-2.69,3.86-1.93,6.84.55,2.17-.8,4.75-.65,7.1.14,2.12.67,5.58,1.91,6.03,7.55,2.78,15.36,4.86,23.51,7.31.44-4.11.79-7.46,1.14-10.8.32.04.63.07.95.11-.29,3.2-.58,6.41-.87,9.61.47.04.95.09,1.42.13.12-1.93.24-3.86.4-6.47,1.69.09,3.35.18,5.33.28v6.65c.27.04.54.08.81.12.21-1.61.43-3.21.64-4.82.27-.01.53-.03.8-.04l.43,5.99c.4.04.8.09,1.19.13.31-2.84,1.91-6.7.65-8.29-2.39-3.03-6.05-5.87-10.69-4.8-5.86,1.35-2.48,6.74-4.02,9.97-12.03-1.75-22-6.11-22.65-10.24,4.72.51,9.39,1,14.28,1.53.52-1.97.92-3.48,1.42-5.36,15.34,2.35,30.55,4.69,46.17,7.08v12.17c-7.28-.81-14.58-1.63-22.12-2.47.28.45.45,1.05.72,1.09,12.32,2.15,24.68,4.41,36.96.11,1.79-.63,3.31-2.51,4.56-4.12,2.05-2.64,3.88-5.48,5.62-8.35,1.32-2.17,2.34-4.52,4.43-6.66v4.2c.32.2.63.41.95.61.98-1.81,1.96-3.61,3.01-5.55.93,1.3,2.17,3.03,3.6,5.03-1.31.76-2.8,1.62-4.29,2.48.08.27.15.53.23.8,3.65-1.24,7.3-2.48,11.24-3.83,1.51,3.94,1,7.18-2.8,9.37-7.48,4.32-14.7,9.39-22.67,12.48-5.49,2.13-12.07,2.03-18.15,1.92-19.15-.37-38.29-1.23-57.43-1.87-2.92-.1-5.84-.01-8.79,1.06,4.08.2,8.16.5,12.24.6,17.98.44,35.96.78,53.94,1.3,1.36.04,2.7,1.15,4.04,1.77v-.02c-1.07-.32-2.14-.93-3.21-.93-25.49.02-50.98.1-76.46.19-.26,0-.51.26-1.26.67.79.33,1.27.71,1.74.71,20.15-.08,40.31-.43,60.46-.19,10.45.13,20.88,1.7,31.34,1.83,4.11.05,8.31.35,12.69-1.39,7.64-3.04,15.88-4.53,23.84-6.78,3.95-1.12,8.43-1.39,10.26-6.33.17-.46,3.49.24,5.35.4l-.16-.15c2.2,2.36,4,5.43,6.68,6.93,4.28,2.4,5.55,5.62,5.25,10.11-.18,2.75-.03,5.51-.03,8.54,4.78.39,7.46-2.87,10.48-5.44l-.18.18c1.3-3.07,2.59-6.14,4.09-9.7,9.03,1.55,17.97,6.06,26.66,11.22,8.3,4.93,16.77,9.57,25.01,14.58,8.87,5.4,9.49,14.06.91,20.01-4.5,3.13-10.03,5.47-15.42,6.52-29.53,5.77-59.39,7.91-89.48,6.65-5.63-.24-11.29-.03-17.36-.03v-51.18c8.68-2.38,17.62-4.76,26.51-7.3,2.48-.71,4.83-1.9,7.24-2.86,2.55-.33,5.29-1.41,7.62-.84,5.58,1.37,3.07,6.29,3.03,9.62-.07,5.06,2.34,6.6,6.88,6.66-9.12-2.59-4.49-9.61-5.03-14.93-4.11-2.58-8.08-7.31-12.76-.8-5.62,1.4-11.4,2.39-16.84,4.3-11.96,4.19-23.98,4.92-36.65,4.2-23.53-1.33-47.14-1.06-70.72-1.45-9.98-.16-19.69.86-29.15-5.35-7.72-5.07-17.46-7.04-26.25-10.53-1.39-.55-2.47-1.86-3.7-2.82,8.2,2.97,16.4,5.93,24.6,8.9l-.22-.14c7.39,5.91,16.17,4.63,24.67,4.78,3.22.06,6.44,0,8.05,0-4.18-1.35-9.74-3.04-15.23-4.94-10.15-3.53-20.3-7.07-30.34-10.88-1.91-.72-3.34-2.71-5-4.11,1.01-1.32,2.02-2.64,3.03-3.95Z"/>
  <path class="cls-1" d="M432.22,761.2v-26.48h74.95c0,14.26.06,27.87-.14,41.48-.01.9-2.19,2.62-3.18,2.5-5.57-.69-11.44-.95-16.56-2.98-17.64-6.99-34.95-14.88-55.06-14.51Z"/>
  <path class="cls-1" d="M521.58,786.13c-14.1-1.04-28.2-2.15-42.3-3.11-29.26-2-58.43-4.94-86.92-12.17-12.03-3.06-23.88-7.22-35.36-11.97-9.76-4.03-10.14-10.72-2.06-17.48,5.13-4.29,9.98-6.36,16.97-2.67,15.27,8.06,31.02,15.2,46.61,22.65.99.48,2.23.64,3.35.63,20.6-.12,40.31,3.66,58.92,12.85,7.67,3.79,15.88,5.33,24.6,5.56,5.55.15,11.04,2.86,16.55,4.42-.12.43-.24.87-.36,1.3Z"/>
  <path class="cls-1" d="M363.16,733.24c.42-7.16.85-14.43,1.33-22.41,1.85.42,3.43.58,4.87,1.13,15.02,5.74,30,11.58,45.02,17.3,3.48,1.32,5.05,3.01,4.7,7.24-.6,7.23-.17,14.55-.17,22.79-19.27-9-37.25-17.4-55.75-26.04Z"/>
  <path class="cls-1" d="M501.26,572.37c1.41-10.42,2.73-19.88,3.98-29.36,1.64-12.51,4.09-25,4.51-37.55.25-7.34,5.12-11,8.12-16.21.98-1.7,2.04-3.35,3.22-5.28.56,5.69,1.17,11.32,1.67,16.96,1.55,17.55,3.12,35.09,4.46,52.66.14,1.79-.71,4.6-2.03,5.4-7.46,4.52-15.2,8.58-23.92,13.39Z"/>
  <path class="cls-1" d="M511.14,729.86c1.41-.45,2.8-1.23,4.23-1.31,13.3-.75,23.66-8.07,33.98-15.3,1.68-1.18,2.74-3.82,3.23-5.98.91-3.99,2-7.4,7.38-7.63-1.22-.71-2.55-1.02-2.78-1.71-.65-1.93-1.09-4.02-1.02-6.03.01-.38,2.8-1.21,4.12-.94,12.25,2.52,24.47,5.25,36.5,7.87-.09,1.5.01,1.96-.15,2.09-6.5,5.09-12.05,11.79-21.15,12.49-.63.05-1.24.35-1.85.57-8.89,3.11-17.77,6.26-26.68,9.34-4.7,1.63-9.33,3.78-14.17,4.57-7.13,1.17-14.42,1.34-21.64,1.94,0,0,0,.03,0,.03Z"/>
  <path class="cls-1" d="M530.02,736.7v49.53c-7.38-2.46-14.25-4.74-21.4-7.12v-44.04c7.16.55,14.19,1.08,21.4,1.63Z"/>
  <path class="cls-1" d="M484.1,547.91c-2.1.17-4.2.33-6.44.51-1.89-9.99-.34-19.36,2.9-28.17,5.77-15.71,11.95-31.31,18.89-46.52,3.5-7.68,9.04-14.42,14.5-21.36-.34,3.5-.69,7-1.03,10.5l.14.15v-6.5c-1.01,1.81-1.44,2.32-1.61,2.91-4.86,17.22-9.38,34.55-14.63,51.65-3.82,12.48-8.59,24.68-12.93,37,0,0,.21-.17.21-.17Z"/>
  <path class="cls-1" d="M505.17,532.8c-1.66,11.97-3.32,23.95-4.97,35.92-.56,4.09-.24,7.72,4.82,8.69-3.62,6.74-18,13.3-25.32,11.24,5.07-1.6,5.75-5.31,6.59-9.51,2.52-12.49,5.13-25.02,8.83-37.19,1.18-3.88,5.86-6.7,8.93-10.01.37.29.74.57,1.11.86Z"/>
  <path class="cls-1" d="M512.91,462.86c-.71,8.1-1.32,16.22-2.16,24.31-1.12,10.76-2.92,21.47-3.46,32.25-.38,7.64-3.52,12.77-10.16,16.45,2.14-7.38,4.25-14.62,6.35-21.86l-1.19-.46c-5.03,16.1-8.21,33.32-24.95,43.36-.46-3.9-.39-6.42,3.53-7.05,1.15-.19,2.16-1.27,3.23-1.95,0,0-.21.17-.21.17,1.21-1.19,2.98-2.16,3.53-3.61,2.68-6.95,5.27-13.95,7.46-21.06,6.17-20.1,12.13-40.26,18.17-60.39l-.14-.15Z"/>
  <path class="cls-1" d="M444.65,693.31c2.03,0,4.1-.24,6.09.04,18.42,2.6,36.8,5.58,55.27,7.75,4.15.49,8.72-1.43,12.92-2.78,8.22-2.64,16.3-5.72,24.49-8.48,3.6-1.21,7.31-2.07,12.01-2.49-1.14,1.57-1.97,4.03-3.48,4.57-12.5,4.46-25.07,8.69-37.72,12.72-8.74,2.79-17.45.01-26.08-1.05-12.03-1.49-23.99-3.57-35.94-5.62-2.77-.48-5.4-1.84-8.09-2.79.17-.62.34-1.24.52-1.86Z"/>
  <path class="cls-1" d="M543.78,461.26c2.18,1.96,4.23,4.11,6.57,5.85,3.92,2.91,4.7,5.98,1.44,9.41-1.9-.18-3.57-.33-5.24-.49-6.56,4.44-6.79,5.77-2.58,12.45.64,1.01,1.31,2.74.88,3.57-2.46,4.7-5.23,9.25-7.98,13.79-.36.6-1.27.86-2.24,1.48-2.98-9.23-.4-18.06-.36-26.88.03-6.54,2.4-11.89,5.76-17.04.7-1.07,2.47-1.44,3.75-2.14Z"/>
  <path class="cls-1" d="M469.17,350.82c2.38,3.64,3.49,7.94,3.11,13.53-.44,6.4,1.76,12.95,2.62,19.46.4,3.03.23,6.14.55,9.19.24,2.27.12,5.1,1.4,6.65,5.83,7.05,3.56,13.26-1.18,19.48-7.2-22.45-9.39-45.43-6.5-68.3Z"/>
  <path class="cls-1" d="M472.93,520.13c.19-3.14-.35-6.55.71-9.37,5.28-14.08,12.08-27.37,22.32-38.63.98-1.08,1.98-2.13,2.96-3.19-7.8,19.94-15.57,39.78-23.34,59.63-.13.03-.25.06-.38.09,1.31-5.76,2.23-11.65,4.04-17.24,1.81-5.58,4.52-10.86,6.83-16.28l-1.49-.63-10.48,25.65c-.39-.02-.77-.03-1.16-.04Z"/>
  <path class="cls-1" d="M392.07,703.84c-1.01,1.32-2.02,2.64-3.03,3.95-3.28,4.01,1.27,4.18,2.81,4.76,9.78,3.72,19.71,7.07,29.57,10.57,1.7.6,3.34,1.37,5.01,2.05-.15.55-.31,1.1-.46,1.65-3.83-.59-7.69-1.07-11.49-1.81-2.57-.5-5.06-1.38-7.59-2.09,0,0,.22.14.22.14-6.32-2.74-12.61-5.54-18.95-8.21-4.94-2.08-9.94-4.01-14.91-6,.06-.38.11-.76.17-1.14,1.58-.45,3.16-.89,4.75-1.34l-.12-.55c-2.2.29-4.41.59-6.61.88,6.62-2.85,13.35-4.86,20.64-2.87Z"/>
  <path class="cls-1" d="M516.25,566.89v45.14c-4.8.17-5.4-.11-5.24-4.57.4-11.28,1.07-22.56,1.78-33.83.16-2.46.95-4.87,1.45-7.3.67.19,1.34.38,2.01.57Z"/>
  <path class="cls-1" d="M522.99,478.05c.78,3.01,1.94,5.99,2.28,9.05,1.7,15.37,3.17,30.76,4.8,46.14.11,1.02.6,2.25,1.34,2.9,7.1,6.26,6.57,9.91-2.55,13.77-2.16-23.96-4.31-47.78-6.46-71.61.2-.09.39-.17.59-.26Z"/>
  <path class="cls-1" d="M492.02,438.47v11.38c2.94-1.09,5.58-2.07,8.22-3.05.23.29.45.58.68.88-6.64,7.7-13.29,15.4-20.17,23.36-.42-1-.73-1.45-.63-1.56,4.83-5.74,2.76-13.56,6.02-19.82,1.89-3.63,3.13-7.6,4.66-11.42.41.08.81.15,1.22.23Z"/>
  <path class="cls-1" d="M420.44,734.13c2.54.15,4.29.26,5.98.36v25.9h-5.98v-26.27Z"/>
  <path class="cls-1" d="M602.34,707.98v19.35c-5.57-3.07-10.61-5.85-17.04-9.4,6.38-3.73,11.31-6.61,17.04-9.96Z"/>
  <path class="cls-1" d="M505.41,632.19c11.3-3.6,22.03-7.02,32.75-10.43,1.74,5.5,1.21,6.68-4.6,7.31-6.56.72-12.99,1.42-18.7,5.28-1.54,1.04-3.81,1.11-5.78,1.37-3.72.49-3.84.29-3.67-3.53Z"/>
  <path class="cls-1" d="M502.42,621.49c-13.75-1.88-27.08-3.7-41.41-5.66,9.67-5.42,37.31-1.29,41.41,5.66Z"/>
  <path class="cls-1" d="M482.9,653c-1.75-.73-3.45-1.91-5.26-2.1-7.07-.77-14.17-1.19-21.26-1.84-.86-.08-1.66-.81-2.48-1.24.14-.49.29-.98.43-1.47,16.24,1.99,32.47,3.98,48.71,5.97-.03.23-.05.46-.08.69-1.75-.23-3.5-.47-6.72-.9-.61,8.08-1.22,16.21-1.84,24.33-.47-.02-.93-.04-1.4-.06v-23.78c-3.71.2-6.99.38-10.28.55l.17-.15Z"/>
  <path class="cls-1" d="M511.88,493.11c1.54-16.63,3.08-33.26,4.62-49.89,3.07,6.39,2.84,13.1,2.01,19.85-.14,1.13-.73,2.21-1.03,3.33-1.37,5.11-.9,6.41,3.31,9.18-5.14,1.23-7.02,5.08-6.14,11.37.3,2.14-.58,4.44-.92,6.66-.61-.17-1.23-.34-1.84-.51Z"/>
  <path class="cls-1" d="M493.24,691.03c-8.62-1.12-17.12-2.03-25.53-3.47-1.56-.27-2.76-2.61-4.13-3.99.27-.57.55-1.14.82-1.71,5.24.77,10.49,1.51,15.73,2.31,3.27.5,6.5,1.36,9.78,1.56,3.76.22,4.49,1.86,3.33,5.3Z"/>
  <path class="cls-1" d="M533.93,536.07c-.93-1.23-2.55-2.39-2.69-3.71-1.57-14.17-2.92-28.37-4.3-42.56-.06-.64.12-1.3.87-2.03,4.12,15.63,5.54,31.67,6.12,48.31Z"/>
  <path class="cls-1" d="M466.4,688.98c3.28,5.22,7.52,5.54,11.9,1.06.34,1.87.63,3.48.85,4.7,2.07-1.28,3.58-2.87,5.27-3.09,2-.26,4.15.67,6.27,1.09q.41,3.98-4.28,3.63c-.14-1.14-.28-2.28-.57-4.73-2.85,5.39-6.52,4.13-10.22,3.5-7.08-1.19-14.2-2.13-22.36-3.33,1.88-.94,2.76-1.38,3.64-1.82-.2-.44-.41-.88-.61-1.32-2.57,1.06-5.15,2.13-7.72,3.19-.3-.47-.59-.95-.89-1.42,1.5-1.12,3.26-3.42,4.46-3.15,4.42.98,10.48-1.79,12.97,5.55.51-1.53.83-2.48,1.29-3.86Z"/>
  <path class="cls-1" d="M458.53,616.51c4.13.82,8.24,1.83,12.4,2.4,8.56,1.18,17.17,2.03,25.73,3.25,2.19.31,4.26,1.48,6.38,2.25-.17.57-.34,1.13-.51,1.7-2.7-.34-5.4-.68-8.1-1.02-10.56-1.35-21.13-2.6-31.66-4.16-2.1-.31-6.16.15-4.17-4.46,0,0-.07.03-.07.03Z"/>
  <path class="cls-1" d="M532.67,646.71c-3.56,1.43-7.03,3.15-10.7,4.19-3.85,1.1-5.39,2.99-4.96,7.14.46,4.41.1,8.9,1.08,13.42v-15.62l1.66.03v19.3c2.51-.73,5.56-1.61,8.65-2.5.36,3.87-3.17,5.85-11.37,6.09-.69-8.86-1.39-17.76-2.13-27.22,6.15-1.63,12.01-3.19,17.87-4.74l-.11-.1Z"/>
  <path class="cls-1" d="M598.1,738.02c-2.78,1.28-5.57,2.55-8.78,4.02v-14.5s.22-.37.49-.41c9.8-1.56,11.1.23,8.11,11.06,0,0,.18-.17.18-.17Z"/>
  <path class="cls-1" d="M492.9,464.07c-6.88,8.99-13.77,17.98-21.06,27.5,0-1.72-.71-4.04.13-5.42,3.07-5.07,6.4-10.03,10.13-14.64,3.54-4.38,7.69-8.26,12.48-11.73-.62,1.49-1.24,2.97-1.86,4.46l.18-.17Z"/>
  <path class="cls-1" d="M461.89,674.59c3.91.21,7.83.28,11.73.66,4.91.48,9.83,1.05,14.68,1.92,1.51.27,2.83,1.62,4.24,2.48-.3.68-.59,1.36-.89,2.04-13.15-2.16-26.3-4.32-39.44-6.48.03-.35.07-.71.1-1.06,3.21.15,6.41.3,9.62.45,0,0-.04-.01-.04-.01Z"/>
  <path class="cls-1" d="M514.58,615.16c5.47,3.16,10.19,3.16,14.07-.82,2.97.59,5.91,1.17,8.85,1.75-.82.25-2.09.67-3.39,1.04-1.59.45-3.18.9-4.78,1.26-7.42,1.65-14.83,3.34-22.28,4.82-.9.18-2.05-.88-3.08-1.36.79-.82,1.47-2.15,2.39-2.36,2.03-.44,4.18-.31,6.55-.42.39-.92.89-2.1,1.66-3.9Z"/>
  <path class="cls-1" d="M522.47,710.94c-2.39-5.59-2.35-5.72,1.97-6.9,3.1,7.78,1.12,11.96-6.64,13.84-3.02.73-6.09,1.3-9.11,1.93q-1.02-3.77,4.51-5.64c2.96-1.01,5.91-2.06,9.28-3.24Z"/>
  <path class="cls-1" d="M484.55,628.42q18.04,2.81,19.27,6.82c-5.95,2.34-11.7-.22-17.39-.99-.83-.11-1.2-3.59-1.87-5.83Z"/>
  <path class="cls-1" d="M514.91,439.06c-.19,1.25.01,2.75-.62,3.7-7.48,11.14-15.08,22.2-22.65,33.29-.4-.27-.8-.54-1.21-.81,7.62-12.17,15.25-24.34,22.87-36.5.53.11,1.07.22,1.6.33Z"/>
  <path class="cls-1" d="M503.41,420.43c.78-2.64,1.47-4.99,2.41-8.16,1.94.94,4.54,1.4,5,2.65.48,1.29-.67,3.86-1.91,4.97-1.96,1.76-4.97,4.21-6.83,3.71-1.86-.5-2.9-4.22-4.17-6.6-.53-1-.74-2.17-1.35-4.03,2.49-.34,4.76-.64,8.55-1.15-2.82,3.62-5.82,5.89-1.71,8.61Z"/>
  <path class="cls-1" d="M582.78,715.7c1.66-1.97,2.52-3.62,3.87-4.5,3.47-2.22,7.24-3.98,10.71-6.2.9-.57,1.63-2.21,1.55-3.3-.1-1.27-.92-2.77-1.9-3.61-.9-.77-2.43-.8-4.25-1.32,8.59-.29,10.32,1.17,9.36,7.55-.15,1.02-.72,2.32-1.52,2.83-4.74,3.02-9.58,5.89-14.45,8.69-.56.32-1.51-.04-3.37-.15Z"/>
  <path class="cls-1" d="M535.7,682.72c-5.35,1.68-10.69,3.36-16.04,5.04.09.33.17.66.26.99l16.25-4.22c.06.25.13.51.19.76-4.08,1.48-8.08,3.27-12.27,4.28-1.76.43-5.05-.19-5.67-1.37-1.74-3.31,1.18-3.96,3.75-4.66,3.68-1,7.24-2.49,10.95-3.36,1.05-.25,2.44.94,3.67,1.47-.36.36-.73.71-1.09,1.07Z"/>
  <path class="cls-1" d="M531.05,611.76c-7.52-11.34-2.91-23.89-2.64-36.02.88,12.01,1.76,24.01,2.64,36.02Z"/>
  <path class="cls-1" d="M525.6,640.7c-6.3,1.93-12.6,3.86-19.04,5.83-.66-6.16.23-6.87,10.17-8.45-.95,1.16-1.59,1.95-2.91,3.56,4.21-1.18,7.62-2.14,11.02-3.1.25.72.51,1.44.76,2.16Z"/>
  <path class="cls-1" d="M496.79,587.22c1.07,13.55-1.62,24.94-6.58,26.28,4.92-8.66,1.59-18.45,6.58-26.28Z"/>
  <path d="M371.43,706.71c2.2-.29,4.41-.59,6.61-.88l.12.55c-1.58.45-3.16.89-4.75,1.34-.06.38-.11.76-.17,1.14,4.97,1.99,9.97,3.92,14.91,6,6.34,2.67,12.64,5.47,18.95,8.21-8.2-2.97-16.4-5.93-24.6-8.9l-14.44-4.96c.01-.41.02-.82.04-1.24,1.1-.42,2.21-.84,3.31-1.26Z"/>
  <path class="cls-1" d="M575.88,718.02v-3.9c6.44,3.72,12.34,7.14,19.03,11.01-6.32,1.96-10.52.09-14.35-3.4-1.52-1.39-3.22-2.58-4.84-3.86,0,0,.16.15.16.15Z"/>
  <path class="cls-1" d="M472.73,630.31c-4.03.07-8.09.41-12.07-.04-.76-.08-1.18-3.24-2.07-5.91,5.1.67,8.84,1.12,12.57,1.66,3.37.48,2,2.6,1.46,4.41l.11-.12Z"/>
  <path class="cls-1" d="M451.14,679.64h13.43c-1.37.37-2.74.74-3.69,1,.92,1.94,1.78,3.75,3.02,6.36-5.01-.72-8.83-1.27-12.76-1.84v-5.53Z"/>
  <path class="cls-1" d="M477.06,557.79c.71.97,1.42,1.93,2.38,3.23,2.1-1.17,4.23-2.36,6.24-3.49,1.71,4.12-8.46,2.62-4.21,9.09,1.25,1.9-2.07,6.79-3.67,11.37-.68-7-1.31-13.4-1.94-19.81.4-.13.8-.26,1.2-.39Z"/>
  <path class="cls-1" d="M460.67,636.24l-2.4-.75c.24-.36.48-.72.72-1.09,1.4,1.05,2.66,2.5,4.23,3.06,1.83.65,3.97.38,5.93.77,2.03.41,3.99,1.14,5.98,1.73-.18.66-.35,1.31-.53,1.97-7.57-1.1-15.14-2.19-22.71-3.29.04-.56.08-1.12.12-1.68h8.5c.05-.24.1-.49.15-.73Z"/>
  <path class="cls-1" d="M507.57,434.97c-6.47.31-8.34-.83-10.52-6.78,1.11.87,1.73,1.36,2.41,1.9,1.34-6.34,6.17-1.01,9.11-3.68-.4,3.44-.68,5.81-1.01,8.56Z"/>
  <path class="cls-1" d="M525.5,613.94c.52-.16-.05.11-.65.18-1.12.12-2.25.13-3.7.2v-22.5c.24,0,.49,0,.73-.01,1.18,7.23,2.36,14.47,3.61,22.14Z"/>
  <path class="cls-1" d="M493.56,545.72l-12.29,36.99c-.41-.13-.82-.27-1.23-.4,3.87-12.4,7.74-24.81,11.61-37.21l1.91.63Z"/>
  <path class="cls-1" d="M472.96,652.12c.69.34,2.69.85,2.71,1.43.22,6.67.14,13.35.14,20.03-.73.02-1.45.04-2.18.06-.22-6.89-.43-13.79-.67-21.52Z"/>
  <path class="cls-1" d="M519.26,442.07c3.94,4.83,11.05,30.64,10.49,36.96-3.45-12.15-6.84-24.11-10.49-36.96Z"/>
  <path class="cls-1" d="M461.93,674.6v-23.24c.65-.14,1.29-.28,1.94-.42.28,1.49.78,2.98.81,4.48.1,4.29.3,8.62-.13,12.87-.22,2.16-1.72,4.2-2.65,6.29,0,0,.03.01.03.01Z"/>
  <path class="cls-1" d="M548.31,673.98l-35.18,10.36c-.17-.61-.34-1.22-.52-1.82,11.77-3.29,23.54-6.58,35.32-9.87.13.44.25.89.38,1.33Z"/>
  <path class="cls-1" d="M518.84,603.68v-38.99c.5.02,1,.03,1.5.05-.57,14.71-1.13,29.43-1.5,38.93Z"/>
  <path class="cls-1" d="M431.07,760.2c-3.3-1.77-3.81-17.94-1.26-24.79l1.26,24.79Z"/>
  <path class="cls-1" d="M492.76,644.59c-5.88-.88-10.4-1.49-14.88-2.32-.62-.11-1.34-1.32-1.42-2.08-.05-.5,1.04-1.65,1.51-1.59,4.32.56,8.64,1.24,12.91,2.11.54.11.8,1.56,1.88,3.88Z"/>
  <path class="cls-1" d="M538.18,618.4c-10.72,4.35-21.64,7.81-33.45,7.35,11.15-2.45,22.3-4.9,33.45-7.35Z"/>
  <path class="cls-1" d="M514.3,411.88c-5.91-.9-12.22-1.86-18.22-2.77,3.64-5.43,14.74-3.57,18.22,2.77Z"/>
  <path class="cls-1" d="M490.04,421.68c-1.06-3.49-2.11-6.98-3.46-11.41,2.69.33,6.62.51,6.64.86.16,3.39-.35,6.82-.67,10.23-.84.11-1.68.21-2.51.32Z"/>
  <path class="cls-1" d="M472.62,630.43c.8-.57,1.53-1.48,2.41-1.65,2.42-.47,5.15-1.37,7.24-.64,1.22.42,1.46,3.66,1.74,5.76-4.72-3.67-5.41-3.52-8.33,2.5-1.12-2.32-2.03-4.22-2.95-6.1-.01.01-.12.14-.12.14Z"/>
  <path class="cls-1" d="M492.72,464.24c1.13-.9,2.25-1.81,3.38-2.71.21.14.43.27.64.41-5.31,8.1-10.62,16.19-15.93,24.29-.49-.3-.97-.6-1.46-.9,3.68-5.73,7.37-11.46,11.04-17.19.86-1.34,1.68-2.71,2.51-4.07,0,0-.18.17-.18.17Z"/>
  <path class="cls-1" d="M504.15,646.19c-2.72-.43-5.23-.82-8.14-1.28.29-2.43.52-4.47.86-7.29,3.25,2.63,9,1.38,7.28,8.57Z"/>
  <path class="cls-1" d="M482.73,653.16c.99.65,2.83,1.26,2.85,1.94.22,6.57.13,13.16-1.01,19.76-2.69-7.17-1.37-14.58-1.66-21.86,0,0-.18.15-.18.15Z"/>
  <path class="cls-1" d="M516.03,691.62h-8.9c-.88-4.87.63-5.79,9.31-4.85-1.18.85-2.02,1.45-3.01,2.17.96.6,1.87,1.16,2.78,1.72-.06.32-.12.64-.18.96Z"/>
  <path class="cls-1" d="M505.17,687.91c-.5,1.95-.81,3.19-1.31,5.16-3.02-1.24-5.83-2.4-8.63-3.55.85-.9,1.66-2.53,2.55-2.57,2.23-.09,4.5.53,7.39.95Z"/>
  <path class="cls-1" d="M486.87,646.49c-11.19-1.67-22.39-3.33-33.58-5,.06-.41.11-.82.17-1.23,11.24,1.72,22.48,3.44,33.72,5.15-.1.36-.2.71-.3,1.07Z"/>
  <path class="cls-1" d="M505.05,698.98c-3.94-.53-7.87-1.06-12.52-1.68,2.02-7.49,6.84-1.75,9.85-2.29h-6.56c-.03.27-.07.54-.1.81,3.2.5,6.41,1.01,9.61,1.51l-.29,1.65Z"/>
  <path class="cls-1" d="M426.65,684.18c-.03,6.64-4.9,6.94-9.58,7.51,3.9-1.54,2.87-8.82,9.58-7.51Z"/>
  <path class="cls-1" d="M527.74,650.78v19.84c-.3.03-.61.05-.91.08-.33-6.57-.66-13.14-1-19.71.64-.07,1.27-.13,1.91-.2Z"/>
  <path class="cls-1" d="M521.14,465.56c2.79,6.63,5.37,12.76,7.96,18.9-.47.22-.93.43-1.4.65-.54-1.19-1.02-2.41-1.64-3.56-1.67-3.14-2.88-6.76-5.25-9.25-2.62-2.76-1.63-4.34.33-6.73Z"/>
  <path class="cls-1" d="M525.04,591.65v-29.38c.54.03,1.07.05,1.61.08-.56,10.14-1.12,20.28-1.61,29.3Z"/>
  <path class="cls-1" d="M487.61,591.59c-1.6,5.31-3.19,10.61-4.79,15.92-.69-5.99-.18-11.64,3.36-16.48l1.43.56Z"/>
  <path class="cls-1" d="M492.45,684.96c-7.94-1.37-15.88-2.74-23.81-4.11.05-.32.1-.64.15-.96,7.98,1.23,15.95,2.47,23.93,3.7-.09.46-.18.91-.27,1.37Z"/>
  <path class="cls-1" d="M469.42,672.56v-16.3c.32-.02.63-.04.95-.06v16.37c-.32,0-.63,0-.95,0Z"/>
  <path class="cls-1" d="M535.34,650v17.59c-.32.02-.63.04-.95.07v-17.53c.32-.04.63-.09.95-.13Z"/>
  <path class="cls-1" d="M479.95,624.73c7.26,1.01,14.53,2.03,21.79,3.04-.07.49-.14.98-.21,1.47-7.29-1.18-14.57-2.35-21.86-3.53.09-.33.18-.65.28-.98Z"/>
  <path class="cls-1" d="M469.99,416.97c-.27,2.49-.53,4.98-.86,8.07,1.85-.22,3.46-.4,5.07-.59.08.16.16.32.24.48-2.23,1-4.45,2-7.39,3.32.5-4.1.96-7.78,1.41-11.45.51.06,1.02.12,1.53.18Z"/>
  <path class="cls-1" d="M532.77,646.81c1.83-.52,3.65-1.04,5.43-1.54v23.58c-.42,0-.84,0-1.26.01,0-5.58-.21-11.17.08-16.73.18-3.41-.51-5.5-4.34-5.4,0,0,.1.09.1.09Z"/>
  <path class="cls-1" d="M510.05,649.62c7.22-2.01,14.45-4.01,21.67-6.02.1.4.2.79.3,1.19-7.27,1.92-14.53,3.84-21.8,5.76-.06-.31-.12-.62-.18-.94Z"/>
  <path class="cls-1" d="M522.91,563.81v19.97c-.33,0-.65,0-.98,0v-19.77c.33-.07.65-.13.98-.2Z"/>
  <path class="cls-1" d="M489.19,672.48v-13.15c.31,0,.61-.01.92-.02v13.19c-.31,0-.61-.02-.92-.02Z"/>
  <path class="cls-1" d="M490.13,424.51c-1.53,4.99-3.06,9.98-4.59,14.97-.51-.16-1.02-.31-1.53-.47,1.63-4.96,3.26-9.91,4.89-14.87.41.13.82.25,1.23.38Z"/>
  <path class="cls-1" d="M530.59,637.25c3.09-1.22,6.18-2.44,9.51-3.76.1.46.4,1.82.77,3.5-3.65.54-6.85,1.01-10.05,1.49-.08-.41-.16-.82-.23-1.22Z"/>
  <path class="cls-1" d="M492.83,408.2c-2.32,0-4.65.02-6.96-.11-.07,0-.05-1.64-.07-2.52h7.06c0,.88-.01,1.75-.02,2.63Z"/>
  <path class="cls-1" d="M533.75,550.44v7.48c-2.04-1.68-4.42-3-4.25-3.64.44-1.67,2-3.05,3.11-4.55.38.24.76.47,1.14.71Z"/>
  <path class="cls-1" d="M475.09,647.1c-6.46-.85-12.92-1.71-19.39-2.56-.02-.17-.04-.35-.06-.53,2.09,0,4.18-.12,6.26.03,2.28.17,4.56.5,6.82.9,2.24.39,4.44.96,6.67,1.45l-.29.7Z"/>
  <path d="M406.89,722.94c2.53.71,5.02,1.59,7.59,2.09,3.8.74,7.66,1.22,11.49,1.81.15-.55.31-1.1.46-1.65-1.67-.69-3.31-1.45-5.01-2.05-9.87-3.5-19.79-6.85-29.57-10.57-1.54-.59-6.09-.76-2.81-4.76,1.65,1.4,3.09,3.38,5,4.11,10.04,3.81,20.19,7.36,30.34,10.88,5.49,1.91,11.05,3.59,15.23,4.94-1.61,0-4.83.05-8.05,0-8.5-.15-17.28,1.13-24.67-4.78Z"/>
  <path d="M565.83,725.82c4.68-6.5,8.65-1.77,12.76.8.54,5.32-4.1,12.34,5.03,14.93-4.54-.06-6.95-1.6-6.88-6.66.05-3.32,2.55-8.25-3.03-9.62-2.33-.57-5.07.51-7.62.84,0,0-.27-.29-.27-.29Z"/>
  <path d="M513.05,463.02c-6.04,20.13-12,40.3-18.17,60.39-2.19,7.12-4.78,14.11-7.46,21.06-.56,1.44-2.32,2.42-3.53,3.61,4.34-12.32,9.11-24.52,12.93-37,5.24-17.11,9.77-34.43,14.63-51.65.17-.59.59-1.1,1.61-2.91v6.5Z"/>
</svg>